<?xml version="1.0" standalone="no"?>
<!DOCTYPE svg PUBLIC "-//W3C//DTD SVG 1.1//EN" "http://www.w3.org/Graphics/SVG/1.1/DTD/svg11.dtd" >
<svg xmlns="http://www.w3.org/2000/svg" xmlns:xlink="http://www.w3.org/1999/xlink" version="1.1">
<metadata>
Created by FontForge 20170731 at Mon Feb 12 03:07:39 2018
 By Aleksey,,,
Copyright (c) 2018 by S-Core Co., Ltd.. All rights reserved.
</metadata>
<defs>
<font id="S-CoreDream-3Light" horiz-adv-x="960" >
  <font-face 
    font-family="S-Core Dream 3 Light"
    font-weight="300"
    font-stretch="normal"
    units-per-em="1000"
    panose-1="2 11 3 3 3 3 2 2 2 4"
    ascent="800"
    descent="-200"
    x-height="559"
    cap-height="781"
    bbox="-30 -261 1154 1017"
    underline-thickness="50"
    underline-position="-200"
    unicode-range="U+0020-FFE6"
  />
<missing-glyph horiz-adv-x="289" 
 />
    <glyph glyph-name=".notdef" horiz-adv-x="289" 
 />
    <glyph glyph-name=".null" horiz-adv-x="0" 
 />
    <glyph glyph-name="nonmarkingreturn" horiz-adv-x="333" 
 />
    <glyph glyph-name="_1" unicode=" " horiz-adv-x="289" 
 />
    <glyph glyph-name="_2" unicode="!" horiz-adv-x="299" 
d="M176 230h-53l-5 415v136h64v-136zM183 105v-101h-67v101h67z" />
    <glyph glyph-name="_3" unicode="&#x22;" horiz-adv-x="374" 
d="M280 559h-57v222h57v-222zM152 559h-58v222h58v-222z" />
    <glyph glyph-name="_4" unicode="#" horiz-adv-x="717" 
d="M376 4l50 229h-203l-50 -229h-59l50 229h-125v51h136l47 216h-145v51h156l50 230h58l-50 -230h204l50 230h58l-50 -230h125v-51h-136l-48 -216h146v-51h-156l-50 -229h-58zM280 500l-47 -216h203l48 216h-204z" />
    <glyph glyph-name="_5" unicode="$" horiz-adv-x="624" 
d="M285 -93v85q-108 8 -167 67.5t-59 147.5v23h64v-24q0 -63 43 -106t119 -51v330l-36 8q-190 39 -190 201q0 85 59.5 143t166.5 62v85h50v-86q100 -9 155.5 -65.5t55.5 -138.5v-17h-64v17q0 61 -38.5 100t-108.5 47v-306l32 -7q208 -42 208 -215q0 -91 -63 -151t-177 -65
v-84h-50zM349 366l-14 2v-320q82 4 129 48t47 110q0 64 -38.5 103t-123.5 57zM123 588q0 -116 144 -145l18 -3v296q-77 -4 -119.5 -44t-42.5 -104z" />
    <glyph glyph-name="_6" unicode="%" horiz-adv-x="863" 
d="M299 4h-55l319 777h55zM371 585q0 -210 -153 -210t-153 210q0 209 153 209t153 -209zM317 585q0 163 -99 163q-100 0 -100 -163q0 -88 25.5 -126t74.5 -38q48 0 73.5 38t25.5 126zM492 200q0 210 153 210q74 0 113.5 -52.5t39.5 -157.5q0 -209 -153 -209t-153 209z
M545 200q0 -88 25.5 -125.5t74.5 -37.5q48 0 73.5 37.5t25.5 125.5q0 164 -99 164q-49 0 -74.5 -38t-25.5 -126z" />
    <glyph glyph-name="_7" unicode="&#x26;" horiz-adv-x="702" 
d="M309 794q87 0 140 -47t53 -129v-22h-62v21q0 58 -35.5 90t-95.5 32t-95 -32t-35 -90q0 -38 16 -70t60 -77l275 -283q39 82 44 202h62q-3 -147 -60 -249l132 -136h-80l-86 87q-86 -100 -236 -100q-112 0 -179.5 60.5t-67.5 160.5q0 147 140 232q-46 48 -64 87.5t-18 86.5
q0 82 53 129t139 47zM306 45q126 0 193 91l-264 270q-114 -74 -114 -193q0 -76 52 -122t133 -46z" />
    <glyph glyph-name="_8" unicode="'" horiz-adv-x="246" 
d="M152 559h-58v222h58v-222z" />
    <glyph glyph-name="_9" unicode="(" horiz-adv-x="344" 
d="M94 388q0 158 12.5 257.5t42.5 153.5t69 73t102 19v-53q-63 0 -96 -32t-51 -130.5t-18 -287.5t18 -287.5t51 -130.5t96 -32v-53q-63 0 -102 19t-69 72.5t-42.5 153t-12.5 258.5z" />
    <glyph glyph-name="_10" unicode=")" horiz-adv-x="344" 
d="M250 388q0 -159 -12.5 -258.5t-42.5 -153t-69 -72.5t-102 -19v53q63 0 96 32t51 130.5t18 287.5t-18 287.5t-51 130.5t-96 32v53q63 0 102 -19t69 -73t42.5 -153.5t12.5 -257.5z" />
    <glyph glyph-name="_11" unicode="*" horiz-adv-x="522" 
d="M212 366l-171 93l29 51l167 -103l-5 196h58l-5 -196l167 103l29 -51l-172 -93l172 -94l-29 -50l-167 101l5 -194h-58l5 194l-167 -101l-29 50z" />
    <glyph glyph-name="_12" unicode="+" horiz-adv-x="580" 
d="M59 340v52h202v211h58v-211h201v-52h-201v-211h-58v211h-202z" />
    <glyph glyph-name="_13" unicode="," horiz-adv-x="303" 
d="M100 -124v38q48 12 48 71v18h-34v108h74v-120q0 -52 -21 -79t-67 -36z" />
    <glyph glyph-name="_14" unicode="-" horiz-adv-x="438" 
d="M59 338v56h319v-56h-319z" />
    <glyph glyph-name="_15" unicode="." horiz-adv-x="303" 
d="M188 111v-107h-74v107h74z" />
    <glyph glyph-name="_16" unicode="/" horiz-adv-x="419" 
d="M421 873l-360 -972h-63l360 972h63z" />
    <glyph glyph-name="_17" unicode="0" horiz-adv-x="606" 
d="M550 393q0 -131 -17.5 -206t-55.5 -123q-58 -73 -174 -73q-115 0 -174 73q-38 48 -55.5 123t-17.5 206q0 130 17.5 205t55.5 122q60 74 174 74q115 0 174 -74q38 -47 55.5 -122t17.5 -205zM488 393q0 218 -55 288q-45 58 -130 58t-130 -58q-55 -70 -55 -288
q0 -219 55 -289q46 -59 130 -59t130 59q55 70 55 289z" />
    <glyph glyph-name="_18" unicode="1" horiz-adv-x="606" 
d="M399 4h-62v711l-202 -90v62l209 94h55v-777z" />
    <glyph glyph-name="_19" unicode="2" horiz-adv-x="606" 
d="M530 567q0 -55 -16 -95.5t-60 -89.5l-286 -324h374v-54h-457v51l319 361q64 72 64 150q0 76 -44.5 124.5t-121.5 48.5t-121.5 -48.5t-44.5 -124.5v-22h-62v23q0 97 60.5 162t167.5 65t167.5 -65t60.5 -162z" />
    <glyph glyph-name="_20" unicode="3" horiz-adv-x="606" 
d="M479 217q0 79 -46 126t-126 47h-76v54h80q69 0 107 43t38 105q0 65 -43 106t-112 41q-71 0 -113 -41t-42 -106v-14h-62v18q0 85 59 141.5t158 56.5t158 -56.5t59 -141.5q0 -68 -32.5 -115.5t-92.5 -63.5q68 -16 108 -67.5t40 -133.5q0 -103 -66 -164t-174 -61
t-174.5 63.5t-66.5 169.5v7h63v-5q0 -83 49.5 -132t128.5 -49q78 0 128 47t50 125z" />
    <glyph glyph-name="_21" unicode="4" horiz-adv-x="606" 
d="M127 239h266v437zM559 239v-55h-104v-180h-62v180h-336v55l331 542h67v-542h104z" />
    <glyph glyph-name="_22" unicode="5" horiz-adv-x="606" 
d="M308 453q-50 0 -87.5 -25.5t-56.5 -72.5h-63l20 426h378v-55h-319l-14 -296q46 78 151 78q104 0 164 -68t60 -192q0 -122 -62 -189.5t-171 -67.5q-103 0 -163 57t-69 159h62q8 -79 52 -120.5t118 -41.5q82 0 126.5 53t44.5 151t-44.5 151t-126.5 53z" />
    <glyph glyph-name="_23" unicode="6" horiz-adv-x="606" 
d="M525 606h-65q-8 66 -48.5 99.5t-104.5 33.5q-94 0 -133 -76t-42 -254q22 45 69 72t112 27q107 0 170 -69.5t63 -189.5q0 -119 -65 -188.5t-173 -69.5q-158 0 -214 139q-26 63 -26 203v17q0 245 56 344.5t185 99.5q91 0 148 -48t68 -140zM308 46q80 0 128 54t48 149
t-48 149.5t-128 54.5t-128 -54.5t-48 -149.5t48 -149t128 -54z" />
    <glyph glyph-name="_24" unicode="7" horiz-adv-x="606" 
d="M75 726v55h454v-51l-277 -726h-66l280 722h-391z" />
    <glyph glyph-name="_25" unicode="8" horiz-adv-x="606" 
d="M303 -9q-114 0 -182.5 59t-68.5 162q0 77 40.5 130t112.5 72q-60 19 -95 66.5t-35 113.5q0 90 61.5 145t166.5 55t166.5 -55t61.5 -145q0 -66 -35 -113.5t-95 -66.5q72 -19 113 -72t41 -130q0 -103 -69 -162t-183 -59zM303 442q74 0 120 40t46 108t-46 108.5t-120 40.5
t-120 -40.5t-46 -108.5t46 -108t120 -40zM492 216q0 80 -52 126t-137 46q-84 0 -136.5 -46t-52.5 -126t52.5 -125.5t136.5 -45.5q85 0 137 45.5t52 125.5z" />
    <glyph glyph-name="_26" unicode="9" horiz-adv-x="606" 
d="M80 179h65q8 -66 48.5 -99.5t104.5 -33.5q94 0 133.5 76t41.5 254q-22 -46 -69 -72.5t-112 -26.5q-107 0 -170 69.5t-63 189.5q0 119 65.5 188.5t173.5 69.5q157 0 213 -139q26 -64 26 -204v-17q0 -244 -56 -343.5t-184 -99.5q-92 0 -149 48t-68 140zM298 739
q-80 0 -128 -54t-48 -149q0 -96 48 -150t128 -54t127.5 54t47.5 150q0 95 -47.5 149t-127.5 54z" />
    <glyph glyph-name="_27" unicode=":" horiz-adv-x="303" 
d="M188 111v-107h-74v107h74zM188 559v-108h-74v108h74z" />
    <glyph glyph-name="_28" unicode=";" horiz-adv-x="303" 
d="M188 559v-108h-74v108h74zM100 -124v38q48 12 48 71v18h-34v108h74v-120q0 -52 -21 -79t-67 -36z" />
    <glyph glyph-name="_29" unicode="&#x3c;" horiz-adv-x="578" 
d="M510 546l-376 -180l376 -180v-61l-443 215v52l443 214v-60z" />
    <glyph glyph-name="_30" unicode="=" horiz-adv-x="580" 
d="M59 240v53h461v-53h-461zM59 439v53h461v-53h-461z" />
    <glyph glyph-name="_31" unicode="&#x3e;" horiz-adv-x="578" 
d="M444 366l-377 180v60l443 -214v-52l-443 -215v61z" />
    <glyph glyph-name="_32" unicode="?" horiz-adv-x="569" 
d="M498 580q0 -63 -21.5 -106t-76.5 -89q-58 -48 -75.5 -79.5t-17.5 -77.5v-23h-62v27q0 57 20.5 93t85.5 92q49 42 67.5 77t18.5 84q0 73 -42 117t-114 44t-113.5 -45.5t-41.5 -116.5h-62v3q0 94 56.5 154t160.5 60q103 0 160 -60t57 -154zM309 105v-101h-67v101h67z" />
    <glyph glyph-name="_33" unicode="@" horiz-adv-x="820" 
d="M509 526q126 0 167 -89q-12 166 -73 236.5t-193 70.5q-104 0 -162 -42t-84 -138.5t-26 -269.5q0 -179 29.5 -277.5t86 -135.5t156.5 -37q80 0 139 34l19 -47q-74 -37 -158 -37q-116 0 -185.5 44.5t-106 154.5t-36.5 301q0 273 74.5 386.5t253.5 113.5t253.5 -113.5
t74.5 -386.5v-16q0 -127 -57.5 -196t-164.5 -69t-163 68t-56 188q0 122 55.5 189.5t156.5 67.5zM518 64q80 0 122 52t42 153q0 100 -42 152.5t-122 52.5t-121.5 -52t-41.5 -153q0 -205 163 -205z" />
    <glyph glyph-name="_34" unicode="A" horiz-adv-x="658" 
d="M293 781h71l282 -777h-68l-69 194h-361l-68 -194h-68zM329 708l-161 -454h321z" />
    <glyph glyph-name="_35" unicode="B" horiz-adv-x="655" 
d="M369 4h-287v777h278q112 0 169.5 -52t57.5 -148q0 -71 -32.5 -116.5t-90.5 -60.5q70 -13 107.5 -62t37.5 -127q0 -211 -240 -211zM522 577q0 146 -174 146h-202v-292h202q174 0 174 146zM146 62h209q101 0 145.5 38.5t44.5 116.5q0 79 -44.5 118t-145.5 39h-209v-312z
" />
    <glyph glyph-name="_36" unicode="C" horiz-adv-x="687" 
d="M350 -9q-142 0 -213 91q-78 98 -78 311q0 212 78 310q72 91 213 91q128 0 201.5 -71.5t81.5 -194.5h-65q-8 98 -63 153.5t-155 55.5q-106 0 -162 -69q-65 -83 -65 -275q0 -193 65 -276q56 -70 162 -70q100 0 155 55.5t63 154.5h65q-8 -124 -81.5 -195t-201.5 -71z" />
    <glyph glyph-name="_37" unicode="D" horiz-adv-x="696" 
d="M347 4h-265v777h265q289 0 289 -388q0 -85 -13.5 -151t-44.5 -122t-89.5 -86t-141.5 -30zM571 393q0 159 -51.5 244.5t-178.5 85.5h-195v-661h195q127 0 178.5 85.5t51.5 245.5z" />
    <glyph glyph-name="_38" unicode="E" horiz-adv-x="573" 
d="M82 4v777h440v-58h-376v-292h336v-58h-336v-312h381v-57h-445z" />
    <glyph glyph-name="_39" unicode="F" horiz-adv-x="552" 
d="M82 4v777h434v-58h-370v-304h336v-57h-336v-358h-64z" />
    <glyph glyph-name="_40" unicode="G" horiz-adv-x="709" 
d="M350 737q-122 0 -174.5 -87t-52.5 -257q0 -172 52.5 -258.5t174.5 -86.5q104 0 163 65.5t59 186.5v38h-216v57h279v-391h-49l-10 117q-25 -60 -83.5 -95t-144.5 -35q-289 0 -289 402q0 401 291 401q128 0 201.5 -71.5t81.5 -194.5h-65q-8 98 -63 153.5t-155 55.5z" />
    <glyph glyph-name="_41" unicode="H" horiz-adv-x="682" 
d="M536 4v369h-390v-369h-64v777h64v-351h390v351h64v-777h-64z" />
    <glyph glyph-name="_42" unicode="I" horiz-adv-x="229" 
d="M146 781v-777h-64v777h64z" />
    <glyph glyph-name="_43" unicode="J" horiz-adv-x="567" 
d="M258 48q80 0 122.5 51t42.5 148v534h65v-539q0 -119 -59.5 -185t-170.5 -66q-113 0 -171.5 66t-58.5 187h64q1 -95 42.5 -145.5t123.5 -50.5z" />
    <glyph glyph-name="_44" unicode="K" horiz-adv-x="613" 
d="M581 781l-282 -380l317 -397h-76l-291 369h-103v-369h-64v777h64v-350h103l257 350h75z" />
    <glyph glyph-name="_45" unicode="L" horiz-adv-x="543" 
d="M82 4v777h64v-720h381v-57h-445z" />
    <glyph glyph-name="_46" unicode="M" horiz-adv-x="916" 
d="M493 4h-71l-276 638v-638h-64v777h71l305 -705l304 705h71v-777h-64v638z" />
    <glyph glyph-name="_47" unicode="N" horiz-adv-x="694" 
d="M611 4h-64l-401 659v-659h-64v777h64l401 -659v659h64v-777z" />
    <glyph glyph-name="_48" unicode="O" horiz-adv-x="702" 
d="M642 393q0 -213 -77 -311q-72 -91 -214 -91t-214 91q-78 100 -78 311q0 210 78 310q74 91 214 91t214 -91q77 -98 77 -310zM578 393q0 192 -64 275q-58 69 -163 69q-107 0 -163 -69q-64 -81 -64 -275q0 -195 64 -276q56 -70 163 -70q105 0 163 70q64 83 64 276z" />
    <glyph glyph-name="_49" unicode="P" horiz-adv-x="644" 
d="M146 364h215q90 0 137 47.5t47 132.5t-47 132t-137 47h-215v-359zM367 307h-221v-303h-64v777h285q117 0 179.5 -63t62.5 -174t-62.5 -174t-179.5 -63z" />
    <glyph glyph-name="_50" unicode="Q" horiz-adv-x="700" 
d="M642 393q0 -189 -61 -288l102 -86l-38 -43l-100 85q-68 -70 -194 -70q-142 0 -214 91q-78 100 -78 311q0 210 78 310q74 91 214 91t214 -91q77 -98 77 -310zM578 393q0 192 -64 275q-58 69 -163 69q-107 0 -163 -69q-64 -81 -64 -275q0 -195 64 -276q56 -70 163 -70
q92 0 148 54l-124 106l37 43l122 -104q44 83 44 247z" />
    <glyph glyph-name="_51" unicode="R" horiz-adv-x="667" 
d="M615 4h-66q-9 21 -12 70l-8 110q-5 73 -43 104.5t-129 31.5h-211v-316h-64v777h287q119 0 179.5 -60t60.5 -167q0 -165 -138 -205q59 -11 88 -49.5t35 -114.5l7 -110q5 -47 14 -71zM146 378h217q89 0 135.5 43.5t46.5 128.5t-46.5 129t-135.5 44h-217v-345z" />
    <glyph glyph-name="_52" unicode="S" horiz-adv-x="624" 
d="M575 207q0 -94 -68 -155t-190 -61t-190 61t-68 155v23h64v-24q0 -70 52 -114.5t142 -44.5t142 44.5t52 114.5q0 64 -38.5 103t-123.5 57l-100 21q-190 39 -190 201q0 89 64 147.5t179 58.5t179.5 -58.5t64.5 -147.5v-17h-64v17q0 68 -47.5 108.5t-132.5 40.5
q-84 0 -131.5 -40.5t-47.5 -108.5q0 -116 144 -145l100 -21q208 -42 208 -215z" />
    <glyph glyph-name="_53" unicode="T" horiz-adv-x="566" 
d="M17 723v58h532v-58h-234v-719h-64v719h-234z" />
    <glyph glyph-name="_54" unicode="U" horiz-adv-x="706" 
d="M352 -9q-140 0 -207.5 79.5t-67.5 219.5v491h64v-483q0 -251 211 -251q110 0 161 63.5t51 187.5v483h64v-491q0 -140 -68 -219.5t-208 -79.5z" />
    <glyph glyph-name="_55" unicode="V" horiz-adv-x="658" 
d="M364 4h-71l-281 777h68l249 -692l249 692h68z" />
    <glyph glyph-name="_56" unicode="W" horiz-adv-x="1025" 
d="M714 4l-201 674l-202 -674h-74l-220 777h66l193 -685l204 685h65l204 -685l193 685h67l-221 -777h-74z" />
    <glyph glyph-name="_57" unicode="X" horiz-adv-x="645" 
d="M551 4l-229 350l-229 -350h-72l261 397l-247 380h71l216 -332l217 332h71l-247 -380l261 -397h-73z" />
    <glyph glyph-name="_58" unicode="Y" horiz-adv-x="645" 
d="M17 781h69l236 -409l236 409h70l-274 -471v-306h-64v306z" />
    <glyph glyph-name="_59" unicode="Z" horiz-adv-x="579" 
d="M47 56l404 667h-393v58h468v-53l-404 -667h410v-57h-485v52z" />
    <glyph glyph-name="_60" unicode="[" horiz-adv-x="359" 
d="M94 -99v972h218v-53h-157v-866h157v-53h-218z" />
    <glyph glyph-name="_61" unicode="\" 
d="M651 4h74l92 375h123v43h-112l88 359h-67l-85 -359h-161l-91 359h-65l-91 -359h-161l-85 359h-66l88 -359h-112v-43h122l92 -375h74l96 375h152zM545 422h-130l65 256zM206 379h139l-72 -283zM614 379h139l-67 -283z" />
    <glyph glyph-name="_62" unicode="]" horiz-adv-x="359" 
d="M265 873v-972h-218v53h157v866h-157v53h218z" />
    <glyph glyph-name="_63" unicode="^" horiz-adv-x="455" 
d="M200 781h55l176 -258h-63l-141 207l-140 -207h-63z" />
    <glyph glyph-name="_64" unicode="_" horiz-adv-x="555" 
d="M0 -169v42h555v-42h-555z" />
    <glyph glyph-name="_65" unicode="`" horiz-adv-x="367" 
d="M217 636l-126 178h70l115 -178h-59z" />
    <glyph glyph-name="_66" unicode="a" horiz-adv-x="566" 
d="M440 167q0 58 -42.5 90.5t-124.5 32.5t-124 -32.5t-42 -90.5t42 -90.5t124 -32.5t124.5 32.5t42.5 90.5zM440 65q-38 -74 -179 -74q-101 0 -158 46.5t-57 129.5q0 82 57 129.5t158 47.5q139 0 179 -75v104q0 68 -40 107t-116 39q-71 0 -109 -32t-45 -87h-62
q8 79 63 125.5t153 46.5q106 0 162 -53.5t56 -147.5v-290q0 -46 14 -77h-64q-10 22 -12 61z" />
    <glyph glyph-name="_67" unicode="b" horiz-adv-x="589" 
d="M132 97v-93h-61v777h61v-316q42 107 180 107q111 0 169.5 -74.5t58.5 -216.5t-58.5 -216t-169.5 -74q-69 0 -114.5 28.5t-65.5 77.5zM479 281q0 238 -173 238q-174 0 -174 -238q0 -237 174 -237q173 0 173 237z" />
    <glyph glyph-name="_68" unicode="c" horiz-adv-x="557" 
d="M49 281q0 140 59 215.5t176 75.5q98 0 156 -49.5t69 -140.5h-63q-8 65 -49.5 101t-112.5 36q-174 0 -174 -238q0 -237 174 -237q71 0 112.5 35.5t49.5 100.5h63q-11 -90 -69 -139.5t-156 -49.5q-117 0 -176 75t-59 215z" />
    <glyph glyph-name="_69" unicode="d" horiz-adv-x="589" 
d="M457 4v93q-42 -106 -179 -106q-112 0 -170.5 74t-58.5 216t58.5 216.5t170.5 74.5q137 0 179 -107v316h61v-777h-61zM457 281q0 238 -173 238q-174 0 -174 -238q0 -237 174 -237q173 0 173 237z" />
    <glyph glyph-name="_70" unicode="e" horiz-adv-x="568" 
d="M518 263h-408q5 -219 175 -219q133 0 158 121h63q-16 -84 -72.5 -129t-149.5 -45q-117 0 -176 75.5t-59 214.5t59 215t176 76t175.5 -76t58.5 -215v-18zM284 519q-164 0 -172 -205h344q-9 205 -172 205z" />
    <glyph glyph-name="_71" unicode="f" horiz-adv-x="363" 
d="M339 735h-51q-63 0 -85.5 -22t-22.5 -84v-70h159v-53h-159v-502h-62v502h-83v53h83v75q0 87 37 121t128 34q27 0 56 -3v-51z" />
    <glyph glyph-name="_72" unicode="g" horiz-adv-x="589" 
d="M457 -32v129q-42 -106 -179 -106q-112 0 -170.5 74t-58.5 216t58.5 216.5t170.5 74.5q137 0 179 -107v94h61v-587q0 -103 -57 -164.5t-164 -61.5q-93 0 -149 44.5t-67 120.5h62q9 -52 49.5 -81.5t104.5 -29.5q75 0 117.5 44.5t42.5 123.5zM457 281q0 238 -173 238
q-174 0 -174 -238q0 -237 174 -237q173 0 173 237z" />
    <glyph glyph-name="_73" unicode="h" horiz-adv-x="587" 
d="M518 347v-343h-61v323q0 192 -147 192q-78 0 -127.5 -62.5t-50.5 -172.5v-280h-61v777h61v-330q48 121 190 121q94 0 145 -59t51 -166z" />
    <glyph glyph-name="_74" unicode="i" horiz-adv-x="214" 
d="M138 4h-62v555h62v-555zM138 679h-62v102h62v-102z" />
    <glyph glyph-name="_75" unicode="j" horiz-adv-x="219" 
d="M143 559v-648q0 -77 -34 -113t-106 -36q-25 0 -33 1v52h29q82 0 82 89v655h62zM143 679h-62v102h62v-102z" />
    <glyph glyph-name="_76" unicode="k" horiz-adv-x="499" 
d="M132 4h-61v777h61v-461h71l192 239h73l-212 -265l237 -290h-75l-216 262h-70v-262z" />
    <glyph glyph-name="_77" unicode="l" horiz-adv-x="214" 
d="M138 4h-62v777h62v-777z" />
    <glyph glyph-name="_78" unicode="m" horiz-adv-x="912" 
d="M782 4v365q0 74 -34.5 112t-98.5 38q-71 0 -116 -62.5t-45 -175.5v-277h-62v365q0 74 -34.5 112t-98.5 38q-71 0 -116 -62.5t-45 -175.5v-277h-61v555h61v-106q19 56 63.5 87.5t108.5 31.5q65 0 110.5 -33.5t61.5 -94.5q49 128 185 128q87 0 135 -52.5t48 -149.5v-366
h-62z" />
    <glyph glyph-name="_79" unicode="n" horiz-adv-x="587" 
d="M518 347v-343h-61v323q0 192 -147 192q-78 0 -127.5 -62.5t-50.5 -172.5v-280h-61v555h61v-108q48 121 190 121q94 0 145 -59t51 -166z" />
    <glyph glyph-name="_80" unicode="o" horiz-adv-x="568" 
d="M518 281q0 -139 -58.5 -214.5t-175.5 -75.5t-176 75.5t-59 214.5t59 215t176 76t175.5 -76t58.5 -215zM110 281q0 -237 174 -237q173 0 173 237q0 238 -173 238q-174 0 -174 -238z" />
    <glyph glyph-name="_81" unicode="p" horiz-adv-x="589" 
d="M132 97v-335h-61v797h61v-94q42 107 180 107q111 0 169.5 -74.5t58.5 -216.5t-58.5 -216t-169.5 -74q-69 0 -114.5 28.5t-65.5 77.5zM132 281q0 -237 174 -237q173 0 173 237q0 238 -173 238q-174 0 -174 -238z" />
    <glyph glyph-name="_82" unicode="q" horiz-adv-x="589" 
d="M457 -238v335q-42 -106 -179 -106q-112 0 -170.5 74t-58.5 216t58.5 216.5t170.5 74.5q137 0 179 -107v94h61v-797h-61zM457 281q0 238 -173 238q-174 0 -174 -238q0 -237 174 -237q173 0 173 237z" />
    <glyph glyph-name="_83" unicode="r" horiz-adv-x="357" 
d="M297 518q-77 0 -121 -59.5t-44 -174.5v-280h-61v555h61v-107q37 120 166 120q28 0 41 -4l-1 -52q-18 2 -41 2z" />
    <glyph glyph-name="_84" unicode="s" horiz-adv-x="512" 
d="M287 254l-68 14q-89 18 -127.5 53.5t-38.5 97.5q0 66 52.5 109.5t144.5 43.5q91 0 144 -43t53 -110v-17h-62v17q0 44 -36 72t-99 28t-99 -28t-36 -72q0 -39 27.5 -61.5t90.5 -35.5l68 -14q89 -19 127.5 -55.5t38.5 -102.5q0 -71 -57 -115t-152 -44q-94 0 -151.5 43.5
t-57.5 115.5v20h61v-20q0 -48 41.5 -77t106.5 -29t106.5 29t41.5 77q0 43 -27.5 67t-91.5 37z" />
    <glyph glyph-name="_85" unicode="t" horiz-adv-x="378" 
d="M172 506v-348q0 -63 27 -86t88 -23h55v-52q-21 -1 -63 -1q-89 0 -128.5 33.5t-39.5 118.5v358h-84v53h84v158h61v-158h170v-53h-170z" />
    <glyph glyph-name="_86" unicode="u" horiz-adv-x="587" 
d="M68 216v343h62v-324q0 -99 36.5 -145t110.5 -46q78 0 127 62.5t50 171.5v281h62v-555h-62v107q-47 -120 -189 -120q-95 0 -146 59t-51 166z" />
    <glyph glyph-name="_87" unicode="v" horiz-adv-x="548" 
d="M20 559h65l189 -483l189 483h65l-219 -555h-70z" />
    <glyph glyph-name="_88" unicode="w" horiz-adv-x="870" 
d="M401 559h67l160 -478l160 478h65l-190 -555h-68l-160 477l-160 -477h-68l-190 555h64l160 -478z" />
    <glyph glyph-name="_89" unicode="x" horiz-adv-x="507" 
d="M427 4l-174 239l-173 -239h-70l206 284l-195 271h70l162 -226l163 226h70l-195 -271l206 -284h-70z" />
    <glyph glyph-name="_90" unicode="y" horiz-adv-x="549" 
d="M195 -117l48 120l-223 556h65l190 -479l188 479h66l-277 -694q-24 -61 -56 -82t-89 -21q-19 0 -28 1v52h23q37 0 57 13.5t36 54.5z" />
    <glyph glyph-name="_91" unicode="z" horiz-adv-x="487" 
d="M436 559v-50l-318 -452h326v-53h-401v49l318 453h-309v53h384z" />
    <glyph glyph-name="_92" unicode="{" horiz-adv-x="370" 
d="M47 360v53h20q34 0 51.5 20t17.5 55v211q0 91 39.5 132.5t120.5 41.5h27v-53h-20q-56 0 -81 -29.5t-25 -97.5v-210q0 -79 -64 -96q64 -18 64 -97v-210q0 -68 24.5 -97t81.5 -29h20v-53h-27q-81 0 -120.5 41t-39.5 133v210q0 75 -69 75h-20z" />
    <glyph glyph-name="_93" unicode="|" horiz-adv-x="296" 
d="M117 -99v972h61v-972h-61z" />
    <glyph glyph-name="_94" unicode="}" horiz-adv-x="370" 
d="M323 413v-53h-20q-69 0 -69 -75v-210q0 -92 -40 -133t-121 -41h-26v53h20q57 0 81.5 29t24.5 97v210q0 79 64 97q-64 17 -64 96v210q0 68 -25 97.5t-81 29.5h-20v53h26q81 0 121 -41.5t40 -132.5v-211q0 -35 17.5 -55t51.5 -20h20z" />
    <glyph glyph-name="_95" unicode="~" horiz-adv-x="578" 
d="M384 281q-38 0 -67 18.5t-43 40.5t-34.5 40.5t-44.5 18.5q-65 0 -66 -111h-57q0 78 31.5 120.5t90.5 42.5q32 0 56 -12t39 -29.5t28 -35t29 -29.5t36 -12q65 0 66 112h58q-1 -79 -32 -121.5t-90 -42.5z" />
    <glyph glyph-name="_208" unicode="&#xa1;" horiz-adv-x="299" 
d="M123 332l-7 -424v-127h65v127l-6 424h-52zM184 559h-69v-101h69v101z" />
    <glyph glyph-name="_214" unicode="&#xa4;" horiz-adv-x="700" 
d="M595 366q0 90 -57 155l109 110l-42 41l-110 -112q-64 47 -144 47q-82 0 -146 -47l-111 112l-41 -41l109 -110q-57 -65 -57 -155q0 -91 57 -155l-109 -110l41 -40l111 109q64 -44 146 -44q80 0 144 44l110 -109l42 40l-109 110q57 64 57 155zM537 366q0 -86 -54 -137.5
t-133 -51.5t-133 51.5t-54 137.5t54 138t133 52t133 -51.5t54 -138.5z" />
    <glyph glyph-name="_155" unicode="&#xa7;" 
d="M265 348q0 -82 50.5 -124t173.5 -74q68 -18 99 -49t31 -79q0 -52 -36.5 -82.5t-98.5 -30.5q-60 0 -97.5 31.5t-37.5 81.5v9h-63v-10q0 -73 53 -118t145 -45t144.5 45t52.5 118q0 99 -91 148q103 46 103 153q0 85 -47.5 122.5t-176.5 75.5q-70 21 -100 51t-30 79
q0 52 36.5 82.5t98.5 30.5q59 0 97 -31.5t38 -81.5v-9h63v10q0 73 -53 118.5t-145 45.5t-145 -45.5t-53 -118.5q0 -53 21 -89t70 -61q-102 -47 -102 -153zM436 473q112 -27 153 -58.5t41 -95.5q0 -88 -94 -127q-130 38 -169 64.5t-39 94.5q0 44 27 79t81 43z" />
    <glyph glyph-name="_107" unicode="&#xa8;" horiz-adv-x="600" 
d="M226 783h-73v-109h73v109zM446 783h-73v-109h73v109z" />
    <glyph glyph-name="_668" unicode="&#xaa;" horiz-adv-x="438" 
d="M197 364q98 0 124 59q0 -35 8 -49h57q-9 23 -9 56v223q0 62 -40.5 100t-115.5 38q-74 0 -113 -35t-42 -93h57q2 39 26.5 61t71.5 22q100 0 100 -92v-92q-27 60 -126 60q-68 0 -108.5 -33.5t-40.5 -95.5t40.5 -95.5t110.5 -33.5zM211 408q-52 0 -80.5 22t-28.5 63
q0 40 28.5 62t80.5 22q53 0 81.5 -22t28.5 -62q0 -41 -28.5 -63t-81.5 -22zM38 246h363v48h-363v-48z" />
    <glyph glyph-name="_18155" unicode="&#xad;" horiz-adv-x="436" 
d="M59 338h319v56h-319v-56z" />
    <glyph glyph-name="_18156" unicode="&#xae;" horiz-adv-x="500" 
d="M250 379q88 0 149 62t61 158t-61 158t-149 62t-149 -62t-61 -158t61 -158t149 -62zM250 418q-72 0 -119.5 50.5t-47.5 130.5q0 79 47.5 130t119.5 51q71 0 118.5 -51t47.5 -130t-47.5 -130t-118.5 -51zM352 484q-6 14 -8 45l-1 12q-4 40 -29 50q35 14 35 61q0 73 -84 73
h-100v-241h42v89h64q16 0 22 -7t8 -26l1 -11q2 -29 8 -45h42zM207 608v82h56q43 0 43 -39q0 -19 -12 -31t-31 -12h-56z" />
    <glyph glyph-name="_138" unicode="&#xb0;" horiz-adv-x="399" 
d="M348 641q0 66 -40 108.5t-108 42.5t-108 -42.5t-40 -108.5t40 -108t108 -42t108 42t40 108zM299 641q0 -47 -28 -76t-71 -29t-71 29t-28 76t28 76t71 29t71 -29t28 -76z" />
    <glyph glyph-name="_130" unicode="&#xb1;" horiz-adv-x="580" 
d="M59 423h202v-210h58v210h202v53h-202v211h-58v-211h-202v-53zM59 53h462v53h-462v-53z" />
    <glyph glyph-name="_843" unicode="&#xb2;" horiz-adv-x="405" 
d="M303 633q0 -49 -36 -89l-213 -235v-43h305v49h-230l176 193q30 33 42.5 61t12.5 65q0 71 -43 114.5t-115 43.5q-73 0 -116 -43.5t-43 -114.5v-16h57v15q0 47 27 77.5t75 30.5t74.5 -30.5t26.5 -77.5z" />
    <glyph glyph-name="_844" unicode="&#xb3;" horiz-adv-x="405" 
d="M300 651q0 -43 -26.5 -66.5t-67.5 -23.5h-48v-48h48q47 0 76.5 -27.5t29.5 -76.5q0 -46 -29.5 -75t-79.5 -29q-51 0 -81 29t-30 76v22h-56v-22q0 -66 44 -109.5t123 -43.5q77 0 121.5 43.5t44.5 107.5q0 104 -99 130q44 13 64.5 45t20.5 72q0 61 -42 99t-110 38
q-69 0 -111.5 -38.5t-42.5 -98.5v-15h56v11q0 42 26 67t72 25q44 0 70.5 -24.5t26.5 -67.5z" />
    <glyph glyph-name="_199" unicode="&#xb4;" horiz-adv-x="368" 
d="M278 816h-72l-115 -179h58z" />
    <glyph glyph-name="_244" unicode="&#xb6;" 
d="M489 783q-106 0 -166.5 -62.5t-60.5 -173.5v-8q0 -110 67 -174t173 -64h31v-444h47v881h51v-881h47v926h-189z" />
    <glyph glyph-name="_18157" unicode="&#xb7;" horiz-adv-x="400" 
d="M236 479h-73v-109h73v109z" />
    <glyph glyph-name="_206" unicode="&#xb8;" horiz-adv-x="370" 
d="M66 -226q47 -35 112 -35q58 0 91.5 28.5t33.5 74.5q0 43 -30 70.5t-80 27.5q-15 0 -25 -3l33 66h-49l-44 -88l15 -16q19 8 46 8q82 0 82 -64q0 -27 -19.5 -43t-56.5 -16q-51 0 -86 30z" />
    <glyph glyph-name="_842" unicode="&#xb9;" horiz-adv-x="405" 
d="M247 266v517h-49l-117 -55v-51l109 52v-463h57z" />
    <glyph glyph-name="_675" unicode="&#xba;" horiz-adv-x="439" 
d="M392 577q0 215 -172 215q-173 0 -173 -215t173 -215q172 0 172 215zM336 577q0 -90 -28.5 -130t-87.5 -40q-60 0 -88.5 40t-28.5 130q0 89 28.5 129t88.5 40q59 0 87.5 -40t28.5 -129zM38 247h363v47h-363v-47z" />
    <glyph glyph-name="_751" unicode="&#xbc;" 
d="M612 161l184 276v-276h-184zM911 161h-60v359h-61l-239 -363v-44h245v-110h55v110h60v48zM224 266v517h-49l-116 -55v-51l109 52v-463h56zM660 783h-56l-380 -780h55z" />
    <glyph glyph-name="_748" unicode="&#xbd;" 
d="M224 266v517h-49l-116 -55v-51l109 52v-463h56zM650 783h-56l-380 -780h55zM841 370q0 -48 -37 -89l-213 -235v-43h305v49h-230l176 193q30 33 42.5 61t12.5 65q0 71 -43 114.5t-116 43.5q-72 0 -115 -43.5t-43 -114.5v-15h57v14q0 47 27 77.5t74 30.5q49 0 76 -30.5
t27 -77.5z" />
    <glyph glyph-name="_752" unicode="&#xbe;" 
d="M292 651q0 -43 -26.5 -66.5t-68.5 -23.5h-47v-48h47q48 0 77.5 -27.5t29.5 -76.5q0 -46 -30 -75t-80 -29t-80 29.5t-30 75.5v22h-56v-22q0 -66 43.5 -109.5t122.5 -43.5q77 0 121.5 43.5t44.5 107.5q0 104 -98 130q44 13 64.5 45t20.5 72q0 61 -42 99t-111 38t-111 -38.5
t-42 -98.5v-15h55v11q0 42 26.5 67t71.5 25t71.5 -24.5t26.5 -67.5zM705 783h-55l-380 -780h55zM612 161l184 276v-276h-184zM911 161h-60v359h-61l-239 -363v-44h245v-110h55v110h60v48z" />
    <glyph glyph-name="_209" unicode="&#xbf;" horiz-adv-x="570" 
d="M70 -17q0 -94 57 -154.5t161 -60.5q103 0 160 60.5t57 154.5v7h-62q0 -74 -41 -120.5t-114 -46.5q-72 0 -114 44t-42 117q0 49 19 83.5t68 77.5q64 55 84 91.5t20 94.5v27h-61v-23q0 -46 -18 -77t-76 -81q-55 -48 -76.5 -89.5t-21.5 -104.5zM260 458h66v101h-66v-101z
" />
    <glyph glyph-name="_666" unicode="&#xc6;" horiz-adv-x="958" 
d="M429 782l-437 -778h69l110 193h295v-193h446v57h-382v312h337v57h-337v295h377v57h-478zM202 254l264 468v-468h-264z" />
    <glyph glyph-name="_667" unicode="&#xd0;" horiz-adv-x="701" 
d="M10 368h76v-364h266q67 0 118 20t83 54.5t52.5 85t28.5 106t8 123.5q0 389 -290 389h-266v-365h-76v-49zM347 725q126 0 178 -85.5t52 -246.5q0 -78 -11 -136t-36 -103.5t-71 -69t-112 -23.5h-197v307h167v49h-167v308h197z" />
    <glyph glyph-name="_131" unicode="&#xd7;" horiz-adv-x="580" 
d="M457 158l39 39l-167 169l167 169l-39 38l-167 -169l-167 169l-39 -38l168 -169l-168 -169l39 -39l167 169z" />
    <glyph glyph-name="_673" unicode="&#xd8;" horiz-adv-x="702" 
d="M136 -32l42 74q64 -51 171 -51q157 0 225 105t68 297q0 207 -81 315l63 110h-60l-42 -74q-66 51 -173 51q-81 0 -138.5 -29.5t-90 -84.5t-47.5 -125.5t-15 -162.5q0 -203 80 -315l-61 -110h59zM122 393q0 167 51 256t176 89q91 0 143 -48l-320 -554q-50 80 -50 257z
M578 393q0 -167 -51 -256t-178 -89q-87 0 -141 45l319 555q51 -84 51 -255z" />
    <glyph glyph-name="_676" unicode="&#xde;" horiz-adv-x="646" 
d="M147 4v151h221q117 0 180 63.5t63 174.5t-63 174t-180 63h-221v152h-65v-778h65zM147 212v361h216q89 0 136 -47.5t47 -132.5q0 -86 -46.5 -133.5t-136.5 -47.5h-216z" />
    <glyph glyph-name="_768" unicode="&#xdf;" horiz-adv-x="630" 
d="M594 198q0 87 -54.5 138t-130.5 60q67 13 106.5 61t39.5 115q0 97 -65 160.5t-177 63.5q-114 0 -178.5 -64t-64.5 -166v-563h65v563q0 79 48 126t130 47q80 0 128.5 -46.5t48.5 -122.5q0 -63 -41 -104.5t-131 -41.5h-30v-56h24q101 0 159.5 -45t58.5 -123
q0 -72 -46 -112.5t-127 -40.5q-53 0 -94 11v-57q39 -11 97 -11q109 0 171.5 56t62.5 152z" />
    <glyph glyph-name="_757" unicode="&#xe6;" horiz-adv-x="971" 
d="M445 167q0 -59 -42.5 -91.5t-124.5 -32.5t-124 32.5t-42 91.5q0 58 42 91t124 33t124.5 -33t42.5 -91zM681 520q164 0 172 -207h-345q8 207 173 207zM288 572q-99 0 -154 -46t-61 -126h63q12 120 152 120q76 0 116.5 -40t40.5 -110v-104q-18 37 -65 57.5t-116 20.5
q-101 0 -157.5 -47.5t-56.5 -129.5t57.5 -129t164.5 -47q169 0 213 114q49 -114 197 -114q94 0 150.5 46t71.5 128h-63q-25 -122 -159 -122q-87 0 -131 57t-44 165h409v16q0 140 -58.5 215.5t-176.5 75.5q-148 0 -196 -122q-19 59 -70 90.5t-127 31.5z" />
    <glyph glyph-name="_759" unicode="&#xf0;" horiz-adv-x="569" 
d="M519 281q0 161 -32.5 263.5t-108.5 170.5l79 46l-22 36l-93 -56q-45 32 -133 68l-38 -46q69 -25 116 -55l-88 -51l22 -36l103 62q88 -65 112 -191q-45 80 -161 80q-111 0 -168.5 -74t-57.5 -217q0 -140 58.5 -215t176.5 -75q119 0 177 75t58 215zM457 281
q0 -238 -173 -238q-174 0 -174 238q0 239 174 239q173 0 173 -239z" />
    <glyph glyph-name="_132" unicode="&#xf7;" horiz-adv-x="580" 
d="M59 340h462v52h-462v-52zM323 604h-67v-106h67v106zM323 233h-67v-105h67v105z" />
    <glyph glyph-name="_766" unicode="&#xf8;" horiz-adv-x="569" 
d="M134 -39l32 57q48 -27 118 -27q118 0 177 75t59 215q0 163 -78 236l47 85h-55l-32 -57q-48 27 -118 27q-118 0 -176.5 -75.5t-58.5 -215.5q0 -164 77 -235l-47 -85h55zM111 281q0 239 173 239q54 0 92 -23l-221 -397q-44 60 -44 181zM458 281q0 -238 -174 -238
q-53 0 -93 23l221 396q46 -58 46 -181z" />
    <glyph glyph-name="_769" unicode="&#xfe;" horiz-adv-x="590" 
d="M541 281q0 143 -58 217t-170 74q-139 0 -181 -115v325h-62v-1020h62v343q20 -54 66 -84t115 -30q112 0 170 74t58 216zM478 281q0 -238 -173 -238t-173 238q0 239 173 239t173 -239z" />
    <glyph glyph-name="_758" unicode="&#x111;" horiz-adv-x="595" 
d="M584 650v49h-65v83h-62v-83h-177v-49h177v-193q-40 115 -181 115q-112 0 -169.5 -74t-57.5 -217q0 -142 57.5 -216t169.5 -74q69 0 115.5 30t65.5 84v-101h62v646h65zM457 281q0 -238 -173 -238q-174 0 -174 238q0 239 174 239q173 0 173 -239z" />
    <glyph glyph-name="_669" unicode="&#x126;" horiz-adv-x="694" 
d="M683 650h-76v132h-65v-132h-391v132h-65v-132h-76v-49h76v-597h65v369h391v-369h65v597h76v49zM151 431v170h391v-170h-391z" />
    <glyph glyph-name="_760" unicode="&#x127;" horiz-adv-x="592" 
d="M136 4v284q1 108 51.5 170t128.5 62q145 0 145 -187v-329h62v342q0 108 -50 167t-144 59q-73 0 -122 -34.5t-71 -96.5v209h178v49h-178v83h-61v-83h-65v-49h65v-646h61z" />
    <glyph glyph-name="_761" unicode="&#x131;" horiz-adv-x="214" 
d="M139 3v557h-63v-557h63z" />
    <glyph glyph-name="_670" unicode="&#x132;" horiz-adv-x="803" 
d="M147 782h-65v-778h65v778zM493 -9q112 0 172 66t60 184v541h-65v-535q0 -98 -42.5 -149t-123.5 -51q-80 0 -123 51.5t-43 145.5h-65q0 -121 59 -187t171 -66z" />
    <glyph glyph-name="_762" unicode="&#x133;" horiz-adv-x="437" 
d="M139 3v557h-63v-557h63zM139 681v102h-63v-102h63zM361 560h-62v-658q0 -88 -82 -88h-30v-51q9 -1 35 -1q139 0 139 144v654zM361 681v102h-62v-102h62z" />
    <glyph glyph-name="_763" unicode="&#x138;" horiz-adv-x="501" 
d="M133 3v265h71l217 -265h74l-238 291l213 266h-72l-194 -240h-71v240h-63v-557h63z" />
    <glyph glyph-name="_671" unicode="&#x13f;" horiz-adv-x="545" 
d="M82 3h447v57h-382v723h-65v-780zM387 461h-76v-77h76v77z" />
    <glyph glyph-name="_764" unicode="&#x140;" horiz-adv-x="297" 
d="M139 3v780h-63v-780h63zM287 461h-76v-77h76v77z" />
    <glyph glyph-name="_672" unicode="&#x141;" horiz-adv-x="549" 
d="M19 268l67 35v-300h447v57h-382v277l219 115v55l-219 -115v391h-65v-425l-67 -35v-55z" />
    <glyph glyph-name="_765" unicode="&#x142;" horiz-adv-x="287" 
d="M174 4v380l92 47v50l-92 -48v349h-62v-382l-92 -46v-50l92 46v-346h62z" />
    <glyph glyph-name="_772" unicode="&#x149;" horiz-adv-x="602" 
d="M146 4v284q1 108 51.5 170t128.5 62q145 0 145 -187v-329h62v342q0 108 -50 167t-144 59q-73 0 -122 -34.5t-71 -96.5v118h-62v-555h62zM32 674h27q0 -74 -49 -86v-39q45 11 67 38.5t22 81.5v113h-67v-108z" />
    <glyph glyph-name="_678" unicode="&#x14a;" horiz-adv-x="696" 
d="M613 782h-65v-665l-401 665h-65v-778h65v664l401 -665v-94q0 -90 -82 -90h-27v-55q18 -2 34 -2q140 0 140 146v874z" />
    <glyph glyph-name="_771" unicode="&#x14b;" horiz-adv-x="587" 
d="M132 4v284q0 107 50.5 169.5t128.5 62.5q145 0 145 -187v-429q0 -90 -82 -90h-29v-49q13 -3 34 -3q76 0 108 39t32 129v416q0 108 -50.5 167t-144.5 59q-72 0 -121 -34.5t-71 -96.5v118h-62v-555h62z" />
    <glyph glyph-name="_674" unicode="&#x152;" horiz-adv-x="1030" 
d="M58 393q0 -389 289 -389h637v57h-382v312h337v57h-337v295h377v57h-632q-289 0 -289 -389zM537 725v-664h-184q-66 0 -112 23t-71.5 68.5t-36.5 103.5t-11 137q0 160 52.5 246t178.5 86h184z" />
    <glyph glyph-name="_767" unicode="&#x153;" horiz-adv-x="989" 
d="M700 43q-87 0 -129 56.5t-47 165.5h409q1 5 1 16q0 140 -59 215.5t-176 75.5q-160 0 -206 -139q-23 68 -75.5 103.5t-130.5 35.5q-116 0 -174.5 -75.5t-58.5 -215.5t58.5 -215t174.5 -75q77 0 130 35.5t76 101.5q48 -137 206 -137q93 0 150.5 46t72.5 128h-63
q-25 -122 -159 -122zM698 520q165 0 173 -207h-346q8 207 173 207zM462 281q0 -238 -173 -238q-174 0 -174 238q0 239 174 239q173 0 173 -239z" />
    <glyph glyph-name="_677" unicode="&#x166;" horiz-adv-x="569" 
d="M120 377h132v-374h64v374h133v49h-133v300h235v57h-534v-57h235v-300h-132v-49z" />
    <glyph glyph-name="_770" unicode="&#x167;" horiz-adv-x="380" 
d="M46 326v-49h64v-128q0 -85 40 -119t130 -34q42 0 63 2v50h-55q-61 0 -88.5 23t-27.5 85v121h144v49h-144v181h171v52h-171v158h-62v-158h-83v-52h83v-181h-64z" />
    <glyph glyph-name="_8275" unicode="&#x2bc;" horiz-adv-x="480" 
d="M90 798q0 56 57 56q30 0 43 -13.5t13 -42.5q0 -146 -140 -174l-13 30q77 23 96 87q-56 0 -56 57z" />
    <glyph glyph-name="_201" unicode="&#x2c7;" horiz-adv-x="377" 
d="M215 637l139 179h-60l-106 -129l-106 129h-59l138 -179h54z" />
    <glyph glyph-name="_18158" unicode="&#x2d0;" horiz-adv-x="500" 
d="M252 496l89 140h-182zM159 78h182l-89 140z" />
    <glyph glyph-name="_202" unicode="&#x2d8;" horiz-adv-x="376" 
d="M188 641q73 0 114 43t46 122h-58q-6 -116 -102 -116q-97 0 -103 116h-57q5 -79 46 -122t114 -43z" />
    <glyph glyph-name="_205" unicode="&#x2d9;" horiz-adv-x="360" 
d="M218 762h-76v-77h76v77z" />
    <glyph glyph-name="_204" unicode="&#x2da;" horiz-adv-x="370" 
d="M302 726q0 53 -32.5 84t-83.5 31q-52 0 -85 -31t-33 -84t33.5 -84.5t84.5 -31.5t83.5 31.5t32.5 84.5zM253 726q0 -34 -18.5 -53.5t-48.5 -19.5q-31 0 -50 19.5t-19 53.5q0 33 19 53t50 20q30 0 48.5 -20t18.5 -53z" />
    <glyph glyph-name="_207" unicode="&#x2db;" horiz-adv-x="370" 
d="M158 3q-42 -21 -67 -56.5t-25 -73.5v-7q0 -49 34 -77.5t93 -28.5q71 0 111 39l-24 36q-34 -29 -84 -29q-38 0 -58 17.5t-20 48.5v4q0 77 102 127h-62z" />
    <glyph glyph-name="_203" unicode="&#x2dd;" horiz-adv-x="377" 
d="M199 816h-64l-110 -179h54zM351 816h-64l-120 -179h54z" />
    <glyph glyph-name="_471" unicode="&#x391;" horiz-adv-x="660" 
d="M79 4l69 193h362l69 -193h68l-282 778h-72l-282 -778h68zM167 254l162 456l161 -456h-323z" />
    <glyph glyph-name="_472" unicode="&#x392;" horiz-adv-x="656" 
d="M147 432v294h202q175 0 175 -148q0 -146 -175 -146h-202zM372 3q239 0 239 212q0 80 -38 129t-112 62q59 13 93.5 58.5t34.5 118.5q0 96 -57 148t-169 52h-281v-780h290zM546 217q0 -78 -44.5 -117.5t-144.5 -39.5h-210v315h210q101 0 145 -39t44 -119z" />
    <glyph glyph-name="_473" unicode="&#x393;" horiz-adv-x="530" 
d="M82 783v-780h65v723h371v57h-436z" />
    <glyph glyph-name="_474" unicode="&#x394;" horiz-adv-x="660" 
d="M647 4l-282 778h-72l-282 -778h636zM560 61h-462l231 649z" />
    <glyph glyph-name="_475" unicode="&#x395;" horiz-adv-x="574" 
d="M82 3h447v57h-382v314h336v57h-336v295h376v57h-441v-780z" />
    <glyph glyph-name="_476" unicode="&#x396;" horiz-adv-x="582" 
d="M47 56v-53h487v57h-410l405 670v53h-471v-57h394z" />
    <glyph glyph-name="_477" unicode="&#x397;" horiz-adv-x="685" 
d="M538 3h65v780h-65v-352h-391v352h-65v-780h65v371h391v-371z" />
    <glyph glyph-name="_478" unicode="&#x398;" horiz-adv-x="702" 
d="M578 393q0 -168 -51 -256.5t-178 -88.5q-125 0 -176 89t-51 256t51.5 256t175.5 89q126 0 177.5 -89t51.5 -256zM58 393q0 -191 67.5 -296.5t223.5 -105.5q82 0 140 29t91 84t47.5 125.5t14.5 163.5q0 91 -14.5 161t-47 126t-91 85.5t-140.5 29.5q-81 0 -139 -29.5
t-90.5 -85t-47 -126t-14.5 -161.5zM227 364h246v56h-246v-56z" />
    <glyph glyph-name="_479" unicode="&#x399;" horiz-adv-x="229" 
d="M147 783h-65v-780h65v780z" />
    <glyph glyph-name="_480" unicode="&#x39a;" horiz-adv-x="616" 
d="M583 783h-74l-260 -352h-102v352h-65v-780h65v371h102l293 -371h76l-316 399z" />
    <glyph glyph-name="_481" unicode="&#x39b;" horiz-adv-x="660" 
d="M580 3h67l-281 780h-73l-282 -780h68l251 708z" />
    <glyph glyph-name="_482" unicode="&#x39c;" horiz-adv-x="918" 
d="M494 3l277 641v-641h65v780h-71l-306 -707l-305 707h-72v-780h65v641l277 -641h70z" />
    <glyph glyph-name="_483" unicode="&#x39d;" horiz-adv-x="696" 
d="M614 3v780h-65v-662l-402 662h-65v-780h65v662l402 -662h65z" />
    <glyph glyph-name="_484" unicode="&#x39e;" horiz-adv-x="607" 
d="M51 726h506v57h-506v-57zM45 3h517v57h-517v-57zM90 374h427v57h-427v-57z" />
    <glyph glyph-name="_485" unicode="&#x39f;" horiz-adv-x="702" 
d="M578 393q0 -168 -51 -256.5t-178 -88.5q-125 0 -176 89t-51 256t51.5 256t175.5 89q126 0 177.5 -89t51.5 -256zM58 393q0 -191 67.5 -296.5t223.5 -105.5q82 0 140 29t91 84t47.5 125.5t14.5 163.5q0 91 -14.5 161t-47 126t-91 85.5t-140.5 29.5q-81 0 -139 -29.5
t-90.5 -85t-47 -126t-14.5 -161.5z" />
    <glyph glyph-name="_486" unicode="&#x3a0;" horiz-adv-x="685" 
d="M538 3h65v780h-521v-780h65v723h391v-723z" />
    <glyph glyph-name="_487" unicode="&#x3a1;" horiz-adv-x="646" 
d="M147 364v362h216q90 0 136.5 -47.5t46.5 -133.5q0 -85 -47 -133t-136 -48h-216zM368 307q118 0 180.5 63.5t62.5 174.5t-62.5 174.5t-180.5 63.5h-286v-780h65v304h221z" />
    <glyph glyph-name="_488" unicode="&#x3a3;" horiz-adv-x="567" 
d="M59 61v-58h468v57h-393l197 333v24l-195 309h391v57h-468v-58l203 -320z" />
    <glyph glyph-name="_489" unicode="&#x3a4;" horiz-adv-x="569" 
d="M18 726h234v-723h65v723h234v57h-533v-57z" />
    <glyph glyph-name="_490" unicode="&#x3a5;" horiz-adv-x="649" 
d="M324 373l-237 410h-69l274 -472v-308h65v308l274 472h-69z" />
    <glyph glyph-name="_491" unicode="&#x3a6;" horiz-adv-x="791" 
d="M749 393q0 134 -86 201t-236 70v118h-64v-118q-149 -3 -235 -70t-86 -201q0 -135 86 -202t235 -70v-117h64v117q150 3 236 70t86 202zM684 393q0 -208 -257 -217v433q257 -9 257 -216zM363 176q-257 9 -257 217q0 207 257 216v-433z" />
    <glyph glyph-name="_492" unicode="&#x3a7;" horiz-adv-x="648" 
d="M541 782l-218 -332l-217 332h-71l248 -380l-263 -398h73l230 349l231 -349h72l-263 398l250 380h-72z" />
    <glyph glyph-name="_493" unicode="&#x3a8;" horiz-adv-x="753" 
d="M408 4v169q131 8 201.5 87t70.5 208v314h-64v-307q0 -112 -53 -175t-155 -70v552h-65v-552q-102 7 -154.5 70t-52.5 175v307h-65v-314q0 -129 70 -208t202 -87v-169h65z" />
    <glyph glyph-name="_494" unicode="&#x3a9;" horiz-adv-x="702" 
d="M351 796q-143 0 -215 -92q-77 -97 -77 -305q0 -278 153 -339h-133v-57h221v57q-97 27 -137 112t-40 221q0 194 64 278q57 68 164 68q108 0 162 -68q66 -84 66 -278q0 -135 -40 -220.5t-137 -112.5v-57h221v57h-134q154 61 154 339q0 206 -78 305q-72 92 -214 92z" />
    <glyph glyph-name="_495" unicode="&#x3b1;" horiz-adv-x="598" 
d="M520 559h-62v-102q-42 115 -182 115q-112 0 -169.5 -74t-57.5 -217t57.5 -216.5t169.5 -73.5q69 0 115.5 30.5t66.5 84.5q0 -55 19.5 -82.5t68.5 -27.5q14 0 32 2v51h-16q-24 0 -33 10.5t-9 38.5v461zM458 281q0 -238 -174 -238q-173 0 -173 238q0 239 173 239
q174 0 174 -239z" />
    <glyph glyph-name="_496" unicode="&#x3b2;" horiz-adv-x="600" 
d="M526 578q0 98 -60 158t-168 60t-168 -60.5t-60 -160.5v-813h63v338q47 -110 190 -110q110 0 173 60.5t63 161.5q0 83 -45 135.5t-120 65.5q63 15 97.5 59.5t34.5 105.5zM464 576q0 -59 -39.5 -98t-113.5 -39h-33v-52h33q87 0 136.5 -48.5t49.5 -123.5q0 -79 -48 -125.5
t-134 -46.5q-87 0 -134.5 50t-47.5 133v346q0 79 43.5 125t121.5 46q77 0 121.5 -44.5t44.5 -122.5z" />
    <glyph glyph-name="_497" unicode="&#x3b3;" horiz-adv-x="550" 
d="M306 -238v238l224 560h-67l-188 -480l-188 480h-67l224 -559v-239h62z" />
    <glyph glyph-name="_498" unicode="&#x3b4;" horiz-adv-x="569" 
d="M102 782v-53l202 -165q-15 5 -35 5q-108 0 -164 -76.5t-56 -211.5q0 -140 58.5 -215t176.5 -75t176.5 75t58.5 215q0 173 -90 248l-240 200h289v53h-376zM457 281q0 -238 -173 -238q-174 0 -174 238q0 239 174 239q173 0 173 -239z" />
    <glyph glyph-name="_499" unicode="&#x3b5;" horiz-adv-x="523" 
d="M266 313q-70 0 -107 28.5t-37 75.5t37.5 75.5t106.5 28.5t107 -28.5t38 -75.5v-11h62v11q0 69 -54 112.5t-153 43.5q-98 0 -152 -43.5t-54 -110.5q0 -50 31 -86t85 -46q-59 -10 -94 -46.5t-35 -92.5q0 -73 59.5 -115.5t163.5 -42.5q103 0 162.5 44.5t59.5 118.5v4h-62v-3
q0 -52 -44 -81.5t-116 -29.5q-74 0 -117.5 28t-43.5 80t44 81t117 29h68v52h-72z" />
    <glyph glyph-name="_500" unicode="&#x3b6;" horiz-adv-x="483" 
d="M410 39q-162 0 -232.5 46.5t-70.5 143.5q0 141 93 276.5t248 222.5v55h-346v-53h266q-142 -82 -232.5 -220t-90.5 -284q0 -239 342 -236q-6 -66 -64 -165l48 -14q77 113 77 196q0 19 -8 25.5t-30 6.5z" />
    <glyph glyph-name="_501" unicode="&#x3b7;" horiz-adv-x="588" 
d="M132 3v259q2 124 49 191.5t133 67.5q70 0 106.5 -51t36.5 -145v-563h62v585q0 108 -50 167t-142 59q-73 0 -123.5 -38t-71.5 -106v131h-62v-557h62z" />
    <glyph glyph-name="_502" unicode="&#x3b8;" horiz-adv-x="623" 
d="M565 393q0 152 -31 242t-84.5 125t-138.5 35q-129 0 -192 -90t-63 -312q0 -92 11.5 -161.5t32 -115t52.5 -73.5t70.5 -40t88.5 -12q63 0 108 19t79 64t50.5 124t16.5 195zM119 418q3 168 47.5 246.5t144.5 78.5t144.5 -78.5t47.5 -246.5h-384zM503 368
q-3 -168 -47.5 -246.5t-144.5 -78.5t-144.5 78.5t-47.5 246.5h384z" />
    <glyph glyph-name="_503" unicode="&#x3b9;" horiz-adv-x="222" 
d="M133 560h-63v-469q0 -51 20.5 -73.5t68.5 -22.5q13 0 33 2v51h-16q-25 0 -34 10.5t-9 39.5v462z" />
    <glyph glyph-name="_504" unicode="&#x3ba;" horiz-adv-x="501" 
d="M133 3v265h71l217 -265h74l-238 291l213 266h-72l-194 -240h-71v240h-63v-557h63z" />
    <glyph glyph-name="_505" unicode="&#x3bb;" horiz-adv-x="527" 
d="M232 555l-224 -552h66l190 473l189 -473h66l-278 689q-25 63 -56.5 83.5t-87.5 20.5q-20 0 -29 -1v-52h24q36 0 56.5 -14.5t36.5 -55.5z" />
    <glyph glyph-name="_506" unicode="&#x3bc;" horiz-adv-x="590" 
d="M274 -10q67 0 114.5 34.5t69.5 97.5v-119h61v557h-61v-286q-1 -107 -52.5 -169t-129.5 -62q-70 0 -106.5 44.5t-36.5 128.5v344h-63v-798h63v318q34 -90 141 -90z" />
    <glyph glyph-name="_507" unicode="&#x3bd;" horiz-adv-x="550" 
d="M239 4h71l220 555h-67l-188 -482l-189 482h-66z" />
    <glyph glyph-name="_508" unicode="&#x3be;" horiz-adv-x="507" 
d="M470 7q0 19 -7.5 25.5t-30.5 6.5q-157 2 -241 53t-84 146q0 83 58.5 141t134.5 58h69v52h-96q-57 0 -94 34.5t-37 92.5q0 60 35.5 93.5t100.5 33.5q62 0 97.5 -30.5t39.5 -82.5h62q-3 72 -53.5 119t-145.5 47q-96 0 -147 -49.5t-51 -126.5q0 -65 37 -107t97 -54
q-76 -27 -122.5 -86t-46.5 -141q0 -114 97.5 -178t267.5 -64q-7 -66 -64 -165l47 -14q77 113 77 196z" />
    <glyph glyph-name="_509" unicode="&#x3bf;" horiz-adv-x="569" 
d="M520 282q0 140 -59 215.5t-177 75.5t-176.5 -75.5t-58.5 -215.5t58.5 -216t176.5 -76t177 76t59 216zM458 282q0 -239 -174 -239q-90 0 -131.5 60.5t-41.5 178.5q0 239 173 239q174 0 174 -239z" />
    <glyph glyph-name="_510" unicode="&#x3c0;" horiz-adv-x="589" 
d="M178 508h232v-505h62v505h91v52h-537v-52h90v-505h62v505z" />
    <glyph glyph-name="_511" unicode="&#x3c1;" horiz-adv-x="579" 
d="M58 -238h62v343q19 -54 65.5 -84t115.5 -30q112 0 170 74t58 216q0 140 -59 215.5t-177 75.5t-176.5 -75.5t-58.5 -215.5v-519zM467 281q0 -238 -174 -238q-173 0 -173 238q0 239 173 239q174 0 174 -239z" />
    <glyph glyph-name="_512" unicode="&#x3c3;" horiz-adv-x="575" 
d="M284 -10q117 0 176.5 75t59.5 210q0 90 -29 150.5t-84 82.5h142v52h-265q-117 0 -176 -75t-59 -210t59 -210t176 -75zM458 275q0 -232 -174 -232q-173 0 -173 232q0 233 173 233q174 0 174 -233z" />
    <glyph glyph-name="_513" unicode="&#x3c4;" horiz-adv-x="489" 
d="M466 560h-446v-52h185v-392q0 -66 25 -93.5t89 -27.5q27 0 42 3v50h-32q-34 0 -48 14.5t-14 52.5v393h199v52z" />
    <glyph glyph-name="_514" unicode="&#x3c5;" horiz-adv-x="576" 
d="M288 -10q107 0 165.5 57.5t58.5 171.5v341h-63v-340q0 -177 -161 -177t-161 177v340h-63v-341q0 -114 58.5 -171.5t165.5 -57.5z" />
    <glyph glyph-name="_515" unicode="&#x3c6;" horiz-adv-x="758" 
d="M648 275q0 -126 -53.5 -178.5t-184.5 -53.5v465q131 -2 184.5 -54.5t53.5 -178.5zM709 275q0 146 -70.5 215t-231.5 70h-59v-517q-131 1 -184 53.5t-53 178.5q0 101 32 151.5t99 68.5l-10 53q-96 -23 -140 -88.5t-44 -184.5q0 -146 69 -214.5t231 -70.5v-228h62v228
q162 2 230.5 70.5t68.5 214.5z" />
    <glyph glyph-name="_516" unicode="&#x3c7;" horiz-adv-x="536" 
d="M451 559l-183 -335l-184 335h-66l213 -389l-224 -408h66l195 353l194 -353h67l-224 408l213 389h-67z" />
    <glyph glyph-name="_517" unicode="&#x3c8;" horiz-adv-x="721" 
d="M390 -238v230q124 5 195 66.5t71 171.5v329h-62v-328q0 -88 -55 -135t-149 -51v514h-61v-514q-94 4 -148.5 51t-54.5 135v328h-62v-329q0 -110 71 -171.5t194 -66.5v-230h61z" />
    <glyph glyph-name="_518" unicode="&#x3c9;" horiz-adv-x="825" 
d="M412 113q14 -58 57.5 -90t107.5 -32q194 0 194 272q0 143 -57 296h-63q58 -157 58 -293q0 -223 -137 -223q-129 0 -129 188v219h-62v-219q0 -188 -130 -188q-136 0 -136 223q0 136 58 293h-62q-58 -156 -58 -296q0 -272 194 -272q64 0 107.5 32t57.5 90z" />
    <glyph glyph-name="_1026" unicode="&#x401;" horiz-adv-x="573" 
d="M82 4h445v57h-381v312h336v58h-336v292h376v58h-440v-777zM247 975h-74v-77h74v77zM427 975h-74v-77h74v77z" />
    <glyph glyph-name="_1020" unicode="&#x410;" horiz-adv-x="658" 
d="M293 781l-281 -777h68l68 194h361l69 -194h68l-282 777h-71zM329 708l160 -454h-321z" />
    <glyph glyph-name="_1021" unicode="&#x411;" horiz-adv-x="622" 
d="M535 781h-453v-777h267q110 0 171.5 58t61.5 171t-61.5 170.5t-171.5 57.5h-203v262h389v58zM518 233q0 -171 -180 -171h-192v342h192q87 0 133.5 -43t46.5 -128z" />
    <glyph glyph-name="_1022" unicode="&#x412;" horiz-adv-x="655" 
d="M369 4q240 0 240 211q0 78 -37.5 127t-107.5 62q58 15 90.5 60.5t32.5 116.5q0 96 -57.5 148t-169.5 52h-278v-777h287zM522 577q0 -146 -174 -146h-202v292h202q174 0 174 -146zM146 62v312h209q101 0 145.5 -39t44.5 -118q0 -78 -44.5 -116.5t-145.5 -38.5h-209z" />
    <glyph glyph-name="_1023" unicode="&#x413;" horiz-adv-x="528" 
d="M82 781v-777h64v719h370v58h-434z" />
    <glyph glyph-name="_1024" unicode="&#x414;" horiz-adv-x="676" 
d="M189 725h322v-664h-357q35 159 35 362v302zM124 428q0 -211 -38 -367h-71v-190h64v133h509v-133h64v190h-77v720h-451v-353z" />
    <glyph glyph-name="_1025" unicode="&#x415;" horiz-adv-x="573" 
d="M82 4h445v57h-381v312h336v58h-336v292h376v58h-440v-777z" />
    <glyph glyph-name="_1027" unicode="&#x416;" horiz-adv-x="931" 
d="M497 781h-64v-351h-105l-215 351h-71l233 -379l-267 -398h73l247 370h105v-370h64v370h106l247 -370h73l-267 398l232 379h-69l-216 -351h-106v351z" />
    <glyph glyph-name="_1028" unicode="&#x417;" horiz-adv-x="609" 
d="M212 444v-56h88q87 0 140.5 -47.5t53.5 -124.5q0 -76 -52.5 -122.5t-139.5 -46.5t-140 47t-53 122v15h-64v-16q0 -100 70.5 -162t186.5 -62q117 0 187 62t70 162q0 77 -44 131.5t-121 69.5q64 15 103 61.5t39 116.5q0 85 -63 142.5t-171 57.5q-107 0 -170.5 -57.5
t-63.5 -142.5v-16h65v12q0 65 46 106t123 41t123 -41t46 -106q0 -67 -45.5 -106.5t-125.5 -39.5h-88z" />
    <glyph glyph-name="_1029" unicode="&#x418;" horiz-adv-x="694" 
d="M547 781l-401 -659v659h-64v-777h64l401 659v-659h64v777h-64z" />
    <glyph glyph-name="_1030" unicode="&#x419;" horiz-adv-x="694" 
d="M547 781l-401 -659v659h-64v-777h64l401 659v-659h64v777h-64zM347 853q72 0 113.5 42.5t45.5 121.5h-58q-6 -114 -101 -114q-96 0 -102 114h-58q4 -79 45.5 -121.5t114.5 -42.5z" />
    <glyph glyph-name="_1031" unicode="&#x41a;" horiz-adv-x="613" 
d="M581 781h-75l-257 -350h-103v350h-64v-777h64v369h103l291 -369h76l-317 397z" />
    <glyph glyph-name="_1032" unicode="&#x41b;" horiz-adv-x="715" 
d="M118 133q0 -45 -17.5 -62.5t-57.5 -17.5h-30v-55q12 -2 42 -2q67 0 97 29.5t30 103.5v594h386v-719h65v777h-515v-648z" />
    <glyph glyph-name="_1033" unicode="&#x41c;" horiz-adv-x="916" 
d="M493 4l276 638v-638h64v777h-71l-304 -705l-305 705h-71v-777h64v638l276 -638h71z" />
    <glyph glyph-name="_1034" unicode="&#x41d;" horiz-adv-x="682" 
d="M536 4h64v777h-64v-351h-390v351h-64v-777h64v369h390v-369z" />
    <glyph glyph-name="_1035" unicode="&#x41e;" horiz-adv-x="702" 
d="M642 393q0 212 -77 310q-74 91 -214 91t-214 -91q-78 -100 -78 -310q0 -211 78 -311q72 -91 214 -91t214 91q77 98 77 311zM578 393q0 -193 -64 -276q-58 -70 -163 -70q-107 0 -163 70q-64 81 -64 276q0 194 64 275q56 69 163 69q105 0 163 -69q64 -83 64 -275z" />
    <glyph glyph-name="_1036" unicode="&#x41f;" horiz-adv-x="682" 
d="M536 4h64v777h-518v-777h64v719h390v-719z" />
    <glyph glyph-name="_1037" unicode="&#x420;" horiz-adv-x="644" 
d="M146 364v359h215q90 0 137 -47t47 -132t-47 -132.5t-137 -47.5h-215zM367 307q117 0 179.5 63t62.5 174t-62.5 174t-179.5 63h-285v-777h64v303h221z" />
    <glyph glyph-name="_1038" unicode="&#x421;" horiz-adv-x="687" 
d="M350 -9q128 0 201.5 71t81.5 195h-65q-8 -99 -63 -154.5t-155 -55.5q-106 0 -162 70q-65 83 -65 276q0 192 65 275q56 69 162 69q100 0 155 -55.5t63 -153.5h65q-8 123 -81.5 194.5t-201.5 71.5q-141 0 -213 -91q-78 -98 -78 -310q0 -213 78 -311q71 -91 213 -91z" />
    <glyph glyph-name="_1039" unicode="&#x422;" horiz-adv-x="566" 
d="M17 723h234v-719h64v719h234v58h-532v-58z" />
    <glyph glyph-name="_1040" unicode="&#x423;" horiz-adv-x="630" 
d="M238 110q-14 -29 -29 -39.5t-39 -10.5h-35v-55q11 -1 41 -1q49 0 75 19t51 72l315 686h-67l-229 -494l-233 494h-67l265 -567z" />
    <glyph glyph-name="_1041" unicode="&#x424;" horiz-adv-x="790" 
d="M107 393q0 206 256 214v-429q-256 7 -256 215zM427 781h-64v-118q-149 -3 -234.5 -69.5t-85.5 -200.5q0 -135 85.5 -201.5t234.5 -70.5v-117h64v117q149 4 235 70.5t86 201.5q0 133 -86 200t-235 70v118zM683 393q0 -208 -256 -215v429q256 -8 256 -214z" />
    <glyph glyph-name="_1042" unicode="&#x425;" horiz-adv-x="645" 
d="M551 4h73l-261 397l247 380h-71l-217 -332l-216 332h-71l247 -380l-261 -397h72l229 350z" />
    <glyph glyph-name="_1043" unicode="&#x426;" horiz-adv-x="702" 
d="M536 62h-390v719h-64v-777h531v-133h64v191h-77v719h-64v-719z" />
    <glyph glyph-name="_1044" unicode="&#x427;" horiz-adv-x="659" 
d="M513 4h64v777h-65v-386q-86 -70 -209 -70q-86 0 -126.5 44t-40.5 140v272h-64v-281q0 -118 55 -175t165 -57q138 0 221 68v-332z" />
    <glyph glyph-name="_1045" unicode="&#x428;" horiz-adv-x="1043" 
d="M896 61h-342v720h-65v-720h-343v720h-64v-777h879v777h-65v-720z" />
    <glyph glyph-name="_1046" unicode="&#x429;" horiz-adv-x="1061" 
d="M974 4v-133h64v190h-77v720h-65v-720h-342v720h-65v-720h-343v720h-64v-777h892z" />
    <glyph glyph-name="_1047" unicode="&#x42a;" horiz-adv-x="754" 
d="M279 781h-262v-58h198v-719h267q110 0 171.5 58t61.5 171t-61.5 170.5t-171.5 57.5h-203v320zM651 233q0 -171 -180 -171h-192v342h192q87 0 133.5 -43t46.5 -128z" />
    <glyph glyph-name="_1048" unicode="&#x42b;" horiz-adv-x="821" 
d="M738 781h-64v-777h64v777zM146 781h-64v-777h267q110 0 171.5 58t61.5 171t-61.5 170.5t-171.5 57.5h-203v320zM518 233q0 -171 -180 -171h-192v342h192q87 0 133.5 -43t46.5 -128z" />
    <glyph glyph-name="_1049" unicode="&#x42c;" horiz-adv-x="622" 
d="M146 781h-64v-777h267q110 0 171.5 58t61.5 171t-61.5 170.5t-171.5 57.5h-203v320zM518 233q0 -171 -180 -171h-192v342h192q87 0 133.5 -43t46.5 -128z" />
    <glyph glyph-name="_1050" unicode="&#x42d;" horiz-adv-x="687" 
d="M337 -9q142 0 213 91q78 100 78 311q0 210 -78 310q-72 91 -213 91q-128 0 -201.5 -71.5t-81.5 -194.5h65q7 98 62.5 153.5t155.5 55.5q106 0 162 -69q61 -78 64 -247h-279v-58h279q-3 -170 -64 -246q-56 -70 -162 -70q-100 0 -155.5 55.5t-62.5 154.5h-65
q8 -124 81.5 -195t201.5 -71z" />
    <glyph glyph-name="_1051" unicode="&#x42e;" horiz-adv-x="885" 
d="M826 393q0 210 -78 310q-74 91 -214 91q-141 0 -213 -91q-73 -90 -78 -282h-97v360h-64v-777h64v359h97q5 -190 78 -281q71 -91 213 -91t214 91q78 100 78 311zM761 393q0 -193 -64 -276q-56 -70 -163 -70q-108 0 -162 70q-65 83 -65 276q0 192 65 275q55 69 162 69
t163 -69q64 -83 64 -275z" />
    <glyph glyph-name="_1052" unicode="&#x42f;" horiz-adv-x="667" 
d="M118 4q9 25 12 70l8 110q5 73 43 104.5t129 31.5h211v-316h64v777h-287q-119 0 -179.5 -60t-60.5 -167q0 -165 138 -205q-59 -11 -88 -49.5t-35 -114.5l-7 -110q-5 -47 -14 -71h66zM304 378q-89 0 -135.5 43.5t-46.5 128.5t46.5 129t135.5 44h217v-345h-217z" />
    <glyph glyph-name="_1053" unicode="&#x430;" horiz-adv-x="566" 
d="M440 167q0 -58 -42.5 -90.5t-124.5 -32.5t-124 32.5t-42 90.5t42 90.5t124 32.5t124.5 -32.5t42.5 -90.5zM440 65q2 -39 12 -61h64q-14 31 -14 77v290q0 94 -56 147.5t-162 53.5q-98 0 -153 -46.5t-63 -125.5h62q7 55 45 87t109 32q76 0 116 -39t40 -107v-104
q-40 75 -179 75q-101 0 -158 -47.5t-57 -129.5q0 -83 57 -129.5t158 -46.5q141 0 179 74z" />
    <glyph glyph-name="_1054" unicode="&#x431;" horiz-adv-x="573" 
d="M462 281q0 -237 -173 -237t-173 237q0 238 173 238t173 -238zM116 466q1 44 3 72.5t10.5 55.5t15.5 42.5t28.5 31.5t39 23.5t57.5 17.5t73 16t96 16l-19 53q-176 -32 -218 -46q-81 -27 -111 -86q-34 -67 -36 -257v-34q0 -119 8.5 -179t35.5 -104q59 -97 190 -97
q118 0 176.5 75.5t58.5 214.5q0 142 -58.5 216.5t-168.5 74.5q-70 0 -116 -29t-65 -77z" />
    <glyph glyph-name="_1055" unicode="&#x432;" horiz-adv-x="537" 
d="M310 4q185 0 185 150q0 112 -101 134q89 28 89 124q0 147 -185 147h-227v-555h239zM433 159q0 -55 -33 -78.5t-98 -23.5h-170v204h170q65 0 98 -23.5t33 -78.5zM132 313v193h162q66 0 96.5 -23t30.5 -74t-30.5 -73.5t-96.5 -22.5h-162z" />
    <glyph glyph-name="_1056" unicode="&#x433;" horiz-adv-x="428" 
d="M409 506v53h-338v-555h61v502h277z" />
    <glyph glyph-name="_1057" unicode="&#x434;" horiz-adv-x="552" 
d="M159 506h246v-449h-267q21 105 21 268v181zM98 320q0 -154 -24 -263h-61v-175h62v122h396v-122h62v175h-66v502h-369v-239z" />
    <glyph glyph-name="_1058" unicode="&#x435;" horiz-adv-x="568" 
d="M518 263v18q0 139 -58.5 215t-175.5 76t-176 -76t-59 -215t59 -214.5t176 -75.5q93 0 149.5 45t72.5 129h-63q-25 -121 -158 -121q-170 0 -175 219h408zM284 519q163 0 172 -205h-344q8 205 172 205z" />
    <glyph glyph-name="_1060" unicode="&#x436;" horiz-adv-x="747" 
d="M343 559v-239h-86l-154 239h-67l172 -266l-198 -289h69l178 263h86v-263h61v263h86l178 -263h69l-198 289l173 266h-68l-154 -239h-86v239h-61z" />
    <glyph glyph-name="_1061" unicode="&#x437;" horiz-adv-x="526" 
d="M190 313v-53h68q74 0 117 -28.5t43 -80.5q0 -51 -43 -79t-117 -28q-72 0 -116 29.5t-44 80.5v3h-61v-4q0 -74 59 -118t162 -44q104 0 162.5 42t58.5 115q0 55 -33.5 91t-90.5 47q53 12 82.5 47.5t29.5 84.5q0 67 -54 110.5t-152 43.5t-151.5 -43t-53.5 -112v-12h61v12
q0 46 37.5 74t106.5 28t107 -28.5t38 -73.5q0 -47 -37.5 -75.5t-107.5 -28.5h-71z" />
    <glyph glyph-name="_1062" unicode="&#x438;" horiz-adv-x="567" 
d="M434 559l-302 -454v454h-61v-555h61l302 453v-453h62v555h-62z" />
    <glyph glyph-name="_1063" unicode="&#x439;" horiz-adv-x="567" 
d="M434 559l-302 -454v454h-61v-555h61l302 453v-453h62v555h-62zM283 634q72 0 114 43t46 122h-58q-6 -114 -102 -114q-95 0 -102 114h-57q3 -79 45 -122t114 -43z" />
    <glyph glyph-name="_1064" unicode="&#x43a;" horiz-adv-x="499" 
d="M132 4v262h70l216 -262h75l-237 290l212 265h-73l-192 -239h-71v239h-61v-555h61z" />
    <glyph glyph-name="_1065" unicode="&#x43b;" horiz-adv-x="588" 
d="M100 117q0 -38 -13.5 -53t-45.5 -15h-24v-52q9 -1 31 -1q58 0 86 27.5t28 95.5v387h294v-502h61v555h-417v-442z" />
    <glyph glyph-name="_1066" unicode="&#x43c;" horiz-adv-x="713" 
d="M382 4l199 420v-420h61v555h-61l-224 -473l-225 473h-61v-555h61v420l199 -420h51z" />
    <glyph glyph-name="_1067" unicode="&#x43d;" horiz-adv-x="562" 
d="M492 559h-62v-244h-298v244h-61v-555h61v258h298v-258h62v555z" />
    <glyph glyph-name="_1068" unicode="&#x43e;" horiz-adv-x="568" 
d="M518 281q0 139 -58.5 215t-175.5 76t-176 -76t-59 -215t59 -214.5t176 -75.5t175.5 75.5t58.5 214.5zM110 281q0 238 174 238q173 0 173 -238q0 -237 -173 -237q-174 0 -174 237z" />
    <glyph glyph-name="_1069" unicode="&#x43f;" horiz-adv-x="562" 
d="M492 559h-421v-555h61v502h298v-502h62v555z" />
    <glyph glyph-name="_1070" unicode="&#x440;" horiz-adv-x="589" 
d="M132 97q20 -49 65.5 -77.5t114.5 -28.5q111 0 169.5 74t58.5 216t-58.5 216.5t-169.5 74.5q-138 0 -180 -107v94h-61v-796h61v334zM132 281q0 238 174 238q173 0 173 -238q0 -237 -173 -237q-174 0 -174 237z" />
    <glyph glyph-name="_1071" unicode="&#x441;" horiz-adv-x="557" 
d="M49 281q0 -140 59 -215t176 -75q98 0 156 49.5t69 139.5h-63q-8 -65 -49.5 -100.5t-112.5 -35.5q-174 0 -174 237q0 238 174 238q71 0 112.5 -36t49.5 -101h63q-11 91 -69 140.5t-156 49.5q-117 0 -176 -75.5t-59 -215.5z" />
    <glyph glyph-name="_1072" unicode="&#x442;" horiz-adv-x="475" 
d="M206 506v-502h62v502h188v53h-437v-53h187z" />
    <glyph glyph-name="_1073" unicode="&#x443;" horiz-adv-x="549" 
d="M195 -117q-16 -41 -36 -54.5t-57 -13.5h-23v-51q9 -1 28 -1q57 0 89 20.5t56 81.5l277 694h-66l-188 -479l-190 479h-65l223 -556z" />
    <glyph glyph-name="_1074" unicode="&#x444;" horiz-adv-x="976" 
d="M457 465q-42 107 -179 107q-112 0 -170.5 -74.5t-58.5 -216.5t58.5 -216t170.5 -74q137 0 179 106v-334h61v334q20 -49 65.5 -77.5t114.5 -28.5q112 0 170 74t58 216q0 143 -58 217t-170 74q-138 0 -180 -107v316h-61v-316zM865 281q0 -237 -174 -237q-173 0 -173 237
q0 238 173 238q174 0 174 -238zM110 281q0 238 174 238q173 0 173 -238q0 -237 -173 -237q-174 0 -174 237z" />
    <glyph glyph-name="_1075" unicode="&#x445;" horiz-adv-x="507" 
d="M427 4h70l-206 284l195 271h-70l-163 -226l-162 226h-70l195 -271l-206 -284h70l173 239z" />
    <glyph glyph-name="_1076" unicode="&#x446;" horiz-adv-x="577" 
d="M71 4h425v-122h62v175h-66v502h-62v-502h-298v502h-61v-555z" />
    <glyph glyph-name="_1077" unicode="&#x447;" horiz-adv-x="543" 
d="M411 4h62v555h-62v-280q-57 -55 -157 -55q-132 0 -132 138v197h-62v-202q0 -186 185 -186q109 0 166 52v-219z" />
    <glyph glyph-name="_1078" unicode="&#x448;" horiz-adv-x="839" 
d="M768 559h-61v-502h-257v502h-62v-502h-256v502h-61v-555h697v555z" />
    <glyph glyph-name="_1079" unicode="&#x449;" horiz-adv-x="854" 
d="M71 4h702v-122h62v175h-67v502h-61v-502h-257v502h-62v-502h-256v502h-61v-555z" />
    <glyph glyph-name="_1080" unicode="&#x44a;" horiz-adv-x="601" 
d="M566 185q0 85 -49 133t-142 48h-161v193h-195v-53h133v-502h223q93 0 142 48t49 133zM504 185q0 -128 -137 -128h-153v255h153q137 0 137 -127z" />
    <glyph glyph-name="_1081" unicode="&#x44b;" horiz-adv-x="694" 
d="M623 4v555h-62v-555h62zM485 185q0 85 -49 133t-143 48h-161v193h-61v-555h222q94 0 143 48t49 133zM423 185q0 -62 -35 -95t-102 -33h-154v255h154q67 0 102 -32.5t35 -94.5z" />
    <glyph glyph-name="_1082" unicode="&#x44c;" horiz-adv-x="520" 
d="M485 185q0 85 -49 133t-143 48h-161v193h-61v-555h222q94 0 143 48t49 133zM423 185q0 -62 -35 -95t-102 -33h-154v255h154q67 0 102 -32.5t35 -94.5z" />
    <glyph glyph-name="_1083" unicode="&#x44d;" horiz-adv-x="557" 
d="M507 281q0 140 -58.5 215.5t-176.5 75.5q-98 0 -156 -49.5t-69 -140.5h63q8 65 49.5 101t112.5 36q165 0 174 -211h-200v-54h200q-9 -210 -174 -210q-71 0 -112.5 35.5t-49.5 100.5h-63q11 -90 69.5 -139.5t155.5 -49.5q118 0 176.5 75t58.5 215z" />
    <glyph glyph-name="_1084" unicode="&#x44e;" horiz-adv-x="728" 
d="M678 281q0 139 -58.5 215t-175.5 76q-112 0 -170.5 -68.5t-64.5 -195.5h-77v251h-61v-555h61v250h77q6 -127 64.5 -195t170.5 -68q117 0 175.5 75.5t58.5 214.5zM270 281q0 238 174 238q173 0 173 -238q0 -237 -173 -237q-174 0 -174 237z" />
    <glyph glyph-name="_1085" unicode="&#x44f;" horiz-adv-x="548" 
d="M158 251q-60 -13 -76.5 -51.5t-22.5 -144.5q-1 -29 -8 -51h61q8 22 10 56.5t3.5 60t10.5 51t37 39t76 13.5h167v-220h61v555h-232q-91 0 -141 -42t-50 -119q0 -58 27.5 -96.5t76.5 -50.5zM250 278q-135 0 -135 113q0 58 36 86.5t99 28.5h166v-228h-166z" />
    <glyph glyph-name="_1059" unicode="&#x451;" horiz-adv-x="568" 
d="M518 263v18q0 139 -58.5 215t-175.5 76t-176 -76t-59 -215t59 -214.5t176 -75.5q93 0 149.5 45t72.5 129h-63q-25 -121 -158 -121q-170 0 -175 219h408zM284 519q163 0 172 -205h-344q8 205 172 205zM409 754h-74v-77h74v77zM229 754h-74v-77h74v77z" />
    <glyph glyph-name="_18159" unicode="&#x2015;" 
d="M55 394v-56h850v56h-850z" />
    <glyph glyph-name="_114" unicode="&#x2018;" horiz-adv-x="292" 
d="M205 867q-95 -17 -95 -107v-130h73v111h-30q0 41 11 60.5t41 25.5v40z" />
    <glyph glyph-name="_115" unicode="&#x2019;" horiz-adv-x="292" 
d="M88 630q53 8 73.5 40t20.5 100v97h-73v-111h30q1 -41 -10.5 -60t-40.5 -26v-40z" />
    <glyph glyph-name="_8238" unicode="&#x201b;" horiz-adv-x="480" 
d="M226 798q0 -57 -56 -57q19 -64 96 -87l-13 -30q-140 28 -140 174q0 29 13 42.5t43 13.5q57 0 57 -56z" />
    <glyph glyph-name="_116" unicode="&#x201c;" horiz-adv-x="438" 
d="M205 867q-95 -17 -95 -107v-130h73v111h-30q0 41 11 60.5t41 25.5v40zM348 867q-95 -17 -95 -107v-130h73v111h-30q0 41 11 60.5t41 25.5v40z" />
    <glyph glyph-name="_117" unicode="&#x201d;" horiz-adv-x="438" 
d="M90 630q53 8 73.5 40t20.5 100v97h-74v-111h31q0 -42 -11 -61t-40 -25v-40zM233 630q53 8 73.5 40t20.5 100v97h-74v-111h31q0 -41 -11 -60.5t-40 -25.5v-40z" />
    <glyph glyph-name="_8237" unicode="&#x201f;" horiz-adv-x="480" 
d="M229 798q0 -57 -56 -57q19 -64 96 -87l-13 -30q-140 28 -140 174q0 29 13 42.5t43 13.5q57 0 57 -56zM379 798q0 -57 -56 -57q19 -64 96 -87l-13 -30q-140 28 -140 174q0 29 13 42.5t43 13.5q57 0 57 -56z" />
    <glyph glyph-name="_245" unicode="&#x2020;" 
d="M709 649h-200v187h-58v-187h-200v-52h200v-740h58v740h200v52z" />
    <glyph glyph-name="_246" unicode="&#x2021;" 
d="M251 44h200v-187h58v187h200v53h-200v500h200v52h-200v187h-58v-187h-200v-52h200v-500h-200v-53z" />
    <glyph glyph-name="_8607" unicode="&#x2022;" 
d="M599 391q0 -48 -34.5 -82.5t-83.5 -34.5q-50 0 -85 34.5t-35 82.5t35 82t85 34q49 0 83.5 -34t34.5 -82z" />
    <glyph glyph-name="_8058" unicode="&#x2025;" 
d="M296 479h-73v-109h73v109zM736 479h-73v-109h73v109z" />
    <glyph glyph-name="_106" unicode="&#x2026;" 
d="M516 479h-73v-109h73v109zM226 479h-73v-109h73v109zM806 479h-73v-109h73v109z" />
    <glyph glyph-name="_216" unicode="&#x2030;" horiz-adv-x="1219" 
d="M299 4l319 777h-55l-319 -777h55zM371 585q0 209 -153 209t-153 -209q0 -210 153 -210t153 210zM317 585q0 -88 -25.5 -126t-73.5 -38q-49 0 -74.5 38t-25.5 126q0 163 100 163q99 0 99 -163zM492 200q0 -209 153 -209t153 209q0 105 -39.5 157.5t-113.5 52.5
q-153 0 -153 -210zM545 200q0 88 25.5 126t74.5 38q99 0 99 -164q0 -88 -25.5 -125.5t-73.5 -37.5q-49 0 -74.5 37.5t-25.5 125.5zM847 200q0 -209 154 -209q153 0 153 209q0 105 -39.5 157.5t-113.5 52.5t-114 -52.5t-40 -157.5zM901 200q0 88 25.5 126t74.5 38
q99 0 99 -164q0 -88 -25.5 -125.5t-73.5 -37.5q-49 0 -74.5 37.5t-25.5 125.5z" />
    <glyph glyph-name="_139" unicode="&#x2032;" horiz-adv-x="187" 
d="M85 535l70 247h-63l-60 -247h53z" />
    <glyph glyph-name="_140" unicode="&#x2033;" horiz-adv-x="329" 
d="M85 535l70 247h-63l-60 -247h53zM227 535l69 247h-63l-60 -247h54z" />
    <glyph glyph-name="_8612" unicode="&#x2039;" 
d="M116 391l728 443v-36l-657 -407l657 -405v-39z" />
    <glyph glyph-name="_8613" unicode="&#x203a;" 
d="M116 834l728 -443l-728 -444v39l658 405l-658 407v36z" />
    <glyph glyph-name="_156" unicode="&#x203b;" 
d="M541 697q0 26 -18 44t-43 18t-43 -18t-18 -44q0 -25 18 -43t43 -18t43 18t18 43zM178 456q-26 0 -43.5 -18t-17.5 -43t17.5 -43t43.5 -18t44 18t18 43t-18 43t-44 18zM782 334q26 0 43.5 18t17.5 43t-17.5 43t-43.5 18t-44 -18t-18 -43t18 -43t44 -18zM419 94
q0 -26 18 -44t43 -18t43 18t18 44q0 25 -18 43t-43 18t-43 -18t-18 -43zM835 720l-31 32l-324 -324l-322 324l-32 -33l322 -323l-323 -323l31 -32l324 324l324 -325l32 31l-325 325z" />
    <glyph glyph-name="_8763" unicode="&#x203c;" 
d="M349 193h-50l-26 405v208h103v-208zM260 49q0 64 63 64q34 0 49 -15.5t15 -48.5q0 -34 -15 -48.5t-49 -14.5q-33 0 -48 15t-15 48zM661 193h-50l-26 405v208h103v-208zM572 49q0 64 63 64q34 0 49 -15.5t15 -48.5q0 -34 -15 -48.5t-49 -14.5q-33 0 -48 15t-15 48z" />
    <glyph glyph-name="_8599" unicode="&#x2042;" 
d="M360 310l-73 -99l119 10v-64l-119 11l70 -100l-57 -35l-50 113l-50 -112l-58 33l72 101l-123 -11v64l123 -10l-73 100l56 35l53 -113l51 111zM823 310l-72 -99l118 10v-64l-118 11l70 -100l-58 -35l-50 113l-50 -112l-58 33l71 101l-122 -11v64l122 -10l-72 100l56 35
l53 -113l53 111zM602 509l-99 73l8 -119h-62l10 119l-99 -70l-36 57l114 50l-112 50l31 58l102 -71l-10 122h62l-8 -122l100 72l36 -56l-114 -53l111 -51z" />
    <glyph glyph-name="_845" unicode="&#x2074;" horiz-adv-x="405" 
d="M86 424l183 276v-276h-183zM377 424h-53v359h-61l-239 -363v-45h245v-109h55v109h53v49z" />
    <glyph glyph-name="_8239" unicode="&#x207a;" horiz-adv-x="480" 
d="M386 666v-62h-114v-131h-63v131h-115v62h115v131h63v-131h114z" />
    <glyph glyph-name="_8240" unicode="&#x207b;" horiz-adv-x="480" 
d="M94 604v62h292v-62h-292z" />
    <glyph glyph-name="_8248" unicode="&#x207c;" horiz-adv-x="480" 
d="M109 660v60h261v-60h-261zM109 540v60h261v-60h-261z" />
    <glyph glyph-name="_8250" unicode="&#x207d;" horiz-adv-x="480" 
d="M432 402h-51q-81 105 -81 230t81 230h50q-68 -109 -68 -230q0 -124 69 -230z" />
    <glyph glyph-name="_8251" unicode="&#x207e;" horiz-adv-x="480" 
d="M100 402h-51q69 106 69 230q0 121 -68 230h50q81 -105 81 -230t-81 -230z" />
    <glyph glyph-name="_846" unicode="&#x207f;" horiz-adv-x="405" 
d="M50 267h53v218q0 55 32 96.5t82 41.5q41 0 62.5 -25t21.5 -72v-259h55v264q0 66 -33.5 101.5t-92.5 35.5q-47 0 -79.5 -24t-47.5 -64v78h-53v-391z" />
    <glyph glyph-name="_847" unicode="&#x2081;" horiz-adv-x="405" 
d="M247 3v517h-49l-117 -54v-51l109 51v-463h57z" />
    <glyph glyph-name="_848" unicode="&#x2082;" horiz-adv-x="405" 
d="M303 370q0 -49 -36 -89l-213 -235v-43h305v49h-230l176 193q30 33 42.5 61t12.5 65q0 71 -43 114.5t-115 43.5q-73 0 -116 -43.5t-43 -114.5v-15h57v14q0 47 27 77.5t75 30.5t74.5 -30.5t26.5 -77.5z" />
    <glyph glyph-name="_849" unicode="&#x2083;" horiz-adv-x="405" 
d="M300 389q0 -43 -26.5 -67t-67.5 -24h-48v-48h48q47 0 76.5 -28t29.5 -77q0 -44 -30 -73.5t-79 -29.5q-51 0 -81 29.5t-30 75.5v22h-56v-22q0 -66 44 -109.5t123 -43.5q77 0 121.5 43t44.5 108q0 104 -99 130q85 25 85 118q0 60 -42 98t-110 38q-69 0 -111.5 -38.5
t-42.5 -98.5v-15h56v11q0 42 26 67t72 25q45 0 71 -24.5t26 -66.5z" />
    <glyph glyph-name="_850" unicode="&#x2084;" horiz-adv-x="405" 
d="M86 161l183 276v-276h-183zM377 161h-53v359h-61l-239 -363v-45h245v-109h55v109h53v49z" />
    <glyph glyph-name="_18160" unicode="&#x20ac;" horiz-adv-x="692" 
d="M61 359h-49v-41h51q28 -327 290 -327q128 0 201.5 71t81.5 194h-64q-8 -98 -63.5 -153t-155.5 -55q-112 0 -164 69t-62 201h235l8 41h-244v66h255l7 41h-261q10 130 62 201t164 71q100 0 155.5 -56t63.5 -154h64q-8 124 -81.5 195.5t-201.5 71.5q-141 0 -209 -86
t-81 -243h-51v-41h49v-66z" />
    <glyph glyph-name="_141" unicode="&#x2103;" 
d="M93 651q0 42 26.5 68t67.5 26q42 0 68 -26t26 -68q0 -43 -26 -69t-68 -26q-41 0 -67.5 26t-26.5 69zM44 651q0 -61 40 -101t103 -40t103 40t40 101q0 60 -40 100t-103 40t-103 -40t-40 -100zM358 393q0 -402 283 -402q124 0 196 71.5t79 193.5h-64q-8 -98 -61 -153
t-150 -55q-62 0 -105.5 24.5t-68 72t-35 108t-10.5 140.5q0 163 49 254t170 91q97 0 150 -56t61 -154h64q-7 123 -79.5 195t-195.5 72q-283 0 -283 -402z" />
    <glyph glyph-name="_215" unicode="&#x2109;" 
d="M330 651q0 61 -39.5 101t-103.5 40q-63 0 -103 -40t-40 -101t40 -100.5t103 -39.5q64 0 103.5 39.5t39.5 100.5zM282 651q0 -42 -26.5 -68.5t-68.5 -26.5q-40 0 -67 26.5t-27 68.5t27 68.5t67 26.5q42 0 68.5 -26.5t26.5 -68.5zM415 3h65v360h336v56h-336v307h371v57
h-436v-780z" />
    <glyph glyph-name="_590" unicode="&#x2113;" horiz-adv-x="534" 
d="M17 197l21 -51q49 11 74 20q13 -87 62.5 -131t129.5 -44q76 0 125.5 41.5t63.5 119.5l-61 12q-9 -60 -43 -90t-85 -30q-117 0 -131 143q305 118 305 392v9q0 99 -47.5 152.5t-137.5 53.5t-137.5 -53.5t-47.5 -152.5v-314q0 -35 1 -52q-40 -12 -92 -25zM170 589
q0 152 123 152q59 0 91 -39t32 -113v-10q0 -227 -245 -333q-1 16 -1 50v293z" />
    <glyph glyph-name="_258" unicode="&#x2116;" horiz-adv-x="958" 
d="M439 4h61v777h-61v-639l-295 639h-62v-777h62v638zM566 4h341v49h-341v-49zM912 367q0 112 -41.5 169t-133.5 57t-133.5 -57t-41.5 -169t41.5 -169t133.5 -57t133.5 57t41.5 169zM855 367q0 -91 -27.5 -133.5t-90.5 -42.5t-91 42.5t-28 133.5q0 90 28 133t91 43t90.5 -43
t27.5 -133z" />
    <glyph glyph-name="_263" unicode="&#x2121;" 
d="M754 292q-3 281 -209 281q-103 0 -156 -70t-53 -221q0 -292 209 -292q169 0 200 176h-63q-23 -123 -137 -123q-72 0 -109 53t-38 169h356v27zM545 521q140 0 146 -207h-292q4 207 146 207zM15 726h172v-723h65v723h172v57h-409v-57zM893 3v780h-63v-780h63z" />
    <glyph glyph-name="_260" unicode="&#x2122;" horiz-adv-x="723" 
d="M17 741h107v-330h49v330h108v42h-264v-42zM512 411l114 264v-264h47v372h-45l-135 -313l-135 313h-45v-372h47v264l114 -264h38z" />
    <glyph glyph-name="_643" unicode="&#x2126;" horiz-adv-x="702" 
d="M351 794q-142 0 -214 -91q-78 -97 -78 -307q0 -271 147 -335h-126v-57h220v57q-97 29 -136.5 113t-39.5 219q0 195 64 275q56 69 163 69q108 0 163 -69q64 -80 64 -275q0 -135 -39.5 -219t-136.5 -113v-57h219v57h-125q146 64 146 335q0 210 -77 307q-71 91 -214 91z" />
    <glyph glyph-name="_142" unicode="&#x212b;" 
d="M161 3h69l69 195h362l69 -195h68l-268 742q42 13 66 45.5t24 77.5q0 57 -39 93.5t-101 36.5t-101 -36.5t-39 -93.5q0 -45 24 -77.5t66 -45.5zM641 255h-323l162 456zM571 868q0 -39 -25.5 -62t-65.5 -23q-39 0 -65 23t-26 62q0 38 26 61t65 23q40 0 65.5 -23t25.5 -61z
" />
    <glyph glyph-name="_749" unicode="&#x2153;" 
d="M838 389q0 -43 -26.5 -67t-68.5 -24h-48v-48h48q48 0 77.5 -28t29.5 -76q0 -45 -30 -74.5t-80 -29.5t-80 29.5t-30 75.5v22h-56v-22q0 -65 44 -109t122 -44t122.5 43t44.5 108q0 103 -99 131q44 12 64.5 44t20.5 73q0 60 -42 98t-111 38t-111 -38.5t-42 -98.5v-15h55v11
q0 42 27 67.5t71 25.5q45 0 71.5 -25t26.5 -67zM224 266v517h-49l-116 -55v-51l109 52v-463h56zM650 783h-56l-380 -780h55z" />
    <glyph glyph-name="_750" unicode="&#x2154;" 
d="M297 633q0 -49 -36 -89l-213 -235v-43h305v49h-230l176 193q30 33 42.5 61t12.5 65q0 71 -43 114.5t-115 43.5q-73 0 -116 -43.5t-43 -114.5v-16h57v15q0 47 27 77.5t75 30.5t74.5 -30.5t26.5 -77.5zM694 783h-56l-380 -780h55zM858 389q0 -43 -26.5 -67t-68.5 -24h-48
v-48h48q48 0 77.5 -28t29.5 -76q0 -45 -30 -74.5t-80 -29.5t-80 29.5t-30 75.5v22h-56v-22q0 -65 44 -109t122 -44t122.5 43t44.5 108q0 103 -99 131q44 12 64.5 44t20.5 73q0 60 -42 98t-111 38t-111 -38.5t-42 -98.5v-15h55v11q0 42 27 67.5t71 25.5q45 0 71.5 -25
t26.5 -67z" />
    <glyph glyph-name="_753" unicode="&#x215b;" 
d="M737 -7q79 0 125.5 42t46.5 110q0 50 -26 85.5t-74 48.5q41 12 63.5 43t22.5 72q0 59 -43 96.5t-115 37.5q-71 0 -114 -37.5t-43 -96.5q0 -41 23 -72t63 -43q-47 -13 -73 -48.5t-26 -85.5q0 -68 45.5 -110t124.5 -42zM737 254q52 0 84 -29t32 -78q0 -48 -32 -77t-84 -29
q-51 0 -82.5 29t-31.5 77q0 49 31.5 78t82.5 29zM737 302q-47 0 -74 24.5t-27 63.5t26.5 64t74.5 25q49 0 76 -24.5t27 -64.5q0 -39 -27 -63.5t-76 -24.5zM224 266v517h-49l-116 -55v-51l109 52v-463h56zM650 783h-56l-380 -780h55z" />
    <glyph glyph-name="_754" unicode="&#x215c;" 
d="M292 651q0 -43 -26.5 -66.5t-68.5 -23.5h-47v-48h47q48 0 77.5 -27.5t29.5 -76.5q0 -46 -30 -75t-80 -29t-80 29.5t-30 75.5v22h-56v-22q0 -66 43.5 -109.5t122.5 -43.5q77 0 121.5 43.5t44.5 107.5q0 104 -98 130q44 13 64.5 45t20.5 72q0 61 -42 99t-111 38t-111 -38.5
t-42 -98.5v-15h55v11q0 42 26.5 67t71.5 25t71.5 -24.5t26.5 -67.5zM690 783h-55l-380 -780h55zM757 -7q79 0 125.5 42t46.5 110q0 50 -26 85.5t-74 48.5q41 12 63.5 43t22.5 72q0 59 -43 96.5t-115 37.5q-71 0 -114 -37.5t-43 -96.5q0 -41 23 -72t63 -43q-47 -13 -73 -48.5
t-26 -85.5q0 -68 45.5 -110t124.5 -42zM757 254q52 0 84 -29t32 -78q0 -48 -32 -77t-84 -29q-51 0 -82.5 29t-31.5 77q0 49 31.5 78t82.5 29zM757 302q-47 0 -74 24.5t-27 63.5t26.5 64t74.5 25q49 0 76 -24.5t27 -64.5q0 -39 -27 -63.5t-76 -24.5z" />
    <glyph glyph-name="_755" unicode="&#x215d;" 
d="M34 411q5 -71 46.5 -112t113.5 -41q77 0 119.5 47t42.5 128q0 82 -38 129.5t-110 47.5q-73 0 -104 -52l9 176h217v49h-268l-13 -285h52q11 30 36 47t60 17q51 0 77.5 -33.5t26.5 -94.5q0 -60 -27.5 -93t-79.5 -34q-46 1 -73 28t-32 76h-55zM690 783h-55l-380 -780h55z
M757 -7q79 0 125.5 42t46.5 110q0 50 -26 85.5t-74 48.5q41 12 63.5 43t22.5 72q0 59 -43 96.5t-115 37.5q-71 0 -114 -37.5t-43 -96.5q0 -41 23 -72t63 -43q-47 -13 -73 -48.5t-26 -85.5q0 -68 45.5 -110t124.5 -42zM757 254q52 0 84 -29t32 -78q0 -48 -32 -77t-84 -29
q-51 0 -82.5 29t-31.5 77q0 49 31.5 78t82.5 29zM757 302q-47 0 -74 24.5t-27 63.5t26.5 64t74.5 25q49 0 76 -24.5t27 -64.5q0 -39 -27 -63.5t-76 -24.5z" />
    <glyph glyph-name="_756" unicode="&#x215e;" 
d="M34 734h261l-177 -468h59l177 474v43h-320v-49zM669 783h-56l-380 -780h55zM757 -7q79 0 125.5 42t46.5 110q0 50 -26 85.5t-74 48.5q41 12 63.5 43t22.5 72q0 59 -43 96.5t-115 37.5q-71 0 -114 -37.5t-43 -96.5q0 -41 23 -72t63 -43q-47 -13 -73 -48.5t-26 -85.5
q0 -68 45.5 -110t124.5 -42zM757 254q52 0 84 -29t32 -78q0 -48 -32 -77t-84 -29q-51 0 -82.5 29t-31.5 77q0 49 31.5 78t82.5 29zM757 302q-47 0 -74 24.5t-27 63.5t26.5 64t74.5 25q49 0 76 -24.5t27 -64.5q0 -39 -27 -63.5t-76 -24.5z" />
    <glyph glyph-name="_461" unicode="&#x2160;" 
d="M582 3v57h-70v666h70v57h-205v-57h70v-666h-70v-57h205z" />
    <glyph glyph-name="_462" unicode="&#x2161;" 
d="M429 3v57h-67v666h67v57h-198v-57h66v-666h-66v-57h198zM729 3v57h-67v666h67v57h-198v-57h66v-666h-66v-57h198z" />
    <glyph glyph-name="_463" unicode="&#x2162;" 
d="M814 3v57h-62v666h62v57h-188v-57h61v-666h-61v-57h188zM574 3v57h-62v666h62v57h-188v-57h61v-666h-61v-57h188zM334 3v57h-62v666h62v57h-188v-57h61v-666h-61v-57h188z" />
    <glyph glyph-name="_464" unicode="&#x2163;" 
d="M325 3v57h-65v666h65v57h-195v-57h65v-666h-65v-57h195zM656 3l217 780h-69l-189 -706l-189 706h-66l215 -780h81z" />
    <glyph glyph-name="_465" unicode="&#x2164;" 
d="M161 782l282 -778h73l281 778h-67l-250 -695l-251 695h-68z" />
    <glyph glyph-name="_466" unicode="&#x2165;" 
d="M833 3v57h-65v666h65v57h-195v-57h65v-666h-65v-57h195zM386 3l217 780h-69l-189 -706l-189 706h-66l215 -780h81z" />
    <glyph glyph-name="_467" unicode="&#x2166;" 
d="M904 3v57h-57v666h57v57h-178v-57h56v-666h-56v-57h178zM684 3v57h-57v666h57v57h-178v-57h56v-666h-56v-57h178zM295 3l181 780h-67l-153 -699l-154 699h-66l180 -780h79z" />
    <glyph glyph-name="_468" unicode="&#x2167;" 
d="M925 3v57h-49v666h49v57h-161v-57h49v-666h-49v-57h161zM735 3v57h-49v666h49v57h-161v-57h49v-666h-49v-57h161zM545 3v57h-49v666h49v57h-161v-57h49v-666h-49v-57h161zM235 3l121 780h-65l-100 -701l-101 701h-64l121 -780h88z" />
    <glyph glyph-name="_469" unicode="&#x2168;" 
d="M304 4v56h-64v666h64v56h-194v-56h65v-666h-65v-56h194zM892 4l-244 396l235 382h-70l-200 -325l-200 325h-70l235 -382l-244 -396h70l209 339l209 -339h70z" />
    <glyph glyph-name="_470" unicode="&#x2169;" 
d="M697 782l-218 -332l-217 332h-71l248 -380l-263 -398h73l230 349l231 -349h72l-263 398l250 380h-72z" />
    <glyph glyph-name="_451" unicode="&#x2170;" 
d="M511 3v557h-62v-557h62zM511 681v102h-62v-102h62z" />
    <glyph glyph-name="_452" unicode="&#x2171;" 
d="M371 3v557h-62v-557h62zM371 681v102h-62v-102h62zM651 3v557h-62v-557h62zM651 681v102h-62v-102h62z" />
    <glyph glyph-name="_453" unicode="&#x2172;" 
d="M511 3v557h-62v-557h62zM511 681v102h-62v-102h62zM291 3v557h-62v-557h62zM291 681v102h-62v-102h62zM731 3v557h-62v-557h62zM731 681v102h-62v-102h62z" />
    <glyph glyph-name="_454" unicode="&#x2173;" 
d="M767 561l-176 -488l-177 488h-66l206 -557h73l206 557h-66zM300 4v555h-62v-555h62zM300 680v102h-62v-102h62z" />
    <glyph glyph-name="_455" unicode="&#x2174;" 
d="M515 4l220 555h-67l-188 -482l-189 482h-67l220 -555h71z" />
    <glyph glyph-name="_456" unicode="&#x2175;" 
d="M564 559l-177 -486l-177 486h-66l206 -555h74l206 555h-66zM740 4v555h-62v-555h62zM740 680v102h-62v-102h62z" />
    <glyph glyph-name="_457" unicode="&#x2176;" 
d="M437 559l-140 -485l-140 485h-66l169 -555h74l169 555h-66zM790 4v555h-62v-555h62zM790 680v102h-62v-102h62zM620 4v555h-62v-555h62zM620 680v102h-62v-102h62z" />
    <glyph glyph-name="_458" unicode="&#x2177;" 
d="M343 559l-118 -485l-118 485h-66l147 -555h74l147 555h-66zM520 4v555h-62v-555h62zM520 680v102h-62v-102h62zM690 4v555h-62v-555h62zM690 680v102h-62v-102h62zM860 4v555h-62v-555h62zM860 680v102h-62v-102h62z" />
    <glyph glyph-name="_459" unicode="&#x2178;" 
d="M841 4l-205 287l192 268h-70l-157 -220l-158 220h-69l192 -268l-206 -287h70l171 238l170 -238h70zM300 4v555h-62v-555h62zM300 680v102h-62v-102h62z" />
    <glyph glyph-name="_460" unicode="&#x2179;" 
d="M654 3h70l-206 286l195 271h-70l-163 -227l-163 227h-70l195 -271l-206 -286h70l174 240z" />
    <glyph glyph-name="_171" unicode="&#x2190;" 
d="M918 399h-713v93l-164 -119l164 -120v93h713v53z" />
    <glyph glyph-name="_172" unicode="&#x2191;" 
d="M506 -39v714h93l-119 163l-120 -163h93v-714h53z" />
    <glyph glyph-name="_170" unicode="&#x2192;" 
d="M41 346h714v-93l163 120l-163 119v-93h-714v-53z" />
    <glyph glyph-name="_173" unicode="&#x2193;" 
d="M453 838v-713h-93l120 -164l119 164h-93v713h-53z" />
    <glyph glyph-name="_174" unicode="&#x2194;" 
d="M204 492l-163 -119l163 -120v93h550v-93l164 120l-164 119v-93h-550v93z" />
    <glyph glyph-name="_247" unicode="&#x2195;" 
d="M360 124l121 -163l119 163h-93v550h93l-119 164l-121 -164h94v-550h-94z" />
    <glyph glyph-name="_250" unicode="&#x2196;" 
d="M799 82l-504 504l65 66l-200 31l32 -200l65 65l504 -504z" />
    <glyph glyph-name="_248" unicode="&#x2197;" 
d="M198 44l505 504l65 -65l31 200l-200 -31l66 -66l-505 -504z" />
    <glyph glyph-name="_251" unicode="&#x2198;" 
d="M160 645l505 -504l-66 -66l200 -31l-31 200l-65 -66l-505 505z" />
    <glyph glyph-name="_249" unicode="&#x2199;" 
d="M761 683l-504 -505l-65 66l-32 -200l200 31l-65 66l504 504z" />
    <glyph glyph-name="_8868" unicode="&#x21b0;" 
d="M222 614h647v-689h-25v665h-622v-130l-132 141l132 139v-126z" />
    <glyph glyph-name="_8865" unicode="&#x21b1;" 
d="M95 609h637v125l133 -139l-133 -140v129h-613v-659h-24v684z" />
    <glyph glyph-name="_8864" unicode="&#x21b2;" 
d="M873 145h-655v-126l-132 138l132 141v-126h629v679h26v-706z" />
    <glyph glyph-name="_8869" unicode="&#x21b3;" 
d="M730 153h-634v698h25v-674h609v128l133 -140l-133 -140v128z" />
    <glyph glyph-name="_8867" unicode="&#x21b4;" 
d="M764 710v-652h126l-137 -133l-142 133h127v627h-669v25h695z" />
    <glyph glyph-name="_8884" unicode="&#x21bc;" 
d="M235 518q37 25 76.5 40.5t55.5 18.5t22 3q-6 -3 -20 -11.5t-44 -31t-51 -46.5q-18 -21 -35 -44t-24.5 -35t-8.5 -12h733v-23h-918q19 15 90 60t124 81z" />
    <glyph glyph-name="_8885" unicode="&#x21c0;" 
d="M724 518q55 -38 126 -82.5t89 -58.5h-919v23h733l-7 12q-8 13 -24.5 35.5t-35.5 43.5q-22 24 -50.5 46t-45 32t-20.5 11q6 0 22 -3t56 -18.5t76 -40.5z" />
    <glyph glyph-name="_8896" unicode="&#x21c4;" 
d="M621 663l313 -121l-313 -123l104 93h-682v59h684zM917 269v-60h-683l105 -91l-313 121l313 121l-106 -91h684z" />
    <glyph glyph-name="_8897" unicode="&#x21c5;" 
d="M205 531l122 312l121 -312l-93 103v-679h-59v681zM603 824h59v-679l92 105l-123 -311l-121 311l93 -106v680z" />
    <glyph glyph-name="_8816" unicode="&#x21cd;" 
d="M535 465h-404l-79 -77l80 -78h361zM157 490h385l52 195l24 -7l-50 -188h371v-25h-378l-42 -155h420v-26h-426l-54 -199l-24 6l51 193h-329l137 -140l-17 -15l-256 259l255 257l17 -17z" />
    <glyph glyph-name="_8815" unicode="&#x21cf;" 
d="M801 289h-400l-53 -204l-26 6l53 198h-354v27h362l42 154h-404v25h410l51 190l24 -7l-48 -183h343l-137 139l18 18l257 -261l-258 -257l-18 17zM451 470l-43 -154h417l81 76l-79 78h-376z" />
    <glyph glyph-name="_8814" unicode="&#x21d0;" 
d="M939 284h-782l137 -140l-17 -15l-256 259l255 257l17 -17l-136 -138h782v-25h-808l-79 -77l79 -78h808v-26z" />
    <glyph glyph-name="_8854" unicode="&#x21d1;" 
d="M391 850v-925h-25v848l-301 -361l-24 22zM566 850v-925h27v848l301 -361l24 22z" />
    <glyph glyph-name="_195" unicode="&#x21d2;" 
d="M912 373l-349 273l-33 -42l135 -105h-618v-50h684l97 -76l-100 -81h-681v-50h618l-136 -109l35 -43z" />
    <glyph glyph-name="_8855" unicode="&#x21d3;" 
d="M391 846v-923l-350 416l24 22l301 -362v847h25zM566 -77v923h27v-847l301 362l24 -22z" />
    <glyph glyph-name="_196" unicode="&#x21d4;" 
d="M616 90l320 283l-321 273l-35 -41l125 -106h-453l126 106l-35 41l-321 -273l320 -283l36 42l-127 110h455l-126 -110zM762 292h-567l-92 81l89 76h573l90 -76z" />
    <glyph glyph-name="_9190" unicode="&#x21e0;" 
d="M224 593v-411l-190 205zM452 381q0 27 -19.5 46.5t-46.5 19.5t-46.5 -19.5t-19.5 -46.5t19.5 -46.5t46.5 -19.5t46.5 19.5t19.5 46.5zM690 381q0 27 -19.5 46.5t-46.5 19.5t-46.5 -19.5t-19.5 -46.5t19.5 -46.5t46.5 -19.5t46.5 19.5t19.5 46.5zM926 381q0 27 -19.5 46.5
t-46.5 19.5t-46.5 -19.5t-19.5 -46.5t19.5 -46.5t46.5 -19.5t46.5 19.5t19.5 46.5z" />
    <glyph glyph-name="_9192" unicode="&#x21e1;" 
d="M273 642h413l-204 191zM486 77q-27 0 -46.5 -19.5t-19.5 -46.5t19.5 -46.5t46.5 -19.5t46.5 19.5t19.5 46.5t-19.5 46.5t-46.5 19.5zM486 315q-27 0 -46.5 -19.5t-19.5 -46.5t19.5 -46.5t46.5 -19.5t46.5 19.5t19.5 46.5t-19.5 46.5t-46.5 19.5zM486 551
q-27 0 -46.5 -19.5t-19.5 -46.5t19.5 -46.5t46.5 -19.5t46.5 19.5t19.5 46.5t-19.5 46.5t-46.5 19.5z" />
    <glyph glyph-name="_9191" unicode="&#x21e2;" 
d="M737 594v-411l190 205zM164 381q0 27 -19.5 46.5t-46.5 19.5t-46.5 -19.5t-19.5 -46.5t19.5 -46.5t46.5 -19.5t46.5 19.5t19.5 46.5zM402 381q0 27 -19.5 46.5t-46.5 19.5t-46.5 -19.5t-19.5 -46.5t19.5 -46.5t46.5 -19.5t46.5 19.5t19.5 46.5zM638 381q0 27 -19.5 46.5
t-46.5 19.5t-46.5 -19.5t-19.5 -46.5t19.5 -46.5t46.5 -19.5t46.5 19.5t19.5 46.5z" />
    <glyph glyph-name="_9193" unicode="&#x21e3;" 
d="M273 134h413l-204 -191zM486 357q-27 0 -46.5 -19.5t-19.5 -46.5t19.5 -46.5t46.5 -19.5t46.5 19.5t19.5 46.5t-19.5 46.5t-46.5 19.5zM486 595q-27 0 -46.5 -19.5t-19.5 -46.5t19.5 -46.5t46.5 -19.5t46.5 19.5t19.5 46.5t-19.5 46.5t-46.5 19.5zM486 831
q-27 0 -46.5 -19.5t-19.5 -46.5t19.5 -46.5t46.5 -19.5t46.5 19.5t19.5 46.5t-19.5 46.5t-46.5 19.5z" />
    <glyph glyph-name="_9198" unicode="&#x21e6;" 
d="M897 247v279h-513v168l-309 -307l309 -309v169h513zM925 554v-334h-515v-209l-376 377l376 375v-209h515z" />
    <glyph glyph-name="_9200" unicode="&#x21e7;" 
d="M621 -28h-281v510h-169l310 310l310 -309h-170v-511zM312 -56h336v513h209l-376 376l-378 -377h209v-512z" />
    <glyph glyph-name="_9199" unicode="&#x21e8;" 
d="M62 247v279h513v168l309 -307l-309 -309v169h-513zM34 554v-334h515v-209l376 377l-376 375v-209h-515z" />
    <glyph glyph-name="_9201" unicode="&#x21e9;" 
d="M621 804h-281v-510h-169l310 -310l310 309h-170v511zM312 832h336v-513h209l-376 -376l-378 377h209v512z" />
    <glyph glyph-name="_197" unicode="&#x2200;" 
d="M161 782l282 -778h73l281 778h-67l-70 -194h-362l-69 194h-68zM317 531h323l-160 -455z" />
    <glyph glyph-name="_151" unicode="&#x2202;" 
d="M484 508q-113 0 -183 -79t-70 -210q0 -106 59 -167t158 -61q152 0 213.5 117.5t65.5 365.5v19q0 162 -54 232t-160 70q-87 0 -147.5 -49t-80.5 -139h66q16 65 58 99t101 34q77 0 116 -55.5t39 -180.5q0 -41 -5 -106q-17 51 -62.5 80.5t-113.5 29.5zM452 46q-74 0 -116 45
t-42 129q0 102 52 167.5t143 65.5q74 0 116 -46.5t42 -129.5q0 -107 -54.5 -169t-140.5 -62z" />
    <glyph glyph-name="_198" unicode="&#x2203;" 
d="M693 783h-447v-57h382v-314h-336v-57h336v-295h-376v-57h441v780z" />
    <glyph glyph-name="_8715" unicode="&#x2206;" 
d="M153 50l308 651q9 22 23 22q10 0 21 -21l298 -638q10 -22 12 -37q0 -16 -33 -16h-609q-28 0 -28 14q0 7 8 25zM704 81l-247 526l-249 -526h496z" />
    <glyph glyph-name="_152" unicode="&#x2207;" 
d="M161 782l282 -778h73l281 778h-636zM710 725l-230 -649l-232 649h462z" />
    <glyph glyph-name="_184" unicode="&#x2208;" 
d="M102 388q0 -154 103.5 -230.5t286.5 -76.5h344v54h-344q-313 0 -328 226h672v55h-672q17 224 328 224h344v55h-344q-183 0 -286.5 -76.5t-103.5 -230.5z" />
    <glyph glyph-name="_8749" unicode="&#x2209;" 
d="M451 148l-27 -97l-33 11l24 88q-102 13 -171.5 82t-69.5 159q0 99 82 171t198 72h95l33 118l35 -12l-30 -106h198v-37h-208l-52 -185h260v-37h-271l-53 -190h324v-37h-331h-3zM216 412h272l51 185h-85q-89 0 -158.5 -53.5t-79.5 -131.5zM425 186l52 189h-261
q7 -74 67 -127t142 -62z" />
    <glyph glyph-name="_185" unicode="&#x220b;" 
d="M856 388q0 154 -103.5 230.5t-286.5 76.5h-344v-55h344q311 0 328 -224h-672v-55h672q-15 -226 -328 -226h-344v-54h344q183 0 286.5 76.5t103.5 230.5z" />
    <glyph glyph-name="_8750" unicode="&#x220c;" 
d="M409 148l-27 -97l-33 11l24 86h-199v37h209l52 190h-261v37h272l51 185h-323v37h331h2l33 118l35 -12l-31 -109q102 -13 171.5 -81.5t69.5 -158.5q0 -99 -82 -171t-198 -72h-96zM419 185h86q90 0 160.5 55t77.5 135h-271zM534 595l-51 -183h259q-9 71 -68.5 122.5
t-139.5 60.5z" />
    <glyph glyph-name="_213" unicode="&#x220f;" 
d="M675 -70h65v853h-520v-853h64v796h391v-796z" />
    <glyph glyph-name="_212" unicode="&#x2211;" 
d="M234 -16v-54h491v56h-419l175 354v22l-176 364h420v57h-491v-57l183 -375z" />
    <glyph glyph-name="_8726" unicode="&#x2213;" 
d="M155 705v35h650v-35h-650zM155 335v36h305v256h37v-256h308v-36h-308v-246h-37v246h-305z" />
    <glyph glyph-name="_178" unicode="&#x221a;" 
d="M612 783h292v55h-341l-270 -879l-174 338h-69l215 -416h68z" />
    <glyph glyph-name="_180" unicode="&#x221d;" 
d="M746 276q-32 -23 -78 -23q-99 0 -156 119q57 119 156 119q40 0 69 -19l25 47q-39 21 -92 21q-126 0 -191 -131q-32 65 -81.5 98t-107.5 33q-80 0 -128.5 -45.5t-48.5 -122.5t48.5 -122.5t128.5 -45.5q58 0 107.5 32.5t81.5 97.5q66 -130 191 -130q60 0 105 28zM170 372
q0 56 35.5 87.5t85.5 31.5q99 0 156 -119q-57 -119 -156 -119q-50 0 -85.5 31t-35.5 88z" />
    <glyph glyph-name="_136" unicode="&#x221e;" 
d="M846 372q0 77 -48.5 122.5t-127.5 45.5q-126 0 -191 -131q-32 65 -81.5 98t-107.5 33q-80 0 -128.5 -45.5t-48.5 -122.5t48.5 -122.5t128.5 -45.5q58 0 107.5 32.5t81.5 97.5q66 -130 191 -130q79 0 127.5 45.5t48.5 122.5zM512 372q57 119 156 119q51 0 86.5 -31.5
t35.5 -87.5q0 -57 -35.5 -88t-86.5 -31q-99 0 -156 119zM170 372q0 56 35.5 87.5t85.5 31.5q99 0 156 -119q-57 -119 -156 -119q-50 0 -85.5 31t-35.5 88z" />
    <glyph glyph-name="_8717" unicode="&#x221f;" 
d="M187 123v573h36v-536h549v-37h-585z" />
    <glyph glyph-name="_148" unicode="&#x2220;" 
d="M747 730l-645 -629v-29h754v55h-646l578 565z" />
    <glyph glyph-name="_8738" unicode="&#x2222;" 
d="M192 408l417 163q-37 64 -107 94v40q97 -39 142 -120l131 51l12 -34l-128 -50q27 -67 27 -161q0 -87 -23 -152l124 -43l-13 -35l-126 44q-45 -88 -146 -128v40q73 31 110 100l-419 148q-20 8 -20.5 21.5t19.5 21.5zM649 391q0 86 -25 148l-387 -150l390 -137
q22 59 22 139z" />
    <glyph glyph-name="_8719" unicode="&#x2225;" 
d="M375 -141h53v978h-53v-978zM531 -141h53v978h-53v-978z" />
    <glyph glyph-name="_8720" unicode="&#x2226;" 
d="M411 491l-145 238l32 19l135 -222l127 220l31 -21l-138 -232l88 -147l235 397l32 -21l-246 -411l147 -246l-27 -21l-140 233l-145 -234l-30 20l153 248l-88 147l-252 -412l-29 21z" />
    <glyph glyph-name="_192" unicode="&#x2227;" 
d="M163 4l316 654l318 -654l51 28l-360 733h-17l-360 -733z" />
    <glyph glyph-name="_193" unicode="&#x2228;" 
d="M488 -6l360 733l-52 28l-317 -655l-315 655l-53 -28l360 -733h17z" />
    <glyph glyph-name="_191" unicode="&#x2229;" 
d="M479 755q-154 0 -230.5 -103.5t-76.5 -286.5v-344h62v344q0 168 64.5 253t180.5 85q117 0 181.5 -84.5t64.5 -253.5v-344h62v344q0 183 -77 286.5t-231 103.5z" />
    <glyph glyph-name="_190" unicode="&#x222a;" 
d="M479 2q154 0 231 103.5t77 286.5v344h-62v-344q0 -169 -64.5 -253.5t-181.5 -84.5q-116 0 -180.5 85t-64.5 253v344h-62v-344q0 -183 76.5 -286.5t230.5 -103.5z" />
    <glyph glyph-name="_182" unicode="&#x222b;" 
d="M289 -66v-49q38 -2 56 -2q92 0 129 34t37 121v672q0 63 23 86t87 23h49v49q-29 3 -56 3q-91 0 -128 -34.5t-37 -121.5v-673q0 -62 -23 -85t-86 -23h-51z" />
    <glyph glyph-name="_183" unicode="&#x222c;" 
d="M136 -66v-49q38 -2 56 -2q92 0 129 34t37 121v672q0 63 23 86t86 23h50v49q-28 3 -56 3q-91 0 -128 -34.5t-37 -121.5v-673q0 -62 -23 -85t-87 -23h-50zM443 -66v-49q38 -2 56 -2q91 0 128 34t37 121v672q0 63 23 86t87 23h50v49q-29 3 -56 3q-91 0 -128.5 -34.5
t-37.5 -121.5v-673q0 -62 -23 -85t-86 -23h-50z" />
    <glyph glyph-name="_211" unicode="&#x222e;" 
d="M290 376q0 -71 44 -122t114 -62v-150q0 -62 -23 -85t-87 -23h-50v-50q38 -2 56 -2q91 0 128.5 34.5t37.5 121.5v154q69 10 114 61t45 123t-45 123t-114 61v150q0 63 22.5 86t86.5 23h50v49q-28 3 -56 3q-91 0 -128 -34.5t-37 -121.5v-155q-70 -11 -114 -62t-44 -122z
M614 376q0 -49 -29 -84.5t-75 -44.5v258q46 -9 75 -44.5t29 -84.5zM345 376q0 49 28.5 84t74.5 44v-256q-46 10 -74.5 45t-28.5 83z" />
    <glyph glyph-name="_137" unicode="&#x2234;" 
d="M516 689h-73v-109h73v109zM769 222h-73v-108h73v108zM263 222h-73v-108h73v108z" />
    <glyph glyph-name="_181" unicode="&#x2235;" 
d="M516 222h-73v-108h73v108zM769 689h-73v-109h73v109zM263 689h-73v-109h73v109z" />
    <glyph glyph-name="_18161" unicode="&#x223c;" horiz-adv-x="578" 
d="M384 282q59 0 90.5 42.5t32.5 121.5h-59q-1 -111 -67 -111q-25 0 -46 18.5t-34 40t-41 40t-66 18.5q-60 0 -91.5 -42.5t-32.5 -120.5h59q3 111 67 111q25 0 46 -18.5t34.5 -40.5t41.5 -40.5t66 -18.5z" />
    <glyph glyph-name="_179" unicode="&#x223d;" 
d="M457 388q-37 -63 -80.5 -99t-85.5 -36q-50 0 -85.5 31t-35.5 88q0 56 35.5 87.5t85.5 31.5q37 0 66 -15l19 43q-41 21 -86 21q-80 0 -128.5 -45.5t-48.5 -122.5t48.5 -122.5t128.5 -45.5q126 0 213 155q74 132 165 132q51 0 86.5 -31.5t35.5 -87.5q0 -57 -35.5 -88
t-86.5 -31q-41 0 -74 20l-23 -42q47 -27 99 -27q79 0 127.5 45.5t48.5 122.5t-48.5 122.5t-127.5 45.5q-124 0 -213 -152z" />
    <glyph glyph-name="_8500" unicode="&#x2243;" 
d="M465 470q-26 14 -36 18.5t-35 10.5t-55 6q-86 0 -170 -74l-11 41q30 41 81.5 70.5t108.5 29.5q24 0 47 -5.5t32.5 -9.5t35.5 -18t30 -16q26 -14 36 -18.5t35 -10.5t55 -6q86 0 170 74l11 -41q-30 -41 -81.5 -70.5t-108.5 -29.5q-24 0 -47 5.5t-32.5 9.5t-35.5 18t-30 16z
M170 158v51h631v-51h-631z" />
    <glyph glyph-name="_8499" unicode="&#x2245;" 
d="M465 470q-26 14 -36 18.5t-35 10.5t-55 6q-86 0 -170 -74l-11 41q30 41 81.5 70.5t108.5 29.5q24 0 47 -5.5t32.5 -9.5t35.5 -18t30 -16q26 -14 36 -18.5t35 -10.5t55 -6q86 0 170 74l11 -41q-30 -41 -81.5 -70.5t-108.5 -29.5q-24 0 -47 5.5t-32.5 9.5t-35.5 18t-30 16z
M170 38v51h631v-51h-631zM170 198v51h631v-51h-631z" />
    <glyph glyph-name="_8501" unicode="&#x2248;" 
d="M466 470q-26 14 -36 18.5t-35 10.5t-55 6q-86 0 -170 -74l-11 41q30 41 81.5 70.5t108.5 29.5q24 0 47 -5.5t32.5 -9.5t35.5 -18t30 -16q26 -14 36 -18.5t35 -10.5t55 -6q86 0 170 74l11 -41q-30 -41 -81.5 -70.5t-108.5 -29.5q-24 0 -47 5.5t-32.5 9.5t-35.5 18t-30 16z
M466 170q-26 14 -36 18.5t-35 10.5t-55 6q-86 0 -170 -74l-11 41q30 41 81.5 70.5t108.5 29.5q24 0 47 -5.5t32.5 -9.5t35.5 -18t30 -16q26 -14 36 -18.5t35 -10.5t55 -6q86 0 170 74l11 -41q-30 -41 -81.5 -70.5t-108.5 -29.5q-24 0 -47 5.5t-32.5 9.5t-35.5 18t-30 16z
" />
    <glyph glyph-name="_8739" unicode="&#x2250;" 
d="M131 379v-36h698v36h-698zM131 201v-37h698v37h-698zM481 611q28 0 44.5 -18t16.5 -42t-15.5 -41.5t-43.5 -17.5q-29 0 -45 17.5t-16 41.5t15.5 41.5t43.5 18.5z" />
    <glyph glyph-name="_8723" unicode="&#x2251;" 
d="M821 492v-38h-682v38h682zM821 314v-37h-682v37h682zM478 681q28 0 43.5 -17.5t15.5 -41.5q0 -25 -16 -42.5t-45 -17.5q-28 0 -43.5 17.5t-15.5 41.5q0 25 16 42.5t45 17.5zM478 202q28 0 43.5 -17.5t15.5 -41.5q0 -25 -16 -42.5t-45 -17.5q-28 0 -43.5 18t-15.5 41
q0 25 16 42.5t45 17.5z" />
    <glyph glyph-name="_154" unicode="&#x2252;" horiz-adv-x="580" 
d="M59 429h462v53h-462v-53zM59 251h462v52h-462v-52zM205 699h-68v-106h68v106zM443 139h-68v-106h68v106z" />
    <glyph glyph-name="_8722" unicode="&#x2253;" 
d="M821 492v-38h-682v38h682zM821 314v-37h-682v37h682zM682 681q28 0 43.5 -17.5t15.5 -41.5q0 -25 -16 -42.5t-45 -17.5q-28 0 -43 17.5t-15 41.5q0 25 16 42.5t44 17.5zM286 202q28 0 43 -17.5t15 -41.5q0 -25 -16 -42.5t-44 -17.5q-27 0 -42.5 18t-15.5 41q0 25 16 42.5
t44 17.5z" />
    <glyph glyph-name="_8753" unicode="&#x225a;" 
d="M154 203h651v-35h-651v35zM729 682l-245 -441l-249 448l34 12l215 -378l211 373zM154 86h651v-35h-651v35z" />
    <glyph glyph-name="_133" unicode="&#x2260;" horiz-adv-x="580" 
d="M59 439h247l-85 -146h-162v-52h132l-88 -152h53l87 152h278v52h-248l84 146h164v53h-133l87 151h-51l-89 -151h-276v-53z" />
    <glyph glyph-name="_153" unicode="&#x2261;" horiz-adv-x="580" 
d="M59 512h462v52h-462v-52zM59 168h462v53h-462v-53zM59 340h462v52h-462v-52z" />
    <glyph glyph-name="_8734" unicode="&#x2262;" 
d="M132 532v35h427l70 123l31 -17l-61 -106h228v-35h-249l-72 -125h321v-33h-341l-71 -123h412v-34h-433l-80 -139l-30 16l71 123h-223v35h244l70 122h-314v33h334l72 125h-406z" />
    <glyph glyph-name="_134" unicode="&#x2264;" horiz-adv-x="580" 
d="M512 268l-378 181l378 180v61l-445 -215v-53l445 -214v60zM58 54h463v52h-463v-52z" />
    <glyph glyph-name="_135" unicode="&#x2265;" horiz-adv-x="580" 
d="M512 475l-445 215v-61l378 -180l-378 -181v-60l445 214v53zM521 106h-463v-52h463v52z" />
    <glyph glyph-name="_8724" unicode="&#x2266;" 
d="M187 524l583 228l12 -34l-550 -213l550 -193l-13 -35l-581 204q-20 8 -20.5 21.5t19.5 21.5zM161 208v35h637v-35h-637zM161 75v34h637v-34h-637z" />
    <glyph glyph-name="_8725" unicode="&#x2267;" 
d="M189 752l583 -228q13 -5 18.5 -13t0.5 -16.5t-20 -13.5l-581 -204l-13 35l550 193l-550 213zM798 243v-35h-637v35h637zM798 109v-34h-637v34h637z" />
    <glyph glyph-name="_18162" unicode="&#x226a;" 
d="M360 387l517 -358l27 43l-466 323l466 320l-28 44l-516 -357v-15zM54 387l517 -358l27 43l-466 323l466 320l-28 44l-516 -357v-15z" />
    <glyph glyph-name="_18163" unicode="&#x226b;" 
d="M598 402l-516 357l-28 -44l466 -320l-466 -323l27 -43l517 358v15zM904 402l-516 357l-28 -44l466 -320l-466 -323l27 -43l517 358v15z" />
    <glyph glyph-name="_8745" unicode="&#x226e;" 
d="M623 740l-39 -138l191 94l12 -34l-216 -107l-79 -283l295 -136l-13 -35l-293 133l-51 -183l-33 11l52 187l-256 117q-20 8 -20.5 21.5t19.5 21.5l348 171l48 172zM237 389l222 -102l68 246z" />
    <glyph glyph-name="_8746" unicode="&#x226f;" 
d="M562 740l-57 -202l262 -129q20 -8 19.5 -21.5t-20.5 -21.5l-354 -162l-43 -153l-33 11l34 123l-185 -84l-13 35l211 97l79 285l-290 144l12 34l288 -142l55 198zM722 389l-227 112l-70 -249z" />
    <glyph glyph-name="_8481" unicode="&#x2270;" 
d="M149 506l624 280l16 -55l-498 -221l501 -199l-21 -57zM810 240v-60h-631v60h631zM810 95v-59h-631v59h631zM402 -82l-55 14l225 928l56 -14z" />
    <glyph glyph-name="_8482" unicode="&#x2271;" 
d="M186 786l624 -280l-622 -252l-21 57l501 199l-498 221zM149 180v60h631v-60h-631zM149 36v59h631v-59h-631zM612 -68l-55 -14l-226 928l56 14z" />
    <glyph glyph-name="_8483" unicode="&#x2272;" 
d="M149 506l624 280l16 -55l-498 -221l501 -199l-21 -57zM475 60q-26 14 -36 18.5t-35 10.5t-55 6q-86 0 -170 -74l-11 41q30 41 81.5 70.5t108.5 29.5q24 0 47 -5.5t32.5 -9.5t35.5 -18t30 -16q26 -14 36 -18.5t35 -10.5t55 -6q86 0 170 74l11 -41q-30 -41 -81.5 -70.5
t-108.5 -29.5q-24 0 -47 5.5t-32.5 9.5t-35.5 18t-30 16z" />
    <glyph glyph-name="_8484" unicode="&#x2273;" 
d="M163 731l17 55l623 -280l-621 -252l-22 57l502 199zM463 60q-26 14 -36 18.5t-35 10.5t-55 6q-86 0 -170 -74l-11 41q30 41 81.5 70.5t108.5 29.5q24 0 47 -5.5t32.5 -9.5t35.5 -18t30 -16q26 -14 36 -18.5t35 -10.5t55 -6q86 0 170 74l11 -41q-30 -41 -81.5 -70.5
t-108.5 -29.5q-24 0 -47 5.5t-32.5 9.5t-35.5 18t-30 16z" />
    <glyph glyph-name="_8489" unicode="&#x2276;" 
d="M806 696l-496 -157l496 -157l-16 -56l-636 213l636 213zM154 72l496 157l-496 157l16 56l636 -213l-636 -213z" />
    <glyph glyph-name="_8490" unicode="&#x2277;" 
d="M165 754l631 -215l-632 -214v61l482 153l-481 154v61zM796 15l-632 215l631 214v-60l-481 -154l482 -154v-61z" />
    <glyph glyph-name="_8491" unicode="&#x2279;" 
d="M165 754l631 -215l-632 -214v61l482 153l-481 154v61zM796 15l-632 215l631 214v-60l-481 -154l482 -154v-61zM393 -82l-55 14l225 928l56 -14z" />
    <glyph glyph-name="_8475" unicode="&#x227a;" 
d="M167 388q362 106 598 298l28 -55q-231 -177 -464 -243q233 -67 464 -243l-28 -55q-236 192 -598 298z" />
    <glyph glyph-name="_8476" unicode="&#x227b;" 
d="M793 388q-362 -106 -598 -298l-28 55q231 176 464 243q-233 66 -464 243l28 55q236 -192 598 -298z" />
    <glyph glyph-name="_8479" unicode="&#x2280;" 
d="M519 766v-756h-57v756h57zM167 388q362 106 598 298l28 -55q-231 -177 -464 -243q233 -67 464 -243l-28 -55q-236 192 -598 298z" />
    <glyph glyph-name="_8480" unicode="&#x2281;" 
d="M441 10v756h57v-756h-57zM793 388q-362 -106 -598 -298l-28 55q231 176 464 243q-233 66 -464 243l28 55q236 -192 598 -298z" />
    <glyph glyph-name="_188" unicode="&#x2282;" 
d="M103 388q0 -154 103.5 -230.5t286.5 -76.5h343v55h-343q-165 0 -247.5 65.5t-82.5 186.5t82.5 187t247.5 66h343v55h-343q-183 0 -286.5 -77t-103.5 -231z" />
    <glyph glyph-name="_189" unicode="&#x2283;" 
d="M856 388q0 154 -103.5 231t-286.5 77h-343v-55h343q165 0 247.5 -66t82.5 -187t-82.5 -186.5t-247.5 -65.5h-343v-55h343q183 0 286.5 76.5t103.5 230.5z" />
    <glyph glyph-name="_8748" unicode="&#x2284;" 
d="M451 148l-27 -97l-33 11l24 88q-102 13 -171.5 82t-69.5 159q0 99 82 171t198 72h95l33 118l35 -12l-30 -106h198v-37h-208l-116 -412h324v-37h-331h-3zM215 391q0 -79 61.5 -137t148.5 -68l114 411h-85q-95 0 -167 -60t-72 -146z" />
    <glyph glyph-name="_8747" unicode="&#x2285;" 
d="M410 148l-27 -97l-33 11l24 86h-200v37h210l114 412h-324v37h331h3l33 118l35 -12l-31 -109q102 -13 171 -81.5t69 -158.5q0 -99 -82 -171t-198 -72h-95zM420 185h85q95 0 167 60t72 146q0 78 -61 136t-148 68z" />
    <glyph glyph-name="_186" unicode="&#x2286;" 
d="M124 54v-53h715v53h-715zM100 498q0 -131 92 -196t265 -65h377v55h-377q-152 0 -224.5 50t-72.5 156t72.5 156t224.5 50h377v55h-377q-173 0 -265 -65t-92 -196z" />
    <glyph glyph-name="_187" unicode="&#x2287;" 
d="M120 54v-53h716v53h-716zM859 498q0 131 -92 196t-264 65h-377v-55h377q152 0 224 -50t72 -156t-72 -156t-224 -50h-377v-55h377q172 0 264 65t92 196z" />
    <glyph glyph-name="_8486" unicode="&#x228a;" 
d="M212 531q0 -66 50 -118t123 -52h427v-60h-419q-106 0 -176 69.5t-70 160.5t70 160.5t176 69.5h419v-60h-427q-73 0 -123 -52t-50 -118zM813 95v-59h-631v59h631zM813 240v-60h-631v60h631zM519 352l57 -16l-115 -403l-58 16z" />
    <glyph glyph-name="_8488" unicode="&#x228b;" 
d="M748 531q0 66 -50 118t-123 52h-427v60h419q106 0 176 -69.5t70 -160.5t-70 -160.5t-176 -69.5h-419v60h427q73 0 123 52t50 118zM147 36v59h631v-59h-631zM147 180v60h631v-60h-631zM499 352l57 -16l-115 -403l-58 16z" />
    <glyph glyph-name="_8727" unicode="&#x2295;" 
d="M142 368v37h320v317h38v-317h318v-37h-318v-314h-38v314h-320zM481 790q167 0 283 -116t116 -283t-116 -283t-283 -116q-168 0 -284.5 116t-116.5 283t116.5 283t284.5 116zM481 755q-153 0 -259.5 -106t-106.5 -258t106.5 -258t259.5 -106q151 0 257.5 106.5
t106.5 257.5t-106.5 257.5t-257.5 106.5z" />
    <glyph glyph-name="_8728" unicode="&#x2296;" 
d="M144 370v36h676v-36h-676zM481 790q167 0 283 -116t116 -283t-116 -283t-283 -116q-168 0 -284.5 116t-116.5 283t116.5 283t284.5 116zM481 755q-153 0 -259.5 -106t-106.5 -258t106.5 -258t259.5 -106q151 0 257.5 106.5t106.5 257.5t-106.5 257.5t-257.5 106.5z" />
    <glyph glyph-name="_8729" unicode="&#x2297;" 
d="M255 138l-27 28l225 225l-223 222l27 27l224 -223l224 224l27 -27l-225 -223l228 -225l-28 -26l-226 225zM481 790q167 0 283 -116t116 -283t-116 -283t-283 -116q-168 0 -284.5 116t-116.5 283t116.5 283t284.5 116zM481 755q-153 0 -259.5 -106t-106.5 -258t106.5 -258
t259.5 -106q151 0 257.5 106.5t106.5 257.5t-106.5 257.5t-257.5 106.5z" />
    <glyph glyph-name="_18164" unicode="&#x2299;" 
d="M319 390q0 -67 47 -114t114 -47t114 47t47 114t-47 114t-114 47t-114 -47t-47 -114zM913 390q0 180 -126.5 307t-306.5 127t-307 -126.5t-127 -307.5q0 -119 57.5 -219t157.5 -157.5t219 -57.5q180 0 306.5 126.5t126.5 307.5zM103 390q0 158 109.5 269t267.5 111
t268 -111t110 -269t-110 -269t-268 -111t-267.5 111t-109.5 269z" />
    <glyph glyph-name="_8742" unicode="&#x22a3;" 
d="M745 69h-36v304h-495v35h495v297h36v-636z" />
    <glyph glyph-name="_8503" unicode="&#x22a4;" 
d="M449 608h-285v59h631v-59h-277v-522h-69v522z" />
    <glyph glyph-name="_149" unicode="&#x22a5;" 
d="M511 123v632h-63v-632h-340v-55h744v55h-341z" />
    <glyph glyph-name="_8751" unicode="&#x22bb;" 
d="M154 121h651v-35h-651v35zM749 700l-265 -541l-269 548l34 12l235 -478l231 473z" />
    <glyph glyph-name="_8752" unicode="&#x22bc;" 
d="M806 645h-652v35h652v-35zM480 603l265 -541l-34 -14l-231 473l-235 -478l-34 12z" />
    <glyph glyph-name="_8477" unicode="&#x22ce;" 
d="M480 712q106 -362 298 -598l-55 -28q-176 231 -243 464q-66 -233 -243 -464l-55 28q192 236 298 598z" />
    <glyph glyph-name="_8478" unicode="&#x22cf;" 
d="M480 76q-106 362 -298 598l55 28q177 -231 243 -464q67 233 243 464l55 -28q-192 -236 -298 -598z" />
    <glyph glyph-name="_8492" unicode="&#x22da;" 
d="M786 726l-456 -117l456 -117l-16 -56l-636 173l636 173zM174 42l456 117l-456 117l16 56l636 -173l-636 -173zM795 409v-51h-631v51h631z" />
    <glyph glyph-name="_8493" unicode="&#x22db;" 
d="M630 609l-456 117l16 56l636 -173l-636 -173l-16 56zM330 159l456 -117l-16 -56l-636 173l636 173l16 -56zM165 358v51h631v-51h-631z" />
    <glyph glyph-name="_8754" unicode="&#x2306;" 
d="M805 556h-651v35h651v-35zM484 518l245 -441l-34 -14l-211 373l-215 -378l-34 12zM805 673h-651v35h651v-35z" />
    <glyph glyph-name="_150" unicode="&#x2312;" 
d="M31 660l29 -42q175 177 421 177q241 0 421 -177l28 42q-191 191 -449 191q-262 0 -450 -191z" />
    <glyph glyph-name="_8731" unicode="&#x2314;" 
d="M788 585l-308 -547l-308 547q157 94 308 94t308 -94zM480 647q-64 0 -136 -21.5t-125 -53.5l261 -467l261 467q-53 32 -125 53.5t-136 21.5z" />
    <glyph glyph-name="_733" unicode="&#x2460;" 
d="M29 393q0 -189 131 -319t320 -130t320 130t131 319t-131 319t-320 130t-320 -130t-131 -319zM75 393q0 171 117.5 288.5t287.5 117.5t287.5 -117.5t117.5 -288.5t-117.5 -288.5t-287.5 -117.5t-287.5 117.5t-117.5 288.5zM532 117v560h-48l-153 -69v-59l142 62v-494h59z
" />
    <glyph glyph-name="_734" unicode="&#x2461;" 
d="M29 393q0 -189 131 -319t320 -130t320 130t131 319t-131 319t-320 130t-320 -130t-131 -319zM75 393q0 171 117.5 288.5t287.5 117.5t287.5 -117.5t117.5 -288.5t-117.5 -288.5t-287.5 -117.5t-287.5 117.5t-117.5 288.5zM648 529q0 72 -45 119.5t-124 47.5t-123.5 -48
t-44.5 -119v-22h60v22q0 50 29 82.5t79 32.5t79.5 -32.5t29.5 -82.5t-43 -100l-225 -256v-46h335v53h-254l191 216q31 35 43.5 65t12.5 68z" />
    <glyph glyph-name="_735" unicode="&#x2462;" 
d="M28 393q0 -190 131 -319.5t321 -129.5q189 0 320 129.5t131 319.5q0 189 -131 319t-320 130t-320.5 -130t-131.5 -319zM75 393q0 170 117.5 288t287.5 118q169 0 286.5 -118t117.5 -288q0 -171 -117.5 -288.5t-286.5 -117.5q-170 0 -287.5 117.5t-117.5 288.5zM600 277
q0 -52 -32 -82.5t-84 -30.5q-54 0 -86 34.5t-32 95.5h-59q0 -85 46.5 -134t130.5 -49q79 0 127.5 45t48.5 121q0 53 -24.5 89t-65.5 52q74 33 74 125q0 63 -43.5 104.5t-116.5 41.5q-74 0 -117.5 -41.5t-43.5 -104.5v-20h60v17q0 43 27 69.5t74 26.5q45 0 72.5 -26.5
t27.5 -69.5q0 -41 -24.5 -69t-69.5 -28h-64v-52h62q52 0 82 -31t30 -83z" />
    <glyph glyph-name="_736" unicode="&#x2463;" 
d="M29 393q0 -189 131 -319t320 -130t320 130t131 319t-131 319t-320 130t-320 -130t-131 -319zM75 393q0 171 117.5 288.5t287.5 117.5t287.5 -117.5t117.5 -288.5t-117.5 -288.5t-287.5 -117.5t-287.5 117.5t-117.5 288.5zM350 301l165 273v-273h-165zM651 301h-76v380
h-61l-235 -385v-48h236v-126h60v126h76v53z" />
    <glyph glyph-name="_737" unicode="&#x2464;" 
d="M29 393q0 -189 131 -319t320 -130t320 130t131 319t-131 319t-320 130t-320 -130t-131 -319zM75 393q0 171 117.5 288.5t287.5 117.5t287.5 -117.5t117.5 -288.5t-117.5 -288.5t-287.5 -117.5t-287.5 117.5t-117.5 288.5zM484 430q54 0 83 -35.5t29 -100.5
q0 -66 -29 -101.5t-83 -35.5q-48 0 -77 29.5t-35 85.5h-59q7 -78 51.5 -122.5t119.5 -44.5q80 0 126 49t46 138q0 91 -44.5 140.5t-120.5 49.5q-65 0 -98 -40l9 179h224v53h-280l-14 -313h56q29 69 96 69z" />
    <glyph glyph-name="_738" unicode="&#x2465;" 
d="M28 393q0 -190 131 -319.5t321 -129.5q189 0 320 129.5t131 319.5q0 189 -131 319t-320 130t-320.5 -130t-131.5 -319zM75 393q0 170 117.5 288t287.5 118q169 0 286.5 -118t117.5 -288q0 -171 -117.5 -288.5t-286.5 -117.5q-170 0 -287.5 117.5t-117.5 288.5zM642 540
q-9 71 -51 108t-109 37q-96 0 -136 -71.5t-40 -258.5q0 -247 175 -247q80 0 127.5 50.5t47.5 138.5q0 87 -46.5 137t-124.5 50t-118 -56q3 110 29.5 157.5t83.5 47.5q88 0 100 -93h62zM481 160q-52 0 -83.5 36.5t-31.5 100.5q0 63 31.5 99t83.5 36q53 0 84 -36t31 -99
q0 -65 -31 -101t-84 -36z" />
    <glyph glyph-name="_739" unicode="&#x2466;" 
d="M29 393q0 -189 131 -319t320 -130t320 130t131 319t-131 319t-320 130t-320 -130t-131 -319zM75 393q0 171 117.5 288.5t287.5 117.5t287.5 -117.5t117.5 -288.5t-117.5 -288.5t-287.5 -117.5t-287.5 117.5t-117.5 288.5zM314 598h271l-196 -507h63l197 517v42h-335v-52z
" />
    <glyph glyph-name="_740" unicode="&#x2467;" 
d="M29 393q0 -189 131 -319t320 -130t320 130t131 319t-131 319t-320 130t-320 -130t-131 -319zM75 393q0 171 117.5 288.5t287.5 117.5t287.5 -117.5t117.5 -288.5t-117.5 -288.5t-287.5 -117.5t-287.5 117.5t-117.5 288.5zM481 107q84 0 134.5 43.5t50.5 119.5
q0 107 -96 143q37 17 58 50t21 75q0 66 -45.5 106.5t-122.5 40.5t-122.5 -40.5t-45.5 -106.5q0 -43 20.5 -76.5t57.5 -49.5q-94 -33 -94 -142q0 -76 50.5 -119.5t133.5 -43.5zM590 535q0 -44 -30 -70.5t-79 -26.5t-78.5 26t-29.5 71q0 44 30 71t78 27t78.5 -27t30.5 -71z
M356 272q0 52 34.5 82.5t90.5 30.5t90.5 -30.5t34.5 -82.5t-34.5 -82t-90.5 -30t-90.5 30t-34.5 82z" />
    <glyph glyph-name="_741" unicode="&#x2468;" 
d="M28 393q0 -190 131 -319.5t321 -129.5q189 0 320 129.5t131 319.5q0 189 -131 319t-320 130t-320.5 -130t-131.5 -319zM75 393q0 170 117.5 288t287.5 118q169 0 286.5 -118t117.5 -288q0 -171 -117.5 -288.5t-286.5 -117.5q-170 0 -287.5 117.5t-117.5 288.5zM315 249
q9 -72 51 -109t110 -37q95 0 135 73t40 257q0 248 -175 248q-79 0 -127 -51t-48 -138t46.5 -137.5t124.5 -50.5q80 0 118 56q-5 -111 -30.5 -157.5t-82.5 -46.5q-88 0 -100 93h-62zM476 628q52 0 83.5 -36t31.5 -100q0 -63 -31.5 -99.5t-83.5 -36.5q-53 0 -84 36.5t-31 99.5
q0 64 31 100t84 36z" />
    <glyph glyph-name="_742" unicode="&#x2469;" 
d="M29 393q0 -189 131 -319t320 -130t320 130t131 319t-131 319t-320 130t-320 -130t-131 -319zM75 393q0 171 117.5 288.5t287.5 117.5t287.5 -117.5t117.5 -288.5t-117.5 -288.5t-287.5 -117.5t-287.5 117.5t-117.5 288.5zM354 128v531h-47l-123 -66v-62l110 59v-462h60z
M516 395q0 162 36 198q19 24 53 24q33 0 52 -24q37 -37 37 -198t-37 -198q-19 -24 -52 -24q-34 0 -53 24q-36 36 -36 198zM456 395q0 -193 64 -243q33 -31 85 -31q51 0 84 31q35 27 49.5 85.5t14.5 157.5t-14.5 157.5t-49.5 85.5q-33 31 -84 31q-52 0 -85 -31
q-64 -50 -64 -243z" />
    <glyph glyph-name="_743" unicode="&#x246a;" 
d="M29 393q0 -189 131 -319t320 -130t320 130t131 319t-131 319t-320 130t-320 -130t-131 -319zM75 393q0 171 117.5 288.5t287.5 117.5t287.5 -117.5t117.5 -288.5t-117.5 -288.5t-287.5 -117.5t-287.5 117.5t-117.5 288.5zM384 128v531h-47l-123 -66v-62l110 59v-462h60z
M677 128v531h-47l-123 -66v-62l111 59v-462h59z" />
    <glyph glyph-name="_744" unicode="&#x246b;" 
d="M29 393q0 -189 131 -319t320 -130t320 130t131 319t-131 319t-320 130t-320 -130t-131 -319zM75 393q0 171 117.5 288.5t287.5 117.5t287.5 -117.5t117.5 -288.5t-117.5 -288.5t-287.5 -117.5t-287.5 117.5t-117.5 288.5zM354 128v531h-47l-123 -66v-62l110 59v-462h60z
M737 513q0 68 -37 113.5t-102 45.5q-64 0 -101 -45.5t-37 -113.5v-23h60v23q0 46 21 76t57 30q37 0 58.5 -29.5t21.5 -76.5q0 -48 -33 -94l-178 -243v-44h276v53h-199l149 201q44 61 44 127z" />
    <glyph glyph-name="_745" unicode="&#x246c;" 
d="M28 393q0 -190 131 -319.5t321 -129.5q189 0 320 129.5t131 319.5q0 189 -131 319t-320 130t-320.5 -130t-131.5 -319zM75 393q0 170 117.5 288t287.5 118q169 0 286.5 -118t117.5 -288q0 -171 -117.5 -288.5t-286.5 -117.5q-170 0 -287.5 117.5t-117.5 288.5zM353 128
v531h-46q-21 -11 -62 -33.5t-62 -33.5v-61q18 10 55.5 29.5t55.5 29.5v-462h59zM681 278q0 -48 -24 -77t-61 -29q-41 0 -63.5 32.5t-22.5 90.5h-59q0 -82 38 -128.5t107 -46.5q65 0 104.5 42.5t39.5 114.5q0 101 -72 134q59 30 59 118q0 60 -35.5 99.5t-95.5 39.5
q-61 0 -96.5 -39.5t-35.5 -99.5v-21h59v18q0 40 20 64.5t53 24.5q32 0 52 -25t20 -64q0 -38 -17.5 -64t-49.5 -26h-56v-52h54q38 0 60 -28.5t22 -77.5z" />
    <glyph glyph-name="_746" unicode="&#x246d;" 
d="M29 393q0 -189 131 -319t320 -130t320 130t131 319t-131 319t-320 130t-320 -130t-131 -319zM75 393q0 171 117.5 288.5t287.5 117.5t287.5 -117.5t117.5 -288.5t-117.5 -288.5t-287.5 -117.5t-287.5 117.5t-117.5 288.5zM354 128v531h-47l-123 -66v-62l110 59v-462h60z
M506 298l122 233v-233h-122zM747 298h-60v359h-58l-190 -367v-45h189v-119h59v119h60v53z" />
    <glyph glyph-name="_747" unicode="&#x246e;" 
d="M29 393q0 -189 131 -319t320 -130t320 130t131 319t-131 319t-320 130t-320 -130t-131 -319zM75 393q0 171 117.5 288.5t287.5 117.5t287.5 -117.5t117.5 -288.5t-117.5 -288.5t-287.5 -117.5t-287.5 117.5t-117.5 288.5zM354 128v531h-47l-123 -66v-62l110 59v-462h60z
M597 424q40 0 61 -32.5t21 -93.5q0 -62 -21 -95t-61 -33q-73 0 -82 109h-59q6 -76 42.5 -118.5t98.5 -42.5q66 0 103.5 47.5t37.5 131.5q0 86 -36.5 133t-98.5 47q-43 0 -71 -30l7 159h176v52h-233l-11 -299h56q21 65 70 65z" />
    <glyph glyph-name="_8791" unicode="&#x246f;" 
d="M28 393q0 189 131.5 319t320.5 130t320 -130t131 -319q0 -190 -131 -319.5t-320 -129.5q-190 0 -321 129.5t-131 319.5zM75 393q0 -171 117.5 -288.5t287.5 -117.5q169 0 286.5 117.5t117.5 288.5q0 170 -117.5 288t-286.5 118q-170 0 -287.5 -118t-117.5 -288zM353 128
h-59v462l-111 -59v61l124 67h46v-531zM732 528h-60q-10 88 -72 88q-41 0 -60.5 -42.5t-22.5 -134.5q30 40 86 40q65 0 103 -48t38 -131t-39.5 -131t-103.5 -48q-73 0 -109 56.5t-36 178.5q0 174 33 243t112 69q55 0 90 -35.5t41 -104.5zM601 173q38 0 61 34t23 93t-23 92.5
t-61 33.5q-39 0 -62 -33.5t-23 -92.5t23 -93t62 -34z" />
    <glyph glyph-name="_8792" unicode="&#x2470;" 
d="M29 393q0 189 131 319t320 130t320 -130t131 -319t-131 -319t-320 -130t-320 130t-131 319zM75 393q0 -171 117.5 -288.5t287.5 -117.5t287.5 117.5t117.5 288.5t-117.5 288.5t-287.5 117.5t-287.5 -117.5t-117.5 -288.5zM355 126h-60v462l-110 -59v61l123 67h47v-531z
M462 598v52h279v-41l-156 -490h-61l154 479h-216z" />
    <glyph glyph-name="_8793" unicode="&#x2471;" 
d="M29 393q0 189 131 319t320 130t320 -130t131 -319t-131 -319t-320 -130t-320 130t-131 319zM75 393q0 -171 117.5 -288.5t287.5 -117.5t287.5 117.5t117.5 288.5t-117.5 288.5t-287.5 117.5t-287.5 -117.5t-117.5 -288.5zM354 128h-60v462l-110 -59v62l123 66h47v-531z
M597 121q-68 0 -109.5 41.5t-41.5 114.5q0 97 77 133q-64 34 -64 120q0 62 37.5 100.5t100.5 38.5t100.5 -38.5t37.5 -100.5q0 -86 -64 -120q77 -36 77 -133q0 -72 -41.5 -114t-109.5 -42zM675 526q0 41 -21.5 66t-56.5 25t-57 -25t-22 -66t22 -65.5t57 -24.5t56.5 24.5
t21.5 65.5zM505 279q0 -49 25.5 -77.5t66.5 -28.5t66.5 28.5t25.5 77.5q0 48 -25.5 76.5t-66.5 28.5t-66.5 -28.5t-25.5 -76.5z" />
    <glyph glyph-name="_8794" unicode="&#x2472;" 
d="M28 393q0 189 131.5 319t320.5 130t320 -130t131 -319q0 -190 -131 -319.5t-320 -129.5q-190 0 -321 129.5t-131 319.5zM75 393q0 -171 117.5 -288.5t287.5 -117.5q169 0 286.5 117.5t117.5 288.5q0 170 -117.5 288t-286.5 118q-170 0 -287.5 -118t-117.5 -288zM353 128
h-59v462l-111 -59v61l124 67h46v-531zM464 264h61q10 -89 73 -89q38 0 58 42t24 135q-32 -40 -86 -40q-65 0 -103 48t-38 131q0 82 39.5 130.5t104.5 48.5q144 0 144 -234q0 -175 -33 -244t-111 -69q-57 0 -91.5 35.5t-41.5 105.5zM597 618q-39 0 -61.5 -34t-22.5 -93
t22.5 -93t61.5 -34q38 0 61 34t23 93t-23 93t-61 34z" />
    <glyph glyph-name="_8795" unicode="&#x2473;" 
d="M29 393q0 189 131 319t320 130t320 -130t131 -319t-131 -319t-320 -130t-320 130t-131 319zM75 393q0 -171 117.5 -288.5t287.5 -117.5t287.5 117.5t117.5 288.5t-117.5 288.5t-287.5 117.5t-287.5 -117.5t-117.5 -288.5zM453 514q0 -64 -43 -127l-138 -201h186v-53h-262
v43l166 244q31 45 31 94q0 47 -19 76.5t-53 29.5q-33 0 -52 -29.5t-19 -76.5v-23h-60v23q0 68 34.5 113.5t96.5 45.5t97 -45.5t35 -113.5zM557 395q0 -159 33 -198q18 -23 48 -23q32 0 48 23q34 39 34 198q0 160 -34 199q-18 23 -48 23t-48 -23q-33 -39 -33 -199zM497 395
q0 188 60 242q30 32 81 32q50 0 82 -32q59 -55 59 -242q0 -186 -59 -241q-32 -32 -82 -32q-51 0 -81 32q-60 54 -60 241z" />
    <glyph glyph-name="_827" unicode="&#x2474;" 
d="M532 117v560h-48l-153 -69v-59l142 62v-494h59zM43 398q0 -217 143 -418h49q-138 206 -138 418q0 211 138 417h-49q-143 -201 -143 -417zM917 398q0 216 -143 417h-49q138 -206 138 -417q0 -212 -138 -418h49q143 201 143 418z" />
    <glyph glyph-name="_828" unicode="&#x2475;" 
d="M648 529q0 72 -45 119.5t-124 47.5t-123.5 -48t-44.5 -119v-22h60v22q0 50 29 82.5t79 32.5t79.5 -32.5t29.5 -82.5t-43 -100l-225 -256v-46h335v53h-254l191 216q31 35 43.5 65t12.5 68zM43 398q0 -217 143 -418h49q-138 206 -138 418q0 211 138 417h-49
q-143 -201 -143 -417zM917 398q0 216 -143 417h-49q138 -206 138 -417q0 -212 -138 -418h49q143 201 143 418z" />
    <glyph glyph-name="_829" unicode="&#x2476;" 
d="M600 277q0 -52 -32 -82.5t-84 -30.5q-54 0 -86 34.5t-32 95.5h-59q0 -85 46.5 -134t130.5 -49q79 0 127.5 45t48.5 121q0 53 -24.5 89t-65.5 52q74 33 74 125q0 63 -43.5 104.5t-116.5 41.5q-74 0 -117.5 -41.5t-43.5 -104.5v-20h60v17q0 43 27 69.5t74 26.5
q45 0 72.5 -26.5t27.5 -69.5q0 -41 -24.5 -69t-69.5 -28h-64v-52h62q52 0 82 -31t30 -83zM235 -19q-138 205 -138 416q0 212 138 417h-49q-143 -199 -143 -417q0 -217 143 -416h49zM773 -19q143 199 143 416q0 218 -143 417h-49q138 -205 138 -417q0 -211 -138 -416h49z" />
    <glyph glyph-name="_830" unicode="&#x2477;" 
d="M350 301l165 273v-273h-165zM651 301h-76v380h-61l-235 -385v-48h236v-126h60v126h76v53zM43 398q0 -217 143 -418h49q-138 206 -138 418q0 211 138 417h-49q-143 -201 -143 -417zM917 398q0 216 -143 417h-49q138 -206 138 -417q0 -212 -138 -418h49q143 201 143 418z
" />
    <glyph glyph-name="_831" unicode="&#x2478;" 
d="M484 430q54 0 83 -35.5t29 -100.5q0 -66 -29 -101.5t-83 -35.5q-48 0 -77 29.5t-35 85.5h-59q7 -78 51.5 -122.5t119.5 -44.5q80 0 126 49t46 138q0 91 -44.5 140.5t-120.5 49.5q-65 0 -98 -40l9 179h224v53h-280l-14 -313h56q29 69 96 69zM43 398q0 -217 143 -418h49
q-138 206 -138 418q0 211 138 417h-49q-143 -201 -143 -417zM917 398q0 216 -143 417h-49q138 -206 138 -417q0 -212 -138 -418h49q143 201 143 418z" />
    <glyph glyph-name="_832" unicode="&#x2479;" 
d="M642 540q-9 71 -51 108t-109 37q-96 0 -136 -71.5t-40 -258.5q0 -247 175 -247q80 0 127.5 50.5t47.5 138.5q0 87 -46.5 137t-124.5 50t-118 -56q3 110 29.5 157.5t83.5 47.5q88 0 100 -93h62zM481 160q-52 0 -83.5 36.5t-31.5 100.5q0 63 31.5 99t83.5 36q53 0 84 -36
t31 -99q0 -65 -31 -101t-84 -36zM235 -19q-138 205 -138 416q0 212 138 417h-49q-143 -199 -143 -417q0 -217 143 -416h49zM773 -19q143 199 143 416q0 218 -143 417h-49q138 -205 138 -417q0 -211 -138 -416h49z" />
    <glyph glyph-name="_833" unicode="&#x247a;" 
d="M314 598h271l-196 -507h63l197 517v42h-335v-52zM43 398q0 -217 143 -418h49q-138 206 -138 418q0 211 138 417h-49q-143 -201 -143 -417zM917 398q0 216 -143 417h-49q138 -206 138 -417q0 -212 -138 -418h49q143 201 143 418z" />
    <glyph glyph-name="_834" unicode="&#x247b;" 
d="M481 107q84 0 134.5 43.5t50.5 119.5q0 107 -96 143q37 17 58 50t21 75q0 66 -45.5 106.5t-122.5 40.5t-122.5 -40.5t-45.5 -106.5q0 -43 20.5 -76.5t57.5 -49.5q-94 -33 -94 -142q0 -76 50.5 -119.5t133.5 -43.5zM590 535q0 -44 -30 -70.5t-79 -26.5t-78.5 26t-29.5 71
q0 44 30 71t78 27t78.5 -27t30.5 -71zM356 272q0 52 34.5 82.5t90.5 30.5t90.5 -30.5t34.5 -82.5t-34.5 -82t-90.5 -30t-90.5 30t-34.5 82zM43 398q0 -217 143 -418h49q-138 206 -138 418q0 211 138 417h-49q-143 -201 -143 -417zM917 398q0 216 -143 417h-49
q138 -206 138 -417q0 -212 -138 -418h49q143 201 143 418z" />
    <glyph glyph-name="_835" unicode="&#x247c;" 
d="M315 249q9 -72 51 -109t110 -37q95 0 135 73t40 257q0 248 -175 248q-79 0 -127 -51t-48 -138t46.5 -137.5t124.5 -50.5q80 0 118 56q-5 -111 -30.5 -157.5t-82.5 -46.5q-88 0 -100 93h-62zM476 628q52 0 83.5 -36t31.5 -100q0 -63 -31.5 -99.5t-83.5 -36.5
q-53 0 -84 36.5t-31 99.5q0 64 31 100t84 36zM235 -19q-138 205 -138 416q0 212 138 417h-49q-143 -199 -143 -417q0 -217 143 -416h49zM773 -19q143 199 143 416q0 218 -143 417h-49q138 -205 138 -417q0 -211 -138 -416h49z" />
    <glyph glyph-name="_836" unicode="&#x247d;" 
d="M354 128v531h-47l-123 -66v-62l110 59v-462h60zM516 395q0 162 36 198q19 24 53 24q33 0 52 -24q37 -37 37 -198t-37 -198q-19 -24 -52 -24q-34 0 -53 24q-36 36 -36 198zM456 395q0 -193 64 -243q33 -31 85 -31q51 0 84 31q35 27 49.5 85.5t14.5 157.5t-14.5 157.5
t-49.5 85.5q-33 31 -84 31q-52 0 -85 -31q-64 -50 -64 -243zM43 398q0 -217 143 -418h49q-138 206 -138 418q0 211 138 417h-49q-143 -201 -143 -417zM917 398q0 216 -143 417h-49q138 -206 138 -417q0 -212 -138 -418h49q143 201 143 418z" />
    <glyph glyph-name="_837" unicode="&#x247e;" 
d="M384 128v531h-47l-123 -66v-62l110 59v-462h60zM677 128v531h-47l-123 -66v-62l111 59v-462h59zM43 398q0 -217 143 -418h49q-138 206 -138 418q0 211 138 417h-49q-143 -201 -143 -417zM917 398q0 216 -143 417h-49q138 -206 138 -417q0 -212 -138 -418h49
q143 201 143 418z" />
    <glyph glyph-name="_838" unicode="&#x247f;" 
d="M354 128v531h-47l-123 -66v-62l110 59v-462h60zM737 513q0 68 -37 113.5t-102 45.5q-64 0 -101 -45.5t-37 -113.5v-23h60v23q0 46 21 76t57 30q37 0 58.5 -29.5t21.5 -76.5q0 -48 -33 -94l-178 -243v-44h276v53h-199l149 201q44 61 44 127zM43 398q0 -217 143 -418h49
q-138 206 -138 418q0 211 138 417h-49q-143 -201 -143 -417zM917 398q0 216 -143 417h-49q138 -206 138 -417q0 -212 -138 -418h49q143 201 143 418z" />
    <glyph glyph-name="_839" unicode="&#x2480;" 
d="M353 128v531h-46l-124 -67v-61l111 59v-462h59zM681 278q0 -48 -24 -77t-61 -29q-41 0 -63.5 32.5t-22.5 90.5h-59q0 -82 38 -128.5t107 -46.5q65 0 104.5 42.5t39.5 114.5q0 101 -72 134q59 30 59 118q0 60 -35.5 99.5t-95.5 39.5q-61 0 -96.5 -39.5t-35.5 -99.5v-21h59
v18q0 40 20 64.5t53 24.5q32 0 52 -25t20 -64q0 -38 -17.5 -64t-49.5 -26h-56v-52h54q38 0 60 -28.5t22 -77.5zM235 -19q-138 205 -138 416q0 212 138 417h-49q-143 -199 -143 -417q0 -217 143 -416h49zM773 -19q143 199 143 416q0 218 -143 417h-49q138 -205 138 -417
q0 -211 -138 -416h49z" />
    <glyph glyph-name="_840" unicode="&#x2481;" 
d="M354 128v531h-47l-123 -66v-62l110 59v-462h60zM506 298l122 233v-233h-122zM747 298h-60v359h-58l-190 -367v-45h189v-119h59v119h60v53zM43 398q0 -217 143 -418h49q-138 206 -138 418q0 211 138 417h-49q-143 -201 -143 -417zM917 398q0 216 -143 417h-49
q138 -206 138 -417q0 -212 -138 -418h49q143 201 143 418z" />
    <glyph glyph-name="_841" unicode="&#x2482;" 
d="M354 128v531h-47l-123 -66v-62l110 59v-462h60zM597 424q40 0 61 -32.5t21 -93.5q0 -62 -21 -95t-61 -33q-73 0 -82 109h-59q6 -76 42.5 -118.5t98.5 -42.5q66 0 103.5 47.5t37.5 131.5q0 86 -36.5 133t-98.5 47q-43 0 -71 -30l7 159h176v52h-233l-11 -299h56
q21 65 70 65zM43 398q0 -217 143 -418h49q-138 206 -138 418q0 211 138 417h-49q-143 -201 -143 -417zM917 398q0 216 -143 417h-49q138 -206 138 -417q0 -212 -138 -418h49q143 201 143 418z" />
    <glyph glyph-name="_9042" unicode="&#x2483;" 
d="M353 128h-59v462l-111 -59v61l124 67h46v-531zM732 528h-60q-10 88 -72 88q-41 0 -60.5 -42.5t-22.5 -134.5q30 40 86 40q65 0 103 -48t38 -131t-39.5 -131t-103.5 -48q-73 0 -109 56.5t-36 178.5q0 174 33 243t112 69q55 0 90 -35.5t41 -104.5zM601 173q38 0 61 34
t23 93t-23 92.5t-61 33.5q-39 0 -62 -33.5t-23 -92.5t23 -93t62 -34zM235 -19h-49q-143 199 -143 416q0 218 143 417h49q-138 -205 -138 -417q0 -211 138 -416zM773 -19h-49q138 205 138 416q0 212 -138 417h49q143 -199 143 -417q0 -217 -143 -416z" />
    <glyph glyph-name="_9043" unicode="&#x2484;" 
d="M355 126h-60v462l-110 -59v61l123 67h47v-531zM462 598v52h279v-41l-156 -490h-61l154 479h-216zM43 398q0 216 143 417h49q-138 -206 -138 -417q0 -212 138 -418h-49q-143 201 -143 418zM917 398q0 -217 -143 -418h-49q138 206 138 418q0 211 -138 417h49
q143 -201 143 -417z" />
    <glyph glyph-name="_9044" unicode="&#x2485;" 
d="M354 128h-60v462l-110 -59v62l123 66h47v-531zM597 121q-68 0 -109.5 41.5t-41.5 114.5q0 97 77 133q-64 34 -64 120q0 62 37.5 100.5t100.5 38.5t100.5 -38.5t37.5 -100.5q0 -86 -64 -120q77 -36 77 -133q0 -72 -41.5 -114t-109.5 -42zM675 526q0 41 -21.5 66t-56.5 25
t-57 -25t-22 -66t22 -65.5t57 -24.5t56.5 24.5t21.5 65.5zM505 279q0 -49 25.5 -77.5t66.5 -28.5t66.5 28.5t25.5 77.5q0 48 -25.5 76.5t-66.5 28.5t-66.5 -28.5t-25.5 -76.5zM43 398q0 216 143 417h49q-138 -206 -138 -417q0 -212 138 -418h-49q-143 201 -143 418zM917 398
q0 -217 -143 -418h-49q138 206 138 418q0 211 -138 417h49q143 -201 143 -417z" />
    <glyph glyph-name="_9045" unicode="&#x2486;" 
d="M353 128h-59v462l-111 -59v61l124 67h46v-531zM464 264h61q10 -89 73 -89q38 0 58 42t24 135q-32 -40 -86 -40q-65 0 -103 48t-38 131q0 82 39.5 130.5t104.5 48.5q144 0 144 -234q0 -175 -33 -244t-111 -69q-57 0 -91.5 35.5t-41.5 105.5zM597 618q-39 0 -61.5 -34
t-22.5 -93t22.5 -93t61.5 -34q38 0 61 34t23 93t-23 93t-61 34zM235 -19h-49q-143 199 -143 416q0 218 143 417h49q-138 -205 -138 -417q0 -211 138 -416zM773 -19h-49q138 205 138 416q0 212 -138 417h49q143 -199 143 -417q0 -217 -143 -416z" />
    <glyph glyph-name="_9046" unicode="&#x2487;" 
d="M453 514q0 -64 -43 -127l-138 -201h186v-53h-262v43l166 244q31 45 31 94q0 47 -19 76.5t-53 29.5q-33 0 -52 -29.5t-19 -76.5v-23h-60v23q0 68 34.5 113.5t96.5 45.5t97 -45.5t35 -113.5zM557 395q0 -159 33 -198q18 -23 48 -23q32 0 48 23q34 39 34 198q0 160 -34 199
q-18 23 -48 23t-48 -23q-33 -39 -33 -199zM497 395q0 188 60 242q30 32 81 32q50 0 82 -32q59 -55 59 -242q0 -186 -59 -241q-32 -32 -82 -32q-51 0 -81 32q-60 54 -60 241zM43 398q0 216 143 417h49q-138 -206 -138 -417q0 -212 138 -418h-49q-143 201 -143 418zM917 398
q0 -217 -143 -418h-49q138 206 138 418q0 211 -138 417h49q143 -201 143 -417z" />
    <glyph glyph-name="_801" unicode="&#x249c;" 
d="M593 187h60q-12 31 -12 61v207q0 70 -42 111t-121 41q-75 0 -116.5 -36.5t-46.5 -99.5h60q8 85 103 85q50 0 77 -26.5t27 -73.5v-53q-38 41 -121 41q-76 0 -119 -35.5t-43 -97.5q0 -63 43 -98.5t119 -35.5q85 0 122 42q2 -17 10 -32zM582 311q0 -39 -28.5 -61t-83.5 -22
t-83 22t-28 61q0 38 28 60t83 22t83.5 -22t28.5 -60zM43 398q0 -217 143 -418h49q-138 206 -138 418q0 211 138 417h-49q-143 -201 -143 -417zM917 398q0 216 -143 417h-49q138 -206 138 -417q0 -212 -138 -418h49q143 201 143 418z" />
    <glyph glyph-name="_802" unicode="&#x249d;" 
d="M686 331q0 105 -43.5 160t-126.5 55q-85 0 -122 -60v210h-60v-570h60v50q39 -60 122 -60t126.5 55t43.5 160zM627 331q0 -164 -116 -164q-117 0 -117 164t117 164q116 0 116 -164zM235 -19q-138 205 -138 416q0 212 138 417h-49q-143 -199 -143 -417q0 -217 143 -416h49z
M773 -19q143 199 143 416q0 218 -143 417h-49q138 -205 138 -417q0 -211 -138 -416h49z" />
    <glyph glyph-name="_803" unicode="&#x249e;" 
d="M305 392q0 -103 43.5 -159t131.5 -56q74 0 118 39t52 111h-60q-13 -99 -110 -99q-116 0 -116 164t116 164q97 0 110 -98h60q-8 71 -52 110t-118 39q-88 0 -131.5 -55.5t-43.5 -159.5zM43 398q0 -217 143 -418h49q-138 206 -138 418q0 211 138 417h-49
q-143 -201 -143 -417zM917 398q0 216 -143 417h-49q138 -206 138 -417q0 -212 -138 -418h49q143 201 143 418z" />
    <glyph glyph-name="_804" unicode="&#x249f;" 
d="M269 334q0 -105 43 -160t127 -55q82 0 122 60v-51h59v570h-59v-210q-36 60 -122 60q-84 0 -127 -54.5t-43 -159.5zM561 334q0 -164 -117 -164q-116 0 -116 164t116 164q117 0 117 -164zM235 -19q-138 205 -138 416q0 212 138 417h-49q-143 -199 -143 -417
q0 -217 143 -416h49zM773 -19q143 199 143 416q0 218 -143 417h-49q138 -205 138 -417q0 -211 -138 -416h49z" />
    <glyph glyph-name="_805" unicode="&#x24a0;" 
d="M587 317q-8 -40 -36.5 -64t-70.5 -24q-112 0 -117 145h292q0 114 -42 173.5t-134 59.5q-88 0 -131.5 -55.5t-43.5 -158.5q0 -215 176 -215q70 0 113 36.5t55 102.5h-61zM479 557q108 0 116 -135h-232q8 135 116 135zM235 -19q-138 205 -138 416q0 212 138 417h-49
q-143 -199 -143 -417q0 -217 143 -416h49zM773 -19q143 199 143 416q0 218 -143 417h-49q138 -205 138 -417q0 -211 -138 -416h49z" />
    <glyph glyph-name="_806" unicode="&#x24a1;" 
d="M591 625v49q-26 3 -47 3q-69 0 -97.5 -26.5t-28.5 -92.5v-46h-60v-51h60v-360h59v360h114v51h-114v43q0 40 15 55t55 15h44zM43 398q0 -217 143 -418h49q-138 206 -138 418q0 211 138 417h-49q-143 -201 -143 -417zM917 398q0 216 -143 417h-49q138 -206 138 -417
q0 -212 -138 -418h49q143 201 143 418z" />
    <glyph glyph-name="_807" unicode="&#x24a2;" 
d="M587 469q0 -164 -117 -164q-116 0 -116 164q0 165 116 165q117 0 117 -165zM317 211q8 -61 50 -96t113 -35q82 0 124 45.5t42 122.5v427h-59v-51q-37 60 -122 60q-83 0 -126.5 -55t-43.5 -160q0 -104 43.5 -159t126.5 -55q84 0 122 59v-69q0 -54 -28 -84.5t-79 -30.5
q-43 0 -70.5 21.5t-32.5 59.5h-60zM235 -19q-138 205 -138 416q0 212 138 417h-49q-143 -199 -143 -417q0 -217 143 -416h49zM773 -19q143 199 143 416q0 218 -143 417h-49q138 -205 138 -417q0 -211 -138 -416h49z" />
    <glyph glyph-name="_808" unicode="&#x24a3;" 
d="M390 123v175q0 94 30.5 144t90.5 50q96 0 96 -126v-243h59v252q0 80 -38 124t-108 44q-90 0 -130 -70v220h-59v-570h59zM235 -19q-138 205 -138 416q0 212 138 417h-49q-143 -199 -143 -417q0 -217 143 -416h49zM773 -19q143 199 143 416q0 218 -143 417h-49
q138 -205 138 -417q0 -211 -138 -416h49z" />
    <glyph glyph-name="_809" unicode="&#x24a4;" 
d="M510 113v411h-60v-411h60zM510 596v87h-60v-87h60zM43 398q0 -217 143 -418h49q-138 206 -138 418q0 211 138 417h-49q-143 -201 -143 -417zM917 398q0 216 -143 417h-49q138 -206 138 -417q0 -212 -138 -418h49q143 201 143 418z" />
    <glyph glyph-name="_810" unicode="&#x24a5;" 
d="M534 565h-59v-401q0 -57 -52 -57h-28v-49q14 -2 31 -2q108 0 108 110v399zM534 638v86h-59v-86h59zM43 398q0 -217 143 -418h49q-138 206 -138 418q0 211 138 417h-49q-143 -201 -143 -417zM917 398q0 216 -143 417h-49q138 -206 138 -417q0 -212 -138 -418h49
q143 201 143 418z" />
    <glyph glyph-name="_811" unicode="&#x24a6;" 
d="M416 130v189h39l155 -189h72l-176 213l158 198h-69l-139 -171h-40v330h-60v-570h60zM43 398q0 -217 143 -418h49q-138 206 -138 418q0 211 138 417h-49q-143 -201 -143 -417zM917 398q0 216 -143 417h-49q138 -206 138 -417q0 -212 -138 -418h49q143 201 143 418z" />
    <glyph glyph-name="_812" unicode="&#x24a7;" 
d="M513 108v570h-59v-570h59zM43 398q0 -217 143 -418h49q-138 206 -138 418q0 211 138 417h-49q-143 -201 -143 -417zM917 398q0 216 -143 417h-49q138 -206 138 -417q0 -212 -138 -418h49q143 201 143 418z" />
    <glyph glyph-name="_813" unicode="&#x24a8;" 
d="M705 186h59v270q0 71 -35.5 110.5t-99.5 39.5q-45 0 -78 -22t-51 -60q-28 82 -122 82q-79 0 -115 -68v59h-60v-411h60v206q0 78 30 121t76 43q41 0 63 -26t22 -75v-269h59v206q0 77 30.5 120.5t76.5 43.5q85 0 85 -101v-269zM235 -19q-138 205 -138 416q0 212 138 417
h-49q-143 -199 -143 -417q0 -217 143 -416h49zM773 -19q143 199 143 416q0 218 -143 417h-49q138 -205 138 -417q0 -211 -138 -416h49z" />
    <glyph glyph-name="_814" unicode="&#x24a9;" 
d="M376 186v210q0 74 34.5 116.5t86.5 42.5q53 0 75 -36.5t22 -120.5v-212h58v252q0 80 -37.5 124t-107.5 44q-91 0 -131 -70v61h-59v-411h59zM235 -19q-138 205 -138 416q0 212 138 417h-49q-143 -199 -143 -417q0 -217 143 -416h49zM773 -19q143 199 143 416
q0 218 -143 417h-49q138 -205 138 -417q0 -211 -138 -416h49z" />
    <glyph glyph-name="_815" unicode="&#x24aa;" 
d="M656 393q0 215 -176 215q-88 0 -131.5 -55.5t-43.5 -159.5q0 -103 43.5 -158.5t131.5 -55.5t132 55.5t44 158.5zM597 393q0 -164 -117 -164q-116 0 -116 164q0 165 116 165q117 0 117 -165zM43 398q0 -217 143 -418h49q-138 206 -138 418q0 211 138 417h-49
q-143 -201 -143 -417zM917 398q0 216 -143 417h-49q138 -206 138 -417q0 -212 -138 -418h49q143 201 143 418z" />
    <glyph glyph-name="_816" unicode="&#x24ab;" 
d="M688 457q0 105 -43.5 160t-127.5 55q-85 0 -122 -60v51h-59v-584h59v223q38 -60 122 -60t127.5 55t43.5 160zM628 457q0 -164 -116 -164q-117 0 -117 164t117 164q116 0 116 -164zM235 -19q-138 205 -138 416q0 212 138 417h-49q-143 -199 -143 -417q0 -217 143 -416h49z
M773 -19q143 199 143 416q0 218 -143 417h-49q138 -205 138 -417q0 -211 -138 -416h49z" />
    <glyph glyph-name="_817" unicode="&#x24ac;" 
d="M274 457q0 -105 43.5 -160t126.5 -55q84 0 122 60v-223h59v584h-59v-51q-37 60 -122 60q-83 0 -126.5 -55t-43.5 -160zM566 457q0 -164 -117 -164q-116 0 -116 164t116 164q117 0 117 -164zM235 -19q-138 205 -138 416q0 212 138 417h-49q-143 -199 -143 -417
q0 -217 143 -416h49zM773 -19q143 199 143 416q0 218 -143 417h-49q138 -205 138 -417q0 -211 -138 -416h49z" />
    <glyph glyph-name="_818" unicode="&#x24ad;" 
d="M564 545q25 0 37 -1l1 47q-13 6 -37 6q-81 0 -111 -61v52h-60v-411h60v208q0 80 29 120t81 40zM43 398q0 -217 143 -418h49q-138 206 -138 418q0 211 138 417h-49q-143 -201 -143 -417zM917 398q0 216 -143 417h-49q138 -206 138 -417q0 -212 -138 -418h49
q143 201 143 418z" />
    <glyph glyph-name="_819" unicode="&#x24ae;" 
d="M479 608q-69 0 -108.5 -33t-39.5 -83q0 -48 29 -75t95 -40q6 -1 53 -10q40 -8 58.5 -24t18.5 -44q0 -32 -27.5 -51t-71.5 -19q-43 0 -70.5 19t-27.5 52v21h-59v-21q0 -55 43.5 -88.5t113.5 -33.5q71 0 114.5 34t43.5 88q0 49 -29 77.5t-92 40.5q-5 1 -26 5.5t-26 5.5
q-43 8 -62 23t-19 40q0 29 24 47.5t65 18.5q43 0 66.5 -18t23.5 -47v-20h60v19q0 51 -40 83.5t-110 32.5zM43 398q0 -217 143 -418h49q-138 206 -138 418q0 211 138 417h-49q-143 -201 -143 -417zM917 398q0 216 -143 417h-49q138 -206 138 -417q0 -212 -138 -418h49
q143 201 143 418z" />
    <glyph glyph-name="_820" unicode="&#x24af;" 
d="M473 505h122v51h-122v112h-60v-112h-59v-51h59v-249q0 -65 30.5 -91t98.5 -26q33 0 53 2v49h-47q-39 0 -57 15t-18 57v243zM43 398q0 -217 143 -418h49q-138 206 -138 418q0 211 138 417h-49q-143 -201 -143 -417zM917 398q0 216 -143 417h-49q138 -206 138 -417
q0 -212 -138 -418h49q143 201 143 418z" />
    <glyph glyph-name="_821" unicode="&#x24b0;" 
d="M361 591h-59v-252q0 -80 38 -124t108 -44q90 0 130 70v-61h59v411h-59v-210q0 -74 -34.5 -116.5t-86.5 -42.5q-96 0 -96 126v243zM235 -19q-138 205 -138 416q0 212 138 417h-49q-143 -199 -143 -417q0 -217 143 -416h49zM773 -19q143 199 143 416q0 218 -143 417h-49
q138 -205 138 -417q0 -211 -138 -416h49z" />
    <glyph glyph-name="_822" unicode="&#x24b1;" 
d="M443 166h61l162 411h-63l-129 -331l-130 331h-63zM235 -19q-138 205 -138 416q0 212 138 417h-49q-143 -199 -143 -417q0 -217 143 -416h49zM773 -19q143 199 143 416q0 218 -143 417h-49q138 -205 138 -417q0 -211 -138 -416h49z" />
    <glyph glyph-name="_823" unicode="&#x24b2;" 
d="M450 585l-110 -322l-108 322h-62l141 -411h59l108 323l110 -323h59l141 411h-63l-108 -323l-109 323h-58zM43 398q0 -217 143 -418h49q-138 206 -138 418q0 211 138 417h-49q-143 -201 -143 -417zM917 398q0 216 -143 417h-49q138 -206 138 -417q0 -212 -138 -418h49
q143 201 143 418z" />
    <glyph glyph-name="_824" unicode="&#x24b3;" 
d="M602 182h67l-152 210l145 201h-68l-113 -156l-113 156h-67l145 -200l-153 -211h67l121 167zM43 398q0 -217 143 -418h49q-138 206 -138 418q0 211 138 417h-49q-143 -201 -143 -417zM917 398q0 216 -143 417h-49q138 -206 138 -417q0 -212 -138 -418h49q143 201 143 418z
" />
    <glyph glyph-name="_825" unicode="&#x24b4;" 
d="M424 154q-11 -27 -24 -36t-36 -9h-24v-50q11 -1 28 -1q41 0 66 17t43 62l203 505h-63l-130 -330l-130 330h-63l163 -405zM43 398q0 -217 143 -418h49q-138 206 -138 418q0 211 138 417h-49q-143 -201 -143 -417zM917 398q0 216 -143 417h-49q138 -206 138 -417
q0 -212 -138 -418h49q143 201 143 418z" />
    <glyph glyph-name="_826" unicode="&#x24b5;" 
d="M624 598h-290v-50h215l-221 -318v-43h302v51h-228l222 318v42zM43 398q0 -217 143 -418h49q-138 206 -138 418q0 211 138 417h-49q-143 -201 -143 -417zM917 398q0 216 -143 417h-49q138 -206 138 -417q0 -212 -138 -418h49q143 201 143 418z" />
    <glyph glyph-name="_8388" unicode="&#x24b6;" 
d="M481 820q88 0 168 -34.5t138 -92.5t92.5 -138t34.5 -168t-34.5 -168t-92.5 -138t-138 -92.5t-168 -34.5q-180 0 -307.5 127t-127.5 306t127.5 306t307.5 127zM481 781q-163 0 -278 -115.5t-115 -278.5t115 -278.5t278 -115.5q161 0 276 115.5t115 278.5t-115 278.5
t-276 115.5zM444 662h70l196 -511h-70l-49 133h-225l-48 -133h-70zM479 595l-93 -255h186z" />
    <glyph glyph-name="_8389" unicode="&#x24b7;" 
d="M481 820q88 0 168 -34.5t138 -92.5t92.5 -138t34.5 -168t-34.5 -168t-92.5 -138t-138 -92.5t-168 -34.5q-180 0 -307.5 127t-127.5 306t127.5 306t307.5 127zM481 781q-163 0 -278 -115.5t-115 -278.5t115 -278.5t278 -115.5q161 0 276 115.5t115 278.5t-115 278.5
t-276 115.5zM322 141v511h175q79 0 123.5 -37.5t44.5 -97.5q0 -34 -17 -62t-47 -42q43 -16 66.5 -48.5t23.5 -76.5q0 -69 -48 -108t-135 -39h-186zM386 435h102q54 0 83.5 21.5t29.5 60.5q0 78 -113 78h-102v-160zM627 288q0 90 -129 90h-112v-180h112q129 0 129 90z" />
    <glyph glyph-name="_8390" unicode="&#x24b8;" 
d="M481 820q88 0 168 -34.5t138 -92.5t92.5 -138t34.5 -168t-34.5 -168t-92.5 -138t-138 -92.5t-168 -34.5q-180 0 -307.5 127t-127.5 306t127.5 306t307.5 127zM481 781q-163 0 -278 -115.5t-115 -278.5t115 -278.5t278 -115.5q161 0 276 115.5t115 278.5t-115 278.5
t-276 115.5zM257 397q0 116 72 190t190 74q66 0 119 -21l-6 -65q-49 28 -108 28q-94 0 -147.5 -57.5t-53.5 -148.5q0 -94 54.5 -150t147.5 -56q60 0 109 29l7 -65q-48 -22 -118 -22q-122 0 -194 72.5t-72 191.5z" />
    <glyph glyph-name="_8391" unicode="&#x24b9;" 
d="M481 820q88 0 168 -34.5t138 -92.5t92.5 -138t34.5 -168t-34.5 -168t-92.5 -138t-138 -92.5t-168 -34.5q-180 0 -307.5 127t-127.5 306t127.5 306t307.5 127zM481 781q-163 0 -278 -115.5t-115 -278.5t115 -278.5t278 -115.5q161 0 276 115.5t115 278.5t-115 278.5
t-276 115.5zM657 397q0 198 -219 198h-56v-397h56q219 0 219 199zM723 397q0 -123 -76 -189.5t-199 -66.5h-130v511h130q123 0 199 -66t76 -189z" />
    <glyph glyph-name="_8392" unicode="&#x24ba;" 
d="M481 820q88 0 168 -34.5t138 -92.5t92.5 -138t34.5 -168t-34.5 -168t-92.5 -138t-138 -92.5t-168 -34.5q-180 0 -307.5 127t-127.5 306t127.5 306t307.5 127zM481 781q-163 0 -278 -115.5t-115 -278.5t115 -278.5t278 -115.5q161 0 276 115.5t115 278.5t-115 278.5
t-276 115.5zM323 141v511h319v-57h-255v-162h236v-57h-236v-178h261v-57h-325z" />
    <glyph glyph-name="_8393" unicode="&#x24bb;" 
d="M481 820q88 0 168 -34.5t138 -92.5t92.5 -138t34.5 -168t-34.5 -168t-92.5 -138t-138 -92.5t-168 -34.5q-180 0 -307.5 127t-127.5 306t127.5 306t307.5 127zM481 781q-163 0 -278 -115.5t-115 -278.5t115 -278.5t278 -115.5q161 0 276 115.5t115 278.5t-115 278.5
t-276 115.5zM341 141v511h316v-57h-253v-159h236v-58h-236v-237h-63z" />
    <glyph glyph-name="_8394" unicode="&#x24bc;" 
d="M481 820q88 0 168 -34.5t138 -92.5t92.5 -138t34.5 -168t-34.5 -168t-92.5 -138t-138 -92.5t-168 -34.5q-180 0 -307.5 127t-127.5 306t127.5 306t307.5 127zM481 781q-163 0 -278 -115.5t-115 -278.5t115 -278.5t278 -115.5q161 0 276 115.5t115 278.5t-115 278.5
t-276 115.5zM227 397q0 114 73.5 189t194.5 75q88 0 151 -26l-6 -64q-67 32 -141 32q-94 0 -150.5 -57.5t-56.5 -148.5q0 -93 57 -149.5t159 -56.5q52 0 84 13v161h-139v57h203v-261q-68 -28 -154 -28q-125 0 -200 73.5t-75 190.5z" />
    <glyph glyph-name="_8395" unicode="&#x24bd;" 
d="M481 820q88 0 168 -34.5t138 -92.5t92.5 -138t34.5 -168t-34.5 -168t-92.5 -138t-138 -92.5t-168 -34.5q-180 0 -307.5 127t-127.5 306t127.5 306t307.5 127zM481 781q-163 0 -278 -115.5t-115 -278.5t115 -278.5t278 -115.5q161 0 276 115.5t115 278.5t-115 278.5
t-276 115.5zM281 141v511h64v-211h267v211h65v-511h-65v243h-267v-243h-64z" />
    <glyph glyph-name="_8396" unicode="&#x24be;" 
d="M481 820q88 0 168 -34.5t138 -92.5t92.5 -138t34.5 -168t-34.5 -168t-92.5 -138t-138 -92.5t-168 -34.5q-180 0 -307.5 127t-127.5 306t127.5 306t307.5 127zM481 781q-163 0 -278 -115.5t-115 -278.5t115 -278.5t278 -115.5q161 0 276 115.5t115 278.5t-115 278.5
t-276 115.5zM447 652h64v-511h-64v511z" />
    <glyph glyph-name="_8397" unicode="&#x24bf;" 
d="M481 820q88 0 168 -34.5t138 -92.5t92.5 -138t34.5 -168t-34.5 -168t-92.5 -138t-138 -92.5t-168 -34.5q-180 0 -307.5 127t-127.5 306t127.5 306t307.5 127zM481 781q-163 0 -278 -115.5t-115 -278.5t115 -278.5t278 -115.5q161 0 276 115.5t115 278.5t-115 278.5
t-276 115.5zM544 306v344h64v-344q0 -174 -152 -174q-64 0 -107 21l5 64q40 -27 100 -27q90 0 90 116z" />
    <glyph glyph-name="_8398" unicode="&#x24c0;" 
d="M481 820q88 0 168 -34.5t138 -92.5t92.5 -138t34.5 -168t-34.5 -168t-92.5 -138t-138 -92.5t-168 -34.5q-180 0 -307.5 127t-127.5 306t127.5 306t307.5 127zM481 781q-163 0 -278 -115.5t-115 -278.5t115 -278.5t278 -115.5q161 0 276 115.5t115 278.5t-115 278.5
t-276 115.5zM592 652h80l-229 -239l264 -272h-86l-246 260v-260h-64v511h64v-226z" />
    <glyph glyph-name="_8399" unicode="&#x24c1;" 
d="M481 820q88 0 168 -34.5t138 -92.5t92.5 -138t34.5 -168t-34.5 -168t-92.5 -138t-138 -92.5t-168 -34.5q-180 0 -307.5 127t-127.5 306t127.5 306t307.5 127zM481 781q-163 0 -278 -115.5t-115 -278.5t115 -278.5t278 -115.5q161 0 276 115.5t115 278.5t-115 278.5
t-276 115.5zM329 141v511h64v-454h275v-57h-339z" />
    <glyph glyph-name="_8400" unicode="&#x24c2;" 
d="M481 820q88 0 168 -34.5t138 -92.5t92.5 -138t34.5 -168t-34.5 -168t-92.5 -138t-138 -92.5t-168 -34.5q-180 0 -307.5 127t-127.5 306t127.5 306t307.5 127zM481 781q-163 0 -278 -115.5t-115 -278.5t115 -278.5t278 -115.5q161 0 276 115.5t115 278.5t-115 278.5
t-276 115.5zM506 311h-54l-162 248v-418h-61v511h68l182 -281l182 281h68v-511h-61v418z" />
    <glyph glyph-name="_8401" unicode="&#x24c3;" 
d="M481 820q88 0 168 -34.5t138 -92.5t92.5 -138t34.5 -168t-34.5 -168t-92.5 -138t-138 -92.5t-168 -34.5q-180 0 -307.5 127t-127.5 306t127.5 306t307.5 127zM481 781q-163 0 -278 -115.5t-115 -278.5t115 -278.5t278 -115.5q161 0 276 115.5t115 278.5t-115 278.5
t-276 115.5zM279 141v511h77l262 -431v431h61v-511h-77l-262 431v-431h-61z" />
    <glyph glyph-name="_8402" unicode="&#x24c4;" 
d="M481 820q88 0 168 -34.5t138 -92.5t92.5 -138t34.5 -168t-34.5 -168t-92.5 -138t-138 -92.5t-168 -34.5q-180 0 -307.5 127t-127.5 306t127.5 306t307.5 127zM481 781q-163 0 -278 -115.5t-115 -278.5t115 -278.5t278 -115.5q161 0 276 115.5t115 278.5t-115 278.5
t-276 115.5zM707 397q0 -115 -61.5 -189.5t-166.5 -74.5q-106 0 -167.5 74.5t-61.5 189.5t61.5 189.5t167.5 74.5q105 0 166.5 -75t61.5 -189zM316 397q0 -94 44.5 -150t118.5 -56t118 56t44 150t-44 150t-118 56t-118.5 -56t-44.5 -150z" />
    <glyph glyph-name="_8403" unicode="&#x24c5;" 
d="M481 820q88 0 168 -34.5t138 -92.5t92.5 -138t34.5 -168t-34.5 -168t-92.5 -138t-138 -92.5t-168 -34.5q-180 0 -307.5 127t-127.5 306t127.5 306t307.5 127zM481 781q-163 0 -278 -115.5t-115 -278.5t115 -278.5t278 -115.5q161 0 276 115.5t115 278.5t-115 278.5
t-276 115.5zM693 493q0 -75 -51.5 -116.5t-138.5 -41.5h-94v-194h-65v511h159q87 0 138.5 -42t51.5 -117zM628 493q0 102 -130 102h-89v-203h89q66 0 98 24.5t32 76.5z" />
    <glyph glyph-name="_8404" unicode="&#x24c6;" 
d="M481 820q88 0 168 -34.5t138 -92.5t92.5 -138t34.5 -168t-34.5 -168t-92.5 -138t-138 -92.5t-168 -34.5q-180 0 -307.5 127t-127.5 306t127.5 306t307.5 127zM481 781q-163 0 -278 -115.5t-115 -278.5t115 -278.5t278 -115.5q161 0 276 115.5t115 278.5t-115 278.5
t-276 115.5zM701 421q0 -103 -50 -175t-138 -86q6 -32 30 -46q23 -12 66 -12q30 0 62 8l7 -53q-37 -7 -71 -7q-61 0 -101 22q-43 28 -54 86q-97 7 -152.5 80.5t-55.5 182.5q0 115 61.5 189.5t167.5 74.5q105 0 166.5 -75t61.5 -189zM310 421q0 -94 44.5 -149.5t118.5 -55.5
t118 55.5t44 149.5t-44 149.5t-118 55.5t-118.5 -55.5t-44.5 -149.5z" />
    <glyph glyph-name="_8405" unicode="&#x24c7;" 
d="M481 820q88 0 168 -34.5t138 -92.5t92.5 -138t34.5 -168t-34.5 -168t-92.5 -138t-138 -92.5t-168 -34.5q-180 0 -307.5 127t-127.5 306t127.5 306t307.5 127zM481 781q-163 0 -278 -115.5t-115 -278.5t115 -278.5t278 -115.5q161 0 276 115.5t115 278.5t-115 278.5
t-276 115.5zM680 503q0 -53 -30.5 -88.5t-83.5 -50.5l146 -223h-74l-138 214h-110v-214h-65v511h171q81 0 132.5 -39t51.5 -110zM614 503q0 92 -123 92h-101v-184h101q123 0 123 92z" />
    <glyph glyph-name="_8406" unicode="&#x24c8;" 
d="M481 820q88 0 168 -34.5t138 -92.5t92.5 -138t34.5 -168t-34.5 -168t-92.5 -138t-138 -92.5t-168 -34.5q-180 0 -307.5 127t-127.5 306t127.5 306t307.5 127zM481 781q-163 0 -278 -115.5t-115 -278.5t115 -278.5t278 -115.5q161 0 276 115.5t115 278.5t-115 278.5
t-276 115.5zM615 638l-5 -64q-50 29 -118 29q-54 0 -81.5 -19.5t-27.5 -53.5q0 -31 24 -53t78 -40q85 -29 122 -66t37 -95q0 -68 -48.5 -105.5t-135.5 -37.5q-79 0 -139 34l5 66q60 -42 139 -42q55 0 84 21t29 60q0 37 -25 61t-86 43q-76 25 -113 62t-37 92q0 61 46.5 96
t129.5 35q68 0 122 -23z" />
    <glyph glyph-name="_8407" unicode="&#x24c9;" 
d="M481 820q88 0 168 -34.5t138 -92.5t92.5 -138t34.5 -168t-34.5 -168t-92.5 -138t-138 -92.5t-168 -34.5q-180 0 -307.5 127t-127.5 306t127.5 306t307.5 127zM481 781q-163 0 -278 -115.5t-115 -278.5t115 -278.5t278 -115.5q161 0 276 115.5t115 278.5t-115 278.5
t-276 115.5zM447 141v454h-159v57h382v-57h-159v-454h-64z" />
    <glyph glyph-name="_8408" unicode="&#x24ca;" 
d="M481 820q88 0 168 -34.5t138 -92.5t92.5 -138t34.5 -168t-34.5 -168t-92.5 -138t-138 -92.5t-168 -34.5q-180 0 -307.5 127t-127.5 306t127.5 306t307.5 127zM481 781q-163 0 -278 -115.5t-115 -278.5t115 -278.5t278 -115.5q161 0 276 115.5t115 278.5t-115 278.5
t-276 115.5zM479 132q-93 0 -148 52.5t-55 154.5v311h64v-307q0 -153 139 -153q138 0 138 153v307h64v-311q0 -103 -53.5 -155t-148.5 -52z" />
    <glyph glyph-name="_8409" unicode="&#x24cb;" 
d="M481 820q88 0 168 -34.5t138 -92.5t92.5 -138t34.5 -168t-34.5 -168t-92.5 -138t-138 -92.5t-168 -34.5q-180 0 -307.5 127t-127.5 306t127.5 306t307.5 127zM481 781q-163 0 -278 -115.5t-115 -278.5t115 -278.5t278 -115.5q161 0 276 115.5t115 278.5t-115 278.5
t-276 115.5zM514 141h-70l-196 511h66l165 -435l164 435h67z" />
    <glyph glyph-name="_8410" unicode="&#x24cc;" 
d="M481 820q88 0 168 -34.5t138 -92.5t92.5 -138t34.5 -168t-34.5 -168t-92.5 -138t-138 -92.5t-168 -34.5q-180 0 -307.5 127t-127.5 306t127.5 306t307.5 127zM481 781q-163 0 -278 -115.5t-115 -278.5t115 -278.5t278 -115.5q161 0 276 115.5t115 278.5t-115 278.5
t-276 115.5zM440 652h78l79 -435l101 435h69l-126 -511h-87l-75 429l-76 -429h-86l-126 511h68l102 -435z" />
    <glyph glyph-name="_8411" unicode="&#x24cd;" 
d="M481 820q88 0 168 -34.5t138 -92.5t92.5 -138t34.5 -168t-34.5 -168t-92.5 -138t-138 -92.5t-168 -34.5q-180 0 -307.5 127t-127.5 306t127.5 306t307.5 127zM481 781q-163 0 -278 -115.5t-115 -278.5t115 -278.5t278 -115.5q161 0 276 115.5t115 278.5t-115 278.5
t-276 115.5zM441 401l-187 251h75l150 -203l150 203h75l-187 -251l194 -260h-75l-157 212l-158 -212h-74z" />
    <glyph glyph-name="_8412" unicode="&#x24ce;" 
d="M481 820q88 0 168 -34.5t138 -92.5t92.5 -138t34.5 -168t-34.5 -168t-92.5 -138t-138 -92.5t-168 -34.5q-180 0 -307.5 127t-127.5 306t127.5 306t307.5 127zM481 781q-163 0 -278 -115.5t-115 -278.5t115 -278.5t278 -115.5q161 0 276 115.5t115 278.5t-115 278.5
t-276 115.5zM706 652l-195 -308v-203h-64v203l-195 308h75l152 -247l152 247h75z" />
    <glyph glyph-name="_8413" unicode="&#x24cf;" 
d="M481 820q88 0 168 -34.5t138 -92.5t92.5 -138t34.5 -168t-34.5 -168t-92.5 -138t-138 -92.5t-168 -34.5q-180 0 -307.5 127t-127.5 306t127.5 306t307.5 127zM481 781q-163 0 -278 -115.5t-115 -278.5t115 -278.5t278 -115.5q161 0 276 115.5t115 278.5t-115 278.5
t-276 115.5zM296 206l285 389h-274v57h347v-64l-285 -390h293v-57h-366v65z" />
    <glyph glyph-name="_707" unicode="&#x24d0;" 
d="M29 393q0 -189 131 -319t320 -130t320 130t131 319t-131 319t-320 130t-320 -130t-131 -319zM75 393q0 171 117.5 288.5t287.5 117.5t287.5 -117.5t117.5 -288.5t-117.5 -288.5t-287.5 -117.5t-287.5 117.5t-117.5 288.5zM593 187h60q-12 31 -12 61v207q0 70 -42 111
t-121 41q-75 0 -116.5 -36.5t-46.5 -99.5h60q8 85 103 85q50 0 77 -26.5t27 -73.5v-53q-38 41 -121 41q-76 0 -119 -35.5t-43 -97.5q0 -63 43 -98.5t119 -35.5q85 0 122 42q2 -17 10 -32zM582 311q0 -39 -28.5 -61t-83.5 -22t-83 22t-28 61q0 38 28 60t83 22t83.5 -22
t28.5 -60z" />
    <glyph glyph-name="_708" unicode="&#x24d1;" 
d="M28 393q0 -190 131 -319.5t321 -129.5q189 0 320 129.5t131 319.5q0 189 -131 319t-320 130t-320.5 -130t-131.5 -319zM75 393q0 170 117.5 288t287.5 118q169 0 286.5 -118t117.5 -288q0 -171 -117.5 -288.5t-286.5 -117.5q-170 0 -287.5 117.5t-117.5 288.5zM686 331
q0 105 -43.5 160t-126.5 55q-85 0 -122 -60v210h-60v-570h60v50q39 -60 122 -60t126.5 55t43.5 160zM627 331q0 -164 -116 -164q-117 0 -117 164t117 164q116 0 116 -164z" />
    <glyph glyph-name="_709" unicode="&#x24d2;" 
d="M29 393q0 -189 131 -319t320 -130t320 130t131 319t-131 319t-320 130t-320 -130t-131 -319zM75 393q0 171 117.5 288.5t287.5 117.5t287.5 -117.5t117.5 -288.5t-117.5 -288.5t-287.5 -117.5t-287.5 117.5t-117.5 288.5zM305 392q0 -103 43.5 -159t131.5 -56
q74 0 118 39t52 111h-60q-13 -99 -110 -99q-116 0 -116 164t116 164q97 0 110 -98h60q-8 71 -52 110t-118 39q-88 0 -131.5 -55.5t-43.5 -159.5z" />
    <glyph glyph-name="_710" unicode="&#x24d3;" 
d="M28 393q0 -190 131 -319.5t321 -129.5q189 0 320 129.5t131 319.5q0 189 -131 319t-320 130t-320.5 -130t-131.5 -319zM75 393q0 170 117.5 288t287.5 118q169 0 286.5 -118t117.5 -288q0 -171 -117.5 -288.5t-286.5 -117.5q-170 0 -287.5 117.5t-117.5 288.5zM269 334
q0 -105 43 -160t127 -55q82 0 122 60v-51h59v570h-59v-210q-36 60 -122 60q-84 0 -127 -54.5t-43 -159.5zM561 334q0 -164 -117 -164q-116 0 -116 164t116 164q117 0 117 -164z" />
    <glyph glyph-name="_711" unicode="&#x24d4;" 
d="M28 393q0 -190 131 -319.5t321 -129.5q189 0 320 129.5t131 319.5q0 189 -131 319t-320 130t-320.5 -130t-131.5 -319zM75 393q0 170 117.5 288t287.5 118q169 0 286.5 -118t117.5 -288q0 -171 -117.5 -288.5t-286.5 -117.5q-170 0 -287.5 117.5t-117.5 288.5zM587 317
q-8 -40 -36.5 -64t-70.5 -24q-112 0 -117 145h292q0 114 -42 173.5t-134 59.5q-88 0 -131.5 -55.5t-43.5 -158.5q0 -215 176 -215q70 0 113 36.5t55 102.5h-61zM479 557q108 0 116 -135h-232q8 135 116 135z" />
    <glyph glyph-name="_712" unicode="&#x24d5;" 
d="M29 393q0 -189 131 -319t320 -130t320 130t131 319t-131 319t-320 130t-320 -130t-131 -319zM75 393q0 171 117.5 288.5t287.5 117.5t287.5 -117.5t117.5 -288.5t-117.5 -288.5t-287.5 -117.5t-287.5 117.5t-117.5 288.5zM591 625v49q-26 3 -47 3q-69 0 -97.5 -26.5
t-28.5 -92.5v-46h-60v-51h60v-360h59v360h114v51h-114v43q0 40 15 55t55 15h44z" />
    <glyph glyph-name="_713" unicode="&#x24d6;" 
d="M28 393q0 -190 131 -319.5t321 -129.5q189 0 320 129.5t131 319.5q0 189 -131 319t-320 130t-320.5 -130t-131.5 -319zM75 393q0 170 117.5 288t287.5 118q169 0 286.5 -118t117.5 -288q0 -171 -117.5 -288.5t-286.5 -117.5q-170 0 -287.5 117.5t-117.5 288.5zM587 469
q0 -164 -117 -164q-116 0 -116 164q0 165 116 165q117 0 117 -165zM317 211q8 -61 50 -96t113 -35q82 0 124 45.5t42 122.5v427h-59v-51q-37 60 -122 60q-83 0 -126.5 -55t-43.5 -160q0 -104 43.5 -159t126.5 -55q84 0 122 59v-69q0 -54 -28 -84.5t-79 -30.5
q-43 0 -70.5 21.5t-32.5 59.5h-60z" />
    <glyph glyph-name="_714" unicode="&#x24d7;" 
d="M28 393q0 -190 131 -319.5t321 -129.5q189 0 320 129.5t131 319.5q0 189 -131 319t-320 130t-320.5 -130t-131.5 -319zM75 393q0 170 117.5 288t287.5 118q169 0 286.5 -118t117.5 -288q0 -171 -117.5 -288.5t-286.5 -117.5q-170 0 -287.5 117.5t-117.5 288.5zM390 123
v175q0 94 30.5 144t90.5 50q96 0 96 -126v-243h59v252q0 80 -38 124t-108 44q-90 0 -130 -70v220h-59v-570h59z" />
    <glyph glyph-name="_715" unicode="&#x24d8;" 
d="M29 393q0 -189 131 -319t320 -130t320 130t131 319t-131 319t-320 130t-320 -130t-131 -319zM75 393q0 171 117.5 288.5t287.5 117.5t287.5 -117.5t117.5 -288.5t-117.5 -288.5t-287.5 -117.5t-287.5 117.5t-117.5 288.5zM510 113v411h-60v-411h60zM510 596v87h-60v-87
h60z" />
    <glyph glyph-name="_716" unicode="&#x24d9;" 
d="M29 393q0 -189 131 -319t320 -130t320 130t131 319t-131 319t-320 130t-320 -130t-131 -319zM75 393q0 171 117.5 288.5t287.5 117.5t287.5 -117.5t117.5 -288.5t-117.5 -288.5t-287.5 -117.5t-287.5 117.5t-117.5 288.5zM534 565h-59v-401q0 -57 -52 -57h-28v-49
q14 -2 31 -2q108 0 108 110v399zM534 638v86h-59v-86h59z" />
    <glyph glyph-name="_717" unicode="&#x24da;" 
d="M29 393q0 -189 131 -319t320 -130t320 130t131 319t-131 319t-320 130t-320 -130t-131 -319zM75 393q0 171 117.5 288.5t287.5 117.5t287.5 -117.5t117.5 -288.5t-117.5 -288.5t-287.5 -117.5t-287.5 117.5t-117.5 288.5zM416 130v189h39l155 -189h72l-176 213l158 198
h-69l-139 -171h-40v330h-60v-570h60z" />
    <glyph glyph-name="_718" unicode="&#x24db;" 
d="M29 393q0 -189 131 -319t320 -130t320 130t131 319t-131 319t-320 130t-320 -130t-131 -319zM75 393q0 171 117.5 288.5t287.5 117.5t287.5 -117.5t117.5 -288.5t-117.5 -288.5t-287.5 -117.5t-287.5 117.5t-117.5 288.5zM513 108v570h-59v-570h59z" />
    <glyph glyph-name="_719" unicode="&#x24dc;" 
d="M28 393q0 -190 131 -319.5t321 -129.5q189 0 320 129.5t131 319.5q0 189 -131 319t-320 130t-320.5 -130t-131.5 -319zM75 393q0 170 117.5 288t287.5 118q169 0 286.5 -118t117.5 -288q0 -171 -117.5 -288.5t-286.5 -117.5q-170 0 -287.5 117.5t-117.5 288.5zM705 186
h59v270q0 71 -35.5 110.5t-99.5 39.5q-45 0 -78 -22t-51 -60q-28 82 -122 82q-79 0 -115 -68v59h-60v-411h60v206q0 78 30 121t76 43q41 0 63 -26t22 -75v-269h59v206q0 77 30.5 120.5t76.5 43.5q85 0 85 -101v-269z" />
    <glyph glyph-name="_720" unicode="&#x24dd;" 
d="M28 393q0 -190 131 -319.5t321 -129.5q189 0 320 129.5t131 319.5q0 189 -131 319t-320 130t-320.5 -130t-131.5 -319zM75 393q0 170 117.5 288t287.5 118q169 0 286.5 -118t117.5 -288q0 -171 -117.5 -288.5t-286.5 -117.5q-170 0 -287.5 117.5t-117.5 288.5zM376 186
v210q0 74 34.5 116.5t86.5 42.5q53 0 75 -36.5t22 -120.5v-212h58v252q0 80 -37.5 124t-107.5 44q-91 0 -131 -70v61h-59v-411h59z" />
    <glyph glyph-name="_721" unicode="&#x24de;" 
d="M29 393q0 -189 131 -319t320 -130t320 130t131 319t-131 319t-320 130t-320 -130t-131 -319zM75 393q0 171 117.5 288.5t287.5 117.5t287.5 -117.5t117.5 -288.5t-117.5 -288.5t-287.5 -117.5t-287.5 117.5t-117.5 288.5zM656 393q0 215 -176 215q-88 0 -131.5 -55.5
t-43.5 -159.5q0 -103 43.5 -158.5t131.5 -55.5t132 55.5t44 158.5zM597 393q0 -164 -117 -164q-116 0 -116 164q0 165 116 165q117 0 117 -165z" />
    <glyph glyph-name="_722" unicode="&#x24df;" 
d="M28 393q0 -190 131 -319.5t321 -129.5q189 0 320 129.5t131 319.5q0 189 -131 319t-320 130t-320.5 -130t-131.5 -319zM75 393q0 170 117.5 288t287.5 118q169 0 286.5 -118t117.5 -288q0 -171 -117.5 -288.5t-286.5 -117.5q-170 0 -287.5 117.5t-117.5 288.5zM688 457
q0 105 -43.5 160t-127.5 55q-85 0 -122 -60v51h-59v-584h59v223q38 -60 122 -60t127.5 55t43.5 160zM628 457q0 -164 -116 -164q-117 0 -117 164t117 164q116 0 116 -164z" />
    <glyph glyph-name="_723" unicode="&#x24e0;" 
d="M28 393q0 -190 131 -319.5t321 -129.5q189 0 320 129.5t131 319.5q0 189 -131 319t-320 130t-320.5 -130t-131.5 -319zM75 393q0 170 117.5 288t287.5 118q169 0 286.5 -118t117.5 -288q0 -171 -117.5 -288.5t-286.5 -117.5q-170 0 -287.5 117.5t-117.5 288.5zM274 457
q0 -105 43.5 -160t126.5 -55q84 0 122 60v-223h59v584h-59v-51q-37 60 -122 60q-83 0 -126.5 -55t-43.5 -160zM566 457q0 -164 -117 -164q-116 0 -116 164t116 164q117 0 117 -164z" />
    <glyph glyph-name="_724" unicode="&#x24e1;" 
d="M29 393q0 -189 131 -319t320 -130t320 130t131 319t-131 319t-320 130t-320 -130t-131 -319zM75 393q0 171 117.5 288.5t287.5 117.5t287.5 -117.5t117.5 -288.5t-117.5 -288.5t-287.5 -117.5t-287.5 117.5t-117.5 288.5zM564 545q25 0 37 -1l1 47q-13 6 -37 6
q-81 0 -111 -61v52h-60v-411h60v208q0 80 29 120t81 40z" />
    <glyph glyph-name="_725" unicode="&#x24e2;" 
d="M29 393q0 -189 131 -319t320 -130t320 130t131 319t-131 319t-320 130t-320 -130t-131 -319zM75 393q0 171 117.5 288.5t287.5 117.5t287.5 -117.5t117.5 -288.5t-117.5 -288.5t-287.5 -117.5t-287.5 117.5t-117.5 288.5zM479 608q-69 0 -108.5 -33t-39.5 -83
q0 -48 29 -75t95 -40q6 -1 53 -10q40 -8 58.5 -24t18.5 -44q0 -32 -27.5 -51t-71.5 -19q-43 0 -70.5 19t-27.5 52v21h-59v-21q0 -55 43.5 -88.5t113.5 -33.5q71 0 114.5 34t43.5 88q0 49 -29 77.5t-92 40.5q-5 1 -26 5.5t-26 5.5q-43 8 -62 23t-19 40q0 29 24 47.5t65 18.5
q43 0 66.5 -18t23.5 -47v-20h60v19q0 51 -40 83.5t-110 32.5z" />
    <glyph glyph-name="_726" unicode="&#x24e3;" 
d="M29 393q0 -189 131 -319t320 -130t320 130t131 319t-131 319t-320 130t-320 -130t-131 -319zM75 393q0 171 117.5 288.5t287.5 117.5t287.5 -117.5t117.5 -288.5t-117.5 -288.5t-287.5 -117.5t-287.5 117.5t-117.5 288.5zM473 505h122v51h-122v112h-60v-112h-59v-51h59
v-249q0 -65 30.5 -91t98.5 -26q33 0 53 2v49h-47q-39 0 -57 15t-18 57v243z" />
    <glyph glyph-name="_727" unicode="&#x24e4;" 
d="M28 393q0 -190 131 -319.5t321 -129.5q189 0 320 129.5t131 319.5q0 189 -131 319t-320 130t-320.5 -130t-131.5 -319zM75 393q0 170 117.5 288t287.5 118q169 0 286.5 -118t117.5 -288q0 -171 -117.5 -288.5t-286.5 -117.5q-170 0 -287.5 117.5t-117.5 288.5zM361 591
h-59v-252q0 -80 38 -124t108 -44q90 0 130 70v-61h59v411h-59v-210q0 -74 -34.5 -116.5t-86.5 -42.5q-96 0 -96 126v243z" />
    <glyph glyph-name="_728" unicode="&#x24e5;" 
d="M28 393q0 -190 131 -319.5t321 -129.5q189 0 320 129.5t131 319.5q0 189 -131 319t-320 130t-320.5 -130t-131.5 -319zM75 393q0 170 117.5 288t287.5 118q169 0 286.5 -118t117.5 -288q0 -171 -117.5 -288.5t-286.5 -117.5q-170 0 -287.5 117.5t-117.5 288.5zM443 166
h61l162 411h-63l-129 -331l-130 331h-63z" />
    <glyph glyph-name="_729" unicode="&#x24e6;" 
d="M29 393q0 -189 131 -319t320 -130t320 130t131 319t-131 319t-320 130t-320 -130t-131 -319zM75 393q0 171 117.5 288.5t287.5 117.5t287.5 -117.5t117.5 -288.5t-117.5 -288.5t-287.5 -117.5t-287.5 117.5t-117.5 288.5zM450 585l-110 -322l-108 322h-62l141 -411h59
l108 323l110 -323h59l141 411h-63l-108 -323l-109 323h-58z" />
    <glyph glyph-name="_730" unicode="&#x24e7;" 
d="M29 393q0 -189 131 -319t320 -130t320 130t131 319t-131 319t-320 130t-320 -130t-131 -319zM75 393q0 171 117.5 288.5t287.5 117.5t287.5 -117.5t117.5 -288.5t-117.5 -288.5t-287.5 -117.5t-287.5 117.5t-117.5 288.5zM602 182h67l-152 210l145 201h-68l-113 -156
l-113 156h-67l145 -200l-153 -211h67l121 167z" />
    <glyph glyph-name="_731" unicode="&#x24e8;" 
d="M29 393q0 -189 131 -319t320 -130t320 130t131 319t-131 319t-320 130t-320 -130t-131 -319zM75 393q0 171 117.5 288.5t287.5 117.5t287.5 -117.5t117.5 -288.5t-117.5 -288.5t-287.5 -117.5t-287.5 117.5t-117.5 288.5zM424 154q-11 -27 -24 -36t-36 -9h-24v-50
q11 -1 28 -1q41 0 66 17t43 62l203 505h-63l-130 -330l-130 330h-63l163 -405z" />
    <glyph glyph-name="_732" unicode="&#x24e9;" 
d="M29 393q0 -189 131 -319t320 -130t320 130t131 319t-131 319t-320 130t-320 -130t-131 -319zM75 393q0 171 117.5 288.5t287.5 117.5t287.5 -117.5t117.5 -288.5t-117.5 -288.5t-287.5 -117.5t-287.5 117.5t-117.5 288.5zM624 598h-290v-50h215l-221 -318v-43h302v51
h-228l222 318v42z" />
    <glyph glyph-name="_519" unicode="&#x2500;" 
d="M960 417h-960v-59h960v59z" />
    <glyph glyph-name="_530" unicode="&#x2501;" 
d="M0 435v-94h960v94h-960z" />
    <glyph glyph-name="_520" unicode="&#x2502;" 
d="M451 888v-1000h59v1000h-59z" />
    <glyph glyph-name="_531" unicode="&#x2503;" 
d="M433 888v-1000h94v1000h-94z" />
    <glyph glyph-name="_521" unicode="&#x250c;" 
d="M451 -112h59v470h450v59h-509v-529z" />
    <glyph glyph-name="_558" unicode="&#x250d;" 
d="M461 435v-547h37v453h462v94h-499z" />
    <glyph glyph-name="_557" unicode="&#x250e;" 
d="M527 369h433v36h-527v-517h94v481z" />
    <glyph glyph-name="_532" unicode="&#x250f;" 
d="M433 435v-547h94v453h433v94h-527z" />
    <glyph glyph-name="_522" unicode="&#x2510;" 
d="M510 417h-510v-59h451v-470h59v529z" />
    <glyph glyph-name="_552" unicode="&#x2511;" 
d="M461 341v-453h37v547h-498v-94h461z" />
    <glyph glyph-name="_551" unicode="&#x2512;" 
d="M433 369v-481h94v517h-527v-36h433z" />
    <glyph glyph-name="_533" unicode="&#x2513;" 
d="M0 435v-94h433v-453h94v547h-527z" />
    <glyph glyph-name="_524" unicode="&#x2514;" 
d="M451 358h509v59h-450v471h-59v-530z" />
    <glyph glyph-name="_556" unicode="&#x2515;" 
d="M498 435v453h-37v-547h499v94h-462z" />
    <glyph glyph-name="_555" unicode="&#x2516;" 
d="M527 405v483h-94v-519h527v36h-433z" />
    <glyph glyph-name="_535" unicode="&#x2517;" 
d="M433 888v-547h527v94h-433v453h-94z" />
    <glyph glyph-name="_523" unicode="&#x2518;" 
d="M510 888h-59v-471h-451v-59h510v530z" />
    <glyph glyph-name="_554" unicode="&#x2519;" 
d="M461 435h-461v-94h498v547h-37v-453z" />
    <glyph glyph-name="_553" unicode="&#x251a;" 
d="M433 405h-433v-36h527v519h-94v-483z" />
    <glyph glyph-name="_534" unicode="&#x251b;" 
d="M433 888v-453h-433v-94h527v547h-94z" />
    <glyph glyph-name="_525" unicode="&#x251c;" 
d="M451 888v-1000h59v470h450v59h-450v471h-59z" />
    <glyph glyph-name="_546" unicode="&#x251d;" 
d="M960 435h-462v453h-37v-1000h37v453h462v94z" />
    <glyph glyph-name="_559" unicode="&#x251e;" 
d="M433 888v-519h28v-481h37v481h462v36h-433v483h-94z" />
    <glyph glyph-name="_560" unicode="&#x251f;" 
d="M461 888v-483h-28v-517h94v481h433v36h-462v483h-37z" />
    <glyph glyph-name="_541" unicode="&#x2520;" 
d="M960 405h-433v483h-94v-1000h94v481h433v36z" />
    <glyph glyph-name="_561" unicode="&#x2521;" 
d="M461 -112h37v453h462v94h-433v453h-94v-547h28v-453z" />
    <glyph glyph-name="_562" unicode="&#x2522;" 
d="M433 -112h94v453h433v94h-462v453h-37v-453h-28v-547z" />
    <glyph glyph-name="_536" unicode="&#x2523;" 
d="M433 888v-1000h94v453h433v94h-433v453h-94z" />
    <glyph glyph-name="_527" unicode="&#x2524;" 
d="M510 888h-59v-471h-451v-59h451v-470h59v1000z" />
    <glyph glyph-name="_548" unicode="&#x2525;" 
d="M461 435h-461v-94h461v-453h37v1000h-37v-453z" />
    <glyph glyph-name="_563" unicode="&#x2526;" 
d="M433 888v-483h-433v-36h461v-481h37v481h29v519h-94z" />
    <glyph glyph-name="_564" unicode="&#x2527;" 
d="M0 405v-36h433v-481h94v517h-29v483h-37v-483h-461z" />
    <glyph glyph-name="_543" unicode="&#x2528;" 
d="M527 -112v1000h-94v-483h-433v-36h433v-481h94z" />
    <glyph glyph-name="_565" unicode="&#x2529;" 
d="M0 341h461v-453h37v453h29v547h-94v-453h-433v-94z" />
    <glyph glyph-name="_566" unicode="&#x252a;" 
d="M0 341h433v-453h94v547h-29v453h-37v-453h-461v-94z" />
    <glyph glyph-name="_538" unicode="&#x252b;" 
d="M0 341h433v-453h94v1000h-94v-453h-433v-94z" />
    <glyph glyph-name="_526" unicode="&#x252c;" 
d="M960 417h-960v-59h451v-470h59v470h450v59z" />
    <glyph glyph-name="_567" unicode="&#x252d;" 
d="M0 341h461v-453h37v481h462v36h-462v30h-498v-94z" />
    <glyph glyph-name="_568" unicode="&#x252e;" 
d="M0 369h461v-481h37v453h462v94h-499v-30h-461v-36z" />
    <glyph glyph-name="_542" unicode="&#x252f;" 
d="M960 435h-960v-94h461v-453h37v453h462v94z" />
    <glyph glyph-name="_547" unicode="&#x2530;" 
d="M960 405h-960v-36h433v-481h94v481h433v36z" />
    <glyph glyph-name="_569" unicode="&#x2531;" 
d="M0 341h433v-453h94v481h433v36h-433v30h-527v-94z" />
    <glyph glyph-name="_570" unicode="&#x2532;" 
d="M0 369h433v-481h94v453h433v94h-527v-30h-433v-36z" />
    <glyph glyph-name="_537" unicode="&#x2533;" 
d="M0 341h433v-453h94v453h433v94h-960v-94z" />
    <glyph glyph-name="_528" unicode="&#x2534;" 
d="M960 358v59h-450v471h-59v-471h-451v-59h960z" />
    <glyph glyph-name="_571" unicode="&#x2535;" 
d="M0 341h498v28h462v36h-462v483h-37v-453h-461v-94z" />
    <glyph glyph-name="_572" unicode="&#x2536;" 
d="M0 369h461v-28h499v94h-462v453h-37v-483h-461v-36z" />
    <glyph glyph-name="_544" unicode="&#x2537;" 
d="M461 435h-461v-94h960v94h-462v453h-37v-453z" />
    <glyph glyph-name="_549" unicode="&#x2538;" 
d="M433 405h-433v-36h960v36h-433v483h-94v-483z" />
    <glyph glyph-name="_573" unicode="&#x2539;" 
d="M0 341h527v28h433v36h-433v483h-94v-453h-433v-94z" />
    <glyph glyph-name="_574" unicode="&#x253a;" 
d="M0 369h433v-28h527v94h-433v453h-94v-483h-433v-36z" />
    <glyph glyph-name="_539" unicode="&#x253b;" 
d="M433 435h-433v-94h960v94h-433v453h-94v-453z" />
    <glyph glyph-name="_529" unicode="&#x253c;" 
d="M451 888v-471h-451v-59h451v-470h59v470h450v59h-450v471h-59z" />
    <glyph glyph-name="_575" unicode="&#x253d;" 
d="M0 341h461v-453h37v481h462v36h-462v483h-37v-453h-461v-94z" />
    <glyph glyph-name="_576" unicode="&#x253e;" 
d="M498 888h-37v-483h-461v-36h461v-481h37v453h462v94h-462v453z" />
    <glyph glyph-name="_545" unicode="&#x253f;" 
d="M461 435h-461v-94h461v-453h37v453h462v94h-462v453h-37v-453z" />
    <glyph glyph-name="_577" unicode="&#x2540;" 
d="M527 888h-94v-483h-433v-36h461v-481h37v481h462v36h-433v483z" />
    <glyph glyph-name="_578" unicode="&#x2541;" 
d="M498 888h-37v-483h-461v-36h433v-481h94v481h433v36h-462v483z" />
    <glyph glyph-name="_550" unicode="&#x2542;" 
d="M433 405h-433v-36h433v-481h94v481h433v36h-433v483h-94v-483z" />
    <glyph glyph-name="_579" unicode="&#x2543;" 
d="M527 888h-94v-453h-433v-94h461v-453h37v453h29v28h433v36h-433v483z" />
    <glyph glyph-name="_580" unicode="&#x2544;" 
d="M498 -112v453h462v94h-433v453h-94v-483h-433v-36h433v-28h28v-453h37z" />
    <glyph glyph-name="_581" unicode="&#x2545;" 
d="M498 888h-37v-453h-461v-94h433v-453h94v481h433v36h-433v30h-29v453z" />
    <glyph glyph-name="_582" unicode="&#x2546;" 
d="M498 888h-37v-453h-28v-30h-433v-36h433v-481h94v452h433v95h-462v453z" />
    <glyph glyph-name="_583" unicode="&#x2547;" 
d="M527 888h-94v-453h-433v-94h461v-453h37v453h462v94h-433v453z" />
    <glyph glyph-name="_584" unicode="&#x2548;" 
d="M498 888h-37v-453h-461v-94h433v-453h94v453h433v94h-462v453z" />
    <glyph glyph-name="_585" unicode="&#x2549;" 
d="M527 888h-94v-453h-433v-94h433v-453h94v481h433v36h-433v483z" />
    <glyph glyph-name="_586" unicode="&#x254a;" 
d="M527 888h-94v-483h-433v-36h433v-481h94v453h433v94h-433v453z" />
    <glyph glyph-name="_540" unicode="&#x254b;" 
d="M433 435h-433v-94h433v-453h94v453h433v94h-433v453h-94v-453z" />
    <glyph glyph-name="_232" unicode="&#x2592;" 
d="M456 77h44v45h-44v-45zM651 122v-45h41v45h-41zM596 77v45h-43v-45h43zM306 77v45h-41v-45h41zM210 77v45h-43v-45h43zM402 77v45h-42v-45h42zM746 122v-45h43v45h-43zM456 177h44v43h-44v-43zM651 220v-43h41v43h-41zM596 177v43h-43v-43h43zM306 177v43h-41v-43h41z
M210 177v43h-43v-43h43zM402 177v43h-42v-43h42zM746 220v-43h43v43h-43zM456 274h44v44h-44v-44zM651 318v-44h41v44h-41zM596 274v44h-43v-44h43zM306 274v44h-41v-44h41zM210 274v44h-43v-44h43zM402 274v44h-42v-44h42zM746 318v-44h43v44h-43zM456 372h44v46h-44v-46z
M651 418v-46h41v46h-41zM596 372v46h-43v-46h43zM306 372v46h-41v-46h41zM210 372v46h-43v-46h43zM402 372v46h-42v-46h42zM746 418v-46h43v46h-43zM456 472h44v44h-44v-44zM651 516v-44h41v44h-41zM596 472v44h-43v-44h43zM306 472v44h-41v-44h41zM210 472v44h-43v-44h43z
M402 472v44h-42v-44h42zM746 516v-44h43v44h-43zM456 570h44v44h-44v-44zM651 614v-44h41v44h-41zM596 570v44h-43v-44h43zM306 570v44h-41v-44h41zM210 570v44h-43v-44h43zM402 570v44h-42v-44h42zM746 614v-44h43v44h-43zM456 668h44v45h-44v-45zM651 713v-45h41v45h-41z
M596 668v45h-43v-45h43zM306 668v45h-41v-45h41zM210 668v45h-43v-45h43zM402 668v45h-42v-45h42zM746 713v-45h43v45h-43zM868 12v769h-776v-769h776zM130 43v704h698v-704h-698z" />
    <glyph glyph-name="_165" unicode="&#x25a0;" 
d="M854 21v742h-749v-742h749z" />
    <glyph glyph-name="_164" unicode="&#x25a1;" 
d="M854 21v742h-749v-742h749zM163 74v636h634v-636h-634z" />
    <glyph glyph-name="_229" unicode="&#x25a3;" 
d="M617 254v276h-275v-276h275zM854 21v742h-749v-742h749zM163 74v636h634v-636h-634z" />
    <glyph glyph-name="_233" unicode="&#x25a4;" 
d="M868 12v769h-776v-769h776zM828 121v-78h-698v78h698zM828 225v-79h-698v79h698zM828 328v-78h-698v78h698zM828 435v-81h-698v81h698zM828 538v-78h-698v78h698zM828 645v-81h-698v81h698zM828 747v-77h-698v77h698z" />
    <glyph glyph-name="_234" unicode="&#x25a5;" 
d="M868 781h-776v-769h776v769zM754 744h78v-697h-78v697zM649 744h79v-697h-79v697zM544 744h79v-697h-79v697zM440 744h78v-697h-78v697zM335 744h79v-697h-79v697zM228 744h81v-697h-81v697zM125 744h77v-697h-77v697z" />
    <glyph glyph-name="_237" unicode="&#x25a6;" 
d="M868 12v769h-776v-769h776zM227 436h82v-81h-82v81zM227 646h82v-81h-82v81zM227 539h82v-78h-82v78zM334 436h80v-81h-80v81zM334 646h80v-81h-80v81zM227 225h82v-78h-82v78zM545 436h79v-81h-79v81zM227 329h82v-78h-82v78zM545 646h79v-81h-79v81zM650 436h80v-81
h-80v81zM650 646h80v-81h-80v81zM227 121h82v-78h-82v78zM756 355v81h78v-81h-78zM756 565v81h78v-81h-78zM440 436h79v-81h-79v81zM440 646h79v-81h-79v81zM334 539h80v-78h-80v78zM309 671h-82v77h82v-77zM545 539h79v-78h-79v78zM650 539h80v-78h-80v78zM334 225h80v-78
h-80v78zM334 329h80v-78h-80v78zM201 436v-81h-78v81h78zM201 646v-81h-78v81h78zM545 225h79v-78h-79v78zM545 329h79v-78h-79v78zM650 225h80v-78h-80v78zM650 329h80v-78h-80v78zM334 121h80v-78h-80v78zM756 461v78h78v-78h-78zM440 539h79v-78h-79v78zM545 121h79v-78
h-79v78zM756 147v78h78v-78h-78zM756 251v78h78v-78h-78zM650 121h80v-78h-80v78zM440 225h79v-78h-79v78zM440 329h79v-78h-79v78zM414 671h-80v77h80v-77zM440 121h79v-78h-79v78zM756 121h78v-78h-78v78zM624 671h-79v77h79v-77zM730 671h-80v77h80v-77zM201 539v-78h-78
v78h78zM201 329v-78h-78v78h78zM201 225v-78h-78v78h78zM519 671h-79v77h79v-77zM834 748v-77h-78v77h78zM201 121v-78h-78v78h78zM201 748v-77h-78v77h78z" />
    <glyph glyph-name="_236" unicode="&#x25a7;" 
d="M92 12h776v769h-776v-769zM831 63l-683 683h98l585 -584v-99zM715 45l-586 586v96l682 -682h-96zM831 201l-546 545h101l445 -444v-101zM576 45l-447 446v101l547 -547h-100zM434 45l-305 305v102l407 -407h-102zM828 340l-405 406h102l303 -303v-103zM293 45l-164 164
v102l266 -266h-102zM828 482l-264 264h102l162 -162v-102zM129 45v124l124 -124h-124zM828 623l-122 123h122v-123z" />
    <glyph glyph-name="_235" unicode="&#x25a8;" 
d="M868 781h-776v-769h776v769zM127 162l585 584h98l-683 -683v99zM147 45l682 682v-96l-587 -586h-95zM127 302l445 444h101l-546 -545v101zM282 45l547 547v-101l-448 -446h-99zM421 45l408 407v-102l-306 -305h-102zM129 443l304 303h102l-406 -406v103zM562 45l267 266
v-102l-164 -164h-103zM129 584l163 162h102l-265 -264v102zM705 45l124 124v-124h-124zM129 746h123l-123 -123v123z" />
    <glyph glyph-name="_238" unicode="&#x25a9;" 
d="M868 781h-776v-769h776v769zM204 517l52 -51l-51 -51l-51 52zM755 517l51 -50l-52 -51l-50 50zM498 671l51 51l51 -50l-51 -51zM204 378l50 -51l-51 -51l-50 51zM756 378l51 -51l-51 -51l-51 51zM410 722l51 -51l-50 -50l-51 51zM274 448l50 -51l-50 -50l-51 50zM480 653
l50 -50l-50 -50l-51 50zM756 237l51 -51l-49 -49l-52 51zM635 397l51 51l50 -50l-51 -51zM359 121l51 51l50 -50l-51 -50zM223 257l51 51l49 -50l-51 -51zM152 186l51 51l50 -49l-51 -51zM340 653l51 -52l-49 -49l-51 52zM550 172l50 -51l-49 -49l-51 50zM568 601l51 51
l49 -49l-51 -51zM639 672l51 51l49 -49l-51 -51zM430 192l50 50l50 -50l-50 -50zM685 307l51 -50l-49 -49l-51 50zM270 723l50 -51l-49 -49l-51 51zM500 533l50 50l49 -49l-50 -50zM409 583l51 -50l-49 -49l-51 50zM272 585l51 -52l-48 -48l-51 52zM294 327l50 50l49 -49
l-50 -50zM615 377l50 -50l-49 -49l-50 50zM201 655l51 -51l-48 -48l-51 51zM707 604l51 51l48 -48l-51 -51zM687 169l52 -51l-48 -48l-51 52zM636 533l51 51l48 -47l-51 -51zM341 515l51 -50l-48 -48l-51 50zM221 118l51 51l47 -48l-51 -51zM291 188l51 51l48 -47l-51 -51z
M480 513l49 -49l-49 -49l-49 49zM568 465l50 50l48 -47l-51 -51zM617 239l51 -50l-48 -48l-50 51zM547 309l50 -50l-47 -47l-50 50zM362 259l50 50l48 -47l-50 -50zM412 445l49 -49l-48 -48l-49 49zM499 396l49 49l47 -48l-49 -49zM432 329l48 48l47 -48l-47 -47zM436 45
l-7 7l51 50l51 -50l-7 -7h-88zM578 45l-8 7l50 50l51 -52l-5 -5h-88zM294 45l-6 5l51 51l50 -49l-7 -7h-88zM825 345l-51 51l51 51l5 -4v-93zM130 443l4 4l52 -51l-51 -51l-5 5v93zM434 746h92l5 -5l-51 -51l-51 51zM130 584l4 4l51 -51l-51 -51l-4 5v93zM825 486l-50 51
l51 51l4 -4v-93zM573 746h94l3 -4l-51 -51l-50 51zM293 746h94l4 -4l-51 -50l-51 50zM130 209v95l3 3l51 -50l-51 -51zM827 206l-51 51l50 50l4 -3v-95zM717 45l-6 5l48 48l53 -53h-95zM148 45l53 53l47 -48l-5 -5h-95zM130 164l2 2l50 -49l-52 -52v99zM827 166l3 -2v-99
l-52 52zM713 746h98l-52 -52l-49 49zM247 746l3 -3l-49 -49l-52 52h98zM830 727v-96l-4 -4l-48 48zM130 727l52 -52l-48 -48l-4 4v96z" />
    <glyph glyph-name="_8736" unicode="&#x25b1;" 
d="M130 171l113 457h587l-114 -457h-586zM273 592l-97 -383h510l97 383h-510z" />
    <glyph glyph-name="_167" unicode="&#x25b2;" 
d="M480 804l-448 -776h896z" />
    <glyph glyph-name="_166" unicode="&#x25b3;" 
d="M480 804l-448 -776h896zM480 697l355 -617h-710z" />
    <glyph glyph-name="_8780" unicode="&#x25b5;" 
d="M121 116l360 609l357 -609h-717zM690 201l-209 356l-212 -356h421z" />
    <glyph glyph-name="_220" unicode="&#x25b6;" 
d="M122 841v-896l776 448z" />
    <glyph glyph-name="_219" unicode="&#x25b7;" 
d="M122 841v-896l776 448zM181 38v709l613 -354z" />
    <glyph glyph-name="_8781" unicode="&#x25b9;" 
d="M174 748l611 -357l-611 -358v715zM259 181l357 210l-357 209v-419z" />
    <glyph glyph-name="_169" unicode="&#x25bc;" 
d="M928 764h-896l448 -776z" />
    <glyph glyph-name="_168" unicode="&#x25bd;" 
d="M928 764h-896l448 -776zM125 713h710l-355 -618z" />
    <glyph glyph-name="_8779" unicode="&#x25bf;" 
d="M838 664l-357 -608l-360 608h717zM269 580l212 -356l209 356h-421z" />
    <glyph glyph-name="_218" unicode="&#x25c0;" 
d="M62 393l776 -448v896z" />
    <glyph glyph-name="_217" unicode="&#x25c1;" 
d="M62 393l776 -448v896zM166 393l613 354v-709z" />
    <glyph glyph-name="_8782" unicode="&#x25c3;" 
d="M785 33l-611 358l611 357v-715zM700 600l-357 -209l357 -210v419z" />
    <glyph glyph-name="_163" unicode="&#x25c6;" 
d="M480 866l-460 -475l460 -474l460 474z" />
    <glyph glyph-name="_162" unicode="&#x25c7;" 
d="M480 866l-460 -475l460 -474l460 474zM480 790l384 -399l-384 -397l-384 397z" />
    <glyph glyph-name="_228" unicode="&#x25c8;" 
d="M303 390l176 -180l176 180l-176 180zM480 866l-460 -475l460 -474l460 474zM480 790l384 -399l-384 -397l-384 397z" />
    <glyph glyph-name="_8787" unicode="&#x25ca;" 
d="M831 391l-350 -414l-352 414l352 414zM222 391l259 -304l257 304l-257 304z" />
    <glyph glyph-name="_159" unicode="&#x25cb;" 
d="M913 390q0 180 -126.5 307t-306.5 127t-307 -126.5t-127 -307.5q0 -119 57.5 -219t157.5 -157.5t219 -57.5q180 0 306.5 126.5t126.5 307.5zM103 390q0 158 109.5 269t267.5 111t268 -111t110 -269t-110 -269t-268 -111t-267.5 111t-109.5 269z" />
    <glyph glyph-name="_8639" unicode="&#x25cc;" 
d="M365 805l9 -33q-53 -16 -87 -37l-19 31q50 26 97 39zM213 728l21 -27q-43 -36 -67 -71l-30 25q45 49 76 73zM104 602l31 -18q-17 -32 -37 -88l-34 7q13 52 40 99zM53 443l34 -3q-5 -30 -5 -49q0 -14 4 -48l-35 -4q-2 17 -2 52q0 34 4 52zM65 277l33 9q15 -48 37 -89
l-31 -17q-28 50 -39 97zM139 127l28 22q24 -32 67 -69l-21 -27q-39 33 -74 74zM287 47q33 -21 87 -36l-10 -34q-49 13 -96 39q18 29 19 31zM531 818l-4 -35q-32 4 -46 4q-10 0 -27 -2t-24 -2l-3 34q17 4 54 4q33 0 50 -3zM596 -23l-10 34q49 14 88 37l18 -32
q-51 -27 -96 -39zM745 50l-21 29q51 46 67 68l28 -22q-36 -44 -74 -75zM856 180l-30 19q21 38 36 87l33 -9q-16 -57 -39 -97zM907 339l-34 3q5 22 5 49q0 20 -5 48l34 4q4 -24 4 -52q0 -35 -4 -52zM895 503l-33 -8q-15 46 -36 88l30 19q29 -55 39 -99zM821 657l-29 -24
q-26 34 -68 69l22 27q34 -27 75 -72zM673 735q-47 26 -87 36l10 34q45 -12 96 -39q-1 0 -9.5 -14t-9.5 -17zM427 -38l3 38q42 -5 47 -5q16 0 50 4l4 -35q-18 -3 -54 -3q-34 0 -50 1z" />
    <glyph glyph-name="_161" unicode="&#x25ce;" 
d="M184 390q0 -125 86.5 -211.5t209.5 -86.5t209.5 86.5t86.5 211.5q0 126 -86.5 213t-209.5 87t-209.5 -87t-86.5 -213zM725 390q0 -107 -70 -179.5t-175 -72.5q-106 0 -175.5 72.5t-69.5 179.5q0 108 69.5 180.5t175.5 72.5q105 0 175 -72.5t70 -180.5zM913 390
q0 182 -126 308t-307 126q-182 0 -308 -126t-126 -308t125.5 -308t308.5 -126q182 0 307.5 126t125.5 308zM97 390q0 163 110.5 275.5t272.5 112.5t272.5 -112.5t110.5 -275.5t-110.5 -275.5t-272.5 -112.5t-272.5 112.5t-110.5 275.5z" />
    <glyph glyph-name="_160" unicode="&#x25cf;" 
d="M913 390q0 180 -126.5 307t-306.5 127t-307 -126.5t-127 -307.5q0 -119 57.5 -219t157.5 -157.5t219 -57.5q180 0 306.5 126.5t126.5 307.5z" />
    <glyph glyph-name="_230" unicode="&#x25d0;" 
d="M913 390q0 180 -126.5 307t-306.5 127t-307 -126.5t-127 -307.5q0 -119 57.5 -219t157.5 -157.5t219 -57.5q180 0 306.5 126.5t126.5 307.5zM480 770q158 0 268 -111t110 -269t-110 -269t-268 -111v760z" />
    <glyph glyph-name="_231" unicode="&#x25d1;" 
d="M913 390q0 180 -127 306.5t-307 126.5t-306.5 -126.5t-126.5 -306.5q0 -181 126 -307t307 -126t307.5 126t126.5 307zM101 390q0 158 109.5 268.5t268.5 110.5v-758q-159 0 -268.5 110t-109.5 269z" />
    <glyph glyph-name="_8775" unicode="&#x25e6;" 
d="M481 710q131 0 225.5 -94.5t94.5 -224.5q0 -132 -94.5 -226.5t-225.5 -94.5q-132 0 -227 94.5t-95 226.5q0 131 95 225t227 94zM481 627q-99 0 -169 -69.5t-70 -166.5q0 -99 70 -168.5t169 -69.5q98 0 167.5 69.5t69.5 168.5q0 97 -70 166.5t-167 69.5z" />
    <glyph glyph-name="_8633" unicode="&#x25ef;" 
d="M481 821q178 0 304 -126t126 -304t-126 -304t-304 -126q-180 0 -306 126t-126 304t126 304t306 126zM481 781q-163 0 -278 -114.5t-115 -275.5t115 -275.5t278 -114.5q161 0 276 114.5t115 275.5t-115 275.5t-276 114.5z" />
    <glyph glyph-name="_158" unicode="&#x2605;" 
d="M37 534l-3 -15l261 -202l-127 -346l13 -9l299 226l298 -226l11 10l-126 347l262 200l-2 15h-328l-109 322h-13l-109 -322h-327z" />
    <glyph glyph-name="_157" unicode="&#x2606;" 
d="M37 534l-5 -19l263 -198l-127 -342l16 -13l296 226l295 -226l14 13l-126 344l264 196l-4 19h-328l-106 322h-19l-106 -322h-327zM480 741l81 -255l260 7l-220 -154l111 -277l-232 184l-233 -180l107 269l-219 155l265 -6z" />
    <glyph glyph-name="_241" unicode="&#x260e;" 
d="M877 473q10 -1 16 4t5 16q-4 72 -36 128q-50 85 -146 86h-470q-101 -1 -150 -84q-31 -54 -35 -130q-1 -12 5 -17t18 -3l163 17q20 2 18 21q-2 36 3 62q9 50 38 50h40v-120q-49 -9 -125 -104q-89 -112 -89 -198l8 -89q2 -21 23 -21h636q22 0 23 20l8 95q0 82 -91 194
q-36 44 -70 72.5t-53 30.5v120h40q27 0 36 -51q4 -28 4 -64q0 -15 20 -18zM544 623v-120h-126v120h126zM622 298q0 -59 -40 -99.5t-99 -40.5q-61 0 -100.5 39.5t-39.5 100.5q0 59 40 99t100 40q58 0 98.5 -40.5t40.5 -98.5z" />
    <glyph glyph-name="_240" unicode="&#x260f;" 
d="M652 623q26 0 33 -17.5t7 -50.5q0 -5 -0.5 -18.5t-0.5 -20.5q0 -25 21 -26l167 -17q19 -2 19 17q-2 38 -12.5 73.5t-31 68.5t-58 53.5t-87.5 21.5h-458q-51 -1 -89.5 -22t-59.5 -54t-31 -68.5t-10 -71.5q0 -19 21 -18l171 17q17 1 17 21q-1 9 -1 29q0 43 7 63t32 20h23
v-120q-24 -9 -70 -55t-87.5 -117t-41.5 -130l8 -91q1 -19 22 -19h640q18 0 20 24l8 91q0 80 -76.5 178t-122.5 119v120h21zM526 504h-91v119h91v-119zM625 298q0 57 -42 98t-100 41q-59 0 -101 -40t-42 -99q0 -60 41.5 -100t101.5 -40q59 0 100.5 41t41.5 99zM598 490
q63 -32 130.5 -124t67.5 -165l-8 -79h-615l-6 80q0 76 67 164t129 124v133h39v-145h156v145h40v-133zM592 298q0 -47 -31 -79t-78 -32q-49 0 -80 31.5t-31 79.5q0 47 31.5 78t79.5 31q46 0 77.5 -32t31.5 -77zM300 647q-36 0 -49.5 -27.5t-13.5 -76.5q0 -17 1 -25l-140 -14
q2 70 38.5 123.5t112.5 53.5h462q71 0 110.5 -55.5t39.5 -123.5l-138 14v23q0 108 -63 108h-360z" />
    <glyph glyph-name="_242" unicode="&#x261c;" 
d="M938 159v360h-130v-13h-46q-12 0 -12 -14v-38q-4 -1 -15 -1q-42 0 -76 26q-14 10 -46 38q-25 21 -56.5 27.5t-88.5 6.5q-24 0 -37.5 -1t-30.5 -5.5t-25 -15t-9 -27.5h-291q-26 0 -39.5 -16t-13.5 -38t13.5 -37.5t36.5 -15.5h215q-3 -6 -3 -13q0 -15 7.5 -31t18.5 -19
q-11 -8 -11 -25q0 -15 8 -29.5t21 -18.5q-6 -7 -6 -18q0 -17 13.5 -35.5t34.5 -19.5q21 -29 87 -29h8q4 0 18 -0.5t23 -0.5q24 0 34 1q47 4 70 16q1 1 18.5 10.5t25.5 14.5q34 22 53 30q12 5 43 5v-46q0 -13 12 -13h46v-15h130zM367 439q19 35 19 52q0 19 13 27.5t47 8.5h22
q38 0 53 -0.5t36.5 -6t34.5 -16.5q40 -33 55 -45q37 -30 91 -30h12v-173q-33 2 -50 -5q-14 -6 -32 -16t-41 -24.5t-33 -19.5q-20 -11 -71 -14h-64q-49 0 -57 12q59 0 76 9q25 12 25 50q0 45 -15 101q43 -31 61 -31q10 0 10 10q0 7 -7 11q-79 43 -83 124q-2 11 -9 11
q-8 0 -11 -11q-11 -41 -70 -41q-14 0 -14 10q0 3 2 7zM362 477q-1 -5 -8.5 -19t-10.5 -23q-3 -7 -3 -12q0 -3 2 -5h-266q-13 0 -21.5 8.5t-8.5 21.5q0 29 33 29h283zM774 197v285h34v-285h-34zM439 329q28 0 28 -22q0 -21 -42 -25q-30 -3 -61 -3q-21 0 -29.5 5.5t-8.5 20.5
q0 20 19 20h21q41 0 73 4zM420 397q28 0 28 -21q0 -22 -40 -26q-18 -2 -63 -2q-35 0 -35 29q0 18 19 18q37 0 91 2zM452 260q26 0 26 -21t-31 -26q-21 -3 -65 -3q-34 0 -34 28q0 18 17 18h20q39 0 67 4z" />
    <glyph glyph-name="_9222" unicode="&#x261d;" 
d="M659 47v44h-14v43q-6 8 -9 11h-46q0 26 4 39q9 19 29 50q17 26 28 50q8 21 10 63v59q0 23 -4 48q-6 29 -23 41q-1 23 -28 37q-24 13 -39 1q-8 18 -33 25q-25 4 -35 -8q-3 12 -26 20t-31 1v162q0 23 -14.5 34.5t-34.5 11.5t-34.5 -12.5t-14.5 -36.5v-232q-30 -1 -40 -30
q-3 -13 -5 -64q0 -91 28 -130q1 -2 12.5 -15.5t18.5 -21.5q20 -24 24 -41q8 -16 6 -51h-39q-1 -1 -4 -5t-5 -6v-43h-12v-44h331zM401 496q5 2 10.5 0t5.5 -8q4 -48 -37 -65v-22q71 -6 109 -74l21 11q-15 33 -27 49q76 -21 113 -13q13 2 21 10t8 17q3 8 5 32q1 15 1 28
q10 -6 10 -48q0 -31 -2 -59q0 -44 -13 -65q-3 -6 -13 -21.5t-15 -24.5q-19 -32 -27 -52q-3 -15 -3 -46h-156q2 36 -7 59q-7 19 -29 47q-21 27 -33 43q-21 32 -21 110q0 26 1 38q0 20 5 27q8 6 18 7q16 2 20 2q7 2 35 18zM368 502v223q0 20 14 28q14 5 25 -3t11 -23v-206
q0 1 -6.5 -0.5t-15 -5t-13.5 -6.5q-12 -7 -15 -7zM621 121v-30h-257v30h257zM503 433q6 41 4 81q0 20 19 18q9 0 15.5 -6t6.5 -15q2 -49 -7 -88q-2 -18 -22 -16q-7 1 -12 8t-4 18zM440 451q2 50 2 79q0 19 20 17q18 0 20 -21q2 -53 -5 -85q-2 -18 -20 -16t-17 26zM567 421
q4 24 4 75q0 9 5.5 13t13.5 2q8 -1 14 -6.5t6 -14.5q1 -33 -6 -79q-1 -16 -22 -14q-6 0 -11 6.5t-4 17.5z" />
    <glyph glyph-name="_243" unicode="&#x261e;" 
d="M152 159v15h46q12 0 12 13v46q31 0 43 -5q19 -8 53 -30q8 -5 25.5 -14.5t18.5 -10.5q23 -12 70 -16q10 -1 34 -1q9 0 23 0.5t18 0.5h8q66 0 87 29q21 1 34.5 19.5t13.5 35.5q0 11 -6 18q13 4 21 18.5t8 29.5q0 17 -11 25q11 3 18.5 19t7.5 31q0 7 -3 13h215
q23 0 36.5 15.5t13.5 37.5t-13.5 38t-39.5 16h-291q-1 17 -9 27.5t-25 15t-30.5 5.5t-37.5 1q-57 0 -88.5 -6.5t-56.5 -27.5q-32 -28 -46 -38q-34 -26 -76 -26q-11 0 -15 1v38q0 14 -12 14h-46v13h-130v-360h130zM593 439q2 -4 2 -7q0 -10 -14 -10q-59 0 -70 41
q-3 11 -11 11q-7 0 -9 -11q-4 -81 -83 -124q-7 -4 -7 -11q0 -10 10 -10q18 0 61 31q-15 -56 -15 -101q0 -28 15 -42t30 -15.5t46 -1.5h10q-8 -12 -57 -12h-64q-51 3 -71 14q-10 5 -33 19.5t-41 24.5t-32 16q-17 7 -50 5v173h12q54 0 91 30q15 12 55 45q13 11 34.5 16.5
t36.5 6t53 0.5h22q34 0 47 -8.5t13 -27.5q0 -17 19 -52zM881 477q33 0 33 -29q0 -13 -8.5 -21.5t-21.5 -8.5h-266q2 2 2 5q0 5 -3 12q-3 9 -10.5 23t-8.5 19h283zM152 197v285h34v-285h-34zM521 329q32 -4 73 -4h21q19 0 19 -20q0 -15 -8.5 -20.5t-29.5 -5.5q-31 0 -61 3
q-42 4 -42 25q0 22 28 22zM540 397q54 -2 91 -2q19 0 19 -18q0 -29 -35 -29q-45 0 -63 2q-40 4 -40 26q0 21 28 21zM508 260q28 -4 67 -4h20q17 0 17 -18q0 -28 -34 -28q-44 0 -65 3q-31 5 -31 26t26 21z" />
    <glyph glyph-name="_9223" unicode="&#x261f;" 
d="M658 731v-44h-13v-42l-9 -12h-46q0 -25 4 -38q4 -9 28 -50q21 -32 28 -50q8 -19 10 -63v-60q1 -12 -3 -47q-6 -29 -24 -41q-1 -25 -28 -38q-23 -12 -38 -1q-9 -17 -34 -24q-24 -6 -34 8q-4 -12 -25 -21q-24 -6 -33 0v-162q0 -22 -14 -34t-34 -12t-35 12.5t-15 35.5v232
q-29 1 -39 31q-4 14 -6 64q0 91 28 130q22 24 32 36q19 25 24 42q7 16 5 50h-38l-9 12v42h-13v44h331zM401 283q5 -2 10 0t5 7q6 48 -37 66v22q73 6 109 73l22 -10q-14 -31 -26 -49q80 20 111 13q13 -2 21 -10.5t9 -16.5q3 -9 5 -33v-28q10 6 10 49q0 12 -0.5 32.5
t-0.5 25.5q0 45 -13 66q-7 12 -29 46q-20 34 -26 51q-4 16 -4 46h-155q2 -35 -7 -58q-9 -21 -29 -47q-31 -38 -34 -43q-20 -33 -20 -110q0 -26 1 -38q0 -22 5 -27q8 -6 18 -7q17 -3 20 -3q8 -1 35 -17zM368 277v-223q0 -20 14 -28q14 -5 25 3t11 23v206q-1 -2 -6.5 -0.5
t-14.5 5.5t-14 7q-3 1 -6.5 3t-5.5 3t-3 1zM621 658v29h-258v-29h258zM503 345q5 -43 3 -81q0 -20 20 -18q22 2 22 22q2 51 -8 88q0 17 -21 15q-17 -2 -16 -26zM440 327q1 -24 1 -78q0 -19 20 -17q21 0 22 21q2 49 -6 85q0 17 -20 15q-18 -2 -17 -26zM567 358q5 -37 3 -76
q0 -8 6 -12t14 -2q8 1 14 6.5t6 14.5q2 36 -7 79q0 16 -21 14q-16 -2 -15 -24z" />
    <glyph glyph-name="_8664" unicode="&#x262f;" 
d="M860 391q0 -157 -111.5 -267t-269.5 -110q-157 0 -268.5 111t-111.5 266q0 157 111.5 267.5t268.5 110.5q158 0 269.5 -110t111.5 -268zM812 389q2 135 -94.5 233t-232.5 100q-104 1 -189.5 -55t-121.5 -148q-28 -76 0 -136t96 -86q66 -24 127 7.5t83 86.5q20 58 82 91.5
t129 9.5q73 -28 97.5 -90t1.5 -119q22 53 22 106z" />
    <glyph glyph-name="_147" unicode="&#x2640;" 
d="M203 557q0 -107 72 -185.5t177 -89.5v-126h-142v-51h142v-158h55v158h143v51h-143v126q105 11 177.5 89.5t72.5 185.5q0 114 -81 195t-196 81q-114 0 -195.5 -81t-81.5 -195zM258 557q0 91 65 156t156 65t156 -65t65 -156t-65 -156t-156 -65t-156 65t-65 156z" />
    <glyph glyph-name="_146" unicode="&#x2642;" 
d="M211 509l44 -30l197 273v-342q-90 -10 -150.5 -78t-60.5 -160q0 -99 70 -169t169 -70t169.5 70.5t70.5 168.5q0 92 -61 160t-152 78v342l199 -273l43 30l-269 365zM296 172q0 77 54 131t130 54t130.5 -54.5t54.5 -130.5t-54 -130t-131 -54q-76 0 -130 54t-54 130z" />
    <glyph glyph-name="_222" unicode="&#x2660;" 
d="M59 389q0 -91 54 -140t139 -49q56 0 112 34t92 84q-18 -96 -75.5 -176.5t-132.5 -98.5v-38h461v38q-77 19 -135 100.5t-74 177.5q33 -52 89.5 -86.5t117.5 -34.5q81 0 137 50t56 139q0 35 -15 71.5t-35.5 66.5t-59.5 66t-67.5 59.5t-81.5 59t-79.5 52t-81.5 49.5
q-186 -115 -257 -172q-164 -132 -164 -252z" />
    <glyph glyph-name="_223" unicode="&#x2661;" 
d="M901 523q0 105 -56 161q-50 50 -137 50q-78 0 -140 -50q-64 -51 -88 -134q-25 82 -90 134q-62 50 -137 50q-85 0 -136 -50q-58 -55 -58 -161q0 -150 129 -303q115 -135 292 -231q173 96 290 233q131 152 131 301zM504 487q15 83 82 152q50 48 118 48q140 0 140 -174
q0 -124 -114 -262q-101 -122 -250 -204q-144 78 -251 203q-113 137 -113 263q0 174 141 174q63 0 114 -49q29 -29 53 -70t31 -81h49z" />
    <glyph glyph-name="_226" unicode="&#x2663;" 
d="M655 637q0 72 -52 124q-51 53 -124 53q-75 0 -125 -53q-52 -52 -52 -124t52 -126q49 -51 125 -51q73 0 124 51q52 54 52 126zM409 338q0 72 -53 125q-50 53 -124 53t-125 -53q-51 -51 -51 -125t51 -125t125 -51q75 0 124 51q53 53 53 125zM903 338q0 72 -53 125
q-51 53 -124 53q-74 0 -125 -53q-52 -52 -52 -125t52 -125q51 -51 125 -51q73 0 124 51q53 53 53 125zM711 43q-83 23 -147 108q-65 87 -71 181h-29q-6 -90 -71 -180q-60 -85 -147 -109v-38h465v38z" />
    <glyph glyph-name="_221" unicode="&#x2664;" 
d="M464 409q-7 -61 -75 -109t-130 -48q-146 0 -146 145q0 155 367 368q366 -215 366 -368q0 -66 -36 -105.5t-111 -39.5q-68 0 -132 48t-72 109h-31zM634 41h-311v3q49 25 84 78t50.5 109t19.5 117h3q3 -91 43 -179.5t111 -124.5v-3zM59 390q0 -89 53 -135.5t143 -46.5
q53 0 102.5 25.5t80.5 66.5q-16 -91 -66.5 -163.5t-123.5 -85.5v-46h461v46q-74 17 -126 89t-65 161q31 -42 81.5 -67.5t107.5 -25.5q84 0 138.5 47.5t54.5 134.5q0 50 -26.5 100.5t-64 90.5t-99.5 86t-110.5 76t-119.5 71q-75 -44 -123.5 -75t-111 -77.5t-98.5 -85.5
t-62 -88.5t-26 -97.5z" />
    <glyph glyph-name="_224" unicode="&#x2665;" 
d="M901 523q0 105 -56 161q-50 50 -137 50q-78 0 -141 -50q-66 -52 -87 -134q-24 83 -87 133q-63 51 -140 51q-85 0 -136 -50q-58 -55 -58 -161q0 -150 129 -303q115 -135 292 -231q176 99 290 233q131 152 131 301z" />
    <glyph glyph-name="_225" unicode="&#x2667;" 
d="M656 636q0 73 -52 125t-125 52q-74 0 -125 -52t-51 -125q0 -74 51.5 -125t124.5 -51t125 51.5t52 124.5zM711 49q-88 26 -145 103t-66 180h-42q-11 -104 -68 -180.5t-143 -102.5v-44h464v44zM630 45h-301v4q50 23 93.5 84t55.5 124h3q9 -61 52 -122t97 -86v-4zM610 636
q0 -58 -37 -96t-94 -38t-94 38.5t-37 95.5t37.5 96t93.5 39q55 0 93 -39t38 -96zM410 338q0 71 -52 124t-125 53q-74 0 -125.5 -52t-51.5 -125t51 -124.5t126 -51.5q74 0 125.5 52t51.5 124zM363 338q0 -58 -36.5 -96.5t-93.5 -38.5q-56 0 -93.5 38.5t-37.5 96.5t37.5 96.5
t93.5 38.5t93 -39t37 -96zM903 338q0 72 -51.5 124.5t-125.5 52.5t-125 -52.5t-51 -124.5q0 -73 51 -124.5t125 -51.5q75 0 126 51.5t51 124.5zM857 338q0 -59 -37.5 -97t-93.5 -38t-93 38.5t-37 96.5q0 57 37 96t93 39t93.5 -39t37.5 -96z" />
    <glyph glyph-name="_239" unicode="&#x2668;" 
d="M534 360q0 39 -29 130q-28 88 -27 135q2 84 56 157q5 6 1.5 12t-10.5 6.5t-13 -4.5q-43 -39 -76 -94q-27 -49 -29 -96q-1 -50 28 -132q30 -85 29 -134q-2 -96 -42 -154q-4 -6 -1 -11.5t9.5 -6t13.5 4.5q40 34 65 85.5t25 101.5zM374 360q0 34 -29 96q-26 55 -27 110
q-2 96 46 160q12 16 -1 22q-12 5 -24 -7q-97 -97 -92 -195q3 -48 28 -104q28 -63 30 -102q4 -75 -45 -155q-8 -12 5 -16q11 -3 21 7q36 36 62 84.5t26 99.5zM244 318q-85 -8 -129.5 -44.5t-45.5 -88.5q-1 -54 63.5 -94t156 -57.5t192.5 -17.5q100 0 192 19t155.5 60t63.5 95
q0 44 -43 79t-115 40q-8 1 -9.5 -6.5t6.5 -9.5q42 -9 69 -31t27 -54q0 -53 -105.5 -84t-240.5 -31q-137 0 -242 28.5t-105 81.5q0 37 30.5 62.5t82.5 36.5q5 1 6.5 5.5t-1.5 7.5t-8 3zM694 360q0 34 -29 96q-26 55 -27 110q-2 96 46 160q12 16 -1 22q-12 5 -24 -7
q-97 -97 -92 -195q3 -48 28 -104q28 -63 30 -102q4 -75 -45 -155q-8 -12 5 -16q11 -3 21 7q36 36 62 84.5t26 99.5z" />
    <glyph glyph-name="_253" unicode="&#x2669;" 
d="M535 134q-25 11 -66 11q-71 0 -130.5 -44.5t-59.5 -104.5q0 -38 26.5 -59t68.5 -21q92 0 149.5 52.5t57.5 135.5v737h-46v-707z" />
    <glyph glyph-name="_254" unicode="&#x266a;" 
d="M513 621q88 -29 149 -99.5t61 -155.5q0 -111 -71 -230h26q90 133 90 260q0 142 -137 242q-45 33 -69.5 56t-43 61t-18.5 85h-33v-707q-24 11 -66 11q-71 0 -130 -44t-59 -104q0 -37 26.5 -58.5t68.5 -21.5q91 0 148.5 52.5t57.5 135.5v517z" />
    <glyph glyph-name="_255" unicode="&#x266c;" 
d="M813 666l-490 -112v105l490 111v-104zM813 247q-27 11 -67 11q-71 0 -130 -44t-59 -105q0 -37 26.5 -58.5t68.5 -21.5q91 0 148.5 52.5t57.5 135.5v643l-581 -132v-595q-25 11 -66 11q-71 0 -130 -44t-59 -104q0 -37 26.5 -58.5t68.5 -21.5q91 0 148.5 52.5t57.5 135.5
v373l490 110v-340z" />
    <glyph glyph-name="_252" unicode="&#x266d;" 
d="M371 840h-45v-856q137 -2 242.5 84t105.5 207q0 74 -38.5 120t-102.5 46q-54 0 -97 -28.5t-65 -72.5v500zM371 210q0 77 44 130t97 53q90 0 90 -127q0 -88 -71 -161t-160 -78v183z" />
    <glyph glyph-name="_8594" unicode="&#x266f;" 
d="M748 342v-83l-144 -18v-204h-52v197l-144 -21v-218h-52v211l-144 -20v82l144 19v168l-144 -18v84l144 20v203h52v-197l144 18v222h52v-214l144 21v-84l-144 -19v-169zM408 294l144 22v167l-144 -20v-169z" />
    <glyph glyph-name="_8631" unicode="&#x2716;" 
d="M306 391l-165 163l173 173l165 -165l166 166l172 -174l-166 -163l169 -166l-174 -172l-167 167l-167 -165l-173 173z" />
    <glyph glyph-name="_8630" unicode="&#x271a;" 
d="M357 514v233h247v-233h233v-241h-233v-238h-247v238h-234v241h234z" />
    <glyph glyph-name="_8604" unicode="&#x273d;" 
d="M688 203l-171 126l17 -206h-109l17 206l-170 -121l-62 99l196 84l-193 84l55 100l174 -124l-17 209h109l-17 -209l173 128l60 -99l-194 -89l192 -88z" />
    <glyph glyph-name="_8637" unicode="&#x2756;" 
d="M483 755l154 -154l-154 -157l-157 157zM483 333l154 -156l-154 -156l-157 156zM270 545l154 -154l-154 -155l-157 155zM694 545l153 -154l-153 -155l-159 155z" />
    <glyph glyph-name="_8673" unicode="&#x2776;" 
d="M362 492l67 60v-435h111v567h-99l-131 -123zM479 840q88 0 163 -25.5t128 -69t90 -101.5t55 -123.5t18 -134.5t-18 -134t-55 -123t-90 -101.5t-128 -69t-163 -25.5q-109 0 -197.5 38.5t-143 103.5t-83.5 144.5t-29 166.5q0 69 18 134.5t55 123.5t89.5 101.5t127.5 69
t163 25.5z" />
    <glyph glyph-name="_8674" unicode="&#x2777;" 
d="M520 515q-1 -125 -183 -326v-81h295v91h-160q161 180 161 321q0 79 -43 122t-124 43q-65 0 -119 -28l4 -92q44 27 97 27q34 0 53 -20t19 -57zM479 840q88 0 163 -25.5t128 -69t90 -101.5t55 -123.5t18 -134.5t-18 -134t-55 -123t-90 -101.5t-128 -69t-163 -25.5
q-109 0 -197.5 38.5t-143 103.5t-83.5 144.5t-29 166.5q0 69 18 134.5t55 123.5t89.5 101.5t127.5 69t163 25.5z" />
    <glyph glyph-name="_8675" unicode="&#x2778;" 
d="M392 445v-84q137 -2 137 -96q0 -35 -20.5 -54.5t-58.5 -19.5q-59 0 -102 31l-8 -95q50 -29 122 -29q83 0 131.5 47.5t48.5 124.5q0 46 -26 81.5t-68 51.5q89 34 89 129q0 67 -43.5 110t-121.5 43q-70 0 -123 -28l5 -90q43 25 98 25q35 0 53.5 -17.5t18.5 -48.5
q0 -81 -132 -81zM479 840q88 0 163 -25.5t128 -69t90 -101.5t55 -123.5t18 -134.5t-18 -134t-55 -123t-90 -101.5t-128 -69t-163 -25.5q-109 0 -197.5 38.5t-143 103.5t-83.5 144.5t-29 166.5q0 69 18 134.5t55 123.5t89.5 101.5t127.5 69t163 25.5z" />
    <glyph glyph-name="_8676" unicode="&#x2779;" 
d="M277 219h193v-111h109v111h48v91h-48v365h-122l-180 -363v-93zM368 310l102 205v-205h-102zM479 840q88 0 163 -25.5t128 -69t90 -101.5t55 -123.5t18 -134.5t-18 -134t-55 -123t-90 -101.5t-128 -69t-163 -25.5q-109 0 -197.5 38.5t-143 103.5t-83.5 144.5t-29 166.5
q0 69 18 134.5t55 123.5t89.5 101.5t127.5 69t163 25.5z" />
    <glyph glyph-name="_8677" unicode="&#x277a;" 
d="M444 191q-51 0 -94 23l-8 -94q48 -22 116 -22q93 0 140 50.5t47 141.5q0 85 -41.5 132.5t-104.5 47.5q-11 0 -31 -2v116h164v91h-274v-314q35 17 82 17q46 0 68.5 -21t22.5 -67q0 -99 -87 -99zM479 840q88 0 163 -25.5t128 -69t90 -101.5t55 -123.5t18 -134.5t-18 -134
t-55 -123t-90 -101.5t-128 -69t-163 -25.5q-109 0 -197.5 38.5t-143 103.5t-83.5 144.5t-29 166.5q0 69 18 134.5t55 123.5t89.5 101.5t127.5 69t163 25.5z" />
    <glyph glyph-name="_8678" unicode="&#x277b;" 
d="M509 592q47 0 87 -18l6 93q-43 18 -103 18q-204 0 -204 -305q0 -282 179 -282q76 0 118 50t42 145t-38.5 143t-109.5 48q-39 0 -74 -22q8 74 32 102t65 28zM462 391q30 0 44 -22.5t14 -76.5q0 -101 -47 -101q-34 0 -48.5 41t-15.5 131q21 28 53 28zM479 840
q88 0 163 -25.5t128 -69t90 -101.5t55 -123.5t18 -134.5t-18 -134t-55 -123t-90 -101.5t-128 -69t-163 -25.5q-109 0 -197.5 38.5t-143 103.5t-83.5 144.5t-29 166.5q0 69 18 134.5t55 123.5t89.5 101.5t127.5 69t163 25.5z" />
    <glyph glyph-name="_8679" unicode="&#x277c;" 
d="M490 108l147 472v95h-313v-91h196l-150 -476h120zM479 840q88 0 163 -25.5t128 -69t90 -101.5t55 -123.5t18 -134.5t-18 -134t-55 -123t-90 -101.5t-128 -69t-163 -25.5q-109 0 -197.5 38.5t-143 103.5t-83.5 144.5t-29 166.5q0 69 18 134.5t55 123.5t89.5 101.5
t127.5 69t163 25.5z" />
    <glyph glyph-name="_8680" unicode="&#x277d;" 
d="M305 263q0 -77 47 -121t126 -44q78 0 125 44t47 121q0 50 -21.5 81.5t-73.5 63.5q78 47 78 130q0 67 -41.5 107.5t-113.5 40.5q-74 0 -115 -41t-41 -109q0 -40 16 -69t56 -58q-89 -50 -89 -146zM537 260q0 -37 -16.5 -56.5t-42.5 -19.5q-27 0 -43 19.5t-16 56.5
q0 65 54 97q37 -25 50.5 -46t13.5 -51zM430 535q0 63 48 63q47 0 47 -63q0 -55 -44 -84q-29 18 -40 36.5t-11 47.5zM479 840q88 0 163 -25.5t128 -69t90 -101.5t55 -123.5t18 -134.5t-18 -134t-55 -123t-90 -101.5t-128 -69t-163 -25.5q-109 0 -197.5 38.5t-143 103.5
t-83.5 144.5t-29 166.5q0 69 18 134.5t55 123.5t89.5 101.5t127.5 69t163 25.5z" />
    <glyph glyph-name="_8681" unicode="&#x277e;" 
d="M439 191q-48 0 -88 18l-6 -93q45 -18 103 -18q204 0 204 305q0 282 -178 282q-76 0 -118.5 -50t-42.5 -145t38.5 -143t109.5 -48q42 0 73 22q-8 -74 -31.5 -102t-63.5 -28zM485 391q-58 0 -58 100q0 101 48 101q33 0 47.5 -42t15.5 -131q-23 -28 -53 -28zM479 840
q88 0 163 -25.5t128 -69t90 -101.5t55 -123.5t18 -134.5t-18 -134t-55 -123t-90 -101.5t-128 -69t-163 -25.5q-109 0 -197.5 38.5t-143 103.5t-83.5 144.5t-29 166.5q0 69 18 134.5t55 123.5t89.5 101.5t127.5 69t163 25.5z" />
    <glyph glyph-name="_8682" unicode="&#x277f;" 
d="M226 492l60 60v-435h100v567h-89l-118 -123zM457 400q0 -151 38.5 -222t116.5 -71t116.5 71t38.5 222t-38.5 222.5t-116.5 71.5t-116.5 -71.5t-38.5 -222.5zM559 400q0 120 12 160.5t41 40.5q19 0 29.5 -15.5t16.5 -59.5t6 -126q0 -119 -11.5 -159.5t-40.5 -40.5
q-20 0 -30.5 15t-16.5 59t-6 126zM479 840q88 0 163 -25.5t128 -69t90 -101.5t55 -123.5t18 -134.5t-18 -134t-55 -123t-90 -101.5t-128 -69t-163 -25.5q-109 0 -197.5 38.5t-143 103.5t-83.5 144.5t-29 166.5q0 69 18 134.5t55 123.5t89.5 101.5t127.5 69t163 25.5z" />
    <glyph glyph-name="_8342" unicode="&#x278a;" 
d="M362 492l67 60v-435h111v567h-99l-131 -123zM479 840q88 0 163 -25.5t128 -69t90 -101.5t55 -123.5t18 -134.5t-18 -134t-55 -123t-90 -101.5t-128 -69t-163 -25.5q-109 0 -197.5 38.5t-143 103.5t-83.5 144.5t-29 166.5q0 69 18 134.5t55 123.5t89.5 101.5t127.5 69
t163 25.5z" />
    <glyph glyph-name="_8343" unicode="&#x278b;" 
d="M520 515q-1 -125 -183 -326v-81h295v91h-160q161 180 161 321q0 79 -43 122t-124 43q-65 0 -119 -28l4 -92q44 27 97 27q34 0 53 -20t19 -57zM479 840q88 0 163 -25.5t128 -69t90 -101.5t55 -123.5t18 -134.5t-18 -134t-55 -123t-90 -101.5t-128 -69t-163 -25.5
q-109 0 -197.5 38.5t-143 103.5t-83.5 144.5t-29 166.5q0 69 18 134.5t55 123.5t89.5 101.5t127.5 69t163 25.5z" />
    <glyph glyph-name="_8344" unicode="&#x278c;" 
d="M392 445v-84q137 -2 137 -96q0 -35 -20.5 -54.5t-58.5 -19.5q-59 0 -102 31l-8 -95q50 -29 122 -29q83 0 131.5 47.5t48.5 124.5q0 46 -26 81.5t-68 51.5q89 34 89 129q0 67 -43.5 110t-121.5 43q-70 0 -123 -28l5 -90q43 25 98 25q35 0 53.5 -17.5t18.5 -48.5
q0 -81 -132 -81zM479 840q88 0 163 -25.5t128 -69t90 -101.5t55 -123.5t18 -134.5t-18 -134t-55 -123t-90 -101.5t-128 -69t-163 -25.5q-109 0 -197.5 38.5t-143 103.5t-83.5 144.5t-29 166.5q0 69 18 134.5t55 123.5t89.5 101.5t127.5 69t163 25.5z" />
    <glyph glyph-name="_8345" unicode="&#x278d;" 
d="M277 219h193v-111h109v111h48v91h-48v365h-122l-180 -363v-93zM368 310l102 205v-205h-102zM479 840q88 0 163 -25.5t128 -69t90 -101.5t55 -123.5t18 -134.5t-18 -134t-55 -123t-90 -101.5t-128 -69t-163 -25.5q-109 0 -197.5 38.5t-143 103.5t-83.5 144.5t-29 166.5
q0 69 18 134.5t55 123.5t89.5 101.5t127.5 69t163 25.5z" />
    <glyph glyph-name="_8346" unicode="&#x278e;" 
d="M444 191q-51 0 -94 23l-8 -94q48 -22 116 -22q93 0 140 50.5t47 141.5q0 85 -41.5 132.5t-104.5 47.5q-11 0 -31 -2v116h164v91h-274v-314q35 17 82 17q46 0 68.5 -21t22.5 -67q0 -99 -87 -99zM479 840q88 0 163 -25.5t128 -69t90 -101.5t55 -123.5t18 -134.5t-18 -134
t-55 -123t-90 -101.5t-128 -69t-163 -25.5q-109 0 -197.5 38.5t-143 103.5t-83.5 144.5t-29 166.5q0 69 18 134.5t55 123.5t89.5 101.5t127.5 69t163 25.5z" />
    <glyph glyph-name="_8347" unicode="&#x278f;" 
d="M509 592q47 0 87 -18l6 93q-43 18 -103 18q-204 0 -204 -305q0 -282 179 -282q76 0 118 50t42 145t-38.5 143t-109.5 48q-39 0 -74 -22q8 74 32 102t65 28zM462 391q30 0 44 -22.5t14 -76.5q0 -101 -47 -101q-34 0 -48.5 41t-15.5 131q21 28 53 28zM479 840
q88 0 163 -25.5t128 -69t90 -101.5t55 -123.5t18 -134.5t-18 -134t-55 -123t-90 -101.5t-128 -69t-163 -25.5q-109 0 -197.5 38.5t-143 103.5t-83.5 144.5t-29 166.5q0 69 18 134.5t55 123.5t89.5 101.5t127.5 69t163 25.5z" />
    <glyph glyph-name="_8348" unicode="&#x2790;" 
d="M490 108l147 472v95h-313v-91h196l-150 -476h120zM479 840q88 0 163 -25.5t128 -69t90 -101.5t55 -123.5t18 -134.5t-18 -134t-55 -123t-90 -101.5t-128 -69t-163 -25.5q-109 0 -197.5 38.5t-143 103.5t-83.5 144.5t-29 166.5q0 69 18 134.5t55 123.5t89.5 101.5
t127.5 69t163 25.5z" />
    <glyph glyph-name="_8349" unicode="&#x2791;" 
d="M305 263q0 -77 47 -121t126 -44q78 0 125 44t47 121q0 50 -21.5 81.5t-73.5 63.5q78 47 78 130q0 67 -41.5 107.5t-113.5 40.5q-74 0 -115 -41t-41 -109q0 -40 16 -69t56 -58q-89 -50 -89 -146zM537 260q0 -37 -16.5 -56.5t-42.5 -19.5q-27 0 -43 19.5t-16 56.5
q0 65 54 97q37 -25 50.5 -46t13.5 -51zM430 535q0 63 48 63q47 0 47 -63q0 -55 -44 -84q-29 18 -40 36.5t-11 47.5zM479 840q88 0 163 -25.5t128 -69t90 -101.5t55 -123.5t18 -134.5t-18 -134t-55 -123t-90 -101.5t-128 -69t-163 -25.5q-109 0 -197.5 38.5t-143 103.5
t-83.5 144.5t-29 166.5q0 69 18 134.5t55 123.5t89.5 101.5t127.5 69t163 25.5z" />
    <glyph glyph-name="_8350" unicode="&#x2792;" 
d="M439 191q-48 0 -88 18l-6 -93q45 -18 103 -18q204 0 204 305q0 282 -178 282q-76 0 -118.5 -50t-42.5 -145t38.5 -143t109.5 -48q42 0 73 22q-8 -74 -31.5 -102t-63.5 -28zM485 391q-58 0 -58 100q0 101 48 101q33 0 47.5 -42t15.5 -131q-23 -28 -53 -28zM479 840
q88 0 163 -25.5t128 -69t90 -101.5t55 -123.5t18 -134.5t-18 -134t-55 -123t-90 -101.5t-128 -69t-163 -25.5q-109 0 -197.5 38.5t-143 103.5t-83.5 144.5t-29 166.5q0 69 18 134.5t55 123.5t89.5 101.5t127.5 69t163 25.5z" />
    <glyph glyph-name="_8351" unicode="&#x2793;" 
d="M226 492l60 60v-435h100v567h-89l-118 -123zM457 400q0 -151 38.5 -222t116.5 -71t116.5 71t38.5 222t-38.5 222.5t-116.5 71.5t-116.5 -71.5t-38.5 -222.5zM559 400q0 120 12 160.5t41 40.5q19 0 29.5 -15.5t16.5 -59.5t6 -126q0 -119 -11.5 -159.5t-40.5 -40.5
q-20 0 -30.5 15t-16.5 59t-6 126zM479 840q88 0 163 -25.5t128 -69t90 -101.5t55 -123.5t18 -134.5t-18 -134t-55 -123t-90 -101.5t-128 -69t-163 -25.5q-109 0 -197.5 38.5t-143 103.5t-83.5 144.5t-29 166.5q0 69 18 134.5t55 123.5t89.5 101.5t127.5 69t163 25.5z" />
    <glyph glyph-name="_101" unicode="&#x3000;" 
 />
    <glyph glyph-name="_101" unicode="&#x3164;" 
 />
    <glyph glyph-name="_8056" unicode="&#x3001;" 
d="M327 -5q-102 127 -227 228l-44 -41q132 -112 224 -230z" />
    <glyph glyph-name="_8057" unicode="&#x3002;" 
d="M343 99q0 66 -40 108.5t-108 42.5t-108 -42.5t-40 -108.5t40 -108t108 -42t108 42t40 108zM295 99q0 -47 -28.5 -76t-71.5 -29t-71 29t-28 76t28 76t71 29t71.5 -29t28.5 -76z" />
    <glyph glyph-name="_108" unicode="&#x3003;" 
d="M395 658l-169 -468l43 -18l189 460zM669 650l-168 -468l43 -17l189 459z" />
    <glyph glyph-name="_8065" unicode="&#x3008;" horiz-adv-x="520" 
d="M182 392l288 439l-47 24l-303 -463l304 -462l47 24z" />
    <glyph glyph-name="_8066" unicode="&#x3009;" horiz-adv-x="520" 
d="M50 -46l47 -24l303 462l-303 462l-47 -23l288 -439z" />
    <glyph glyph-name="_8067" unicode="&#x300a;" horiz-adv-x="520" 
d="M105 392l217 451l-42 14l-223 -465l223 -465l42 15zM263 392l217 451l-41 14l-224 -465l224 -465l41 15z" />
    <glyph glyph-name="_8068" unicode="&#x300b;" horiz-adv-x="520" 
d="M81 -72l224 464l-224 465l-41 -15l217 -450l-217 -449zM240 -72l223 464l-223 465l-41 -15l217 -450l-217 -449z" />
    <glyph glyph-name="_8069" unicode="&#x300c;" horiz-adv-x="520" 
d="M160 222h57v581h253v52h-310v-633z" />
    <glyph glyph-name="_8070" unicode="&#x300d;" horiz-adv-x="520" 
d="M360 563h-57v-581h-253v-52h310v633z" />
    <glyph glyph-name="_8071" unicode="&#x300e;" horiz-adv-x="520" 
d="M470 713v142h-361v-649h161v507h200zM440 827v-86h-199v-507h-102v593h301z" />
    <glyph glyph-name="_8072" unicode="&#x300f;" horiz-adv-x="520" 
d="M50 72v-142h361v649h-161v-507h-200zM80 -42v86h199v507h102v-593h-301z" />
    <glyph glyph-name="_8073" unicode="&#x3010;" horiz-adv-x="520" 
d="M190 858v-931h280v3q-88 77 -143 197t-55 265q0 143 55 263.5t143 199.5v3h-280z" />
    <glyph glyph-name="_8074" unicode="&#x3011;" horiz-adv-x="520" 
d="M50 858v-3q88 -79 143 -199.5t55 -263.5q0 -145 -55 -265t-143 -197v-3h280v931h-280z" />
    <glyph glyph-name="_8700" unicode="&#x3012;" 
d="M158 672v40h644v-40h-644zM158 473v40h644v-40h-302v-421h-40v421h-302z" />
    <glyph glyph-name="_8075" unicode="&#x3013;" 
d="M867 781h-774v-283h774v283zM867 289h-774v-282h774v282z" />
    <glyph glyph-name="_8063" unicode="&#x3014;" horiz-adv-x="520" 
d="M444 -82l25 41l-184 109v648l184 111l-25 40l-213 -130v-689z" />
    <glyph glyph-name="_8064" unicode="&#x3015;" horiz-adv-x="520" 
d="M289 48v689l-214 130l-25 -40l185 -111v-648l-185 -109l25 -41z" />
    <glyph glyph-name="_8219" unicode="&#x3016;" horiz-adv-x="480" 
d="M196 845h239q-121 -211 -121 -460q0 -253 120 -459h-238v919zM368 805h-126v-839h126q-96 186 -96 419q0 225 96 420z" />
    <glyph glyph-name="_8220" unicode="&#x3017;" horiz-adv-x="480" 
d="M276 845v-919h-238q122 215 122 459q0 245 -123 460h239zM106 -34h124v839h-125q97 -205 97 -420q0 -227 -96 -419z" />
    <glyph glyph-name="_8221" unicode="&#x3018;" horiz-adv-x="480" 
d="M273 143l166 -116l-59 -102l-225 151v619l225 151l59 -102l-166 -116v-485zM365 -10l14 22l-151 104v539l151 104l-14 22l-165 -112v-567z" />
    <glyph glyph-name="_8222" unicode="&#x3019;" horiz-adv-x="480" 
d="M310 695v-619l-225 -151l-59 102l167 116v485l-167 116l59 102zM100 -10l165 112v567l-165 112l-14 -22l152 -104v-539l-152 -104z" />
    <glyph glyph-name="_8671" unicode="&#x3020;" 
d="M287 609l19 55l502 -185l-20 -54l-228 84l-63 -170l-52 19l62 170zM386 112q-49 18 -87.5 44t-64 58t-41.5 61.5t-29 65.5q-39 34 -55.5 77t-1.5 85q18 46 61 62.5t94 5.5l-10 -26q-40 8 -72.5 -4.5t-46.5 -46.5q-12 -34 1.5 -71t45.5 -64q55 -169 214 -227
q158 -59 310 34q43 1 77 20t46 53t-5 65t-52 51l10 26q45 -25 67 -65.5t6 -85.5q-15 -43 -56 -65t-94 -22q-153 -92 -317 -31zM315 688l20 55l502 -185l-21 -54zM425 214q-128 48 -141 185q-1 6 5 7.5t8 -4.5q31 -129 135 -167q103 -38 210 40q6 4 9.5 -1.5t-0.5 -9.5
q-101 -96 -226 -50zM300 495l-24 46l30 -41q6 4 8 4l-7 52l16 -50l11 -1l23 45l-15 -48l9 -6l45 27l-40 -34q4 -4 4 -8l51 11l-50 -19q2 -9 -1 -15q-5 -14 -18.5 -20.5t-27.5 -1.5t-20.5 18.5t-1.5 27.5q2 5 8 13zM639 371l-25 46l31 -41q1 0 3.5 2t4.5 2l-8 52l17 -50
l10 -1l21 46l-12 -49l8 -6l46 27l-40 -34l4 -8l51 11l-50 -19q0 -3 -0.5 -8t-1.5 -8q-5 -14 -19 -20t-27 -1q-14 5 -20.5 18.5t-0.5 27.5q3 8 8 13zM677 340q6 13 -8 18q-13 5 -18 -9q-6 -14 8 -17q13 -6 18 8zM313 474q-5 -14 8 -18q13 -5 18 8t-8 18q-14 5 -18 -8z" />
    <glyph glyph-name="_8701" unicode="&#x3036;" 
d="M481 790q167 0 283 -116t116 -283t-116 -283t-283 -116q-168 0 -284.5 116t-116.5 283t116.5 283t284.5 116zM481 755q-153 0 -259.5 -106t-106.5 -258t106.5 -258t259.5 -106q151 0 257.5 106.5t106.5 257.5t-106.5 257.5t-257.5 106.5zM224 559v39h512v-39h-512z
M224 398v40h512v-40h-236v-328h-40v328h-236z" />
    <glyph glyph-name="_851" unicode="&#x3041;" 
d="M186 597v-50h176v-125q-91 -34 -150 -98.5t-59 -148.5q0 -60 35 -100t95 -40q93 0 176 96.5t131 260.5q74 -15 115 -57t41 -103q0 -164 -263 -180l15 -49q132 9 219 66t87 162q0 76 -53.5 133t-147.5 77q6 22 8 33l-54 12q-1 -6 -3.5 -18t-4.5 -19q-12 1 -37 1
q-43 0 -92 -11v108h319v50h-319v93h-58v-93h-176zM390 133q-54 -48 -109 -48q-31 0 -50.5 25t-19.5 66q0 65 42.5 114.5t110.5 77.5q3 -137 26 -235zM421 387q46 12 92 12q15 0 23 -1q-36 -127 -98 -211q-15 85 -17 200z" />
    <glyph glyph-name="_852" unicode="&#x3042;" 
d="M245 38q111 0 210 114.5t157 316.5q88 -18 140 -69t52 -129q0 -106 -85.5 -159t-227.5 -62l16 -50q72 5 135 23t113.5 50t79.5 82.5t29 113.5q0 95 -65 160.5t-175 87.5l9 39q-33 7 -56 13q-6 -30 -9 -44q-32 2 -48 2q-54 0 -115 -14v139h381v50h-381v115h-60v-115h-210
v-50h210v-157q-108 -40 -178.5 -116t-70.5 -176q0 -65 40.5 -115t108.5 -50zM556 476q-44 -168 -128 -276q-18 93 -22 262q58 15 115 15q24 0 35 -1zM347 442q5 -182 32 -295q-67 -59 -134 -59q-40 0 -64.5 32.5t-24.5 83.5q0 81 53 142t138 96z" />
    <glyph glyph-name="_853" unicode="&#x3043;" 
d="M438 267q-19 -194 -84 -194q-19 0 -39 18t-37.5 53.5t-28.5 97.5t-11 140q0 143 19 239h-58q-19 -99 -19 -240q0 -173 51 -265.5t122 -92.5q110 0 138 222zM811 175q-1 112 -30.5 206.5t-88.5 217.5l-55 -16q55 -115 85 -214.5t30 -203.5z" />
    <glyph glyph-name="_854" unicode="&#x3044;" 
d="M432 315q-26 -230 -105 -230q-53 0 -98 97.5t-45 279.5q0 161 23 285h-60q-23 -133 -23 -286q0 -204 59.5 -315t142.5 -111q128 0 160 258zM868 215q-1 132 -36 246.5t-103 258.5l-56 -16q135 -284 135 -500z" />
    <glyph glyph-name="_855" unicode="&#x3045;" 
d="M682 633q-181 24 -352 59l-8 -50q179 -38 349 -57zM364 5q77 10 141.5 30t123.5 54.5t93 91t34 128.5q0 99 -55.5 150t-160.5 51q-139 0 -328 -69l16 -52q174 71 311 71q76 0 117.5 -39t41.5 -112q0 -56 -29 -101.5t-80.5 -75t-113.5 -48.5t-138 -28z" />
    <glyph glyph-name="_856" unicode="&#x3046;" 
d="M695 752q-211 26 -413 68l-7 -50q188 -41 408 -67zM321 2q71 9 133.5 25.5t124.5 46t106 68.5t71.5 96.5t27.5 126.5q0 115 -65.5 175t-188.5 60q-168 0 -386 -81l16 -52q209 83 369 83q92 0 143.5 -49t51.5 -137q0 -68 -34.5 -123.5t-95.5 -92.5t-135.5 -60.5
t-163.5 -34.5z" />
    <glyph glyph-name="_857" unicode="&#x3047;" 
d="M563 143q7 -74 39.5 -101.5t106.5 -27.5q64 0 109 12q-1 8 -2 25.5t-2 25.5q-49 -13 -104 -13q-48 0 -66.5 16.5t-22.5 66.5l-4 45q-10 105 -83 105q-10 0 -32 -4q92 95 171 173v44h-443v-50h362q-100 -96 -402 -414q27 -23 44 -37q90 99 164 175q66 68 111 68
q44 0 50 -64zM314 648q157 -36 327 -45q1 8 2 25t1 25q-142 11 -322 45q-2 -8 -4.5 -24.5t-3.5 -25.5z" />
    <glyph glyph-name="_858" unicode="&#x3048;" 
d="M576 161q7 -88 43.5 -119t127.5 -31q72 0 127 13l-5 51q-51 -14 -120 -14q-62 0 -85 21.5t-28 86.5l-4 51q-9 122 -93 122q-26 0 -56 -11q144 150 218 222v46h-521v-50h440q-124 -119 -487 -505l47 -38q128 138 193 208q74 82 136 82q57 0 63 -84zM280 776
q182 -42 383 -53l3 50q-166 12 -377 53z" />
    <glyph glyph-name="_859" unicode="&#x3049;" 
d="M617 582q111 -60 196 -144l35 44q-92 86 -203 143zM538 395q-70 0 -130 -15v135h171v50h-171v124h-58v-124h-164v-50h164v-152q-89 -33 -142.5 -89.5t-53.5 -118.5q0 -67 49.5 -109t115.5 -42q49 0 69 24.5t20 86.5v213q66 16 128 16q88 0 135 -39.5t47 -104.5
q0 -64 -59.5 -99t-150.5 -46l17 -51q251 38 251 199q0 84 -62 137.5t-176 54.5zM350 308v-193q0 -35 -8.5 -47.5t-29.5 -12.5q-41 0 -70.5 27.5t-29.5 72.5q0 48 37.5 87.5t100.5 65.5z" />
    <glyph glyph-name="_860" unicode="&#x304a;" 
d="M652 692q137 -74 231 -167l35 45q-101 96 -236 167zM553 462q-83 0 -161 -19v172h205v50h-205v153h-60v-153h-195v-50h195v-190q-107 -39 -170 -107t-63 -138q0 -78 58 -128.5t134 -50.5q57 0 79 28.5t22 103.5v258q78 21 158 21q107 0 164.5 -49.5t57.5 -129.5
q0 -54 -37.5 -93t-91 -58.5t-121.5 -27.5q3 -9 9.5 -26.5t9.5 -26.5q133 19 212 77t79 159q0 98 -72.5 161.5t-206.5 63.5zM332 370v-242q0 -45 -9.5 -61t-35.5 -16q-52 0 -90 36.5t-38 92.5q0 53 46.5 104.5t126.5 85.5z" />
    </font>
</defs>
</svg>
