<?xml version="1.0" standalone="no"?>
<!DOCTYPE svg PUBLIC "-//W3C//DTD SVG 1.1//EN" "http://www.w3.org/Graphics/SVG/1.1/DTD/svg11.dtd" >
<svg xmlns="http://www.w3.org/2000/svg" xmlns:xlink="http://www.w3.org/1999/xlink" version="1.1">
<metadata>
Created by FontForge 20170731 at Mon Feb 12 03:07:13 2018
 By Aleksey,,,
Copyright (c) 2018 by S-Core Co., Ltd.. All rights reserved.
</metadata>
<defs>
<font id="S-CoreDream-8Heavy" horiz-adv-x="960" >
  <font-face 
    font-family="S-Core Dream 8 Heavy"
    font-weight="800"
    font-stretch="normal"
    units-per-em="1000"
    panose-1="2 11 9 3 3 3 2 2 2 4"
    ascent="800"
    descent="-200"
    x-height="564"
    cap-height="792"
    bbox="-38 -278 1285 1035"
    underline-thickness="50"
    underline-position="-200"
    unicode-range="U+0020-FFE6"
  />
<missing-glyph horiz-adv-x="296" 
 />
    <glyph glyph-name=".notdef" horiz-adv-x="296" 
 />
    <glyph glyph-name=".null" horiz-adv-x="0" 
 />
    <glyph glyph-name="nonmarkingreturn" horiz-adv-x="333" 
 />
    <glyph glyph-name="_1" unicode=" " horiz-adv-x="296" 
 />
    <glyph glyph-name="_2" unicode="!" horiz-adv-x="328" 
d="M75 -6v160h177v-160h-177zM89 242l-14 436v114h177v-114l-13 -436h-150z" />
    <glyph glyph-name="_3" unicode="&#x22;" horiz-adv-x="470" 
d="M263 543v249h145v-249h-145zM62 543v249h146v-249h-146z" />
    <glyph glyph-name="_4" unicode="#" horiz-adv-x="785" 
d="M362 -6l42 190h-113l-41 -190h-160l42 190h-106v135h135l32 148h-128v135h157l42 190h159l-42 -190h113l41 190h160l-42 -190h106v-135h-135l-32 -148h128v-135h-158l-40 -190h-160zM353 467l-32 -148h111l33 148h-112z" />
    <glyph glyph-name="_5" unicode="$" horiz-adv-x="657" 
d="M400 893v-96q93 -20 145.5 -80t52.5 -139v-13h-190v13q0 35 -24.5 57t-66.5 22q-44 0 -67.5 -21t-23.5 -58q0 -48 36 -66.5t143 -40.5q223 -46 223 -245q0 -91 -54 -154t-153 -84v-95h-166v95q-102 18 -158 80t-56 153v15h189v-17q0 -41 27.5 -65.5t77.5 -24.5
q49 0 76 24.5t27 65.5q0 80 -106 98q-150 25 -223 80t-73 174q0 84 52 145t145 81v96h167z" />
    <glyph glyph-name="_6" unicode="%" horiz-adv-x="932" 
d="M565 792h129l-327 -798h-129zM176 590q0 -62 10 -85t34 -23q25 0 34.5 23t9.5 85q0 63 -9.5 86t-34.5 23q-24 0 -34 -23t-10 -86zM43 590q0 216 176 216q178 0 178 -216q0 -215 -176 -215q-178 0 -178 215zM757 196q0 62 -10 85t-35 23q-24 0 -34 -23t-10 -85
q0 -63 10 -86t34 -23q25 0 35 23t10 86zM889 196q0 -216 -175 -216q-179 0 -179 216q0 215 177 215t177 -215z" />
    <glyph glyph-name="_7" unicode="&#x26;" horiz-adv-x="763" 
d="M520 403h175q-8 -141 -70 -246l142 -163h-211l-44 51q-77 -65 -198 -65q-126 0 -201 64t-75 171q0 143 137 215l-6 9q-75 91 -75 174q0 89 63.5 141t166.5 52q104 0 167 -52t63 -141v-29h-177v29q0 58 -53 58t-53 -58q0 -47 48 -103l186 -218q13 42 15 111zM217 219
q0 -49 29.5 -74t77.5 -25q56 0 94 32l-149 170q-52 -40 -52 -103z" />
    <glyph glyph-name="_8" unicode="'" horiz-adv-x="270" 
d="M62 543v249h146v-249h-146z" />
    <glyph glyph-name="_9" unicode="(" horiz-adv-x="387" 
d="M62 388q0 161 16.5 262.5t56 158t94 76.5t141.5 20v-138q-30 0 -47.5 -5t-35.5 -25.5t-27 -61t-15 -111t-6 -176.5q0 -88 3.5 -151.5t11.5 -105t17.5 -66t26 -37t32 -16t40.5 -3.5v-137q-87 0 -141.5 20t-94 76.5t-56 157.5t-16.5 262z" />
    <glyph glyph-name="_10" unicode=")" horiz-adv-x="387" 
d="M326 388q0 -161 -16.5 -262t-56.5 -157.5t-94.5 -76.5t-141.5 -20v137q25 0 40.5 3.5t32 16t26 37t17.5 66t11.5 105t3.5 151.5q0 106 -6 176.5t-15 111t-27 61t-35.5 25.5t-47.5 5v138q87 0 141.5 -20t94.5 -76.5t56.5 -158t16.5 -262.5z" />
    <glyph glyph-name="_11" unicode="*" horiz-adv-x="592" 
d="M30 436l71 123l145 -110l-22 181h143l-24 -181l146 110l72 -123l-169 -70l169 -71l-72 -124l-146 110l24 -180h-143l22 180l-145 -110l-71 124l168 71z" />
    <glyph glyph-name="_12" unicode="+" horiz-adv-x="606" 
d="M38 298v135h184v196h162v-196h184v-135h-184v-197h-162v197h-184z" />
    <glyph glyph-name="_13" unicode="," horiz-adv-x="320" 
d="M250 174v-180q0 -67 -48 -109.5t-133 -44.5v79q90 3 90 75h-90v180h181z" />
    <glyph glyph-name="_14" unicode="-" horiz-adv-x="460" 
d="M38 292v146h384v-146h-384z" />
    <glyph glyph-name="_15" unicode="." horiz-adv-x="320" 
d="M250 174v-180h-181v180h181z" />
    <glyph glyph-name="_16" unicode="/" horiz-adv-x="556" 
d="M556 887l-374 -999h-182l374 999h182z" />
    <glyph glyph-name="_17" unicode="0" horiz-adv-x="640" 
d="M601 393q0 -239 -83 -336q-66 -77 -198 -77q-133 0 -199 77q-83 97 -83 336t83 336q66 77 199 77q132 0 198 -77q83 -97 83 -336zM417 393q0 185 -28 232q-24 37 -69 37q-47 0 -70 -37q-28 -47 -28 -232q0 -184 28 -232q23 -37 70 -37q45 0 69 37q28 48 28 232z" />
    <glyph glyph-name="_18" unicode="1" horiz-adv-x="640" 
d="M471 -6h-185v630l-163 -73v153l190 88h158v-798z" />
    <glyph glyph-name="_19" unicode="2" horiz-adv-x="640" 
d="M579 565q0 -61 -18 -104t-65 -97l-197 -226h292v-144h-524v133l276 318q52 60 52 121q0 96 -78 96t-78 -96v-35h-184v34q0 103 70 172t192 69q123 0 192.5 -69t69.5 -172z" />
    <glyph glyph-name="_20" unicode="3" horiz-adv-x="640" 
d="M317 124q44 0 67.5 27t23.5 77q0 62 -26.5 88.5t-85.5 26.5h-61v142h61q93 0 93 94q0 40 -19 61.5t-53 21.5t-53 -21.5t-19 -61.5v-14h-178v22q0 99 66.5 159t183.5 60q116 0 183.5 -60t67.5 -156q0 -135 -122 -172q71 -17 108.5 -68.5t37.5 -129.5q0 -109 -75.5 -174.5
t-199.5 -65.5t-199 65.5t-75 174.5v25h183v-17q0 -50 23.5 -77t67.5 -27z" />
    <glyph glyph-name="_21" unicode="4" horiz-adv-x="640" 
d="M191 287h151v254zM607 287v-144h-83v-149h-182v149h-310v144l301 505h191v-505h83z" />
    <glyph glyph-name="_22" unicode="5" horiz-adv-x="640" 
d="M322 376q-47 0 -68 -42h-171l20 458h447v-144h-276l-10 -182q39 46 115 46q96 0 153.5 -67.5t57.5 -199.5q0 -124 -69.5 -194.5t-198.5 -70.5q-123 0 -191.5 64t-75.5 177h185q8 -97 82 -97q84 0 84 126t-84 126z" />
    <glyph glyph-name="_23" unicode="6" horiz-adv-x="640" 
d="M579 591h-182q-6 76 -72 76q-48 0 -70 -51t-24 -170q40 66 135 66q99 0 164 -71t65 -193q0 -123 -73 -195.5t-195 -72.5q-156 0 -225 113q-53 87 -53 279q0 233 67 333.5t212 100.5q111 0 177 -57t74 -158zM235 249q0 -125 88 -125t88 125q0 126 -88 126t-88 -126z" />
    <glyph glyph-name="_24" unicode="7" horiz-adv-x="640" 
d="M60 648v144h520v-132l-248 -666h-189l251 654h-334z" />
    <glyph glyph-name="_25" unicode="8" horiz-adv-x="640" 
d="M320 806q120 0 191 -59.5t71 -155.5q0 -61 -32 -107.5t-85 -65.5q140 -50 140 -198q0 -111 -77.5 -175.5t-207.5 -64.5q-131 0 -208.5 64.5t-77.5 175.5q0 148 140 198q-52 19 -84 65.5t-32 107.5q0 96 70.5 155.5t191.5 59.5zM320 124q47 0 74.5 29.5t27.5 83.5
t-27.5 83t-74.5 29t-75 -29t-28 -83t28 -83.5t75 -29.5zM320 487q38 0 59.5 23t21.5 64t-21.5 64.5t-59.5 23.5q-39 0 -61 -23.5t-22 -64.5t22 -64t61 -23z" />
    <glyph glyph-name="_26" unicode="9" horiz-adv-x="640" 
d="M59 194h182q6 -76 71 -76q49 0 71.5 51t23.5 170q-40 -65 -135 -65q-99 0 -164 70.5t-65 192.5q0 124 72.5 196.5t196.5 72.5q155 0 224 -114q53 -87 53 -279q0 -233 -66.5 -333t-212.5 -100q-111 0 -177 56.5t-74 157.5zM404 536q0 61 -23 93t-65 32q-89 0 -89 -125
t89 -125q42 0 65 32t23 93z" />
    <glyph glyph-name="_27" unicode=":" horiz-adv-x="320" 
d="M250 564v-180h-181v180h181zM250 174v-180h-181v180h181z" />
    <glyph glyph-name="_28" unicode=";" horiz-adv-x="320" 
d="M250 564v-180h-181v180h181zM250 174v-180q0 -67 -48 -109.5t-133 -44.5v79q90 3 90 75h-90v180h181z" />
    <glyph glyph-name="_29" unicode="&#x3c;" horiz-adv-x="602" 
d="M46 296v140l511 201v-158l-317 -113l317 -114v-157z" />
    <glyph glyph-name="_30" unicode="=" horiz-adv-x="606" 
d="M38 412v136h530v-136h-530zM38 183v136h530v-136h-530z" />
    <glyph glyph-name="_31" unicode="&#x3e;" horiz-adv-x="602" 
d="M557 436v-140l-511 -201v157l316 114l-316 113v158z" />
    <glyph glyph-name="_32" unicode="?" horiz-adv-x="591" 
d="M367 579q0 39 -19 61t-54 22t-54 -22t-19 -61v-15h-178v15q0 102 65 164.5t186 62.5t186 -62.5t65 -164.5q0 -64 -21 -107t-73 -89q-46 -41 -60 -65.5t-14 -61.5v-35h-177v51q0 62 18.5 100t70.5 82q46 39 62 65t16 60zM200 -6v160h177v-160h-177z" />
    <glyph glyph-name="_33" unicode="@" horiz-adv-x="839" 
d="M420 688q-85 0 -132 -35t-68.5 -120t-21.5 -241q0 -160 24 -246.5t70 -117.5t128 -31q75 0 121 28l41 -109q-71 -37 -167 -37q-88 0 -150.5 22.5t-112 78t-73.5 158t-24 254.5q0 278 84 396t281 118q196 0 280 -118t84 -390q0 -143 -64.5 -219t-185.5 -76
q-115 0 -176 70.5t-61 195.5q0 127 55 194t150 67q102 0 132 -72q-15 125 -63 177.5t-151 52.5zM447 266q0 -74 23 -108t74 -34t74 34t23 108t-23 108.5t-74 34.5t-74 -34.5t-23 -108.5z" />
    <glyph glyph-name="_34" unicode="A" horiz-adv-x="723" 
d="M200 -6h-193l254 798h199l255 -798h-193l-38 140h-246zM277 282h167l-83 309z" />
    <glyph glyph-name="_35" unicode="B" horiz-adv-x="680" 
d="M443 559q0 48 -24.5 69t-75.5 21h-99v-179h99q51 0 75.5 20.5t24.5 68.5zM380 -6h-326v798h313q262 0 262 -218q0 -124 -112 -164q62 -18 98 -66.5t36 -115.5q0 -234 -271 -234zM461 237q0 53 -25 76.5t-79 23.5h-113v-200h113q54 0 79 24t25 76z" />
    <glyph glyph-name="_36" unicode="C" horiz-adv-x="721" 
d="M38 393q0 208 82 310q82 103 246 103q148 0 231.5 -78t88.5 -214h-189q-4 65 -37 101t-94 36q-68 0 -101 -49q-36 -54 -36 -209t36 -209q33 -49 101 -49q61 0 94.5 36t36.5 101h189q-5 -136 -88.5 -214t-231.5 -78q-164 0 -246 103q-82 102 -82 310z" />
    <glyph glyph-name="_37" unicode="D" horiz-adv-x="717" 
d="M359 -6h-305v798h305q94 0 158 -28.5t98.5 -84.5t48.5 -124.5t14 -161.5t-14 -161.5t-48.5 -124.5t-98.5 -84.5t-158 -28.5zM488 393q0 147 -31 198t-108 51h-105v-498h105q77 0 108 51t31 198z" />
    <glyph glyph-name="_38" unicode="E" horiz-adv-x="601" 
d="M54 -6v798h507v-154h-317v-158h276v-154h-276v-178h322v-154h-512z" />
    <glyph glyph-name="_39" unicode="F" horiz-adv-x="579" 
d="M54 -6v798h501v-154h-311v-169h276v-154h-276v-321h-190z" />
    <glyph glyph-name="_40" unicode="G" horiz-adv-x="734" 
d="M38 393q0 413 328 413q147 0 231 -78.5t89 -213.5h-189q-4 65 -37 101t-94 36q-49 0 -77 -20t-44 -77.5t-16 -160.5q0 -149 32.5 -204t107.5 -55q64 0 97.5 40.5t38.5 111.5h-136v134h316v-426h-136l-19 90q-21 -48 -70 -76t-118 -28q-156 0 -230 110.5t-74 302.5z" />
    <glyph glyph-name="_41" unicode="H" horiz-adv-x="696" 
d="M452 -6v332h-208v-332h-190v798h190v-312h208v312h191v-798h-191z" />
    <glyph glyph-name="_42" unicode="I" horiz-adv-x="297" 
d="M244 792v-798h-190v798h190z" />
    <glyph glyph-name="_43" unicode="J" horiz-adv-x="610" 
d="M287 -20q-133 0 -202.5 68.5t-69.5 192.5v17h190q0 -66 20 -95t62 -29t61.5 28.5t19.5 91.5v538h190v-551q0 -124 -69 -192.5t-202 -68.5z" />
    <glyph glyph-name="_44" unicode="K" horiz-adv-x="691" 
d="M668 792l-207 -389l236 -409h-208l-182 332h-63v-332h-190v798h190v-312h63l155 312h206z" />
    <glyph glyph-name="_45" unicode="L" horiz-adv-x="579" 
d="M54 -6v798h190v-644h322v-154h-512z" />
    <glyph glyph-name="_46" unicode="M" horiz-adv-x="935" 
d="M540 -6h-145l-157 414v-414h-184v798h183l231 -606l229 606h184v-798h-184v414z" />
    <glyph glyph-name="_47" unicode="N" horiz-adv-x="707" 
d="M466 -6l-224 475v-475h-188v798h188l224 -475v475h188v-798h-188z" />
    <glyph glyph-name="_48" unicode="O" horiz-adv-x="733" 
d="M694 393q0 -209 -81 -310q-83 -103 -247 -103t-246 103q-82 102 -82 310t82 310q82 103 246 103t247 -103q81 -101 81 -310zM229 393q0 -155 36 -209q33 -49 101 -49t101 49q37 53 37 209t-37 209q-33 49 -101 49t-101 -49q-36 -54 -36 -209z" />
    <glyph glyph-name="_49" unicode="P" horiz-adv-x="674" 
d="M383 269h-139v-275h-190v798h329q129 0 198.5 -68t69.5 -193t-69.5 -193.5t-198.5 -68.5zM244 423h111q106 0 106 108q0 107 -106 107h-111v-215z" />
    <glyph glyph-name="_50" unicode="Q" horiz-adv-x="742" 
d="M730 48l-99 -112l-97 84q-68 -40 -168 -40q-328 0 -328 413t328 413q327 0 327 -413q0 -175 -54 -270zM229 393q0 -104 15.5 -161.5t44 -77.5t77.5 -20q15 0 27 3l-50 41l85 88l54 -45q21 50 21 172q0 101 -15.5 158t-44.5 78.5t-77 21.5q-74 0 -105.5 -53.5
t-31.5 -204.5z" />
    <glyph glyph-name="_51" unicode="R" horiz-adv-x="695" 
d="M455 67l-6 100q-4 58 -26.5 80t-78.5 22h-100v-275h-190v798h336q127 0 194 -64.5t67 -179.5q0 -162 -139 -201q63 -10 91.5 -50t33.5 -119l7 -110q3 -46 17 -74h-192q-10 25 -14 73zM244 423h110q107 0 107 108q0 107 -107 107h-110v-215z" />
    <glyph glyph-name="_52" unicode="S" horiz-adv-x="657" 
d="M628 227q0 -110 -77 -178.5t-216 -68.5q-136 0 -215 67t-79 174v15h190v-17q0 -41 27.5 -65.5t76.5 -24.5t76 24.5t27 65.5q0 39 -25 63t-81 35l-71 14q-224 45 -224 241q0 102 74.5 168t206.5 66q129 0 204.5 -65.5t75.5 -161.5v-13h-189v13q0 36 -24 57t-67 21
q-44 0 -68 -21t-24 -57q0 -38 25.5 -59.5t83.5 -33.5l70 -14q223 -45 223 -245z" />
    <glyph glyph-name="_53" unicode="T" horiz-adv-x="625" 
d="M12 638v154h601v-154h-205v-644h-191v644h-205z" />
    <glyph glyph-name="_54" unicode="U" horiz-adv-x="724" 
d="M362 -20q-155 0 -233.5 82t-78.5 229v501h191v-503q0 -154 121 -154t121 154v503h190v-501q0 -146 -78.5 -228.5t-232.5 -82.5z" />
    <glyph glyph-name="_55" unicode="V" horiz-adv-x="723" 
d="M200 792l161 -598l162 598h192l-254 -798h-200l-253 798h192z" />
    <glyph glyph-name="_56" unicode="W" horiz-adv-x="1095" 
d="M465 792h166l144 -564l118 564h190l-205 -798h-181l-150 576l-148 -576h-182l-205 798h190l117 -564z" />
    <glyph glyph-name="_57" unicode="X" horiz-adv-x="710" 
d="M500 -6l-145 297l-145 -297h-198l218 413l-201 385h198l128 -272l128 272h198l-201 -385l218 -413h-198z" />
    <glyph glyph-name="_58" unicode="Y" horiz-adv-x="709" 
d="M355 468l147 324h195l-247 -483v-315h-190v315l-248 483h195z" />
    <glyph glyph-name="_59" unicode="Z" horiz-adv-x="617" 
d="M31 137l319 501h-307v154h537v-143l-319 -501h325v-154h-555v143z" />
    <glyph glyph-name="_60" unicode="[" horiz-adv-x="394" 
d="M62 -112v999h300v-137h-123v-727h123v-135h-300z" />
    <glyph glyph-name="_61" unicode="\" 
d="M398 792l-72 -358h-71l-54 358h-190l77 -358h-81v-74h97l79 -366h182l74 366h83l75 -366h181l79 366h89v74h-73l77 358h-190l-54 -358h-71l-71 358h-166zM650 360h44l-19 -127zM507 434h-53l26 131zM266 360h45l-26 -127z" />
    <glyph glyph-name="_62" unicode="]" horiz-adv-x="395" 
d="M332 887v-999h-300v135h123v727h-123v137h300z" />
    <glyph glyph-name="_63" unicode="^" horiz-adv-x="519" 
d="M189 792h141l174 -278h-167l-78 135l-78 -135h-166z" />
    <glyph glyph-name="_64" unicode="_" horiz-adv-x="570" 
d="M0 -202v82h570v-82h-570z" />
    <glyph glyph-name="_65" unicode="`" horiz-adv-x="425" 
d="M206 643l-141 183h189l106 -183h-154z" />
    <glyph glyph-name="_66" unicode="a" horiz-adv-x="607" 
d="M377 61q-16 -36 -56.5 -58.5t-98.5 -22.5q-86 0 -139 48.5t-53 131.5q0 84 52 132.5t140 48.5q55 0 97 -21t58 -59v112q0 34 -18.5 55t-52.5 21q-65 0 -72 -64h-177q4 88 67.5 140.5t181.5 52.5q119 0 184 -56.5t65 -148.5v-293q0 -56 16 -86h-181q-11 24 -13 67zM293 94
q84 0 84 66q0 67 -84 67q-85 0 -85 -67q0 -66 85 -66z" />
    <glyph glyph-name="_67" unicode="b" horiz-adv-x="623" 
d="M224 81v-87h-178v798h178v-315q15 46 56 73.5t99 27.5q102 0 157 -76t55 -223t-55 -223t-157 -76q-58 0 -99 27.5t-56 73.5zM224 279q0 -90 22.5 -127.5t72.5 -37.5t72.5 38t22.5 127t-22.5 127t-72.5 38t-72.5 -37.5t-22.5 -127.5z" />
    <glyph glyph-name="_68" unicode="c" horiz-adv-x="599" 
d="M32 279q0 141 68 220t206 79q121 0 191 -59t75 -161h-177q-9 86 -89 86q-50 0 -73 -38t-23 -127t23 -127t73 -38q80 0 89 86h177q-5 -102 -75 -161t-191 -59q-138 0 -206 79t-68 220z" />
    <glyph glyph-name="_69" unicode="d" horiz-adv-x="624" 
d="M401 -6v87q-16 -46 -57.5 -73.5t-98.5 -27.5q-102 0 -157.5 76t-55.5 223t55.5 223t157.5 76q57 0 98.5 -27.5t57.5 -73.5v315h177v-798h-177zM401 279q0 89 -22.5 127t-72.5 38t-73 -38t-23 -127t23 -127t73 -38t72.5 38t22.5 127z" />
    <glyph glyph-name="_70" unicode="e" horiz-adv-x="610" 
d="M576 236h-365v-10q0 -60 25 -91t70 -31q69 0 82 65h178q-14 -90 -81.5 -139.5t-178.5 -49.5q-138 0 -206 79.5t-68 219.5t68 219.5t206 79.5q137 0 204.5 -79.5t67.5 -219.5q0 -23 -2 -43zM211 337h187q-3 117 -94 117q-90 0 -93 -117z" />
    <glyph glyph-name="_71" unicode="f" horiz-adv-x="438" 
d="M423 667h-71q-39 0 -54.5 -14t-15.5 -47v-42h141v-133h-141v-437h-177v437h-85v133h85v57q0 94 50 136.5t163 42.5q71 0 105 -6v-127z" />
    <glyph glyph-name="_72" unicode="g" horiz-adv-x="624" 
d="M400 -50v131q-15 -45 -56.5 -73t-98.5 -28q-103 0 -158 75.5t-55 223.5t55 223.5t158 75.5q57 0 98.5 -27.5t56.5 -73.5v87h178v-602q0 -106 -65 -170t-195 -64q-115 0 -179 50t-76 138h179q6 -65 77 -65q81 0 81 99zM400 279q0 89 -22.5 127t-72.5 38t-73 -38t-23 -127
t23 -127.5t73 -38.5t72.5 38t22.5 128z" />
    <glyph glyph-name="_73" unicode="h" horiz-adv-x="609" 
d="M565 358v-364h-178v359q0 91 -70 91q-43 0 -68 -33t-25 -93v-324h-178v798h178v-319q15 48 56 76.5t101 28.5q89 0 136.5 -55.5t47.5 -164.5z" />
    <glyph glyph-name="_74" unicode="i" horiz-adv-x="278" 
d="M50 646v146h177v-146h-177zM50 -6v570h177v-570h-177z" />
    <glyph glyph-name="_75" unicode="j" horiz-adv-x="308" 
d="M80 -42v606h177v-619q0 -200 -214 -200q-41 0 -81 4v129h46q37 0 54.5 19.5t17.5 60.5zM80 646v146h177v-146h-177z" />
    <glyph glyph-name="_76" unicode="k" horiz-adv-x="583" 
d="M46 -6v798h178v-438h40l105 210h185l-147 -274l171 -296h-188l-127 234h-39v-234h-178z" />
    <glyph glyph-name="_77" unicode="l" horiz-adv-x="278" 
d="M227 -6h-177v798h177v-798z" />
    <glyph glyph-name="_78" unicode="m" horiz-adv-x="942" 
d="M383 -6v363q0 87 -68 87q-42 0 -66.5 -33.5t-24.5 -93.5v-323h-178v570h178v-91q15 48 55.5 76.5t99.5 28.5q123 0 163 -106q49 106 172 106q89 0 136.5 -56t47.5 -165v-363h-178v363q0 87 -68 87q-42 0 -66.5 -33.5t-24.5 -93.5v-323h-178z" />
    <glyph glyph-name="_79" unicode="n" horiz-adv-x="609" 
d="M565 358v-364h-178v359q0 91 -70 91q-43 0 -68 -33t-25 -93v-324h-178v570h178v-91q15 48 56 76.5t101 28.5q89 0 136.5 -55.5t47.5 -164.5z" />
    <glyph glyph-name="_80" unicode="o" horiz-adv-x="610" 
d="M210 279q0 -89 23 -127t73 -38t72.5 38t22.5 127t-22.5 127t-72.5 38t-73 -38t-23 -127zM32 279q0 141 68 220t206 79q137 0 204.5 -79t67.5 -220t-67.5 -220t-204.5 -79q-138 0 -206 79t-68 220z" />
    <glyph glyph-name="_81" unicode="p" horiz-adv-x="623" 
d="M224 564v-87q15 46 56 73.5t99 27.5q102 0 157 -76t55 -223t-55 -223t-157 -76q-58 0 -99 27.5t-56 73.5v-336h-178v819h178zM224 279q0 -90 22.5 -127.5t72.5 -37.5t72.5 38t22.5 127t-22.5 127t-72.5 38t-72.5 -37.5t-22.5 -127.5z" />
    <glyph glyph-name="_82" unicode="q" horiz-adv-x="624" 
d="M401 477v87h177v-819h-177v336q-16 -46 -57.5 -73.5t-98.5 -27.5q-102 0 -157.5 76t-55.5 223t55.5 223t157.5 76q57 0 98.5 -27.5t57.5 -73.5zM401 279q0 89 -22.5 127t-72.5 38t-73 -38t-23 -127t23 -127t73 -38t72.5 38t22.5 127z" />
    <glyph glyph-name="_83" unicode="r" horiz-adv-x="422" 
d="M366 430q-68 0 -105 -42t-37 -121v-273h-178v570h178v-111q24 125 145 125q30 0 41 -5l-2 -144q-10 1 -42 1z" />
    <glyph glyph-name="_84" unicode="s" horiz-adv-x="547" 
d="M34 161v7h178v-13q0 -25 17 -39.5t48 -14.5q30 0 47 15t17 38q0 25 -16 39t-53 21l-59 11q-180 35 -180 176q0 79 61 128t170 49q110 0 170 -48t60 -122v-9h-178v11q0 20 -13.5 33t-39.5 13q-25 0 -39 -12.5t-14 -33.5q0 -42 70 -56l59 -12q93 -18 136.5 -60t43.5 -118
q0 -82 -65.5 -133t-177.5 -51q-115 0 -178.5 50.5t-63.5 130.5z" />
    <glyph glyph-name="_85" unicode="t" horiz-adv-x="454" 
d="M280 431v-232q0 -48 18.5 -64t71.5 -16h58v-130q-36 -3 -108 -3q-120 0 -169 42.5t-49 146.5v256h-84v133h84v162h178v-162h148v-133h-148z" />
    <glyph glyph-name="_86" unicode="u" horiz-adv-x="610" 
d="M44 200v364h178v-359q0 -91 70 -91q44 0 69 33t25 93v324h178v-570h-178v91q-16 -48 -57.5 -76.5t-100.5 -28.5q-89 0 -136.5 55.5t-47.5 164.5z" />
    <glyph glyph-name="_87" unicode="v" horiz-adv-x="607" 
d="M396 -6h-186l-198 570h181l111 -378l110 378h181z" />
    <glyph glyph-name="_88" unicode="w" horiz-adv-x="938" 
d="M400 564h137l110 -377l99 377h180l-182 -570h-173l-102 355l-103 -355h-173l-181 570h180l99 -377z" />
    <glyph glyph-name="_89" unicode="x" horiz-adv-x="572" 
d="M381 -6l-95 196l-95 -196h-183l162 293l-150 277h182l84 -181l84 181h183l-151 -277l162 -293h-183z" />
    <glyph glyph-name="_90" unicode="y" horiz-adv-x="607" 
d="M200 -60l19 53l-207 571h182l111 -369l108 369h182l-220 -627q-41 -115 -83.5 -153.5t-131.5 -38.5q-58 0 -79 3v131h43q28 0 45.5 13t30.5 48z" />
    <glyph glyph-name="_91" unicode="z" horiz-adv-x="523" 
d="M249 127h246v-133h-467v122l238 315h-229v133h450v-122z" />
    <glyph glyph-name="_92" unicode="{" horiz-adv-x="423" 
d="M31 319v136h23q68 0 68 80v157q0 102 48.5 148.5t156.5 46.5h65v-137h-23q-69 0 -69 -79v-163q0 -97 -83 -121q83 -24 83 -121v-162q0 -80 69 -80h23v-136h-65q-108 0 -156.5 46.5t-48.5 147.5v157q0 80 -68 80h-23z" />
    <glyph glyph-name="_93" unicode="|" horiz-adv-x="332" 
d="M77 -112v999h178v-999h-178z" />
    <glyph glyph-name="_94" unicode="}" horiz-adv-x="423" 
d="M392 455v-136h-23q-69 0 -69 -80v-157q0 -101 -48 -147.5t-155 -46.5h-66v136h23q68 0 68 80v162q0 97 84 121q-84 24 -84 121v163q0 79 -68 79h-23v137h66q107 0 155 -46.5t48 -148.5v-157q0 -80 69 -80h23z" />
    <glyph glyph-name="_95" unicode="~" horiz-adv-x="600" 
d="M417 262q-41 0 -74.5 15t-58 29.5t-43.5 14.5q-37 0 -37 -49v-3h-157q0 201 136 201q41 0 74 -14.5t57.5 -29t43.5 -14.5q37 0 37 48v3h158q0 -201 -136 -201z" />
    <glyph glyph-name="_208" unicode="&#xa1;" horiz-adv-x="333" 
d="M91 321l-14 -435v-121h178v121l-14 435h-150zM255 564h-178v-160h178v160z" />
    <glyph glyph-name="_214" unicode="&#xa4;" horiz-adv-x="724" 
d="M623 365q0 71 -33 125l98 99l-111 112l-104 -104q-53 25 -111 25q-59 0 -112 -25l-103 104l-112 -112l98 -99q-32 -55 -32 -125t32 -125l-98 -99l112 -112l103 104q53 -25 112 -25q58 0 111 25l104 -104l111 112l-98 99q33 54 33 125zM458 365q0 -48 -27 -76t-69 -28
t-69.5 28t-27.5 76t27.5 76.5t69.5 28.5t69 -28.5t27 -76.5z" />
    <glyph glyph-name="_155" unicode="&#xa7;" 
d="M459 417q50 -11 72 -33t22 -60q0 -54 -38 -80q-62 16 -86.5 36t-24.5 62q0 30 14 50.5t41 24.5zM489 -157q106 0 168 52t62 140q0 100 -76 155q39 25 60.5 65.5t21.5 86.5q0 99 -55 145.5t-174 77.5q-84 21 -84 80q0 27 15.5 42.5t41.5 15.5q24 0 40.5 -16.5t16.5 -41.5
v-19h174v18q0 81 -63 131.5t-168 50.5t-168 -53t-63 -140q0 -103 77 -156q-39 -25 -60 -65.5t-21 -87.5q0 -100 52 -145t170 -76q48 -12 69 -30.5t21 -49.5q0 -27 -15 -42.5t-42 -15.5q-25 0 -41 15.5t-16 42.5v19h-174v-19q0 -80 63 -130t168 -50z" />
    <glyph glyph-name="_107" unicode="&#xa8;" horiz-adv-x="600" 
d="M512 793h-173v-181h173v181zM260 793h-173v-181h173v181z" />
    <glyph glyph-name="_668" unicode="&#xaa;" horiz-adv-x="514" 
d="M297 416q0 -25 9 -43h146q-11 26 -11 59v222q0 68 -47.5 107.5t-135.5 39.5q-85 0 -131.5 -37.5t-51.5 -104.5h145q3 39 38 39q39 0 39 -43v-81q-23 53 -105 53q-63 0 -101 -35.5t-38 -96.5t38 -96.5t101 -35.5q82 0 105 53zM192 495q0 38 52 38q53 0 53 -38
q0 -37 -53 -37q-52 0 -52 37zM38 211h436v105h-436v-105z" />
    <glyph glyph-name="_18155" unicode="&#xad;" horiz-adv-x="462" 
d="M39 292h384v146h-384v-146z" />
    <glyph glyph-name="_18156" unicode="&#xae;" horiz-adv-x="500" 
d="M278 494q2 -22 7 -31h61q-39 -33 -96 -33t-96 33h74v85h26q20 0 22 -25zM148 469q-46 44 -46 122t46 122v-244zM164 726q35 26 86 26q66 0 107 -44t41 -117q0 -68 -37 -113q-3 8 -3 16l-2 33q-2 42 -28 55q32 19 32 60q0 84 -92 84h-104zM228 612v49h27q24 0 24 -25
q0 -24 -24 -24h-27zM250 360q97 0 161.5 65.5t64.5 165.5q0 99 -65 165t-161 66t-161 -66t-65 -165q0 -100 64.5 -165.5t161.5 -65.5z" />
    <glyph glyph-name="_138" unicode="&#xb0;" horiz-adv-x="409" 
d="M375 637q0 73 -47 119t-123 46q-77 0 -124 -46t-47 -119q0 -71 47.5 -117t123.5 -46t123 46t47 117zM151 637q0 27 15 43.5t39 16.5t38.5 -16.5t14.5 -43.5t-14.5 -42.5t-38.5 -15.5t-39 15.5t-15 42.5z" />
    <glyph glyph-name="_130" unicode="&#xb1;" horiz-adv-x="606" 
d="M38 386h184v-182h162v182h184v135h-184v183h-162v-183h-184v-135zM38 31h530v135h-530v-135z" />
    <glyph glyph-name="_843" unicode="&#xb2;" horiz-adv-x="437" 
d="M36 613h140v24q0 44 42 44q19 0 30 -12t11 -32q0 -28 -34 -66l-178 -205v-103h353v118h-166l107 121q33 36 46 66t13 70q0 76 -50.5 120t-131.5 44q-83 0 -132.5 -44.5t-49.5 -119.5v-25z" />
    <glyph glyph-name="_844" unicode="&#xb3;" horiz-adv-x="437" 
d="M218 690q39 0 39 -45q0 -49 -50 -49h-48v-111h49q56 0 56 -58q0 -59 -46 -59q-47 0 -47 56v13h-141v-19q0 -72 49.5 -118t138.5 -46t138.5 45.5t49.5 120.5q0 48 -23 80.5t-65 44.5q74 26 74 109q0 67 -46.5 107.5t-127.5 40.5t-128 -39.5t-47 -103.5v-17h135v6
q0 42 40 42z" />
    <glyph glyph-name="_199" unicode="&#xb4;" horiz-adv-x="426" 
d="M361 827h-190l-106 -184h154z" />
    <glyph glyph-name="_244" unicode="&#xb6;" 
d="M412 793q-109 0 -171 -64.5t-62 -178.5v-7q0 -114 69 -179.5t178 -65.5h30v-455h128v836h51v-836h126v950h-349z" />
    <glyph glyph-name="_18157" unicode="&#xb7;" horiz-adv-x="406" 
d="M294 514h-183v-180h183v180z" />
    <glyph glyph-name="_206" unicode="&#xb8;" horiz-adv-x="423" 
d="M66 -237q56 -41 137 -41q73 0 113 32.5t40 86.5q0 42 -27.5 70t-77.5 34l25 48h-116l-47 -97l20 -24q15 6 42 6q50 0 50 -33q0 -31 -42 -31q-39 0 -76 26z" />
    <glyph glyph-name="_842" unicode="&#xb9;" horiz-adv-x="437" 
d="M319 263v530h-125l-127 -57v-124l108 47v-396h144z" />
    <glyph glyph-name="_675" unicode="&#xba;" horiz-adv-x="514" 
d="M200 582q0 69 12.5 92t44.5 23q30 0 43 -24t13 -91v-1q0 -65 -12 -89.5t-44 -24.5q-33 0 -45 23.5t-12 91.5zM56 581q0 -218 201 -218q200 0 200 218q0 220 -200 220q-201 0 -201 -220zM38 205h436v111h-436v-111z" />
    <glyph glyph-name="_751" unicode="&#xbc;" 
d="M272 263v530h-125l-127 -57v-124l108 47v-396h144zM710 793h-143l-391 -800h143zM650 198l84 145v-145h-84zM932 198h-51v325h-159l-197 -333v-109h209v-88h147v88h51v117z" />
    <glyph glyph-name="_748" unicode="&#xbd;" 
d="M556 343h141v25q0 43 42 43q19 0 29.5 -11.5t10.5 -31.5q0 -29 -33 -66l-179 -206v-103h353v118h-166l108 121q32 37 45 67t13 70q0 76 -50 119.5t-131 43.5q-83 0 -133 -44t-50 -119v-26zM272 263v530h-125l-127 -57v-124l108 47v-396h144zM700 793h-143l-391 -800h143z
" />
    <glyph glyph-name="_752" unicode="&#xbe;" 
d="M665 197l74 134v-134h-74zM930 197h-49v326h-153l-186 -335v-107h197v-87h142v87h49v116zM197 690q15 0 24.5 -12.5t9.5 -33.5q0 -48 -44 -48h-48v-111h49q49 0 49 -59t-40 -59q-18 0 -30 14.5t-12 42.5v13h-137v-19q0 -72 47.5 -118.5t131.5 -46.5q85 0 132.5 45.5
t47.5 120.5q0 48 -22 80.5t-63 44.5q72 28 72 110q0 67 -45 107t-122 40t-122 -40t-45 -103v-17h132v7q0 42 35 42zM606 792l-365 -798h139l366 798h-140z" />
    <glyph glyph-name="_209" unicode="&#xbf;" horiz-adv-x="593" 
d="M371 -7q0 -46 -19 -72t-55 -26q-33 0 -53 22.5t-20 61.5q0 34 16 59.5t61 64.5q53 46 72 83.5t19 98.5v51h-178v-35q0 -37 -14 -62t-60 -65q-51 -45 -72.5 -88t-21.5 -107q0 -103 65 -165t186 -62t186 62t65 165v14h-177zM392 564h-178v-160h178v160z" />
    <glyph glyph-name="_666" unicode="&#xc6;" horiz-adv-x="1048" 
d="M498 -6h514v152h-324v179h277v154h-277v159h318v154h-630l-387 -798h213l66 140h230v-140zM335 282l163 349v-349h-163z" />
    <glyph glyph-name="_667" unicode="&#xd0;" horiz-adv-x="736" 
d="M3 449v-114h68v-341h305q94 0 158.5 28.5t99 84.5t48.5 124t14 162q0 92 -14 160t-48.5 124.5t-99 85.5t-158.5 29h-305v-343h-68zM507 393q0 -146 -31.5 -198.5t-107.5 -52.5h-106v193h105v114h-105v193h106q76 0 107.5 -51.5t31.5 -197.5z" />
    <glyph glyph-name="_131" unicode="&#xd7;" horiz-adv-x="606" 
d="M564 212l-151 152l151 152l-111 110l-150 -151l-149 151l-112 -110l150 -152l-150 -152l112 -109l149 151l150 -151z" />
    <glyph glyph-name="_673" unicode="&#xd8;" horiz-adv-x="734" 
d="M562 829l-32 -58q-72 35 -163 35q-328 0 -328 -413q0 -206 87 -319l-68 -117h113l33 57q70 -34 163 -34q328 0 328 413q0 219 -88 318l68 118h-113zM505 393q0 -104 -16.5 -162t-45 -78t-76.5 -20q-49 0 -80 24l209 361q9 -41 9 -125zM367 651q48 0 78 -24l-207 -361
q-6 31 -9 99q0 115 14.5 177.5t43 85.5t80.5 23z" />
    <glyph glyph-name="_676" unicode="&#xde;" horiz-adv-x="676" 
d="M245 131h139q129 0 198.5 68t69.5 194q0 125 -69.5 193t-198.5 68h-139v138h-191v-798h191v137zM245 285v215h111q106 0 106 -107q0 -108 -106 -108h-111z" />
    <glyph glyph-name="_768" unicode="&#xdf;" horiz-adv-x="665" 
d="M639 195q0 84 -45 134.5t-125 66.5q60 16 95.5 63t35.5 114q0 98 -73.5 165.5t-203.5 67.5q-131 0 -204 -67.5t-73 -172.5v-572h190v563q0 94 86 94q41 0 64 -24.5t23 -64.5q0 -93 -83 -93h-25v-150h20q55 0 89.5 -29t34.5 -76q0 -39 -24.5 -60t-65.5 -21q-48 0 -72 9
v-150q50 -12 104 -12q115 0 183.5 56t68.5 159z" />
    <glyph glyph-name="_757" unicode="&#xe6;" horiz-adv-x="984" 
d="M489 72q48 -92 182 -92q102 0 169.5 49.5t83.5 138.5h-174q-11 -66 -86 -66q-46 0 -68 32.5t-27 100.5h365q2 24 2 44q0 140 -67 219.5t-197 79.5q-126 0 -179 -90q-51 90 -185 90q-111 0 -173 -53t-64 -140h178q1 25 19.5 41.5t49.5 16.5q36 0 55.5 -19.5t19.5 -50.5
v-113q-16 38 -57 59.5t-95 21.5q-89 0 -142 -48.5t-53 -133.5q0 -87 59.5 -133t173.5 -46q154 0 210 92zM569 337q1 57 26 87t69 30q82 0 94 -117h-189zM308 94q-85 0 -85 65q0 66 85 66t85 -66q0 -65 -85 -65z" />
    <glyph glyph-name="_759" unicode="&#xf0;" horiz-adv-x="607" 
d="M299 643q74 -54 87 -134q-18 32 -53.5 50.5t-80.5 18.5q-106 0 -163 -75.5t-57 -223.5q0 -142 67.5 -221t204.5 -79q138 0 204.5 79.5t66.5 223.5q0 170 -36.5 275t-122.5 172l51 35l-42 54l-70 -50q-50 28 -121 52l-87 -108q43 -11 87 -31l-52 -36l41 -55zM399 279
q0 -92 -22 -130.5t-73 -38.5t-73.5 39t-22.5 130q0 90 22.5 128.5t73.5 38.5t73 -38t22 -129z" />
    <glyph glyph-name="_132" unicode="&#xf7;" horiz-adv-x="606" 
d="M38 297h530v136h-530v-136zM386 657h-166v-163h166v163zM220 73h166v163h-166v-163z" />
    <glyph glyph-name="_766" unicode="&#xf8;" horiz-adv-x="608" 
d="M303 578q-134 0 -203 -78.5t-69 -220.5q0 -164 86 -238l-53 -91h96l28 48q54 -18 115 -18q136 0 204 77.5t68 221.5q0 161 -85 237l53 91h-96l-29 -49q-51 20 -115 20zM208 279q0 88 22.5 126.5t72.5 38.5q25 0 43 -9l-132 -229q-6 24 -6 73zM303 112q-27 0 -43 8
l132 229q7 -27 7 -70q0 -90 -22.5 -128.5t-73.5 -38.5z" />
    <glyph glyph-name="_769" unicode="&#xfe;" horiz-adv-x="625" 
d="M224 279q0 90 22 128.5t73 38.5t73.5 -38t22.5 -129q0 -93 -22 -131t-74 -38q-51 0 -73 38.5t-22 130.5zM224 81q15 -45 56 -73t100 -28q102 0 157 75t55 224q0 147 -55 223t-157 76q-58 0 -99.5 -28t-56.5 -73v315h-178v-1047h178v336z" />
    <glyph glyph-name="_758" unicode="&#x111;" horiz-adv-x="641" 
d="M269 630h131v-153q-14 44 -56.5 72.5t-99.5 28.5q-102 0 -157.5 -76t-55.5 -223t55.5 -223t157.5 -76q59 0 100 28t56 73v-87h178v636h62v98h-62v64h-178v-64h-131v-98zM305 110q-52 0 -74 38.5t-22 130.5q0 91 22 129t74 38q51 0 73 -38t22 -129q0 -92 -22 -130.5
t-73 -38.5z" />
    <glyph glyph-name="_669" unicode="&#x126;" horiz-adv-x="733" 
d="M471 -6h190v580h69v114h-69v104h-190v-104h-209v104h-191v-104h-68v-114h68v-580h191v331h209v-331zM262 479v95h209v-95h-209z" />
    <glyph glyph-name="_760" unicode="&#x127;" horiz-adv-x="628" 
d="M371 728h-131v64h-178v-64h-62v-98h62v-636h178v325q0 59 26.5 91.5t69.5 32.5q68 0 68 -88v-361h178v363q0 109 -48 165t-137 56q-59 0 -100.5 -28.5t-56.5 -76.5v157h131v98z" />
    <glyph glyph-name="_761" unicode="&#x131;" horiz-adv-x="279" 
d="M50 -7h178v571h-178v-571z" />
    <glyph glyph-name="_670" unicode="&#x132;" horiz-adv-x="933" 
d="M245 792h-191v-798h191v798zM609 -20q131 0 201.5 67t70.5 187v558h-190v-501q0 -83 -16.5 -120.5t-65.5 -37.5q-82 0 -82 124h-191v-23q0 -120 71 -187t202 -67z" />
    <glyph glyph-name="_762" unicode="&#x133;" horiz-adv-x="591" 
d="M50 646h178v147h-178v-147zM50 -7h178v571h-178v-571zM362 -43q0 -42 -17 -61t-54 -19h-46v-128q25 -4 81 -4q214 0 214 198v621h-178v-607zM362 646h178v147h-178v-147z" />
    <glyph glyph-name="_763" unicode="&#x138;" horiz-adv-x="584" 
d="M47 -7h177v237h39l128 -237h188l-171 297l147 274h-185l-106 -213h-40v213h-177v-571z" />
    <glyph glyph-name="_671" unicode="&#x13f;" horiz-adv-x="581" 
d="M55 -7h513v154h-323v646h-190v-800zM493 501h-159v-156h159v156z" />
    <glyph glyph-name="_764" unicode="&#x140;" horiz-adv-x="450" 
d="M228 -7v800h-178v-800h178zM443 501h-159v-156h159v156z" />
    <glyph glyph-name="_672" unicode="&#x141;" horiz-adv-x="600" 
d="M72 -6h514v152h-323v205l170 92v134l-170 -91v306h-191v-406l-72 -39v-135l72 40v-258z" />
    <glyph glyph-name="_765" unicode="&#x142;" horiz-adv-x="379" 
d="M8 233l92 49v-289h178v382l93 50v127l-93 -49v290h-178v-383l-92 -49v-128z" />
    <glyph glyph-name="_772" unicode="&#x149;" horiz-adv-x="713" 
d="M669 357q0 109 -48 165t-137 56q-59 0 -100.5 -28.5t-57.5 -76.5v91h-177v-571h177v327q0 60 25.5 93t68.5 33q71 0 71 -91v-362h178v364zM163 793h-159v-155h79q0 -33 -19 -49.5t-60 -19.5v-67q77 4 118 40.5t41 95.5v155z" />
    <glyph glyph-name="_678" unicode="&#x14a;" horiz-adv-x="710" 
d="M467 18v-60q0 -40 -17 -57.5t-54 -17.5h-35v-134q24 -4 80 -4q215 0 215 199v849h-188v-474l-236 474h-177v-800h186v473z" />
    <glyph glyph-name="_771" unicode="&#x14b;" horiz-adv-x="612" 
d="M389 -45q0 -41 -17 -59.5t-55 -18.5h-46v-128q27 -4 81 -4q215 0 215 198v414q0 109 -48 165t-138 56q-58 0 -99.5 -28.5t-57.5 -76.5v91h-177v-571h177v327q0 60 25.5 93t68.5 33q71 0 71 -91v-400z" />
    <glyph glyph-name="_674" unicode="&#x152;" horiz-adv-x="1027" 
d="M42 393q0 -94 14 -162t48.5 -124t99 -84.5t158.5 -28.5h627v152h-324v179h277v154h-277v159h318v154h-621q-94 0 -158.5 -29t-99 -85t-48.5 -124t-14 -161zM232 393q0 100 15 155t44 74.5t80 19.5h104v-500h-104q-77 0 -108 52t-31 199z" />
    <glyph glyph-name="_767" unicode="&#x153;" horiz-adv-x="994" 
d="M313 446q51 0 73.5 -38.5t22.5 -128.5q0 -92 -22.5 -130.5t-73.5 -38.5t-73 38.5t-22 130.5q0 90 22 128.5t73 38.5zM680 454q41 0 67.5 -31t26.5 -86h-188q3 117 94 117zM689 -20q102 0 169 48.5t82 139.5h-174q-5 -31 -27 -48.5t-58 -17.5q-46 0 -68.5 32t-27.5 101
h365q1 9 1 44q0 139 -67 219t-195 80q-66 0 -116 -25.5t-77 -69.5q-56 95 -191 95q-130 0 -197 -80t-67 -219q0 -140 67 -219.5t197 -79.5q136 0 191 94q57 -94 193 -94z" />
    <glyph glyph-name="_677" unicode="&#x166;" horiz-adv-x="627" 
d="M218 344v-350h191v350h101v115h-101v179h206v154h-603v-154h206v-179h-101v-115h101z" />
    <glyph glyph-name="_770" unicode="&#x167;" horiz-adv-x="456" 
d="M34 341v-98h68v-69q0 -104 49.5 -146.5t169.5 -42.5q71 0 108 3v130h-58q-53 0 -71.5 16t-18.5 63v46h116v98h-116v90h148v133h-148v162h-179v-162h-83v-133h83v-90h-68z" />
    <glyph glyph-name="_8275" unicode="&#x2bc;" horiz-adv-x="480" 
d="M90 798q0 56 57 56q30 0 43 -13.5t13 -42.5q0 -146 -140 -174l-13 30q77 23 96 87q-56 0 -56 57z" />
    <glyph glyph-name="_201" unicode="&#x2c7;" horiz-adv-x="455" 
d="M287 827l-60 -80l-60 80h-146l136 -185h140l135 185h-145z" />
    <glyph glyph-name="_18158" unicode="&#x2d0;" horiz-adv-x="500" 
d="M252 431l150 228h-304zM98 37h304l-150 227z" />
    <glyph glyph-name="_202" unicode="&#x2d8;" horiz-adv-x="447" 
d="M223 642q84 0 136.5 46t53.5 129h-135q0 -65 -55 -65q-54 0 -55 65h-135q1 -83 53 -129t137 -46z" />
    <glyph glyph-name="_205" unicode="&#x2d9;" horiz-adv-x="391" 
d="M275 810h-159v-157h159v157z" />
    <glyph glyph-name="_204" unicode="&#x2da;" horiz-adv-x="415" 
d="M337 734q0 56 -36.5 89t-93.5 33q-58 0 -94 -32.5t-36 -89.5q0 -56 36.5 -89t93.5 -33t93.5 33t36.5 89zM172 734q0 17 9.5 28t25.5 11t25.5 -10.5t9.5 -28.5q0 -37 -35 -37q-16 0 -25.5 10t-9.5 27z" />
    <glyph glyph-name="_207" unicode="&#x2db;" horiz-adv-x="422" 
d="M160 -7q-42 -22 -66 -56t-24 -73v-7q0 -53 41.5 -83t115.5 -30q85 0 125 42l-46 70q-23 -19 -58 -19q-48 0 -48 42v6q0 25 22 54t63 54h-125z" />
    <glyph glyph-name="_203" unicode="&#x2dd;" horiz-adv-x="479" 
d="M490 827h-182l-117 -191h149zM255 827h-181l-84 -191h147z" />
    <glyph glyph-name="_471" unicode="&#x391;" horiz-adv-x="724" 
d="M198 -6l38 140h247l39 -140h192l-254 798h-199l-255 -798h192zM275 282l85 310l84 -310h-169z" />
    <glyph glyph-name="_472" unicode="&#x392;" horiz-adv-x="682" 
d="M444 559q0 -48 -24.5 -68.5t-75.5 -20.5h-99v178h99q51 0 75.5 -20.5t24.5 -68.5zM381 -7q272 0 272 234q0 68 -36 116t-100 67q114 41 114 164q0 108 -66.5 163.5t-196.5 55.5h-313v-800h326zM463 236q0 -52 -25.5 -75.5t-78.5 -23.5h-114v199h114q53 0 78.5 -23.5
t25.5 -76.5z" />
    <glyph glyph-name="_473" unicode="&#x393;" horiz-adv-x="572" 
d="M55 793v-800h190v646h319v154h-509z" />
    <glyph glyph-name="_474" unicode="&#x394;" horiz-adv-x="724" 
d="M716 -6l-255 798h-199l-255 -798h709zM239 140l123 441l121 -441h-244z" />
    <glyph glyph-name="_475" unicode="&#x395;" horiz-adv-x="604" 
d="M55 -7h513v154h-323v178h277v155h-277v159h318v154h-508v-800z" />
    <glyph glyph-name="_476" unicode="&#x396;" horiz-adv-x="618" 
d="M31 135v-142h555v154h-326l321 503v143h-538v-154h309z" />
    <glyph glyph-name="_477" unicode="&#x397;" horiz-adv-x="699" 
d="M454 -7h191v800h-191v-313h-209v313h-190v-800h190v332h209v-332z" />
    <glyph glyph-name="_478" unicode="&#x398;" horiz-adv-x="734" 
d="M505 393q0 -156 -36 -210q-35 -50 -102 -50q-66 0 -101 50q-37 53 -37 210q0 156 37 209q35 50 101 50q67 0 102 -50q36 -54 36 -209zM695 393q0 212 -81 311q-83 103 -247 103q-163 0 -246 -103q-82 -100 -82 -311q0 -212 82 -312q82 -102 246 -102q165 0 247 102
q81 99 81 312zM275 332h184v121h-184v-121z" />
    <glyph glyph-name="_479" unicode="&#x399;" horiz-adv-x="299" 
d="M245 793h-190v-800h190v800z" />
    <glyph glyph-name="_480" unicode="&#x39a;" horiz-adv-x="693" 
d="M667 793h-203l-156 -313h-63v313h-190v-800h190v332h63l184 -332h206l-236 410z" />
    <glyph glyph-name="_481" unicode="&#x39b;" horiz-adv-x="724" 
d="M716 -6l-255 798h-199l-255 -798h192l163 587l161 -587h193z" />
    <glyph glyph-name="_482" unicode="&#x39c;" horiz-adv-x="938" 
d="M542 -7l158 416v-416h183v800h-183l-230 -608l-231 608h-184v-800h183v416l158 -416h146z" />
    <glyph glyph-name="_483" unicode="&#x39d;" horiz-adv-x="710" 
d="M655 -6v798h-185v-478l-229 478h-187v-798h185v475l230 -475h186z" />
    <glyph glyph-name="_484" unicode="&#x39e;" horiz-adv-x="656" 
d="M40 639h575v154h-575v-154zM35 -7h585v154h-585v-154zM82 325h492v155h-492v-155z" />
    <glyph glyph-name="_485" unicode="&#x39f;" horiz-adv-x="734" 
d="M505 393q0 -156 -36 -210q-35 -50 -102 -50q-66 0 -101 50q-37 53 -37 210q0 156 37 209q35 50 101 50q67 0 102 -50q36 -54 36 -209zM695 393q0 212 -81 311q-83 103 -247 103q-163 0 -246 -103q-82 -100 -82 -311q0 -212 82 -312q82 -102 246 -102q165 0 247 102
q81 99 81 312z" />
    <glyph glyph-name="_486" unicode="&#x3a0;" horiz-adv-x="699" 
d="M454 -7h191v800h-590v-800h190v646h209v-646z" />
    <glyph glyph-name="_487" unicode="&#x3a1;" horiz-adv-x="676" 
d="M384 269q129 0 199 68.5t70 193.5t-70 193.5t-199 68.5h-329v-800h190v276h139zM245 424v215h111q107 0 107 -108q0 -107 -107 -107h-111z" />
    <glyph glyph-name="_488" unicode="&#x3a3;" horiz-adv-x="603" 
d="M39 149v-156h535v154h-315l152 233v49l-151 210h314v154h-535v-156l169 -232z" />
    <glyph glyph-name="_489" unicode="&#x3a4;" horiz-adv-x="627" 
d="M12 639h207v-646h190v646h206v154h-603v-154z" />
    <glyph glyph-name="_490" unicode="&#x3a5;" horiz-adv-x="710" 
d="M355 467l-148 326h-195l248 -485v-315h190v315l248 485h-196z" />
    <glyph glyph-name="_491" unicode="&#x3a6;" horiz-adv-x="886" 
d="M538 792h-190v-114q-150 -10 -235.5 -79t-85.5 -206q0 -138 85.5 -207t235.5 -79v-113h190v113q149 10 234.5 79t85.5 207q0 137 -85.5 206t-234.5 79v114zM212 393q0 132 136 135v-273q-136 6 -136 138zM674 393q0 -132 -136 -138v273q136 -3 136 -135z" />
    <glyph glyph-name="_492" unicode="&#x3a7;" horiz-adv-x="712" 
d="M210 -6l146 295l145 -295h198l-219 412l202 386h-199l-127 -271l-129 271h-198l201 -386l-218 -412h198z" />
    <glyph glyph-name="_493" unicode="&#x3a8;" horiz-adv-x="827" 
d="M505 167q276 37 276 297v328h-186v-328q0 -128 -90 -142v470h-183v-470q-92 15 -92 142v328h-185v-328q0 -260 277 -297v-173h183v173z" />
    <glyph glyph-name="_494" unicode="&#x3a9;" horiz-adv-x="737" 
d="M368 807q-164 0 -247 -103q-81 -101 -81 -276q0 -212 134 -281h-120v-154h284v154q-55 25 -81.5 82.5t-26.5 163.5q0 154 36 209q35 50 102 50t102 -50q36 -53 36 -209q0 -107 -26 -164t-81 -82v-154h284v154h-120q134 69 134 281q0 175 -81 276q-83 103 -248 103z" />
    <glyph glyph-name="_495" unicode="&#x3b1;" horiz-adv-x="654" 
d="M401 279q0 -92 -22 -130.5t-73 -38.5q-52 0 -74 38.5t-22 130.5q0 91 22 129t74 38q51 0 73 -38t22 -129zM401 80q9 -50 42.5 -74t107.5 -24q33 0 87 4v131h-17q-23 0 -33 10t-10 35v402h-177v-87q-15 45 -56.5 73t-99.5 28q-103 0 -158 -76t-55 -223q0 -148 55 -224
t158 -76q58 0 99.5 28t56.5 73z" />
    <glyph glyph-name="_496" unicode="&#x3b2;" horiz-adv-x="639" 
d="M577 580q0 101 -69 164t-196 63q-130 0 -197.5 -65.5t-67.5 -184.5v-812h177v334q32 -100 163 -100q96 0 160 64.5t64 178.5q0 81 -48.5 132.5t-120.5 58.5q63 13 99 58.5t36 108.5zM399 574q0 -94 -87 -94h-28v-134h28q121 0 121 -117q0 -116 -104 -116
q-58 0 -81.5 34.5t-23.5 113.5v281q0 68 20 99.5t68 31.5q41 0 64 -25.5t23 -73.5z" />
    <glyph glyph-name="_497" unicode="&#x3b3;" horiz-adv-x="609" 
d="M393 -255v248l203 571h-183l-109 -383l-111 383h-181l202 -571v-248h179z" />
    <glyph glyph-name="_498" unicode="&#x3b4;" horiz-adv-x="607" 
d="M294 659h236v133h-443v-133l131 -93q-187 -44 -187 -287q0 -142 68 -220.5t204 -78.5q137 0 204 78t67 221q0 178 -107 255zM208 279q0 90 22 128.5t73 38.5t73.5 -38.5t22.5 -128.5q0 -92 -22.5 -130.5t-73.5 -38.5t-73 38.5t-22 130.5z" />
    <glyph glyph-name="_499" unicode="&#x3b5;" horiz-adv-x="560" 
d="M284 343q-30 0 -49.5 15t-19.5 40t17 40t49 15q67 0 67 -57h173v10q0 76 -62 124t-178 48q-114 0 -176.5 -47t-62.5 -120q0 -47 29.5 -81t75.5 -46q-54 -11 -86 -45t-32 -87q0 -77 69 -124.5t187 -47.5t186.5 47.5t68.5 124.5v8l-178 -1q-1 -25 -21 -41t-56 -16
q-37 0 -57.5 17t-20.5 46t21 44.5t59 15.5h82v118h-85z" />
    <glyph glyph-name="_500" unicode="&#x3b6;" horiz-adv-x="518" 
d="M419 106q-118 6 -165.5 36.5t-47.5 95.5q0 124 71.5 225.5t213.5 193.5v136h-403v-132h224q-135 -86 -209 -197.5t-74 -241.5q0 -116 69 -176t213 -66q-17 -74 -61 -155l142 -35q41 56 70 129t29 120q0 33 -16 49t-56 18z" />
    <glyph glyph-name="_501" unicode="&#x3b7;" horiz-adv-x="612" 
d="M567 357q0 109 -48 165t-138 56q-58 0 -99.5 -28.5t-57.5 -76.5v91h-177v-571h177v327q0 60 25.5 93t68.5 33q71 0 71 -91v-610h178v612z" />
    <glyph glyph-name="_502" unicode="&#x3b8;" horiz-adv-x="653" 
d="M615 399q0 221 -69 320.5t-220 99.5t-220 -100t-69 -320q0 -222 69 -321t220 -99t220 98.5t69 321.5zM326 685q58 0 83.5 -47.5t29.5 -174.5h-226q4 127 29.5 174.5t83.5 47.5zM326 111q-58 0 -83.5 47.5t-29.5 174.5h226q-4 -127 -29.5 -174.5t-83.5 -47.5z" />
    <glyph glyph-name="_503" unicode="&#x3b9;" horiz-adv-x="307" 
d="M47 119q0 -77 35 -107t115 -30q33 0 87 4v131h-18q-22 0 -32 10t-10 35v402h-177v-445z" />
    <glyph glyph-name="_504" unicode="&#x3ba;" horiz-adv-x="584" 
d="M47 -7h177v237h39l128 -237h188l-171 297l147 274h-185l-106 -213h-40v213h-177v-571z" />
    <glyph glyph-name="_505" unicode="&#x3bb;" horiz-adv-x="585" 
d="M0 -6h182l111 364l109 -364h182l-227 642q-36 102 -79.5 136t-130.5 34q-57 0 -78 -2v-131h29q38 0 60 -18t39 -69l9 -28z" />
    <glyph glyph-name="_506" unicode="&#x3bc;" horiz-adv-x="614" 
d="M224 564h-178v-819h178v270q15 -35 59 -35q37 0 65.5 28.5t39.5 75.5v-90h178v570h-178v-328q0 -60 -25 -93.5t-68 -33.5q-71 0 -71 91v364z" />
    <glyph glyph-name="_507" unicode="&#x3bd;" horiz-adv-x="609" 
d="M397 -6l199 570h-183l-109 -386l-111 386h-181l199 -570h186z" />
    <glyph glyph-name="_508" unicode="&#x3be;" horiz-adv-x="547" 
d="M342 -18q-17 -72 -61 -157l141 -35q41 56 70.5 129.5t29.5 119.5q0 33 -16.5 49.5t-56.5 17.5q-242 10 -242 147q0 66 41.5 105t104.5 39h50v134h-77q-87 0 -87 78q0 67 58 67q53 0 58 -54h174q-2 83 -60.5 134t-171.5 51t-172 -52t-59 -135q0 -64 39 -107t106 -54
q-84 -25 -133 -83.5t-48 -145.5q1 -113 84.5 -177t227.5 -71z" />
    <glyph glyph-name="_509" unicode="&#x3bf;" horiz-adv-x="607" 
d="M208 279q0 88 22.5 126.5t73.5 38.5t73 -38t22 -127q0 -91 -22 -128.5t-73 -37.5t-73.5 38t-22.5 128zM32 279q0 -144 68.5 -222t203.5 -78t203.5 78t68.5 222q0 143 -68.5 221t-203.5 78t-203.5 -78t-68.5 -221z" />
    <glyph glyph-name="_510" unicode="&#x3c0;" horiz-adv-x="673" 
d="M285 431h102v-438h177v438h85v133h-625v-133h84v-438h177v438z" />
    <glyph glyph-name="_511" unicode="&#x3c1;" horiz-adv-x="618" 
d="M585 279q0 141 -67.5 220t-205.5 79q-137 0 -205 -80t-68 -219v-534h178v336q15 -45 56 -73t99 -28q103 0 158 75t55 224zM312 110q-52 0 -73.5 38.5t-21.5 130.5q0 91 21.5 129t73.5 38q51 0 73 -38t22 -129q0 -93 -22 -131t-73 -38z" />
    <glyph glyph-name="_512" unicode="&#x3c3;" horiz-adv-x="627" 
d="M575 272q0 56 -20 98t-52 60h110v134h-310q-135 0 -203.5 -77t-68.5 -215q0 -139 68.5 -215.5t203.5 -76.5q136 0 204 76.5t68 215.5zM399 272q0 -89 -22.5 -125.5t-73.5 -36.5q-50 0 -72.5 37.5t-22.5 124.5q0 85 22.5 123t72.5 38q51 0 73.5 -37.5t22.5 -123.5z" />
    <glyph glyph-name="_513" unicode="&#x3c4;" horiz-adv-x="536" 
d="M348 431h173v133h-512v-133h161v-292q0 -92 37 -124.5t139 -32.5q47 0 89 4v129h-30q-33 0 -45 11t-12 44v261z" />
    <glyph glyph-name="_514" unicode="&#x3c5;" horiz-adv-x="604" 
d="M302 -21q121 0 190 58t69 168v359h-178v-359q0 -92 -81 -92t-81 92v359h-177v-359q0 -110 69 -168t189 -58z" />
    <glyph glyph-name="_515" unicode="&#x3c6;" horiz-adv-x="809" 
d="M33 272q0 -147 67 -219.5t218 -73.5v-234h173v234q150 1 217.5 74t67.5 219t-67.5 219t-219.5 73h-171v-451q-62 0 -89 31t-27 128q0 71 17.5 103.5t55.5 42.5q-1 6 -13 70.5t-14 70.5q-117 -17 -166 -89.5t-49 -197.5zM606 272q0 -98 -26.5 -128.5t-88.5 -30.5v317
q62 0 88.5 -30t26.5 -128z" />
    <glyph glyph-name="_516" unicode="&#x3c7;" horiz-adv-x="598" 
d="M411 -255h187l-171 421l159 398h-186l-101 -287l-103 287h-184l157 -398l-169 -421h186l113 308z" />
    <glyph glyph-name="_517" unicode="&#x3c8;" horiz-adv-x="780" 
d="M476 -255v239q121 8 190.5 71.5t69.5 169.5v339h-172v-342q0 -48 -22.5 -75.5t-65.5 -30.5v448h-173v-448q-40 2 -63.5 30t-23.5 76v342h-173v-339q0 -106 69.5 -169.5t190.5 -71.5v-239h173z" />
    <glyph glyph-name="_518" unicode="&#x3c9;" horiz-adv-x="867" 
d="M345 452v-193q0 -83 -14.5 -115t-53.5 -32q-34 0 -49 33t-15 114q0 146 59 305h-181q-56 -151 -56 -304q0 -281 221 -281q141 0 177 120q37 -120 177 -120q222 0 222 281q0 154 -57 304h-180q59 -159 59 -305q0 -81 -15 -114t-50 -33q-39 0 -53 32t-14 115v193h-177z" />
    <glyph glyph-name="_1026" unicode="&#x401;" horiz-adv-x="601" 
d="M54 -6h512v154h-322v178h276v154h-276v158h317v154h-507v-798zM275 1031h-158v-157h158v157zM499 1031h-159v-157h159v157z" />
    <glyph glyph-name="_1020" unicode="&#x410;" horiz-adv-x="723" 
d="M200 -6l38 140h246l38 -140h193l-255 798h-199l-254 -798h193zM277 282l84 309l83 -309h-167z" />
    <glyph glyph-name="_1021" unicode="&#x411;" horiz-adv-x="657" 
d="M629 237q0 121 -68.5 182t-197.5 61h-119v158h337v154h-527v-798h309q129 0 197.5 61t68.5 182zM244 326h95q51 0 75.5 -21t24.5 -68t-24.5 -68t-75.5 -21h-95v178z" />
    <glyph glyph-name="_1022" unicode="&#x412;" horiz-adv-x="680" 
d="M443 559q0 -48 -24.5 -68.5t-75.5 -20.5h-99v179h99q51 0 75.5 -21t24.5 -69zM380 -6q271 0 271 234q0 67 -36 115.5t-98 66.5q112 40 112 164q0 218 -262 218h-313v-798h326zM461 237q0 -52 -25 -76t-79 -24h-113v200h113q54 0 79 -23.5t25 -76.5z" />
    <glyph glyph-name="_1023" unicode="&#x413;" horiz-adv-x="571" 
d="M54 792v-798h190v644h318v154h-508z" />
    <glyph glyph-name="_1024" unicode="&#x414;" horiz-adv-x="754" 
d="M739 148h-90v644h-528v-328q0 -185 -31 -316h-78v-291h190v137h346v-137h191v291zM283 148q29 123 29 305v185h147v-490h-176z" />
    <glyph glyph-name="_1025" unicode="&#x415;" horiz-adv-x="601" 
d="M54 -6h512v154h-322v178h276v154h-276v158h317v154h-507v-798z" />
    <glyph glyph-name="_1027" unicode="&#x416;" horiz-adv-x="1045" 
d="M427 792v-313h-57l-137 313h-194l183 -389l-213 -409h196l165 331h57v-331h191v331h57l165 -331h196l-214 409l184 389h-194l-137 -313h-57v313h-191z" />
    <glyph glyph-name="_1028" unicode="&#x417;" horiz-adv-x="650" 
d="M323 -20q132 0 212 66.5t80 182.5q0 74 -40.5 124.5t-108.5 64.5q125 38 125 170q0 93 -69 155.5t-199 62.5t-199 -63t-69 -159v-11h190q0 79 78 79q39 0 59 -21t20 -56q0 -44 -22.5 -64.5t-73.5 -20.5h-96v-154h96q60 0 89 -23.5t29 -78.5q0 -99 -101 -99q-50 0 -76 26
t-26 73v3h-190v-8q0 -116 80.5 -182.5t211.5 -66.5z" />
    <glyph glyph-name="_1029" unicode="&#x418;" horiz-adv-x="707" 
d="M241 792h-188v-798h188l224 475v-475h188v798h-188l-224 -476v476z" />
    <glyph glyph-name="_1030" unicode="&#x419;" horiz-adv-x="707" 
d="M241 792h-188v-798h188l224 475v-475h188v798h-188l-224 -476v476zM353 860q85 0 137 46t53 129h-135q-2 -65 -55 -65q-54 0 -55 65h-135q1 -83 53 -129t137 -46z" />
    <glyph glyph-name="_1031" unicode="&#x41a;" horiz-adv-x="691" 
d="M668 792h-206l-155 -312h-63v312h-190v-798h190v332h63l182 -332h208l-236 409z" />
    <glyph glyph-name="_1032" unicode="&#x41b;" horiz-adv-x="749" 
d="M118 209q0 -40 -16.5 -55t-55.5 -15h-38v-150q33 -3 82 -3q120 0 169 47.5t49 168.5v436h197v-644h190v798h-577v-583z" />
    <glyph glyph-name="_1033" unicode="&#x41c;" horiz-adv-x="935" 
d="M540 -6l157 414v-414h184v798h-184l-229 -606l-231 606h-183v-798h184v414l157 -414h145z" />
    <glyph glyph-name="_1034" unicode="&#x41d;" horiz-adv-x="696" 
d="M452 -6h191v798h-191v-312h-208v312h-190v-798h190v332h208v-332z" />
    <glyph glyph-name="_1035" unicode="&#x41e;" horiz-adv-x="733" 
d="M694 393q0 209 -81 310q-83 103 -247 103t-246 -103q-82 -102 -82 -310t82 -310q82 -103 246 -103t247 103q81 101 81 310zM229 393q0 155 36 209q33 49 101 49t101 -49q37 -53 37 -209t-37 -209q-33 -49 -101 -49t-101 49q-36 54 -36 209z" />
    <glyph glyph-name="_1036" unicode="&#x41f;" horiz-adv-x="696" 
d="M452 -6h191v798h-589v-798h190v644h208v-644z" />
    <glyph glyph-name="_1037" unicode="&#x420;" horiz-adv-x="674" 
d="M383 269q129 0 198.5 68.5t69.5 193.5t-69.5 193t-198.5 68h-329v-798h190v275h139zM244 423v215h111q106 0 106 -107q0 -108 -106 -108h-111z" />
    <glyph glyph-name="_1038" unicode="&#x421;" horiz-adv-x="721" 
d="M38 393q0 -208 82 -310q82 -103 246 -103q148 0 231.5 78t88.5 214h-189q-3 -65 -36.5 -101t-94.5 -36q-68 0 -101 49q-36 54 -36 209t36 209q33 49 101 49q61 0 94 -36t37 -101h189q-5 136 -88.5 214t-231.5 78q-164 0 -246 -103q-82 -102 -82 -310z" />
    <glyph glyph-name="_1039" unicode="&#x422;" horiz-adv-x="625" 
d="M12 638h205v-644h191v644h205v154h-601v-154z" />
    <glyph glyph-name="_1040" unicode="&#x423;" horiz-adv-x="698" 
d="M264 204q-12 -32 -29.5 -44t-49.5 -12h-42v-152q18 -2 63 -2q86 0 133 31.5t82 117.5l269 649h-194l-141 -367l-145 367h-195l256 -572z" />
    <glyph glyph-name="_1041" unicode="&#x424;" horiz-adv-x="884" 
d="M347 259q-66 3 -99 35t-33 99q0 128 132 133v-267zM537 792h-190v-115q-149 -10 -235 -79t-86 -205q0 -137 86 -206t235 -79v-114h190v114q148 10 234 79t86 206q0 136 -86 205t-234 79v115zM537 526q132 -5 132 -133q0 -67 -33 -99t-99 -35v267z" />
    <glyph glyph-name="_1042" unicode="&#x425;" horiz-adv-x="710" 
d="M500 -6h198l-218 413l201 385h-198l-128 -272l-128 272h-198l201 -385l-218 -413h198l145 297z" />
    <glyph glyph-name="_1043" unicode="&#x426;" horiz-adv-x="748" 
d="M542 -143h190v291h-89v644h-191v-644h-208v644h-190v-798h488v-137z" />
    <glyph glyph-name="_1044" unicode="&#x427;" horiz-adv-x="674" 
d="M430 -6h191v798h-191v-330q-34 -42 -110 -42q-44 0 -64 21.5t-20 70.5v280h-191v-291q0 -236 227 -236q45 0 88.5 14t69.5 35v-320z" />
    <glyph glyph-name="_1045" unicode="&#x428;" horiz-adv-x="1066" 
d="M822 148h-194v644h-191v-644h-193v644h-190v-798h958v798h-190v-644z" />
    <glyph glyph-name="_1046" unicode="&#x429;" horiz-adv-x="1118" 
d="M912 -6v-137h190v291h-90v644h-190v-644h-194v644h-191v-644h-193v644h-190v-798h858z" />
    <glyph glyph-name="_1047" unicode="&#x42a;" horiz-adv-x="811" 
d="M784 237q0 121 -68.5 182t-197.5 61h-120v312h-386v-154h196v-644h310q129 0 197.5 61t68.5 182zM398 326h96q99 0 99 -89q0 -47 -24.5 -68t-74.5 -21h-96v178z" />
    <glyph glyph-name="_1048" unicode="&#x42b;" horiz-adv-x="951" 
d="M244 326h95q51 0 75.5 -21t24.5 -68t-24.5 -68t-75.5 -21h-95v178zM629 237q0 121 -68.5 182t-197.5 61h-119v312h-190v-798h309q129 0 197.5 61t68.5 182zM898 792h-190v-798h190v798z" />
    <glyph glyph-name="_1049" unicode="&#x42c;" horiz-adv-x="657" 
d="M244 326h95q51 0 75.5 -21t24.5 -68t-24.5 -68t-75.5 -21h-95v178zM629 237q0 121 -68.5 182t-197.5 61h-119v312h-190v-798h309q129 0 197.5 61t68.5 182z" />
    <glyph glyph-name="_1050" unicode="&#x42d;" horiz-adv-x="721" 
d="M683 393q0 207 -81 310q-83 103 -247 103q-147 0 -231 -78t-89 -214h189q4 65 37 101t94 36q68 0 101 -49q30 -45 35 -132h-210v-154h210q-6 -90 -35 -132q-33 -49 -101 -49q-61 0 -94 36t-37 101h-189q5 -136 89 -214t231 -78q164 0 247 103q81 103 81 310z" />
    <glyph glyph-name="_1051" unicode="&#x42e;" horiz-adv-x="1013" 
d="M975 393q0 207 -81 310q-83 103 -247 103t-247 -103q-65 -83 -78 -233h-78v322h-190v-798h190v322h78q13 -150 78 -233q83 -103 247 -103t247 103q81 103 81 310zM510 393q0 156 37 209q31 49 100 49q68 0 102 -49q35 -53 35 -209q0 -157 -35 -209q-34 -49 -102 -49
q-69 0 -100 49q-37 53 -37 209z" />
    <glyph glyph-name="_1052" unicode="&#x42f;" horiz-adv-x="695" 
d="M246 167q3 57 26 79.5t79 22.5h100v-275h191v798h-337q-126 0 -193 -65t-67 -179q0 -80 35.5 -131t102.5 -70q-63 -10 -91.5 -50t-33.5 -119l-6 -110q-5 -49 -17 -74h191q12 30 14 73zM342 423q-53 0 -80 25.5t-27 82.5q0 56 27 81.5t80 25.5h109v-215h-109z" />
    <glyph glyph-name="_1053" unicode="&#x430;" horiz-adv-x="607" 
d="M377 61q2 -43 13 -67h181q-16 30 -16 86v293q0 92 -65 148.5t-184 56.5q-118 0 -181.5 -52.5t-67.5 -140.5h177q7 64 72 64q34 0 52.5 -21t18.5 -55v-112q-16 38 -58 59t-97 21q-88 0 -140 -48.5t-52 -132.5q0 -83 53 -131.5t139 -48.5q58 0 98.5 22.5t56.5 58.5zM293 94
q-85 0 -85 66q0 67 85 67q84 0 84 -67q0 -66 -84 -66z" />
    <glyph glyph-name="_1054" unicode="&#x431;" horiz-adv-x="615" 
d="M215 477q0 93 24.5 126t104.5 48l167 31l-45 132q-198 -39 -235 -50q-100 -29 -140 -87q-47 -69 -53 -252q-1 -40 -1 -90q0 -177 63.5 -266t209.5 -89q137 0 205 79t68 220q0 148 -55 223.5t-158 75.5q-57 0 -98.5 -27.5t-56.5 -73.5zM215 279q0 89 22.5 127t72.5 38
t73 -38t23 -127t-23 -127.5t-73 -38.5t-72.5 38.5t-22.5 127.5z" />
    <glyph glyph-name="_1055" unicode="&#x432;" horiz-adv-x="573" 
d="M334 -6q213 0 213 168q0 50 -26.5 83t-73.5 44q39 12 61.5 43.5t22.5 74.5q0 157 -206 157h-279v-570h288zM370 172q0 -31 -17 -44.5t-53 -13.5h-76v116h76q36 0 53 -13.5t17 -44.5zM224 340v104h74q30 0 44 -12t14 -40t-14 -40t-44 -12h-74z" />
    <glyph glyph-name="_1056" unicode="&#x433;" horiz-adv-x="465" 
d="M450 431v133h-404v-570h178v437h226z" />
    <glyph glyph-name="_1057" unicode="&#x434;" horiz-adv-x="632" 
d="M618 127h-73v437h-450v-207q0 -134 -22 -230h-64v-258h178v125h254v-125h177v258zM247 127q20 91 20 218v86h106v-304h-126z" />
    <glyph glyph-name="_1058" unicode="&#x435;" horiz-adv-x="610" 
d="M576 236q2 20 2 43q0 140 -67.5 219.5t-204.5 79.5q-138 0 -206 -79.5t-68 -219.5t68 -219.5t206 -79.5q111 0 178.5 49.5t81.5 139.5h-178q-13 -65 -82 -65q-45 0 -70 31t-25 91v10h365zM211 337q3 117 93 117q91 0 94 -117h-187z" />
    <glyph glyph-name="_1060" unicode="&#x436;" horiz-adv-x="873" 
d="M348 564v-207h-43l-89 207h-183l131 -274l-156 -296h185l113 231h42v-231h177v231h42l113 -231h185l-156 296l131 274h-182l-90 -207h-43v207h-177z" />
    <glyph glyph-name="_1061" unicode="&#x437;" horiz-adv-x="563" 
d="M276 221q80 0 80 -56q0 -27 -21 -42t-57 -15q-75 0 -77 54h-178v-8q0 -78 69 -126t186 -48q118 0 187 48t69 126q0 52 -32 86t-86 45q46 12 75.5 45.5t29.5 80.5q0 73 -62.5 120t-176.5 47q-116 0 -178 -47.5t-62 -123.5v-11h175v2q0 51 65 51t65 -51q0 -24 -18.5 -38
t-48.5 -14h-86v-125h82z" />
    <glyph glyph-name="_1062" unicode="&#x438;" horiz-adv-x="588" 
d="M224 564h-178v-570h167l151 307v-307h178v570h-168l-150 -307v307z" />
    <glyph glyph-name="_1063" unicode="&#x439;" horiz-adv-x="588" 
d="M224 564h-178v-570h167l151 307v-307h178v570h-168l-150 -307v307zM294 636q84 0 136.5 46t53.5 128h-135q-1 -64 -55 -64t-55 64h-135q1 -82 53 -128t137 -46z" />
    <glyph glyph-name="_1064" unicode="&#x43a;" horiz-adv-x="583" 
d="M46 -6h178v234h39l127 -234h188l-171 296l147 274h-185l-105 -210h-40v210h-178v-570z" />
    <glyph glyph-name="_1065" unicode="&#x43b;" horiz-adv-x="629" 
d="M583 564h-483v-375q0 -41 -14 -55.5t-48 -14.5h-26v-130q21 -3 61 -3q113 0 159 41t46 145v259h127v-437h178v570z" />
    <glyph glyph-name="_1066" unicode="&#x43c;" horiz-adv-x="736" 
d="M419 -6l101 250v-250h169v570h-161l-160 -400l-160 400h-162v-570h170v250l101 -250h102z" />
    <glyph glyph-name="_1067" unicode="&#x43d;" horiz-adv-x="580" 
d="M534 564h-178v-211h-132v211h-178v-570h178v226h132v-226h178v570z" />
    <glyph glyph-name="_1068" unicode="&#x43e;" horiz-adv-x="610" 
d="M210 279q0 89 23 127t73 38t72.5 -38t22.5 -127t-22.5 -127t-72.5 -38t-73 38t-23 127zM32 279q0 -141 68 -220t206 -79q137 0 204.5 79t67.5 220t-67.5 220t-204.5 79q-138 0 -206 -79t-68 -220z" />
    <glyph glyph-name="_1069" unicode="&#x43f;" horiz-adv-x="580" 
d="M534 564h-488v-570h178v437h132v-437h178v570z" />
    <glyph glyph-name="_1070" unicode="&#x440;" horiz-adv-x="623" 
d="M224 564h-178v-818h178v335q15 -46 56 -73.5t99 -27.5q102 0 157 76t55 223t-55 223t-157 76q-58 0 -99 -27.5t-56 -73.5v87zM224 279q0 90 22.5 127.5t72.5 37.5t72.5 -38t22.5 -127t-22.5 -127t-72.5 -38t-72.5 37.5t-22.5 127.5z" />
    <glyph glyph-name="_1071" unicode="&#x441;" horiz-adv-x="599" 
d="M32 279q0 -141 68 -220t206 -79q121 0 191 59t75 161h-177q-9 -86 -89 -86q-50 0 -73 38t-23 127t23 127t73 38q80 0 89 -86h177q-5 102 -75 161t-191 59q-138 0 -206 -79t-68 -220z" />
    <glyph glyph-name="_1072" unicode="&#x442;" horiz-adv-x="533" 
d="M178 431v-437h178v437h162v133h-503v-133h163z" />
    <glyph glyph-name="_1073" unicode="&#x443;" horiz-adv-x="607" 
d="M200 -60q-12 -35 -30 -48t-46 -13h-43v-130q21 -3 79 -3q90 0 132.5 38t82.5 153l220 627h-182l-108 -369l-111 369h-182l207 -571z" />
    <glyph glyph-name="_1074" unicode="&#x444;" horiz-adv-x="978" 
d="M32 279q0 -147 55.5 -223t157.5 -76q57 0 98.5 27.5t57.5 73.5v-331h177v331q15 -46 56.5 -73.5t99.5 -27.5q102 0 157 76t55 223t-55 223t-157 76q-58 0 -99.5 -27.5t-56.5 -73.5v315h-177v-315q-16 46 -57.5 73.5t-98.5 27.5q-102 0 -157.5 -76t-55.5 -223zM578 279
q0 90 22.5 127.5t73.5 37.5q50 0 72.5 -37.5t22.5 -127.5t-22.5 -127.5t-72.5 -37.5q-51 0 -73.5 37.5t-22.5 127.5zM401 279q0 -89 -22.5 -127t-72.5 -38t-73 38t-23 127t23 127t73 38t72.5 -38t22.5 -127z" />
    <glyph glyph-name="_1075" unicode="&#x445;" horiz-adv-x="572" 
d="M381 -6h183l-162 293l151 277h-183l-84 -181l-84 181h-182l150 -277l-162 -293h183l95 196z" />
    <glyph glyph-name="_1076" unicode="&#x446;" horiz-adv-x="620" 
d="M607 127h-73v437h-178v-437h-132v437h-178v-570h383v-125h178v258z" />
    <glyph glyph-name="_1077" unicode="&#x447;" horiz-adv-x="563" 
d="M339 -6h178v570h-178v-243q-21 -23 -68 -23q-30 0 -43 14.5t-13 47.5v204h-177v-206q0 -100 46.5 -146.5t139.5 -46.5q76 0 115 29v-200z" />
    <glyph glyph-name="_1078" unicode="&#x448;" horiz-adv-x="871" 
d="M825 564h-178v-437h-123v437h-177v-437h-123v437h-178v-570h779v570z" />
    <glyph glyph-name="_1079" unicode="&#x449;" horiz-adv-x="911" 
d="M721 -6v-125h177v258h-73v437h-178v-437h-123v437h-177v-437h-123v437h-178v-570h675z" />
    <glyph glyph-name="_1080" unicode="&#x44a;" horiz-adv-x="681" 
d="M347 564h-332v-134h154v-436h269q105 0 162 48t57 138t-57 138t-162 48h-91v198zM416 240q66 0 66 -60q0 -61 -66 -61h-69v121h69z" />
    <glyph glyph-name="_1081" unicode="&#x44b;" horiz-adv-x="820" 
d="M596 -6h178v570h-178v-570zM224 564h-178v-570h269q106 0 162.5 47.5t56.5 138.5t-56.5 138.5t-162.5 47.5h-91v198zM294 240q65 0 65 -60q0 -61 -65 -61h-70v121h70z" />
    <glyph glyph-name="_1082" unicode="&#x44c;" horiz-adv-x="559" 
d="M224 564h-178v-570h269q106 0 162.5 47.5t56.5 138.5t-56.5 138.5t-162.5 47.5h-91v198zM294 240q65 0 65 -60q0 -61 -65 -61h-70v121h70z" />
    <glyph glyph-name="_1083" unicode="&#x44d;" horiz-adv-x="599" 
d="M293 -20q138 0 206 79t68 220t-68 220t-206 79q-118 0 -186.5 -55.5t-78.5 -150.5h178q13 72 87 72q83 0 93 -100h-137v-130h137q-10 -100 -93 -100q-74 0 -87 72h-178q10 -95 78.5 -150.5t186.5 -55.5z" />
    <glyph glyph-name="_1084" unicode="&#x44e;" horiz-adv-x="849" 
d="M817 279q0 140 -68 219.5t-205 79.5q-120 0 -187 -61t-82 -172h-51v219h-178v-570h178v217h51q15 -109 82 -170t187 -61q137 0 205 79t68 220zM639 279q0 -89 -22.5 -127.5t-72.5 -38.5t-72.5 38t-22.5 128q0 89 22.5 127t72.5 38t72.5 -38t22.5 -127z" />
    <glyph glyph-name="_1085" unicode="&#x44f;" horiz-adv-x="577" 
d="M226 118q2 33 17 47.5t47 14.5h63v-186h177v570h-270q-109 0 -165 -43t-56 -126q0 -58 28.5 -95.5t76.5 -51.5q-47 -9 -69 -38.5t-25 -83.5l-5 -80q-1 -19 -8 -52h177q7 21 8 50zM217 371q0 65 66 65h70v-130h-70q-66 0 -66 65z" />
    <glyph glyph-name="_1059" unicode="&#x451;" horiz-adv-x="610" 
d="M576 236q2 20 2 43q0 140 -67.5 219.5t-204.5 79.5q-138 0 -206 -79.5t-68 -219.5t68 -219.5t206 -79.5q111 0 178.5 49.5t81.5 139.5h-178q-13 -65 -82 -65q-45 0 -70 31t-25 91v10h365zM211 337q3 117 93 117q91 0 94 -117h-187zM272 804h-158v-157h158v157zM496 804
h-158v-157h158v157z" />
    <glyph glyph-name="_18159" unicode="&#x2015;" 
d="M39 438v-146h882v146h-882z" />
    <glyph glyph-name="_114" unicode="&#x2018;" horiz-adv-x="297" 
d="M58 545h183v180h-92q0 75 92 76v78q-87 -2 -135 -44t-48 -110v-180z" />
    <glyph glyph-name="_115" unicode="&#x2019;" horiz-adv-x="297" 
d="M240 879h-184v-180h91q0 -74 -91 -75v-79q87 2 135.5 44t48.5 110v180z" />
    <glyph glyph-name="_8238" unicode="&#x201b;" horiz-adv-x="480" 
d="M226 798q0 -57 -56 -57q19 -64 96 -87l-13 -30q-140 28 -140 174q0 29 13 42.5t43 13.5q57 0 57 -56z" />
    <glyph glyph-name="_116" unicode="&#x201c;" horiz-adv-x="540" 
d="M56 545h184v180h-93q0 73 93 76v78q-88 -2 -136 -44t-48 -110v-180zM300 545h183v180h-91q0 73 91 76v78q-87 -2 -135 -44t-48 -110v-180z" />
    <glyph glyph-name="_117" unicode="&#x201d;" horiz-adv-x="540" 
d="M240 879h-184v-180h91q0 -74 -91 -75v-79q87 2 135.5 44t48.5 110v180zM483 879h-183v-180h92q0 -74 -92 -75v-79q87 2 135 44t48 110v180z" />
    <glyph glyph-name="_8237" unicode="&#x201f;" horiz-adv-x="480" 
d="M229 798q0 -57 -56 -57q19 -64 96 -87l-13 -30q-140 28 -140 174q0 29 13 42.5t43 13.5q57 0 57 -56zM379 798q0 -57 -56 -57q19 -64 96 -87l-13 -30q-140 28 -140 174q0 29 13 42.5t43 13.5q57 0 57 -56z" />
    <glyph glyph-name="_245" unicode="&#x2020;" 
d="M742 655h-180v192h-166v-192h-179v-134h179v-677h166v677h180v134z" />
    <glyph glyph-name="_246" unicode="&#x2021;" 
d="M217 36h179v-192h166v192h180v132h-180v353h180v134h-180v192h-166v-192h-179v-134h179v-353h-179v-132z" />
    <glyph glyph-name="_8607" unicode="&#x2022;" 
d="M599 391q0 -48 -34.5 -82.5t-83.5 -34.5q-50 0 -85 34.5t-35 82.5t35 82t85 34q49 0 83.5 -34t34.5 -82z" />
    <glyph glyph-name="_8058" unicode="&#x2025;" 
d="M788 514h-177v-180h177v180zM348 514h-177v-180h177v180z" />
    <glyph glyph-name="_106" unicode="&#x2026;" 
d="M566 514h-173v-180h173v180zM262 514h-173v-180h173v180zM870 514h-173v-180h173v180z" />
    <glyph glyph-name="_216" unicode="&#x2030;" horiz-adv-x="1328" 
d="M565 792l-327 -798h129l327 798h-129zM176 590q0 63 10 86t34 23q25 0 34.5 -23t9.5 -86q0 -62 -9.5 -85t-34.5 -23q-24 0 -34 23t-10 85zM43 590q0 -215 178 -215q176 0 176 215q0 216 -178 216q-176 0 -176 -216zM757 196q0 -63 -10 -86t-35 -23q-24 0 -34 23t-10 86
q0 62 10 85t34 23q25 0 35 -23t10 -85zM889 196q0 215 -177 215t-177 -215q0 -216 179 -216q175 0 175 216zM1153 196q0 -63 -10 -86t-34 -23q-25 0 -35 23t-10 86q0 62 10 85t35 23q24 0 34 -23t10 -85zM1285 196q0 215 -177 215t-177 -215q0 -216 179 -216q175 0 175 216z
" />
    <glyph glyph-name="_139" unicode="&#x2032;" horiz-adv-x="273" 
d="M21 525h146l85 268h-175z" />
    <glyph glyph-name="_140" unicode="&#x2033;" horiz-adv-x="495" 
d="M21 525h146l85 268h-175zM243 525h146l86 268h-175z" />
    <glyph glyph-name="_8612" unicode="&#x2039;" 
d="M116 391l728 443v-36l-657 -407l657 -405v-39z" />
    <glyph glyph-name="_8613" unicode="&#x203a;" 
d="M116 834l728 -443l-728 -444v39l658 405l-658 407v36z" />
    <glyph glyph-name="_156" unicode="&#x203b;" 
d="M866 678l-96 97l-289 -290l-290 290l-96 -97l290 -289l-290 -289l96 -96l290 289l289 -289l96 96l-290 289zM584 707q0 45 -30 74.5t-74 29.5q-45 0 -75 -29.5t-30 -74.5q0 -44 30 -74t75 -30q44 0 74 30t30 74zM584 80q0 44 -30 74t-74 30q-45 0 -75 -30t-30 -74
q0 -45 30 -75t75 -30q44 0 74 30t30 75zM273 389q0 45 -30 74.5t-74 29.5q-45 0 -74.5 -29.5t-29.5 -74.5t29.5 -74.5t74.5 -29.5q44 0 74 29.5t30 74.5zM894 389q0 45 -30 74.5t-74 29.5t-74 -29.5t-30 -74.5t30 -74.5t74 -29.5t74 29.5t30 74.5z" />
    <glyph glyph-name="_8763" unicode="&#x203c;" 
d="M349 193h-50l-26 405v208h103v-208zM260 49q0 64 63 64q34 0 49 -15.5t15 -48.5q0 -34 -15 -48.5t-49 -14.5q-33 0 -48 15t-15 48zM661 193h-50l-26 405v208h103v-208zM572 49q0 64 63 64q34 0 49 -15.5t15 -48.5q0 -34 -15 -48.5t-49 -14.5q-33 0 -48 15t-15 48z" />
    <glyph glyph-name="_8599" unicode="&#x2042;" 
d="M360 310l-73 -99l119 10v-64l-119 11l70 -100l-57 -35l-50 113l-50 -112l-58 33l72 101l-123 -11v64l123 -10l-73 100l56 35l53 -113l51 111zM823 310l-72 -99l118 10v-64l-118 11l70 -100l-58 -35l-50 113l-50 -112l-58 33l71 101l-122 -11v64l122 -10l-72 100l56 35
l53 -113l53 111zM602 509l-99 73l8 -119h-62l10 119l-99 -70l-36 57l114 50l-112 50l31 58l102 -71l-10 122h62l-8 -122l100 72l36 -56l-114 -53l111 -51z" />
    <glyph glyph-name="_845" unicode="&#x2074;" horiz-adv-x="437" 
d="M140 468l85 145v-145h-85zM422 468h-52v325h-159l-197 -333v-110h211v-87h145v87h52v118z" />
    <glyph glyph-name="_8239" unicode="&#x207a;" horiz-adv-x="480" 
d="M386 666v-62h-114v-131h-63v131h-115v62h115v131h63v-131h114z" />
    <glyph glyph-name="_8240" unicode="&#x207b;" horiz-adv-x="480" 
d="M94 604v62h292v-62h-292z" />
    <glyph glyph-name="_8248" unicode="&#x207c;" horiz-adv-x="480" 
d="M109 660v60h261v-60h-261zM109 540v60h261v-60h-261z" />
    <glyph glyph-name="_8250" unicode="&#x207d;" horiz-adv-x="480" 
d="M432 402h-51q-81 105 -81 230t81 230h50q-68 -109 -68 -230q0 -124 69 -230z" />
    <glyph glyph-name="_8251" unicode="&#x207e;" horiz-adv-x="480" 
d="M100 402h-51q69 106 69 230q0 121 -68 230h50q81 -105 81 -230t-81 -230z" />
    <glyph glyph-name="_846" unicode="&#x207f;" horiz-adv-x="437" 
d="M35 264h141v237q0 58 48 58q36 0 36 -41v-254h141v281q0 65 -31 97.5t-83 32.5q-43 0 -72.5 -20.5t-38.5 -54.5v64h-141v-400z" />
    <glyph glyph-name="_847" unicode="&#x2081;" horiz-adv-x="437" 
d="M319 -7v530h-125l-127 -57v-124l108 47v-396h144z" />
    <glyph glyph-name="_848" unicode="&#x2082;" horiz-adv-x="437" 
d="M36 343h140v25q0 43 42 43q19 0 30 -11.5t11 -31.5q0 -27 -34 -67l-178 -205v-103h353v118h-166l107 121q33 37 46 67t13 70q0 76 -50.5 119.5t-131.5 43.5q-83 0 -132.5 -44t-49.5 -119v-26z" />
    <glyph glyph-name="_849" unicode="&#x2083;" horiz-adv-x="437" 
d="M218 421q39 0 39 -46q0 -49 -50 -49h-48v-110h49q56 0 56 -59t-46 -59q-47 0 -47 56v14h-141v-20q0 -72 49.5 -118t138.5 -46t138.5 46t49.5 121q0 47 -23 79.5t-65 44.5q74 26 74 109q0 68 -46.5 108t-127.5 40t-128 -39.5t-47 -103.5v-17h135v6q0 43 40 43z" />
    <glyph glyph-name="_850" unicode="&#x2084;" horiz-adv-x="437" 
d="M140 198l85 145v-145h-85zM422 198h-52v325h-159l-197 -333v-110h211v-87h145v87h52v118z" />
    <glyph glyph-name="_18160" unicode="&#x20ac;" horiz-adv-x="735" 
d="M50 417v-51h-47v-81h53q15 -144 95 -224.5t228 -80.5q147 0 231 77t89 213h-189q-2 -65 -35.5 -101t-95.5 -36q-118 0 -134 152h146l14 81h-165v51h173l13 81h-181q16 153 134 153q62 0 95.5 -36t35.5 -101h189q-5 136 -89 214t-231 78q-148 0 -228 -82t-95 -226h-53v-81
h47z" />
    <glyph glyph-name="_141" unicode="&#x2103;" 
d="M342 654q0 67 -45 110.5t-117 43.5t-117.5 -43.5t-45.5 -110.5t45.5 -110.5t117.5 -43.5t117 43.5t45 110.5zM132 654q0 22 13.5 36t34.5 14q20 0 33.5 -14t13.5 -36q0 -23 -13 -36.5t-34 -13.5t-34.5 13.5t-13.5 36.5zM333 393q0 -267 114 -357q72 -57 192 -57
q140 0 217 78t82 213h-186q-5 -137 -113 -137q-48 0 -75 28q-24 26 -33.5 80.5t-9.5 151.5q0 180 43 228q27 31 75 31q107 0 113 -137h186q-5 135 -82 213.5t-217 78.5q-125 0 -200 -67q-106 -96 -106 -347z" />
    <glyph glyph-name="_215" unicode="&#x2109;" 
d="M392 -7h190v321h277v154h-277v171h312v154h-502v-800zM342 654q0 67 -45 110.5t-117 43.5t-117.5 -43.5t-45.5 -110.5t45.5 -110.5t117.5 -43.5t117 43.5t45 110.5zM132 654q0 22 13.5 36t34.5 14q20 0 33.5 -14t13.5 -36q0 -23 -13 -36.5t-34 -13.5t-34.5 13.5
t-13.5 36.5z" />
    <glyph glyph-name="_590" unicode="&#x2113;" horiz-adv-x="620" 
d="M359 -20q96 0 154.5 44.5t78.5 124.5l-165 33q-14 -67 -62 -67q-62 0 -62 90q274 137 274 380v9q0 97 -58.5 154.5t-166.5 57.5t-166 -57.5t-58 -160.5v-290q-61 -19 -116 -31l52 -135q39 9 69 18q14 -80 71.5 -125t154.5 -45zM303 594q0 69 49 69t49 -67v-11
q0 -136 -98 -208v217z" />
    <glyph glyph-name="_258" unicode="&#x2116;" horiz-adv-x="1056" 
d="M406 -6h161v798h-179v-446l-174 446h-160v-798h179v446zM624 -6h392v115h-392v-115zM1021 379q0 118 -48.5 175.5t-152.5 57.5t-152 -57.5t-48 -175.5t48 -175.5t152 -57.5q105 0 153 57.5t48 175.5zM870 379q0 -69 -10.5 -93.5t-39.5 -24.5t-39.5 24.5t-10.5 93.5
t10.5 93.5t39.5 24.5t39.5 -24.5t10.5 -93.5z" />
    <glyph glyph-name="_263" unicode="&#x2121;" 
d="M749 235q1 13 1 44q0 157 -53 228t-154 71q-102 0 -155 -70.5t-53 -228.5q0 -159 53 -229t155 -70q86 0 138 47.5t63 146.5h-155q-3 -39 -14.5 -56t-32.5 -17q-26 0 -36 28t-14 106h257zM5 638h127v-644h170v644h128v154h-425v-154zM934 -6v798h-157v-798h157zM543 455
q49 0 49 -118h-99q0 118 50 118z" />
    <glyph glyph-name="_260" unicode="&#x2122;" horiz-adv-x="766" 
d="M8 699h89v-288h117v288h89v94h-295v-94zM558 411l59 145v-145h113v382h-104l-98 -244l-97 244h-105v-382h114v145l58 -145h60z" />
    <glyph glyph-name="_643" unicode="&#x2126;" horiz-adv-x="735" 
d="M368 806q-166 0 -248 -102q-80 -100 -80 -276q0 -204 133 -280h-120v-154h284v154q-54 25 -80.5 83t-26.5 162q0 154 36 208q34 50 102 50q69 0 101 -50q36 -54 36 -208q0 -104 -26.5 -162t-80.5 -83v-154h283v154h-119q133 76 133 280q0 176 -80 276q-82 102 -247 102z
" />
    <glyph glyph-name="_142" unicode="&#x212b;" 
d="M126 -7h192l38 142h247l39 -142h192l-238 747q46 43 46 111q0 67 -45 110.5t-117 43.5t-117.5 -43.5t-45.5 -110.5t46 -111zM564 282h-169l85 311zM527 851q0 -22 -13.5 -36t-33.5 -14q-21 0 -34 14t-13 36t13 36t34 14q20 0 33.5 -14t13.5 -36z" />
    <glyph glyph-name="_749" unicode="&#x2153;" 
d="M272 263v530h-125l-127 -57v-124l108 47v-396h144zM700 793h-143l-391 -800h143zM740 421q40 0 40 -46q0 -48 -51 -48h-47v-111h49q56 0 56 -59t-47 -59q-46 0 -46 56v14h-142v-20q0 -71 50 -117.5t138 -46.5q90 0 139.5 46t49.5 121q0 47 -23 79.5t-66 44.5
q75 26 75 109q0 68 -47 108t-128 40t-128 -39.5t-47 -103.5v-17h136v7q0 42 39 42z" />
    <glyph glyph-name="_750" unicode="&#x2154;" 
d="M732 793h-139l-225 -492v80h-157l100 121q57 67 57 136q0 76 -48.5 120t-125.5 44q-78 0 -125.5 -44.5t-47.5 -119.5v-25h137v24q0 44 36 44t36 -44q0 -27 -31 -66l-168 -206v-102h320l-124 -270h139zM759 421q35 0 35 -46q0 -48 -45 -48h-47v-111h49q49 0 49 -59
t-41 -59t-41 56v14h-139v-20q0 -71 48 -117.5t132 -46.5q85 0 132.5 46t47.5 121q0 97 -85 124q34 13 53 42t19 67q0 68 -44.5 108t-122.5 40q-77 0 -122 -39.5t-45 -103.5v-17h132v7q0 42 35 42z" />
    <glyph glyph-name="_753" unicode="&#x215b;" 
d="M272 263v530h-125l-127 -57v-124l108 47v-396h144zM700 793h-143l-391 -800h143zM741 420q46 0 46 -48q0 -22 -12 -35t-34 -13t-34 13t-12 35q0 23 12 35.5t34 12.5zM741 220q51 0 51 -63q0 -64 -51 -64t-51 64q0 63 51 63zM741 -17q88 0 141.5 44.5t53.5 119.5
q0 93 -87 129q35 14 54.5 44t19.5 69q0 63 -48.5 102.5t-133.5 39.5q-84 0 -132.5 -39.5t-48.5 -102.5q0 -83 74 -113q-88 -36 -88 -129q0 -75 53.5 -119.5t141.5 -44.5z" />
    <glyph glyph-name="_754" unicode="&#x215c;" 
d="M755 -16q83 0 134 44.5t51 118.5q0 91 -83 128q32 15 51 45.5t19 68.5q0 62 -46 102t-126 40q-81 0 -127 -40t-46 -102q0 -38 19 -68.5t52 -45.5q-84 -36 -84 -128q0 -75 51 -119t135 -44zM755 324q-41 0 -41 47q0 23 11 36t30 13q40 0 40 -49q0 -47 -40 -47zM800 156
q0 -63 -45 -63q-46 0 -46 63t46 63q45 0 45 -63zM194 690q15 0 24.5 -12.5t9.5 -33.5q0 -48 -44 -48h-48v-111h49q49 0 49 -59t-40 -59q-18 0 -30 14.5t-12 42.5v13h-138v-19q0 -72 48 -118.5t132 -46.5q85 0 132.5 45.5t47.5 120.5q0 48 -22.5 80.5t-62.5 44.5
q71 28 71 110q0 67 -44.5 107t-121.5 40t-122 -40t-45 -103v-17h132v7q0 42 35 42zM586 792l-365 -798h139l365 798h-139z" />
    <glyph glyph-name="_755" unicode="&#x215d;" 
d="M18 416q5 -75 50.5 -118t127.5 -43q86 0 131 48.5t45 137.5q0 83 -36.5 129t-100.5 46q-43 0 -65 -24l5 83h174v118h-302l-13 -306h130q7 28 33 28q38 0 38 -73t-39 -73q-36 0 -39 47h-139zM755 420q41 0 41 -48q0 -22 -11 -35t-30 -13q-40 0 -40 48t40 48zM755 220
q45 0 45 -63q0 -64 -45 -64t-45 64q0 63 45 63zM755 -17q84 0 134.5 44.5t50.5 119.5q0 92 -83 129q32 14 51.5 45t19.5 68q0 63 -46 102.5t-127 39.5t-127 -39.5t-46 -102.5q0 -37 19.5 -68t51.5 -45q-84 -37 -84 -129q0 -75 51 -119.5t135 -44.5zM726 793h-139l-366 -800
h139z" />
    <glyph glyph-name="_756" unicode="&#x215e;" 
d="M706 793h-143l-390 -800h143zM745 420q46 0 46 -48q0 -22 -12 -35t-34 -13t-34 13t-12 35q0 23 12 35.5t34 12.5zM745 220q51 0 51 -63q0 -64 -51 -64t-51 64q0 63 51 63zM745 -17q88 0 141 44.5t53 119.5q0 93 -86 129q34 14 53.5 44t19.5 69q0 63 -48.5 102.5
t-132.5 39.5t-132.5 -39.5t-48.5 -102.5q0 -83 74 -113q-88 -36 -88 -129q0 -75 53.5 -119.5t141.5 -44.5zM23 674h215l-159 -411h151l160 429v101h-367v-119z" />
    <glyph glyph-name="_461" unicode="&#x2160;" 
d="M635 -7v152h-61v495h61v153h-311v-153h61v-495h-61v-152h311z" />
    <glyph glyph-name="_462" unicode="&#x2161;" 
d="M458 -7v149h-52v502h52v149h-281v-149h52v-502h-52v-149h281zM782 -7v149h-51v502h51v149h-280v-149h52v-502h-52v-149h280z" />
    <glyph glyph-name="_463" unicode="&#x2162;" 
d="M333 -7v148h-42v504h42v148h-248v-148h41v-504h-41v-148h248zM603 -7v148h-42v504h42v148h-248v-148h42v-504h-42v-148h248zM874 -7v148h-41v504h41v148h-248v-148h42v-504h-42v-148h248z" />
    <glyph glyph-name="_464" unicode="&#x2163;" 
d="M629 182l-105 611h-175l167 -800h228l166 800h-175zM337 -7v148h-42v504h42v148h-248v-148h42v-504h-42v-148h248z" />
    <glyph glyph-name="_465" unicode="&#x2164;" 
d="M317 792h-192l255 -798h199l255 798h-193l-161 -584z" />
    <glyph glyph-name="_466" unicode="&#x2165;" 
d="M222 792h-175l166 -798h228l167 798h-175l-105 -610zM868 -6v146h-42v504h42v148h-248v-148h42v-504h-42v-146h248z" />
    <glyph glyph-name="_467" unicode="&#x2166;" 
d="M927 -7v144h-32v512h32v144h-215v-144h32v-512h-32v-144h215zM692 -7v144h-32v512h32v144h-215v-144h32v-512h-32v-144h215zM244 189l-65 604h-158l119 -800h208l119 800h-159z" />
    <glyph glyph-name="_468" unicode="&#x2167;" 
d="M937 -7v142h-20v516h20v142h-177v-142h20v-516h-20v-142h177zM741 -7v142h-23v516h23v142h-181v-142h22v-516h-22v-142h181zM541 -7v142h-21v516h21v142h-178v-142h20v-516h-20v-142h178zM182 177l-29 616h-145l73 -800h202l73 800h-145z" />
    <glyph glyph-name="_469" unicode="&#x2168;" 
d="M327 -7v148h-42v504h42v148h-248v-148h42v-504h-42v-148h248zM911 793h-172l-115 -221l-113 221h-173l200 -391l-210 -409h173l123 240l125 -240h172l-211 409z" />
    <glyph glyph-name="_470" unicode="&#x2169;" 
d="M334 -6l146 295l145 -295h198l-219 412l202 386h-199l-127 -271l-129 271h-199l202 -386l-219 -412h199z" />
    <glyph glyph-name="_451" unicode="&#x2170;" 
d="M390 646h178v147h-178v-147zM390 -7h178v571h-178v-571z" />
    <glyph glyph-name="_452" unicode="&#x2171;" 
d="M254 646h170v147h-170v-147zM254 -7h170v571h-170v-571zM534 646h170v147h-170v-147zM534 -7h170v571h-170v-571z" />
    <glyph glyph-name="_453" unicode="&#x2172;" 
d="M164 646h166v147h-166v-147zM164 -7h166v571h-166v-571zM396 646h166v147h-166v-147zM396 -7h166v571h-166v-571zM629 646h166v147h-166v-147zM629 -7h166v571h-166v-571z" />
    <glyph glyph-name="_454" unicode="&#x2173;" 
d="M160 646h166v146h-166v-146zM160 -6h166v570h-166v-570zM709 -6l176 570h-175l-97 -384l-98 384h-174l176 -570h192z" />
    <glyph glyph-name="_455" unicode="&#x2174;" 
d="M572 -6l199 570h-182l-109 -386l-111 386h-182l200 -570h185z" />
    <glyph glyph-name="_456" unicode="&#x2175;" 
d="M452 -6l176 570h-175l-96 -384l-98 384h-175l177 -570h191zM647 646h166v146h-166v-146zM647 -6h166v570h-166v-570z" />
    <glyph glyph-name="_457" unicode="&#x2176;" 
d="M367 -7l130 571h-169l-60 -383l-61 383h-168l130 -571h198zM713 646h159v147h-159v-147zM713 -7h159v571h-159v-571zM510 646h159v147h-159v-147zM510 -7h159v571h-159v-571z" />
    <glyph glyph-name="_458" unicode="&#x2177;" 
d="M314 -7l87 571h-156l-38 -390l-39 390h-156l88 -571h214zM593 646h148v147h-148v-147zM593 -7h148v571h-148v-571zM411 646h148v147h-148v-147zM411 -7h148v571h-148v-571zM774 646h148v147h-148v-147zM774 -7h148v571h-148v-571z" />
    <glyph glyph-name="_459" unicode="&#x2178;" 
d="M878 -6l-183 297l168 273h-172l-82 -133l-82 133h-173l168 -273l-183 -297h174l96 156l96 -156h173zM160 646h166v146h-166v-146zM160 -6h166v570h-166v-570z" />
    <glyph glyph-name="_460" unicode="&#x2179;" 
d="M574 -6h184l-162 292l151 278h-184l-83 -182l-83 182h-184l151 -278l-163 -292h184l95 195z" />
    <glyph glyph-name="_171" unicode="&#x2190;" 
d="M929 466h-612v132l-288 -226l288 -227v132h612v189z" />
    <glyph glyph-name="_172" unicode="&#x2191;" 
d="M574 -50v610h132l-226 290l-228 -290h133v-610h189z" />
    <glyph glyph-name="_170" unicode="&#x2192;" 
d="M29 277h611v-132l289 227l-289 226v-132h-611v-189z" />
    <glyph glyph-name="_173" unicode="&#x2193;" 
d="M385 850v-612h-133l228 -288l226 288h-132v612h-189z" />
    <glyph glyph-name="_174" unicode="&#x2194;" 
d="M317 598l-288 -226l288 -227v132h324v-132l288 227l-288 226v-132h-324v132z" />
    <glyph glyph-name="_247" unicode="&#x2195;" 
d="M252 238l228 -288l226 288h-132v322h132l-226 290l-228 -290h133v-322h-133z" />
    <glyph glyph-name="_250" unicode="&#x2196;" 
d="M831 133l-431 432l93 93l-365 45l44 -365l94 93l432 -432z" />
    <glyph glyph-name="_248" unicode="&#x2197;" 
d="M262 -1l432 432l94 -93l43 365l-364 -45l93 -93l-432 -432z" />
    <glyph glyph-name="_251" unicode="&#x2198;" 
d="M128 570l432 -432l-93 -94l364 -45l-43 366l-94 -94l-432 432z" />
    <glyph glyph-name="_249" unicode="&#x2199;" 
d="M698 703l-432 -432l-94 94l-44 -366l365 45l-93 94l431 432z" />
    <glyph glyph-name="_8868" unicode="&#x21b0;" 
d="M222 614h647v-689h-25v665h-622v-130l-132 141l132 139v-126z" />
    <glyph glyph-name="_8865" unicode="&#x21b1;" 
d="M95 609h637v125l133 -139l-133 -140v129h-613v-659h-24v684z" />
    <glyph glyph-name="_8864" unicode="&#x21b2;" 
d="M873 145h-655v-126l-132 138l132 141v-126h629v679h26v-706z" />
    <glyph glyph-name="_8869" unicode="&#x21b3;" 
d="M730 153h-634v698h25v-674h609v128l133 -140l-133 -140v128z" />
    <glyph glyph-name="_8867" unicode="&#x21b4;" 
d="M764 710v-652h126l-137 -133l-142 133h127v627h-669v25h695z" />
    <glyph glyph-name="_8884" unicode="&#x21bc;" 
d="M235 518q37 25 76.5 40.5t55.5 18.5t22 3q-6 -3 -20 -11.5t-44 -31t-51 -46.5q-18 -21 -35 -44t-24.5 -35t-8.5 -12h733v-23h-918q19 15 90 60t124 81z" />
    <glyph glyph-name="_8885" unicode="&#x21c0;" 
d="M724 518q55 -38 126 -82.5t89 -58.5h-919v23h733l-7 12q-8 13 -24.5 35.5t-35.5 43.5q-22 24 -50.5 46t-45 32t-20.5 11q6 0 22 -3t56 -18.5t76 -40.5z" />
    <glyph glyph-name="_8896" unicode="&#x21c4;" 
d="M621 663l313 -121l-313 -123l104 93h-682v59h684zM917 269v-60h-683l105 -91l-313 121l313 121l-106 -91h684z" />
    <glyph glyph-name="_8897" unicode="&#x21c5;" 
d="M205 531l122 312l121 -312l-93 103v-679h-59v681zM603 824h59v-679l92 105l-123 -311l-121 311l93 -106v680z" />
    <glyph glyph-name="_8816" unicode="&#x21cd;" 
d="M535 465h-404l-79 -77l80 -78h361zM157 490h385l52 195l24 -7l-50 -188h371v-25h-378l-42 -155h420v-26h-426l-54 -199l-24 6l51 193h-329l137 -140l-17 -15l-256 259l255 257l17 -17z" />
    <glyph glyph-name="_8815" unicode="&#x21cf;" 
d="M801 289h-400l-53 -204l-26 6l53 198h-354v27h362l42 154h-404v25h410l51 190l24 -7l-48 -183h343l-137 139l18 18l257 -261l-258 -257l-18 17zM451 470l-43 -154h417l81 76l-79 78h-376z" />
    <glyph glyph-name="_8814" unicode="&#x21d0;" 
d="M939 284h-782l137 -140l-17 -15l-256 259l255 257l17 -17l-136 -138h782v-25h-808l-79 -77l79 -78h808v-26z" />
    <glyph glyph-name="_8854" unicode="&#x21d1;" 
d="M391 850v-925h-25v848l-301 -361l-24 22zM566 850v-925h27v848l301 -361l24 22z" />
    <glyph glyph-name="_195" unicode="&#x21d2;" 
d="M593 525h-560v-108h681l52 -47l-56 -52h-677v-107h562l-92 -87l75 -79l348 325l-349 315l-74 -78z" />
    <glyph glyph-name="_8855" unicode="&#x21d3;" 
d="M391 846v-923l-350 416l24 22l301 -362v847h25zM566 -77v923h27v-847l301 362l24 -22z" />
    <glyph glyph-name="_196" unicode="&#x21d4;" 
d="M626 525h-292l85 85l-77 74l-322 -314l321 -324l78 75l-87 90h295l-86 -90l78 -75l321 324l-322 314l-77 -74zM225 417h510l47 -47l-51 -52h-503l-50 52z" />
    <glyph glyph-name="_9190" unicode="&#x21e0;" 
d="M224 593v-411l-190 205zM452 381q0 27 -19.5 46.5t-46.5 19.5t-46.5 -19.5t-19.5 -46.5t19.5 -46.5t46.5 -19.5t46.5 19.5t19.5 46.5zM690 381q0 27 -19.5 46.5t-46.5 19.5t-46.5 -19.5t-19.5 -46.5t19.5 -46.5t46.5 -19.5t46.5 19.5t19.5 46.5zM926 381q0 27 -19.5 46.5
t-46.5 19.5t-46.5 -19.5t-19.5 -46.5t19.5 -46.5t46.5 -19.5t46.5 19.5t19.5 46.5z" />
    <glyph glyph-name="_9192" unicode="&#x21e1;" 
d="M273 642h413l-204 191zM486 77q-27 0 -46.5 -19.5t-19.5 -46.5t19.5 -46.5t46.5 -19.5t46.5 19.5t19.5 46.5t-19.5 46.5t-46.5 19.5zM486 315q-27 0 -46.5 -19.5t-19.5 -46.5t19.5 -46.5t46.5 -19.5t46.5 19.5t19.5 46.5t-19.5 46.5t-46.5 19.5zM486 551
q-27 0 -46.5 -19.5t-19.5 -46.5t19.5 -46.5t46.5 -19.5t46.5 19.5t19.5 46.5t-19.5 46.5t-46.5 19.5z" />
    <glyph glyph-name="_9191" unicode="&#x21e2;" 
d="M737 594v-411l190 205zM164 381q0 27 -19.5 46.5t-46.5 19.5t-46.5 -19.5t-19.5 -46.5t19.5 -46.5t46.5 -19.5t46.5 19.5t19.5 46.5zM402 381q0 27 -19.5 46.5t-46.5 19.5t-46.5 -19.5t-19.5 -46.5t19.5 -46.5t46.5 -19.5t46.5 19.5t19.5 46.5zM638 381q0 27 -19.5 46.5
t-46.5 19.5t-46.5 -19.5t-19.5 -46.5t19.5 -46.5t46.5 -19.5t46.5 19.5t19.5 46.5z" />
    <glyph glyph-name="_9193" unicode="&#x21e3;" 
d="M273 134h413l-204 -191zM486 357q-27 0 -46.5 -19.5t-19.5 -46.5t19.5 -46.5t46.5 -19.5t46.5 19.5t19.5 46.5t-19.5 46.5t-46.5 19.5zM486 595q-27 0 -46.5 -19.5t-19.5 -46.5t19.5 -46.5t46.5 -19.5t46.5 19.5t19.5 46.5t-19.5 46.5t-46.5 19.5zM486 831
q-27 0 -46.5 -19.5t-19.5 -46.5t19.5 -46.5t46.5 -19.5t46.5 19.5t19.5 46.5t-19.5 46.5t-46.5 19.5z" />
    <glyph glyph-name="_9198" unicode="&#x21e6;" 
d="M897 247v279h-513v168l-309 -307l309 -309v169h513zM925 554v-334h-515v-209l-376 377l376 375v-209h515z" />
    <glyph glyph-name="_9200" unicode="&#x21e7;" 
d="M621 -28h-281v510h-169l310 310l310 -309h-170v-511zM312 -56h336v513h209l-376 376l-378 -377h209v-512z" />
    <glyph glyph-name="_9199" unicode="&#x21e8;" 
d="M62 247v279h513v168l309 -307l-309 -309v169h-513zM34 554v-334h515v-209l376 377l-376 375v-209h-515z" />
    <glyph glyph-name="_9201" unicode="&#x21e9;" 
d="M621 804h-281v-510h-169l310 -310l310 309h-170v511zM312 832h336v-513h209l-376 -376l-378 377h209v512z" />
    <glyph glyph-name="_197" unicode="&#x2200;" 
d="M642 792l-38 -141h-248l-38 141h-193l255 -798h199l255 798h-192zM564 503l-84 -310l-84 310h168z" />
    <glyph glyph-name="_151" unicode="&#x2202;" 
d="M427 592q16 73 79 73q39 0 57 -36.5t18 -116.5q0 -28 -3 -61q-14 29 -47.5 45t-78.5 16q-109 0 -181.5 -75.5t-72.5 -208.5q0 -117 64 -183t178 -66q174 0 247.5 127.5t73.5 388.5q0 155 -57 233.5t-185 78.5q-108 0 -178 -56.5t-97 -158.5h183zM460 123q-78 0 -78 98
q0 70 25.5 108.5t74.5 38.5q78 0 78 -100q0 -69 -26 -107t-74 -38z" />
    <glyph glyph-name="_198" unicode="&#x2203;" 
d="M727 793h-514v-154h323v-179h-276v-154h276v-159h-317v-154h508v800z" />
    <glyph glyph-name="_8715" unicode="&#x2206;" 
d="M153 50l308 651q9 22 23 22q10 0 21 -21l298 -638q10 -22 12 -37q0 -16 -33 -16h-609q-28 0 -28 14q0 7 8 25zM704 81l-247 526l-249 -526h496z" />
    <glyph glyph-name="_152" unicode="&#x2207;" 
d="M125 792l255 -798h199l255 798h-709zM357 645h244l-121 -441z" />
    <glyph glyph-name="_184" unicode="&#x2208;" 
d="M277 465q39 102 221 102h351v155h-354q-188 0 -297 -84.5t-109 -249.5t109 -249.5t297 -84.5h354v154h-351q-183 0 -221 103h572v154h-572z" />
    <glyph glyph-name="_8749" unicode="&#x2209;" 
d="M451 148l-27 -97l-33 11l24 88q-102 13 -171.5 82t-69.5 159q0 99 82 171t198 72h95l33 118l35 -12l-30 -106h198v-37h-208l-52 -185h260v-37h-271l-53 -190h324v-37h-331h-3zM216 412h272l51 185h-85q-89 0 -158.5 -53.5t-79.5 -131.5zM425 186l52 189h-261
q7 -74 67 -127t142 -62z" />
    <glyph glyph-name="_185" unicode="&#x220b;" 
d="M109 465v-154h573q-39 -103 -221 -103h-352v-154h355q188 0 296.5 84t108.5 250t-108.5 250t-296.5 84h-355v-155h352q182 0 221 -102h-573z" />
    <glyph glyph-name="_8750" unicode="&#x220c;" 
d="M409 148l-27 -97l-33 11l24 86h-199v37h209l52 190h-261v37h272l51 185h-323v37h331h2l33 118l35 -12l-31 -109q102 -13 171.5 -81.5t69.5 -158.5q0 -99 -82 -171t-198 -72h-96zM419 185h86q90 0 160.5 55t77.5 135h-271zM534 595l-51 -183h259q-9 71 -68.5 122.5
t-139.5 60.5z" />
    <glyph glyph-name="_213" unicode="&#x220f;" 
d="M585 -84h190v877h-590v-877h191v723h209v-723z" />
    <glyph glyph-name="_212" unicode="&#x2211;" 
d="M200 69v-153h559v154h-343l152 256v44l-152 269h343v154h-559v-155l168 -288z" />
    <glyph glyph-name="_8726" unicode="&#x2213;" 
d="M155 705v35h650v-35h-650zM155 335v36h305v256h37v-256h308v-36h-308v-246h-37v246h-305z" />
    <glyph glyph-name="_178" unicode="&#x221a;" 
d="M641 708h286v142h-432l-204 -756l-84 201h-195l200 -428h194z" />
    <glyph glyph-name="_180" unicode="&#x221d;" 
d="M392 371q-41 -53 -88 -53q-25 0 -41 14t-16 39t16 39t41 14q47 0 88 -53zM707 336q-23 -18 -51 -18q-48 0 -89 53q41 53 89 53q26 0 49 -16l77 118q-45 25 -107 25q-116 0 -195 -97q-78 96 -196 96q-88 0 -140.5 -48.5t-52.5 -130.5q0 -83 52.5 -131t140.5 -48
q119 0 196 96q77 -96 195 -96q75 0 125 36z" />
    <glyph glyph-name="_136" unicode="&#x221e;" 
d="M392 371q-41 -53 -88 -53q-25 0 -41 14t-16 39t16 39t41 14q47 0 88 -53zM480 288q77 -96 195 -96q88 0 141 48t53 131q0 82 -53 130.5t-141 48.5q-117 0 -195 -96q-78 96 -196 96q-88 0 -140.5 -48.5t-52.5 -130.5q0 -83 52.5 -131t140.5 -48q119 0 196 96zM567 371
q41 53 89 53q25 0 40.5 -14t15.5 -39t-15.5 -39t-40.5 -14q-48 0 -89 53z" />
    <glyph glyph-name="_8717" unicode="&#x221f;" 
d="M187 123v573h36v-536h549v-37h-585z" />
    <glyph glyph-name="_148" unicode="&#x2220;" 
d="M813 645l-109 100l-609 -591v-110h769v134h-542z" />
    <glyph glyph-name="_8738" unicode="&#x2222;" 
d="M192 408l417 163q-37 64 -107 94v40q97 -39 142 -120l131 51l12 -34l-128 -50q27 -67 27 -161q0 -87 -23 -152l124 -43l-13 -35l-126 44q-45 -88 -146 -128v40q73 31 110 100l-419 148q-20 8 -20.5 21.5t19.5 21.5zM649 391q0 86 -25 148l-387 -150l390 -137
q22 59 22 139z" />
    <glyph glyph-name="_8719" unicode="&#x2225;" 
d="M301 -155h147v1003h-147v-1003zM512 -155h146v1003h-146v-1003z" />
    <glyph glyph-name="_8720" unicode="&#x2226;" 
d="M411 491l-145 238l32 19l135 -222l127 220l31 -21l-138 -232l88 -147l235 397l32 -21l-246 -411l147 -246l-27 -21l-140 233l-145 -234l-30 20l153 248l-88 147l-252 -412l-29 21z" />
    <glyph glyph-name="_192" unicode="&#x2227;" 
d="M90 47l148 -58l241 544l244 -544l147 58l-341 732h-98z" />
    <glyph glyph-name="_193" unicode="&#x2228;" 
d="M431 -12h98l341 732l-147 58l-244 -545l-241 545l-148 -58z" />
    <glyph glyph-name="_191" unicode="&#x2229;" 
d="M480 632q163 0 163 -259v-364h171v367q0 184 -85 288.5t-249 104.5q-165 0 -250 -104t-85 -289v-367h172v364q0 259 163 259z" />
    <glyph glyph-name="_190" unicode="&#x222a;" 
d="M480 126q-163 0 -163 259v364h-172v-367q0 -185 85 -289t250 -104q164 0 249 104.5t85 288.5v367h-171v-364q0 -259 -163 -259z" />
    <glyph glyph-name="_182" unicode="&#x222b;" 
d="M709 749v128q-42 6 -104 6q-114 0 -164 -43t-50 -137v-639q0 -34 -15.5 -48t-55.5 -14h-70v-127q35 -5 103 -5q114 0 164.5 42.5t50.5 136.5v640q0 33 15.5 46.5t54.5 13.5h71z" />
    <glyph glyph-name="_183" unicode="&#x222c;" 
d="M525 749v128q-40 6 -97 6q-114 0 -164 -43t-50 -137v-639q0 -33 -16 -47.5t-55 -14.5h-64v-127q34 -5 97 -5q114 0 164 42.5t50 136.5v640q0 33 15.5 46.5t54.5 13.5h65zM880 749v128q-41 6 -97 6q-112 0 -163.5 -43t-51.5 -137v-639q0 -34 -15.5 -48t-55.5 -14h-63v-127
q34 -5 97 -5q112 0 163 42.5t51 136.5v640q0 33 15.5 46.5t54.5 13.5h65z" />
    <glyph glyph-name="_211" unicode="&#x222e;" 
d="M236 372q0 -77 43.5 -135t114.5 -82v-91q0 -34 -16.5 -48t-57.5 -14h-70v-128q35 -5 104 -5q113 0 162.5 42.5t49.5 136.5v107q71 24 114.5 82t43.5 135t-43.5 135t-114.5 82v100q0 33 16 47t56 14h71v128q-42 6 -103 6q-114 0 -163 -42.5t-49 -137.5v-115
q-71 -24 -114.5 -82t-43.5 -135zM351 372q0 59 43 94v-187q-43 33 -43 93zM609 372q0 -60 -43 -93v187q43 -35 43 -94z" />
    <glyph glyph-name="_137" unicode="&#x2234;" 
d="M568 724h-177v-180h177v180zM314 254h-173v-180h173v180zM818 254h-173v-180h173v180z" />
    <glyph glyph-name="_181" unicode="&#x2235;" 
d="M568 254h-177v-180h177v180zM314 724h-173v-180h173v180zM818 724h-173v-180h173v180z" />
    <glyph glyph-name="_18161" unicode="&#x223c;" horiz-adv-x="602" 
d="M183 469q-136 0 -136 -200h157v2q2 49 38 49q19 0 43 -14.5t57.5 -29t75.5 -14.5q73 0 104.5 51.5t32.5 148.5h-159v-2q0 -49 -37 -49q-19 0 -43.5 14.5t-58 29t-74.5 14.5z" />
    <glyph glyph-name="_179" unicode="&#x223d;" 
d="M528 323q71 101 128 101q25 0 40.5 -14t15.5 -39t-15.5 -39t-40.5 -14q-26 0 -51 18l-61 -107q58 -37 131 -37q88 0 141 48t53 131q0 82 -53 130.5t-141 48.5q-149 0 -241 -131q-70 -101 -130 -101q-25 0 -41 14t-16 39t16 39t41 14q22 0 47 -15l58 107q-59 34 -125 34
q-88 0 -140.5 -48.5t-52.5 -130.5q0 -83 52.5 -131t140.5 -48q154 0 244 131z" />
    <glyph glyph-name="_8500" unicode="&#x2243;" 
d="M465 470q-26 14 -36 18.5t-35 10.5t-55 6q-86 0 -170 -74l-11 41q30 41 81.5 70.5t108.5 29.5q24 0 47 -5.5t32.5 -9.5t35.5 -18t30 -16q26 -14 36 -18.5t35 -10.5t55 -6q86 0 170 74l11 -41q-30 -41 -81.5 -70.5t-108.5 -29.5q-24 0 -47 5.5t-32.5 9.5t-35.5 18t-30 16z
M170 158v51h631v-51h-631z" />
    <glyph glyph-name="_8499" unicode="&#x2245;" 
d="M465 470q-26 14 -36 18.5t-35 10.5t-55 6q-86 0 -170 -74l-11 41q30 41 81.5 70.5t108.5 29.5q24 0 47 -5.5t32.5 -9.5t35.5 -18t30 -16q26 -14 36 -18.5t35 -10.5t55 -6q86 0 170 74l11 -41q-30 -41 -81.5 -70.5t-108.5 -29.5q-24 0 -47 5.5t-32.5 9.5t-35.5 18t-30 16z
M170 38v51h631v-51h-631zM170 198v51h631v-51h-631z" />
    <glyph glyph-name="_8501" unicode="&#x2248;" 
d="M466 470q-26 14 -36 18.5t-35 10.5t-55 6q-86 0 -170 -74l-11 41q30 41 81.5 70.5t108.5 29.5q24 0 47 -5.5t32.5 -9.5t35.5 -18t30 -16q26 -14 36 -18.5t35 -10.5t55 -6q86 0 170 74l11 -41q-30 -41 -81.5 -70.5t-108.5 -29.5q-24 0 -47 5.5t-32.5 9.5t-35.5 18t-30 16z
M466 170q-26 14 -36 18.5t-35 10.5t-55 6q-86 0 -170 -74l-11 41q30 41 81.5 70.5t108.5 29.5q24 0 47 -5.5t32.5 -9.5t35.5 -18t30 -16q26 -14 36 -18.5t35 -10.5t55 -6q86 0 170 74l11 -41q-30 -41 -81.5 -70.5t-108.5 -29.5q-24 0 -47 5.5t-32.5 9.5t-35.5 18t-30 16z
" />
    <glyph glyph-name="_8739" unicode="&#x2250;" 
d="M131 379v-36h698v36h-698zM131 201v-37h698v37h-698zM481 611q28 0 44.5 -18t16.5 -42t-15.5 -41.5t-43.5 -17.5q-29 0 -45 17.5t-16 41.5t15.5 41.5t43.5 18.5z" />
    <glyph glyph-name="_8723" unicode="&#x2251;" 
d="M821 492v-38h-682v38h682zM821 314v-37h-682v37h682zM478 681q28 0 43.5 -17.5t15.5 -41.5q0 -25 -16 -42.5t-45 -17.5q-28 0 -43.5 17.5t-15.5 41.5q0 25 16 42.5t45 17.5zM478 202q28 0 43.5 -17.5t15.5 -41.5q0 -25 -16 -42.5t-45 -17.5q-28 0 -43.5 18t-15.5 41
q0 25 16 42.5t45 17.5z" />
    <glyph glyph-name="_154" unicode="&#x2252;" horiz-adv-x="606" 
d="M38 396h530v136h-530v-136zM38 198h530v136h-530v-136zM505 151h-177v-181h177v181zM276 759h-177v-180h177v180z" />
    <glyph glyph-name="_8722" unicode="&#x2253;" 
d="M821 492v-38h-682v38h682zM821 314v-37h-682v37h682zM682 681q28 0 43.5 -17.5t15.5 -41.5q0 -25 -16 -42.5t-45 -17.5q-28 0 -43 17.5t-15 41.5q0 25 16 42.5t44 17.5zM286 202q28 0 43 -17.5t15 -41.5q0 -25 -16 -42.5t-44 -17.5q-27 0 -42.5 18t-15.5 41q0 25 16 42.5
t44 17.5z" />
    <glyph glyph-name="_8753" unicode="&#x225a;" 
d="M154 203h651v-35h-651v35zM729 682l-245 -441l-249 448l34 12l215 -378l211 373zM154 86h651v-35h-651v35z" />
    <glyph glyph-name="_133" unicode="&#x2260;" horiz-adv-x="606" 
d="M568 181v136h-242l55 95h187v136h-107l67 114h-109l-67 -114h-314v-136h234l-55 -95h-179v-136h99l-67 -113h109l67 113h322z" />
    <glyph glyph-name="_153" unicode="&#x2261;" horiz-adv-x="606" 
d="M38 494h530v136h-530v-136zM38 297h530v136h-530v-136zM38 100h530v136h-530v-136z" />
    <glyph glyph-name="_8734" unicode="&#x2262;" 
d="M132 532v35h427l70 123l31 -17l-61 -106h228v-35h-249l-72 -125h321v-33h-341l-71 -123h412v-34h-433l-80 -139l-30 16l71 123h-223v35h244l70 122h-314v33h334l72 125h-406z" />
    <glyph glyph-name="_134" unicode="&#x2264;" horiz-adv-x="606" 
d="M559 357l-305 100l305 100v158l-511 -181v-154l511 -181v158zM38 31h530v135h-530v-135z" />
    <glyph glyph-name="_135" unicode="&#x2265;" horiz-adv-x="606" 
d="M559 534l-511 181v-158l306 -100l-306 -100v-158l511 181v154zM568 166h-530v-135h530v135z" />
    <glyph glyph-name="_8724" unicode="&#x2266;" 
d="M187 524l583 228l12 -34l-550 -213l550 -193l-13 -35l-581 204q-20 8 -20.5 21.5t19.5 21.5zM161 208v35h637v-35h-637zM161 75v34h637v-34h-637z" />
    <glyph glyph-name="_8725" unicode="&#x2267;" 
d="M189 752l583 -228q13 -5 18.5 -13t0.5 -16.5t-20 -13.5l-581 -204l-13 35l550 193l-550 213zM798 243v-35h-637v35h637zM798 109v-34h-637v34h637z" />
    <glyph glyph-name="_18162" unicode="&#x226a;" 
d="M354 361l488 -359l78 96l-387 292l386 290l-78 96l-487 -357v-58zM40 361l488 -359l78 96l-387 292l386 290l-78 96l-487 -357v-58z" />
    <glyph glyph-name="_18163" unicode="&#x226b;" 
d="M606 419l-487 357l-78 -96l386 -290l-387 -292l78 -96l488 359v58zM920 419l-487 357l-78 -96l386 -290l-387 -292l78 -96l488 359v58z" />
    <glyph glyph-name="_8745" unicode="&#x226e;" 
d="M623 740l-39 -138l191 94l12 -34l-216 -107l-79 -283l295 -136l-13 -35l-293 133l-51 -183l-33 11l52 187l-256 117q-20 8 -20.5 21.5t19.5 21.5l348 171l48 172zM237 389l222 -102l68 246z" />
    <glyph glyph-name="_8746" unicode="&#x226f;" 
d="M562 740l-57 -202l262 -129q20 -8 19.5 -21.5t-20.5 -21.5l-354 -162l-43 -153l-33 11l34 123l-185 -84l-13 35l211 97l79 285l-290 144l12 34l288 -142l55 198zM722 389l-227 112l-70 -249z" />
    <glyph glyph-name="_8481" unicode="&#x2270;" 
d="M149 506l624 280l16 -55l-498 -221l501 -199l-21 -57zM810 240v-60h-631v60h631zM810 95v-59h-631v59h631zM402 -82l-55 14l225 928l56 -14z" />
    <glyph glyph-name="_8482" unicode="&#x2271;" 
d="M186 786l624 -280l-622 -252l-21 57l501 199l-498 221zM149 180v60h631v-60h-631zM149 36v59h631v-59h-631zM612 -68l-55 -14l-226 928l56 14z" />
    <glyph glyph-name="_8483" unicode="&#x2272;" 
d="M149 506l624 280l16 -55l-498 -221l501 -199l-21 -57zM475 60q-26 14 -36 18.5t-35 10.5t-55 6q-86 0 -170 -74l-11 41q30 41 81.5 70.5t108.5 29.5q24 0 47 -5.5t32.5 -9.5t35.5 -18t30 -16q26 -14 36 -18.5t35 -10.5t55 -6q86 0 170 74l11 -41q-30 -41 -81.5 -70.5
t-108.5 -29.5q-24 0 -47 5.5t-32.5 9.5t-35.5 18t-30 16z" />
    <glyph glyph-name="_8484" unicode="&#x2273;" 
d="M163 731l17 55l623 -280l-621 -252l-22 57l502 199zM463 60q-26 14 -36 18.5t-35 10.5t-55 6q-86 0 -170 -74l-11 41q30 41 81.5 70.5t108.5 29.5q24 0 47 -5.5t32.5 -9.5t35.5 -18t30 -16q26 -14 36 -18.5t35 -10.5t55 -6q86 0 170 74l11 -41q-30 -41 -81.5 -70.5
t-108.5 -29.5q-24 0 -47 5.5t-32.5 9.5t-35.5 18t-30 16z" />
    <glyph glyph-name="_8489" unicode="&#x2276;" 
d="M806 696l-496 -157l496 -157l-16 -56l-636 213l636 213zM154 72l496 157l-496 157l16 56l636 -213l-636 -213z" />
    <glyph glyph-name="_8490" unicode="&#x2277;" 
d="M165 754l631 -215l-632 -214v61l482 153l-481 154v61zM796 15l-632 215l631 214v-60l-481 -154l482 -154v-61z" />
    <glyph glyph-name="_8491" unicode="&#x2279;" 
d="M165 754l631 -215l-632 -214v61l482 153l-481 154v61zM796 15l-632 215l631 214v-60l-481 -154l482 -154v-61zM393 -82l-55 14l225 928l56 -14z" />
    <glyph glyph-name="_8475" unicode="&#x227a;" 
d="M167 388q362 106 598 298l28 -55q-231 -177 -464 -243q233 -67 464 -243l-28 -55q-236 192 -598 298z" />
    <glyph glyph-name="_8476" unicode="&#x227b;" 
d="M793 388q-362 -106 -598 -298l-28 55q231 176 464 243q-233 66 -464 243l28 55q236 -192 598 -298z" />
    <glyph glyph-name="_8479" unicode="&#x2280;" 
d="M519 766v-756h-57v756h57zM167 388q362 106 598 298l28 -55q-231 -177 -464 -243q233 -67 464 -243l-28 -55q-236 192 -598 298z" />
    <glyph glyph-name="_8480" unicode="&#x2281;" 
d="M441 10v756h57v-756h-57zM793 388q-362 -106 -598 -298l-28 55q231 176 464 243q-233 66 -464 243l28 55q236 -192 598 -298z" />
    <glyph glyph-name="_188" unicode="&#x2282;" 
d="M269 389q0 88 54.5 133.5t174.5 45.5h352v154h-355q-189 0 -297 -84t-108 -249q0 -166 108.5 -250.5t296.5 -84.5h355v155h-352q-120 0 -174.5 45.5t-54.5 134.5z" />
    <glyph glyph-name="_189" unicode="&#x2283;" 
d="M691 389q0 -89 -54.5 -134.5t-174.5 -45.5h-352v-155h355q188 0 296.5 84.5t108.5 250.5q0 165 -108 249t-297 84h-355v-154h352q120 0 174.5 -45.5t54.5 -133.5z" />
    <glyph glyph-name="_8748" unicode="&#x2284;" 
d="M451 148l-27 -97l-33 11l24 88q-102 13 -171.5 82t-69.5 159q0 99 82 171t198 72h95l33 118l35 -12l-30 -106h198v-37h-208l-116 -412h324v-37h-331h-3zM215 391q0 -79 61.5 -137t148.5 -68l114 411h-85q-95 0 -167 -60t-72 -146z" />
    <glyph glyph-name="_8747" unicode="&#x2285;" 
d="M410 148l-27 -97l-33 11l24 86h-200v37h210l114 412h-324v37h331h3l33 118l35 -12l-31 -109q102 -13 171 -81.5t69 -158.5q0 -99 -82 -171t-198 -72h-95zM420 185h85q95 0 167 60t72 146q0 78 -61 136t-148 68z" />
    <glyph glyph-name="_186" unicode="&#x2286;" 
d="M115 140v-148h738v148h-738zM265 515q0 124 182 124h400v152h-403q-170 0 -264 -70.5t-94 -205.5q0 -136 94 -207t264 -71h403v152h-400q-182 0 -182 126z" />
    <glyph glyph-name="_187" unicode="&#x2287;" 
d="M106 140v-148h738v148h-738zM694 515q0 -126 -182 -126h-400v-152h403q170 0 264 71t94 207q0 135 -94 205.5t-264 70.5h-403v-152h400q182 0 182 -124z" />
    <glyph glyph-name="_8486" unicode="&#x228a;" 
d="M212 531q0 -66 50 -118t123 -52h427v-60h-419q-106 0 -176 69.5t-70 160.5t70 160.5t176 69.5h419v-60h-427q-73 0 -123 -52t-50 -118zM813 95v-59h-631v59h631zM813 240v-60h-631v60h631zM519 352l57 -16l-115 -403l-58 16z" />
    <glyph glyph-name="_8488" unicode="&#x228b;" 
d="M748 531q0 66 -50 118t-123 52h-427v60h419q106 0 176 -69.5t70 -160.5t-70 -160.5t-176 -69.5h-419v60h427q73 0 123 52t50 118zM147 36v59h631v-59h-631zM147 180v60h631v-60h-631zM499 352l57 -16l-115 -403l-58 16z" />
    <glyph glyph-name="_8727" unicode="&#x2295;" 
d="M142 368v37h320v317h38v-317h318v-37h-318v-314h-38v314h-320zM481 790q167 0 283 -116t116 -283t-116 -283t-283 -116q-168 0 -284.5 116t-116.5 283t116.5 283t284.5 116zM481 755q-153 0 -259.5 -106t-106.5 -258t106.5 -258t259.5 -106q151 0 257.5 106.5
t106.5 257.5t-106.5 257.5t-257.5 106.5z" />
    <glyph glyph-name="_8728" unicode="&#x2296;" 
d="M144 370v36h676v-36h-676zM481 790q167 0 283 -116t116 -283t-116 -283t-283 -116q-168 0 -284.5 116t-116.5 283t116.5 283t284.5 116zM481 755q-153 0 -259.5 -106t-106.5 -258t106.5 -258t259.5 -106q151 0 257.5 106.5t106.5 257.5t-106.5 257.5t-257.5 106.5z" />
    <glyph glyph-name="_8729" unicode="&#x2297;" 
d="M255 138l-27 28l225 225l-223 222l27 27l224 -223l224 224l27 -27l-225 -223l228 -225l-28 -26l-226 225zM481 790q167 0 283 -116t116 -283t-116 -283t-283 -116q-168 0 -284.5 116t-116.5 283t116.5 283t284.5 116zM481 755q-153 0 -259.5 -106t-106.5 -258t106.5 -258
t259.5 -106q151 0 257.5 106.5t106.5 257.5t-106.5 257.5t-257.5 106.5z" />
    <glyph glyph-name="_18164" unicode="&#x2299;" 
d="M929 390q0 190 -129 319.5t-320 129.5q-192 0 -320.5 -129t-128.5 -320t128 -320t321 -129q192 0 320.5 129t128.5 320zM822 390q0 -151 -96.5 -251t-245.5 -100q-148 0 -244.5 100t-96.5 251q0 150 96.5 250t244.5 100q149 0 245.5 -100t96.5 -250zM692 390
q0 94 -60 156t-152 62t-151.5 -62t-59.5 -156t59.5 -156t151.5 -62q93 0 152.5 62t59.5 156z" />
    <glyph glyph-name="_8742" unicode="&#x22a3;" 
d="M745 69h-36v304h-495v35h495v297h36v-636z" />
    <glyph glyph-name="_8503" unicode="&#x22a4;" 
d="M449 608h-285v59h631v-59h-277v-522h-69v522z" />
    <glyph glyph-name="_149" unicode="&#x22a5;" 
d="M559 180v583h-158v-583h-307v-137h772v137h-307z" />
    <glyph glyph-name="_8751" unicode="&#x22bb;" 
d="M154 121h651v-35h-651v35zM749 700l-265 -541l-269 548l34 12l235 -478l231 473z" />
    <glyph glyph-name="_8752" unicode="&#x22bc;" 
d="M806 645h-652v35h652v-35zM480 603l265 -541l-34 -14l-231 473l-235 -478l-34 12z" />
    <glyph glyph-name="_8477" unicode="&#x22ce;" 
d="M480 712q106 -362 298 -598l-55 -28q-176 231 -243 464q-66 -233 -243 -464l-55 28q192 236 298 598z" />
    <glyph glyph-name="_8478" unicode="&#x22cf;" 
d="M480 76q-106 362 -298 598l55 28q177 -231 243 -464q67 233 243 464l55 -28q-192 -236 -298 -598z" />
    <glyph glyph-name="_8492" unicode="&#x22da;" 
d="M786 726l-456 -117l456 -117l-16 -56l-636 173l636 173zM174 42l456 117l-456 117l16 56l636 -173l-636 -173zM795 409v-51h-631v51h631z" />
    <glyph glyph-name="_8493" unicode="&#x22db;" 
d="M630 609l-456 117l16 56l636 -173l-636 -173l-16 56zM330 159l456 -117l-16 -56l-636 173l636 173l16 -56zM165 358v51h631v-51h-631z" />
    <glyph glyph-name="_8754" unicode="&#x2306;" 
d="M805 556h-651v35h651v-35zM484 518l245 -441l-34 -14l-211 373l-215 -378l-34 12zM805 673h-651v35h651v-35z" />
    <glyph glyph-name="_150" unicode="&#x2312;" 
d="M18 670l81 -103q162 164 381 164q218 0 383 -162l79 101q-87 92 -205.5 146t-256.5 54q-139 0 -258.5 -54t-203.5 -146z" />
    <glyph glyph-name="_8731" unicode="&#x2314;" 
d="M788 585l-308 -547l-308 547q157 94 308 94t308 -94zM480 647q-64 0 -136 -21.5t-125 -53.5l261 -467l261 467q-53 32 -125 53.5t-136 21.5z" />
    <glyph glyph-name="_733" unicode="&#x2460;" 
d="M22 393q0 -194 132.5 -325t325.5 -131t325.5 131t132.5 325t-132.5 325t-325.5 131t-325.5 -131t-132.5 -325zM122 393q0 157 101.5 261t256.5 104t256.5 -104t101.5 -261t-101.5 -260.5t-256.5 -103.5t-256.5 103.5t-101.5 260.5zM580 112v569h-125l-141 -65v-130
l113 50v-424h153z" />
    <glyph glyph-name="_734" unicode="&#x2461;" 
d="M22 393q0 -194 132.5 -324.5t325.5 -130.5t325.5 130.5t132.5 324.5t-132.5 325t-325.5 131t-325.5 -131t-132.5 -325zM122 393q0 157 101.5 261t256.5 104q154 0 255.5 -104t101.5 -261t-101.5 -260.5t-255.5 -103.5q-155 0 -256.5 103.5t-101.5 260.5zM675 522
q0 76 -51 126t-142 50q-90 0 -141.5 -50.5t-51.5 -125.5v-34h153v35q0 54 40 54q17 0 28.5 -14.5t11.5 -39.5q0 -40 -32 -76l-193 -223v-105h386v121h-188l119 136q33 38 47 70.5t14 75.5z" />
    <glyph glyph-name="_735" unicode="&#x2462;" 
d="M22 393q0 -194 132.5 -325t325.5 -131t325.5 131t132.5 325t-132.5 325t-325.5 131t-325.5 -131t-132.5 -325zM122 393q0 157 101.5 261t256.5 104t256.5 -104t101.5 -261t-101.5 -260.5t-256.5 -103.5t-256.5 103.5t-101.5 260.5zM486 227q-49 0 -49 61v22h-154v-28
q0 -79 55.5 -127t147.5 -48q91 0 146 48t55 127q0 98 -80 137q64 38 64 117q0 70 -50 114.5t-135 44.5q-87 0 -136.5 -44.5t-49.5 -118.5v-21h149v17q0 45 37 45q35 0 35 -45q0 -53 -50 -53h-56v-119h56q32 0 47 -16t15 -52q0 -61 -47 -61z" />
    <glyph glyph-name="_736" unicode="&#x2463;" 
d="M22 393q0 -194 132.5 -325t325.5 -131t325.5 131t132.5 325t-132.5 325t-325.5 131t-325.5 -131t-132.5 -325zM122 393q0 157 101.5 261t256.5 104t256.5 -104t101.5 -261t-101.5 -260.5t-256.5 -103.5t-256.5 103.5t-101.5 260.5zM401 340l69 124v-124h-69zM687 340h-68
v346h-153l-211 -355v-112h215v-102h149v102h68v121z" />
    <glyph glyph-name="_737" unicode="&#x2464;" 
d="M22 393q0 -194 132.5 -325t325.5 -131t325.5 131t132.5 325t-132.5 325t-325.5 131t-325.5 -131t-132.5 -325zM122 393q0 157 101.5 261t256.5 104t256.5 -104t101.5 -261t-101.5 -260.5t-256.5 -103.5t-256.5 103.5t-101.5 260.5zM482 372q45 0 45 -76t-45 -76
q-38 0 -43 67h-154q5 -88 55.5 -137.5t141.5 -49.5q95 0 146.5 51t51.5 141q0 97 -43 145.5t-116 48.5q-36 0 -63 -15l5 86h190v122h-333l-15 -337h141q14 30 36 30z" />
    <glyph glyph-name="_738" unicode="&#x2465;" 
d="M22 393q0 -194 132.5 -324.5t325.5 -130.5t325.5 130.5t132.5 324.5t-132.5 325t-325.5 131t-325.5 -131t-132.5 -325zM122 393q0 157 101.5 261t256.5 104q154 0 255.5 -104t101.5 -261t-101.5 -260.5t-255.5 -103.5q-155 0 -256.5 103.5t-101.5 260.5zM670 523
q-8 81 -57 125t-131 44q-110 0 -157 -75.5t-47 -241.5q0 -133 47.5 -202t156.5 -69q90 0 144 53t54 142t-49 140t-124 51q-47 0 -76 -20q5 104 51 104q31 0 36 -51h152zM526 299q0 -75 -46 -75q-48 0 -48 75t48 75q46 0 46 -75z" />
    <glyph glyph-name="_739" unicode="&#x2466;" 
d="M22 393q0 -194 132.5 -325t325.5 -131t325.5 131t132.5 325t-132.5 325t-325.5 131t-325.5 -131t-132.5 -325zM122 393q0 157 101.5 261t256.5 104t256.5 -104t101.5 -261t-101.5 -260.5t-256.5 -103.5t-256.5 103.5t-101.5 260.5zM293 540h225l-172 -448h157l174 467
v102h-384v-121z" />
    <glyph glyph-name="_740" unicode="&#x2467;" 
d="M22 393q0 -194 132.5 -325t325.5 -131t325.5 131t132.5 325t-132.5 325t-325.5 131t-325.5 -131t-132.5 -325zM122 393q0 157 101.5 261t256.5 104t256.5 -104t101.5 -261t-101.5 -260.5t-256.5 -103.5t-256.5 103.5t-101.5 260.5zM482 691q-89 0 -141 -44t-52 -115
q0 -78 66 -118q-83 -44 -83 -136q0 -80 57.5 -127.5t152.5 -47.5t152.5 47.5t57.5 127.5q0 95 -82 136q29 18 47 49.5t18 68.5q0 71 -52 115t-141 44zM525 522q0 -49 -43 -49t-43 49q0 23 11.5 35.5t31.5 12.5t31.5 -12.5t11.5 -35.5zM538 289q0 -31 -15 -48t-41 -17t-41 17
t-15 48q0 66 56 66q26 0 41 -17t15 -49z" />
    <glyph glyph-name="_741" unicode="&#x2468;" 
d="M22 393q0 -194 132.5 -324.5t325.5 -130.5t325.5 130.5t132.5 324.5t-132.5 325t-325.5 131t-325.5 -131t-132.5 -325zM122 393q0 157 101.5 261t256.5 104q154 0 255.5 -104t101.5 -261t-101.5 -260.5t-255.5 -103.5q-155 0 -256.5 103.5t-101.5 260.5zM290 266
q9 -81 58 -125.5t131 -44.5q109 0 156.5 75.5t47.5 241.5q0 135 -48.5 203t-155.5 68q-90 0 -144 -52.5t-54 -142.5q0 -89 48.5 -140t123.5 -51q47 0 76 20q-3 -55 -15 -79.5t-35 -24.5q-31 0 -36 52h-153zM434 488q0 75 48 75q46 0 46 -75q0 -74 -46 -74q-48 0 -48 74z" />
    <glyph glyph-name="_742" unicode="&#x2469;" 
d="M22 393q0 -194 132.5 -325t325.5 -131t325.5 131t132.5 325t-132.5 325t-325.5 131t-325.5 -131t-132.5 -325zM122 393q0 115 58 206v-124l87 47v-397h133v538h-109l-109 -61q47 73 125 114.5t173 41.5q155 0 256.5 -104t101.5 -261t-101.5 -260.5t-256.5 -103.5
t-256.5 103.5t-101.5 260.5zM778 397q0 169 -58 231q-41 46 -115 46q-75 0 -116 -46q-58 -62 -58 -231q0 -170 58 -232q41 -46 116 -46q72 0 115 46q58 62 58 232zM645 397q0 -122 -18 -150q-9 -13 -22 -13q-14 0 -23 13q-18 28 -18 150t18 148q9 13 23 13t22 -13
q18 -26 18 -148z" />
    <glyph glyph-name="_743" unicode="&#x246a;" 
d="M22 393q0 -194 132.5 -325t325.5 -131t325.5 131t132.5 325t-132.5 325t-325.5 131t-325.5 -131t-132.5 -325zM122 393q0 157 101.5 261t256.5 104t256.5 -104t101.5 -261t-101.5 -260.5t-256.5 -103.5t-256.5 103.5t-101.5 260.5zM426 125v538h-108l-111 -62v-126l87 47
v-397h132zM708 125v538h-109l-110 -62v-126l86 47v-397h133z" />
    <glyph glyph-name="_744" unicode="&#x246b;" 
d="M22 393q0 -194 132.5 -325t325.5 -131t325.5 131t132.5 325t-132.5 325t-325.5 131t-325.5 -131t-132.5 -325zM122 393q0 115 58 206v-124l87 47v-397h133v538h-109l-109 -61q47 73 125 114.5t173 41.5q155 0 256.5 -104t101.5 -261q0 -129 -71 -225v75h-154l98 128
q27 37 38 66t11 70q0 72 -42.5 119.5t-119.5 47.5q-76 0 -119 -47.5t-43 -119.5v-32h133v34q0 50 29 50q30 0 30 -50q0 -37 -26 -72l-159 -210v-99h289q-101 -99 -252 -99q-155 0 -256.5 103.5t-101.5 260.5z" />
    <glyph glyph-name="_745" unicode="&#x246c;" 
d="M22 393q0 -194 132.5 -325t325.5 -131t325.5 131t132.5 325t-132.5 325t-325.5 131t-325.5 -131t-132.5 -325zM122 393q0 115 58 206v-124l87 47v-397h133v538h-109l-109 -61q47 73 125 114.5t173 41.5q155 0 256.5 -104t101.5 -261t-101.5 -260.5t-256.5 -103.5
t-256.5 103.5t-101.5 260.5zM598 232q-37 0 -37 56v21h-133v-26q0 -75 46.5 -121t123.5 -46q76 0 122 46t46 121q0 94 -67 129q54 32 54 109q0 67 -41.5 109t-113.5 42q-73 0 -114.5 -42t-41.5 -112v-20h129v16q0 42 27 42q25 0 25 -42q0 -48 -37 -48h-50v-115h50
q48 0 48 -63q0 -56 -36 -56z" />
    <glyph glyph-name="_746" unicode="&#x246d;" 
d="M22 393q0 -194 132.5 -325t325.5 -131t325.5 131t132.5 325t-132.5 325t-325.5 131t-325.5 -131t-132.5 -325zM122 393q0 115 58 206v-124l87 47v-397h133v538h-109l-109 -61q47 73 125 114.5t173 41.5q149 0 249 -97h-137l-169 -336v-104h177v-97h128q-100 -95 -248 -95
q-155 0 -256.5 103.5t-101.5 260.5zM730 126v95h46v115h-46v324q108 -103 108 -267t-108 -267zM547 336l53 111v-111h-53z" />
    <glyph glyph-name="_747" unicode="&#x246e;" 
d="M22 393q0 -194 132.5 -325t325.5 -131t325.5 131t132.5 325t-132.5 325t-325.5 131t-325.5 -131t-132.5 -325zM122 393q0 115 58 206v-124l87 47v-397h133v538h-109l-109 -61q47 73 125 114.5t173 41.5q149 0 250 -98h-272l-12 -319h123q10 29 27 29q33 0 33 -71t-33 -71
q-28 0 -33 63h-133q5 -84 47.5 -131t118.5 -47q79 0 122.5 49t43.5 133q0 92 -36 138t-98 46q-30 0 -49 -12l5 77h152v110q102 -104 102 -261t-101.5 -260.5t-256.5 -103.5t-256.5 103.5t-101.5 260.5z" />
    <glyph glyph-name="_8791" unicode="&#x246f;" 
d="M22 393q0 194 132.5 325t325.5 131t325.5 -131t132.5 -325t-132.5 -324.5t-325.5 -130.5t-325.5 130.5t-132.5 324.5zM122 393q0 -157 101.5 -260.5t256.5 -103.5q154 0 255.5 103.5t101.5 260.5t-101.5 261t-255.5 104q-155 0 -256.5 -104t-101.5 -261zM399 125h-133
v397l-86 -47v126l111 61h108v-537zM759 513h-133q-5 48 -25 48q-34 0 -38 -92q22 14 58 14q63 0 104.5 -48t41.5 -132t-45.5 -134.5t-120.5 -50.5q-91 0 -131 65t-40 191q0 156 39.5 227.5t131.5 71.5q69 0 110 -41.5t48 -118.5zM634 303q0 70 -35 70q-36 0 -36 -70t36 -70
q35 0 35 70z" />
    <glyph glyph-name="_8792" unicode="&#x2470;" 
d="M22 393q0 194 132.5 325t325.5 131t325.5 -131t132.5 -325t-132.5 -325t-325.5 -131t-325.5 131t-132.5 325zM122 393q0 -157 101.5 -260.5t256.5 -103.5t256.5 103.5t101.5 260.5t-101.5 261t-256.5 104t-256.5 -104t-101.5 -261zM400 125h-133v397l-87 -47v126l111 62
h109v-538zM440 540v116h320v-97l-144 -441h-135l142 422h-183z" />
    <glyph glyph-name="_8793" unicode="&#x2471;" 
d="M22 393q0 194 132.5 325t325.5 131t325.5 -131t132.5 -325t-132.5 -325t-325.5 -131t-325.5 131t-132.5 325zM122 393q0 -157 101.5 -260.5t256.5 -103.5t256.5 103.5t101.5 260.5t-101.5 261t-256.5 104t-256.5 -104t-101.5 -261zM400 125h-133v397l-87 -47v126l111 62
h109v-538zM596 674q74 0 118.5 -41.5t44.5 -108.5q0 -73 -55 -111q68 -40 68 -128q0 -76 -48 -121t-128 -45t-128 45t-48 121q0 86 69 128q-55 38 -55 111q0 67 44 108.5t118 41.5zM628 514q0 45 -32 45q-31 0 -31 -45t31 -45q32 0 32 45zM639 295q0 61 -43 61t-43 -61
q0 -29 11.5 -45t31.5 -16q43 0 43 61z" />
    <glyph glyph-name="_8794" unicode="&#x2472;" 
d="M22 393q0 194 132.5 325t325.5 131t325.5 -131t132.5 -325t-132.5 -324.5t-325.5 -130.5t-325.5 130.5t-132.5 324.5zM122 393q0 -157 101.5 -260.5t256.5 -103.5q154 0 255.5 103.5t101.5 260.5t-101.5 261t-255.5 104q-155 0 -256.5 -104t-101.5 -261zM399 125h-133
v397l-86 -47v126l111 61h108v-537zM437 279h132q5 -49 26 -49q33 0 37 92q-22 -14 -58 -14q-63 0 -104 48t-41 132q0 85 45 135t121 50q91 0 131 -65.5t40 -190.5q0 -157 -39.5 -228t-131.5 -71q-69 0 -110 42t-48 119zM561 488q0 -69 36 -69q35 0 35 69q0 70 -35 70
q-36 0 -36 -70z" />
    <glyph glyph-name="_8795" unicode="&#x2473;" 
d="M22 393q0 194 132.5 325t325.5 131t325.5 -131t132.5 -325t-132.5 -325t-325.5 -131t-325.5 131t-132.5 325zM122 393q0 -157 101.5 -260.5t256.5 -103.5t256.5 103.5t101.5 260.5t-101.5 261t-256.5 104t-256.5 -104t-101.5 -261zM667 397q0 126 -14 151q-5 11 -16 11
t-17 -11q-14 -25 -14 -151t14 -151q6 -11 17 -11t16 11q14 27 14 151zM468 510q0 -69 -44 -136l-83 -129h132v-115h-284v98l136 211q22 34 22 72q0 50 -22 50t-22 -50v-34h-121v33q0 71 38 118.5t105 47.5t105 -47.5t38 -118.5zM788 397q0 -177 -54 -235q-36 -42 -97 -42
q-65 0 -99 42q-53 58 -53 235t53 235q34 42 99 42q61 0 97 -42q54 -57 54 -235z" />
    <glyph glyph-name="_827" unicode="&#x2474;" 
d="M580 112v569h-125l-141 -65v-130l113 50v-424h153zM32 388q0 -240 136 -432h94q-59 93 -90 207t-31 225q0 112 31 226t90 208h-94q-136 -193 -136 -434zM928 388q0 241 -136 434h-94q59 -94 90 -209.5t31 -227.5q0 -111 -31 -223t-90 -206h94q136 192 136 432z" />
    <glyph glyph-name="_828" unicode="&#x2475;" 
d="M675 522q0 76 -51 126t-142 50q-90 0 -141.5 -50.5t-51.5 -125.5v-34h153v35q0 54 40 54q17 0 28.5 -14.5t11.5 -39.5q0 -40 -32 -76l-193 -223v-105h386v121h-188l119 136q33 38 47 70.5t14 75.5zM31 388q0 -241 136 -431h95q-59 92 -90 205.5t-31 225.5t31 225.5
t90 207.5h-95q-136 -193 -136 -433zM928 388q0 240 -136 433h-95q59 -93 90 -208.5t31 -227.5t-31 -224t-90 -204h95q136 190 136 431z" />
    <glyph glyph-name="_829" unicode="&#x2476;" 
d="M486 227q-49 0 -49 61v22h-154v-28q0 -79 55.5 -127t147.5 -48q91 0 146 48t55 127q0 98 -80 137q64 38 64 117q0 70 -50 114.5t-135 44.5q-87 0 -136.5 -44.5t-49.5 -118.5v-21h149v17q0 45 37 45q35 0 35 -45q0 -53 -50 -53h-56v-119h56q32 0 47 -16t15 -52
q0 -61 -47 -61zM32 388q0 -240 136 -432h94q-59 93 -90 207t-31 225q0 112 31 226t90 208h-94q-136 -193 -136 -434zM928 388q0 241 -136 434h-94q59 -94 90 -209.5t31 -227.5q0 -111 -31 -223t-90 -206h94q136 192 136 432z" />
    <glyph glyph-name="_830" unicode="&#x2477;" 
d="M401 340l69 124v-124h-69zM687 340h-68v346h-153l-211 -355v-112h215v-102h149v102h68v121zM32 388q0 -240 136 -432h94q-59 93 -90 207t-31 225q0 112 31 226t90 208h-94q-136 -193 -136 -434zM928 388q0 241 -136 434h-94q59 -94 90 -209.5t31 -227.5q0 -111 -31 -223
t-90 -206h94q136 192 136 432z" />
    <glyph glyph-name="_831" unicode="&#x2478;" 
d="M482 372q45 0 45 -76t-45 -76q-38 0 -43 67h-154q5 -88 55.5 -137.5t141.5 -49.5q95 0 146.5 51t51.5 141q0 97 -43 145.5t-116 48.5q-36 0 -63 -15l5 86h190v122h-333l-15 -337h141q14 30 36 30zM32 388q0 -240 136 -432h94q-59 93 -90 207t-31 225q0 112 31 226t90 208
h-94q-136 -193 -136 -434zM928 388q0 241 -136 434h-94q59 -94 90 -209.5t31 -227.5q0 -111 -31 -223t-90 -206h94q136 192 136 432z" />
    <glyph glyph-name="_832" unicode="&#x2479;" 
d="M670 523q-8 81 -57 125t-131 44q-110 0 -157 -75.5t-47 -241.5q0 -133 47.5 -202t156.5 -69q90 0 144 53t54 142t-49 140t-124 51q-47 0 -76 -20q5 104 51 104q31 0 36 -51h152zM526 299q0 -75 -46 -75q-48 0 -48 75t48 75q46 0 46 -75zM31 388q0 -241 136 -431h95
q-59 92 -90 205.5t-31 225.5t31 225.5t90 207.5h-95q-136 -193 -136 -433zM928 388q0 240 -136 433h-95q59 -93 90 -208.5t31 -227.5t-31 -224t-90 -204h95q136 190 136 431z" />
    <glyph glyph-name="_833" unicode="&#x247a;" 
d="M293 540h225l-172 -448h157l174 467v102h-384v-121zM32 388q0 -240 136 -432h94q-59 93 -90 207t-31 225q0 112 31 226t90 208h-94q-136 -193 -136 -434zM928 388q0 241 -136 434h-94q59 -94 90 -209.5t31 -227.5q0 -111 -31 -223t-90 -206h94q136 192 136 432z" />
    <glyph glyph-name="_834" unicode="&#x247b;" 
d="M482 691q-89 0 -141 -44t-52 -115q0 -78 66 -118q-83 -44 -83 -136q0 -80 57.5 -127.5t152.5 -47.5t152.5 47.5t57.5 127.5q0 95 -82 136q29 18 47 49.5t18 68.5q0 71 -52 115t-141 44zM525 522q0 -49 -43 -49t-43 49q0 23 11.5 35.5t31.5 12.5t31.5 -12.5t11.5 -35.5z
M538 289q0 -31 -15 -48t-41 -17t-41 17t-15 48q0 66 56 66q26 0 41 -17t15 -49zM32 388q0 -240 136 -432h94q-59 93 -90 207t-31 225q0 112 31 226t90 208h-94q-136 -193 -136 -434zM928 388q0 241 -136 434h-94q59 -94 90 -209.5t31 -227.5q0 -111 -31 -223t-90 -206h94
q136 192 136 432z" />
    <glyph glyph-name="_835" unicode="&#x247c;" 
d="M290 266q9 -81 58 -125.5t131 -44.5q109 0 156.5 75.5t47.5 241.5q0 135 -48.5 203t-155.5 68q-90 0 -144 -52.5t-54 -142.5q0 -89 48.5 -140t123.5 -51q47 0 76 20q-3 -55 -15 -79.5t-35 -24.5q-31 0 -36 52h-153zM434 488q0 75 48 75q46 0 46 -75q0 -74 -46 -74
q-48 0 -48 74zM31 388q0 -241 136 -431h95q-59 92 -90 205.5t-31 225.5t31 225.5t90 207.5h-95q-136 -193 -136 -433zM928 388q0 240 -136 433h-95q59 -93 90 -208.5t31 -227.5t-31 -224t-90 -204h95q136 190 136 431z" />
    <glyph glyph-name="_836" unicode="&#x247d;" 
d="M778 397q0 169 -58 231q-41 46 -115 46q-75 0 -116 -46q-58 -62 -58 -231q0 -170 58 -232q41 -46 116 -46q72 0 115 46q58 62 58 232zM645 397q0 -122 -18 -150q-9 -13 -22 -13q-14 0 -23 13q-18 28 -18 150t18 148q9 13 23 13t22 -13q18 -26 18 -148zM400 125v538h-109
l-111 -62v-126l87 47v-397h133zM32 388q0 -240 136 -432h94q-59 93 -90 207t-31 225q0 112 31 226t90 208h-94q-136 -193 -136 -434zM928 388q0 241 -136 434h-94q59 -94 90 -209.5t31 -227.5q0 -111 -31 -223t-90 -206h94q136 192 136 432z" />
    <glyph glyph-name="_837" unicode="&#x247e;" 
d="M426 125v538h-108l-111 -62v-126l87 47v-397h132zM708 125v538h-109l-110 -62v-126l86 47v-397h133zM32 388q0 -240 136 -432h94q-59 93 -90 207t-31 225q0 112 31 226t90 208h-94q-136 -193 -136 -434zM928 388q0 241 -136 434h-94q59 -94 90 -209.5t31 -227.5
q0 -111 -31 -223t-90 -206h94q136 192 136 432z" />
    <glyph glyph-name="_838" unicode="&#x247f;" 
d="M400 125v538h-109l-111 -62v-126l87 47v-397h133zM760 507q0 72 -42.5 119.5t-119.5 47.5q-76 0 -119 -47.5t-43 -119.5v-32h133v34q0 50 29 50q30 0 30 -50q0 -37 -26 -72l-159 -210v-99h324v115h-154l98 128q27 37 38 66t11 70zM32 388q0 -240 136 -432h94
q-59 93 -90 207t-31 225q0 112 31 226t90 208h-94q-136 -193 -136 -434zM928 388q0 241 -136 434h-94q59 -94 90 -209.5t31 -227.5q0 -111 -31 -223t-90 -206h94q136 192 136 432z" />
    <glyph glyph-name="_839" unicode="&#x2480;" 
d="M400 125v538h-109l-111 -62v-126l87 47v-397h133zM598 232q-37 0 -37 56v21h-133v-26q0 -75 46.5 -121t123.5 -46q76 0 122 46t46 121q0 94 -67 129q54 32 54 109q0 67 -41.5 109t-113.5 42q-73 0 -114.5 -42t-41.5 -112v-20h129v16q0 42 27 42q25 0 25 -42
q0 -48 -37 -48h-50v-115h50q48 0 48 -63q0 -56 -36 -56zM32 388q0 -240 136 -432h94q-59 93 -90 207t-31 225q0 112 31 226t90 208h-94q-136 -193 -136 -434zM928 388q0 241 -136 434h-94q59 -94 90 -209.5t31 -227.5q0 -111 -31 -223t-90 -206h94q136 192 136 432z" />
    <glyph glyph-name="_840" unicode="&#x2481;" 
d="M400 125v538h-109l-111 -62v-126l87 47v-397h133zM547 336l53 111v-111h-53zM776 336h-46v325h-138l-169 -336v-104h177v-97h130v97h46v115zM32 388q0 -240 136 -432h94q-59 93 -90 207t-31 225q0 112 31 226t90 208h-94q-136 -193 -136 -434zM928 388q0 241 -136 434
h-94q59 -94 90 -209.5t31 -227.5q0 -111 -31 -223t-90 -206h94q136 192 136 432z" />
    <glyph glyph-name="_841" unicode="&#x2482;" 
d="M400 125v538h-109l-111 -62v-126l87 47v-397h133zM596 370q33 0 33 -71t-33 -71q-28 0 -33 63h-133q5 -84 47.5 -131t118.5 -47q79 0 122.5 49t43.5 133q0 92 -36 138t-98 46q-30 0 -49 -12l5 77h152v116h-278l-12 -319h123q10 29 27 29zM32 388q0 -240 136 -432h94
q-59 93 -90 207t-31 225q0 112 31 226t90 208h-94q-136 -193 -136 -434zM928 388q0 241 -136 434h-94q59 -94 90 -209.5t31 -227.5q0 -111 -31 -223t-90 -206h94q136 192 136 432z" />
    <glyph glyph-name="_9042" unicode="&#x2483;" 
d="M399 125h-133v397l-86 -47v126l111 61h108v-537zM759 513h-133q-5 48 -25 48q-34 0 -38 -92q22 14 58 14q63 0 104.5 -48t41.5 -132t-45.5 -134.5t-120.5 -50.5q-91 0 -131 65t-40 191q0 156 39.5 227.5t131.5 71.5q69 0 110 -41.5t48 -118.5zM634 303q0 70 -35 70
q-36 0 -36 -70t36 -70q35 0 35 70zM31 388q0 240 136 433h95q-59 -94 -90 -207.5t-31 -225.5t31 -225.5t90 -205.5h-95q-136 190 -136 431zM928 388q0 -241 -136 -431h-95q59 92 90 204t31 224t-31 227.5t-90 208.5h95q136 -193 136 -433z" />
    <glyph glyph-name="_9043" unicode="&#x2484;" 
d="M400 125h-133v397l-87 -47v126l111 62h109v-538zM440 540v116h320v-97l-144 -441h-135l142 422h-183zM32 388q0 241 136 434h94q-59 -94 -90 -208t-31 -226q0 -111 31 -225t90 -207h-94q-136 192 -136 432zM928 388q0 -240 -136 -432h-94q59 94 90 206t31 223
q0 112 -31 227.5t-90 209.5h94q136 -193 136 -434z" />
    <glyph glyph-name="_9044" unicode="&#x2485;" 
d="M400 125h-133v397l-87 -47v126l111 62h109v-538zM596 674q74 0 118.5 -41.5t44.5 -108.5q0 -73 -55 -111q68 -40 68 -128q0 -76 -48 -121t-128 -45t-128 45t-48 121q0 86 69 128q-55 38 -55 111q0 67 44 108.5t118 41.5zM628 514q0 45 -32 45q-31 0 -31 -45t31 -45
q32 0 32 45zM639 295q0 61 -43 61t-43 -61q0 -29 11.5 -45t31.5 -16q43 0 43 61zM32 388q0 241 136 434h94q-59 -94 -90 -208t-31 -226q0 -111 31 -225t90 -207h-94q-136 192 -136 432zM928 388q0 -240 -136 -432h-94q59 94 90 206t31 223q0 112 -31 227.5t-90 209.5h94
q136 -193 136 -434z" />
    <glyph glyph-name="_9045" unicode="&#x2486;" 
d="M399 125h-133v397l-86 -47v126l111 61h108v-537zM437 279h132q5 -49 26 -49q33 0 37 92q-22 -14 -58 -14q-63 0 -104 48t-41 132q0 85 45 135t121 50q91 0 131 -65.5t40 -190.5q0 -157 -39.5 -228t-131.5 -71q-69 0 -110 42t-48 119zM561 488q0 -69 36 -69q35 0 35 69
q0 70 -35 70q-36 0 -36 -70zM31 388q0 240 136 433h95q-59 -94 -90 -207.5t-31 -225.5t31 -225.5t90 -205.5h-95q-136 190 -136 431zM928 388q0 -241 -136 -431h-95q59 92 90 204t31 224t-31 227.5t-90 208.5h95q136 -193 136 -433z" />
    <glyph glyph-name="_9046" unicode="&#x2487;" 
d="M667 397q0 126 -14 151q-5 11 -16 11t-17 -11q-14 -25 -14 -151t14 -151q6 -11 17 -11t16 11q14 27 14 151zM468 510q0 -69 -44 -136l-83 -129h132v-115h-284v98l136 211q22 36 22 72q0 50 -22 50t-22 -50v-34h-121v33q0 71 38 118.5t105 47.5t105 -47.5t38 -118.5z
M788 397q0 -177 -54 -235q-36 -42 -97 -42q-65 0 -99 42q-53 58 -53 235t53 235q34 42 99 42q61 0 97 -42q54 -57 54 -235zM32 388q0 241 136 434h94q-59 -94 -90 -208t-31 -226q0 -111 31 -225t90 -207h-94q-136 192 -136 432zM928 388q0 -240 -136 -432h-94q59 94 90 206
t31 223q0 112 -31 227.5t-90 209.5h94q136 -193 136 -434z" />
    <glyph glyph-name="_801" unicode="&#x249c;" 
d="M525 185h155q-17 34 -17 71v200q0 70 -48 112t-138 42q-88 0 -136 -40t-50 -108h151q3 35 35 35q35 0 35 -39v-37q-34 26 -89 26q-68 0 -108 -36t-40 -99q0 -64 40 -100t108 -36q62 0 94 31q5 -17 8 -22zM469 279q-44 0 -44 33t44 33q43 0 43 -33t-43 -33zM31 388
q0 -241 136 -431h95q-59 92 -90 205.5t-31 225.5t31 225.5t90 207.5h-95q-136 -193 -136 -433zM928 388q0 240 -136 433h-95q59 -93 90 -208.5t31 -227.5t-31 -224t-90 -204h95q136 190 136 431z" />
    <glyph glyph-name="_802" unicode="&#x249d;" 
d="M460 152q37 -34 92 -34q76 0 118 55t42 162t-42 162t-118 55q-54 0 -92 -33v180h-150v-571h150v24zM460 335q0 55 12 79t38 24q27 0 39 -23.5t12 -79.5t-12 -79.5t-39 -23.5t-38.5 23.5t-11.5 79.5zM32 388q0 -240 136 -432h94q-59 93 -90 207t-31 225q0 112 31 226
t90 208h-94q-136 -193 -136 -434zM928 388q0 241 -136 434h-94q59 -94 90 -209.5t31 -227.5q0 -111 -31 -223t-90 -206h94q136 192 136 432z" />
    <glyph glyph-name="_803" unicode="&#x249e;" 
d="M280 392q0 -104 51 -160.5t150 -56.5q88 0 140 46t56 129h-148q-6 -59 -48 -59q-27 0 -39 23.5t-12 77.5q0 53 12 77t39 24q42 0 48 -58h148q-4 82 -56.5 128t-139.5 46q-99 0 -150 -56.5t-51 -160.5zM32 388q0 -240 136 -432h94q-59 93 -90 207t-31 225q0 112 31 226
t90 208h-94q-136 -193 -136 -434zM928 388q0 241 -136 434h-94q59 -94 90 -209.5t31 -227.5q0 -111 -31 -223t-90 -206h94q136 192 136 432z" />
    <glyph glyph-name="_804" unicode="&#x249f;" 
d="M503 132h151v571h-151v-180q-33 33 -92 33q-77 0 -118.5 -55t-41.5 -162t41.5 -162t118.5 -55q58 0 92 34v-24zM503 339q0 -56 -11.5 -79.5t-38.5 -23.5q-28 0 -39.5 23.5t-11.5 79.5t11.5 79.5t39.5 23.5q27 0 38.5 -23.5t11.5 -79.5zM32 388q0 -240 136 -432h94
q-59 93 -90 207t-31 225q0 112 31 226t90 208h-94q-136 -193 -136 -434zM928 388q0 241 -136 434h-94q59 -94 90 -209.5t31 -227.5q0 -111 -31 -223t-90 -206h94q136 192 136 432z" />
    <glyph glyph-name="_805" unicode="&#x24a0;" 
d="M676 351q3 14 3 42q0 103 -50.5 160t-149.5 57q-100 0 -150.5 -57t-50.5 -160q0 -104 50.5 -160.5t150.5 -56.5q79 0 130 39t64 115h-150q-6 -45 -44 -45q-48 0 -51 66h248zM479 501q44 0 49 -56h-99q5 56 50 56zM31 388q0 -241 136 -431h95q-59 92 -90 205.5t-31 225.5
t31 225.5t90 207.5h-95q-136 -193 -136 -433zM928 388q0 240 -136 433h-95q59 -93 90 -208.5t31 -227.5t-31 -224t-90 -204h95q136 190 136 431z" />
    <glyph glyph-name="_806" unicode="&#x24a1;" 
d="M625 565v108q-31 7 -85 7q-86 0 -123.5 -32t-37.5 -103v-30h-58v-116h58v-295h149v295h97v116h-97v20q0 30 34 30h63zM32 388q0 -240 136 -432h94q-59 93 -90 207t-31 225q0 112 31 226t90 208h-94q-136 -193 -136 -434zM928 388q0 241 -136 434h-94q59 -94 90 -209.5
t31 -227.5q0 -111 -31 -223t-90 -206h94q136 192 136 432z" />
    <glyph glyph-name="_807" unicode="&#x24a2;" 
d="M521 469q0 -56 -12 -79.5t-39 -23.5q-28 0 -39.5 23.5t-11.5 79.5q0 55 11.5 78.5t39.5 23.5q27 0 39 -23.5t12 -78.5zM671 676h-150v-24q-36 34 -92 34q-77 0 -119 -55t-42 -162t42 -162t119 -55q59 0 92 33v-41q0 -55 -41 -55q-36 0 -40 43h-153q9 -72 58 -112t134 -40
q95 0 143.5 47t48.5 126v423zM32 388q0 -240 136 -432h94q-59 93 -90 207t-31 225q0 112 31 226t90 208h-94q-136 -193 -136 -434zM928 388q0 241 -136 434h-94q59 -94 90 -209.5t31 -227.5q0 -111 -31 -223t-90 -206h94q136 192 136 432z" />
    <glyph glyph-name="_808" unicode="&#x24a3;" 
d="M689 383q0 164 -141 164q-57 0 -93 -34v181h-150v-572h150v236q0 35 13.5 54.5t36.5 19.5q34 0 34 -50v-260h150v261zM32 388q0 -240 136 -432h94q-59 93 -90 207t-31 225q0 112 31 226t90 208h-94q-136 -193 -136 -434zM928 388q0 241 -136 434h-94q59 -94 90 -209.5
t31 -227.5q0 -111 -31 -223t-90 -206h94q136 192 136 432z" />
    <glyph glyph-name="_809" unicode="&#x24a4;" 
d="M403 558h150v125h-150v-125zM403 111h150v409h-150v-409zM32 388q0 -240 136 -432h94q-59 93 -90 207t-31 225q0 112 31 226t90 208h-94q-136 -193 -136 -434zM928 388q0 241 -136 434h-94q59 -94 90 -209.5t31 -227.5q0 -111 -31 -223t-90 -206h94q136 192 136 432z" />
    <glyph glyph-name="_810" unicode="&#x24a5;" 
d="M427 225q0 -43 -34 -43h-46v-111q24 -3 70 -3q161 0 161 148v341h-151v-332zM427 596h151v124h-151v-124zM32 388q0 -240 136 -432h94q-59 93 -90 207t-31 225q0 112 31 226t90 208h-94q-136 -193 -136 -434zM928 388q0 241 -136 434h-94q59 -94 90 -209.5t31 -227.5
q0 -111 -31 -223t-90 -206h94q136 192 136 432z" />
    <glyph glyph-name="_811" unicode="&#x24a6;" 
d="M310 127h150v158l90 -158h160l-123 216l106 199h-158l-75 -141v298h-150v-572zM31 388q0 -241 136 -431h95q-59 92 -90 205.5t-31 225.5t31 225.5t90 207.5h-95q-136 -193 -136 -433zM928 388q0 240 -136 433h-95q59 -93 90 -208.5t31 -227.5t-31 -224t-90 -204h95
q136 190 136 431z" />
    <glyph glyph-name="_812" unicode="&#x24a7;" 
d="M557 106v572h-150v-572h150zM32 388q0 -240 136 -432h94q-59 93 -90 207t-31 225q0 112 31 226t90 208h-94q-136 -193 -136 -434zM928 388q0 241 -136 434h-94q59 -94 90 -209.5t31 -227.5q0 -111 -31 -223t-90 -206h94q136 192 136 432z" />
    <glyph glyph-name="_813" unicode="&#x24a8;" 
d="M557 420q0 74 42 74q26 0 26 -47v-262h145v261q0 163 -133 163q-70 0 -108 -52q-33 52 -104 52q-49 0 -81 -29v19h-145v-414h145v235q0 74 41 74q27 0 27 -47v-262h145v235zM31 388q0 -241 136 -431h95q-59 92 -90 205.5t-31 225.5t31 225.5t90 207.5h-95
q-136 -193 -136 -433zM928 388q0 240 -136 433h-95q59 -93 90 -208.5t31 -227.5t-31 -224t-90 -204h95q136 190 136 431z" />
    <glyph glyph-name="_814" unicode="&#x24a9;" 
d="M675 446q0 81 -36.5 122.5t-104.5 41.5q-59 0 -93 -34v24h-150v-415h150v236q0 74 50 74q33 0 33 -50v-260h151v261zM32 388q0 -240 136 -432h94q-59 93 -90 207t-31 225q0 112 31 226t90 208h-94q-136 -193 -136 -434zM928 388q0 241 -136 434h-94q59 -94 90 -209.5
t31 -227.5q0 -111 -31 -223t-90 -206h94q136 192 136 432z" />
    <glyph glyph-name="_815" unicode="&#x24aa;" 
d="M430 395q0 53 12 77t40 24q27 0 38.5 -23.5t11.5 -77.5q0 -55 -11.5 -78t-38.5 -23t-39.5 23t-12.5 78zM281 395q0 -104 50.5 -160.5t150.5 -56.5q99 0 149.5 56.5t50.5 160.5q0 103 -50.5 160t-149.5 57t-150 -57t-51 -160zM32 388q0 -240 136 -432h94q-59 93 -90 207
t-31 225q0 112 31 226t90 208h-94q-136 -193 -136 -434zM928 388q0 241 -136 434h-94q59 -94 90 -209.5t31 -227.5q0 -111 -31 -223t-90 -206h94q136 192 136 432z" />
    <glyph glyph-name="_816" unicode="&#x24ab;" 
d="M455 663h-150v-585h150v194q38 -33 92 -33q76 0 118 55t42 162t-42 162t-118 55q-54 0 -92 -33v23zM455 456q0 55 11.5 78.5t38.5 23.5t39.5 -23.5t12.5 -78.5q0 -56 -12.5 -79.5t-39.5 -23.5t-38.5 23.5t-11.5 79.5zM32 388q0 -240 136 -432h94q-59 93 -90 207t-31 225
q0 112 31 226t90 208h-94q-136 -193 -136 -434zM928 388q0 241 -136 434h-94q59 -94 90 -209.5t31 -227.5q0 -111 -31 -223t-90 -206h94q136 192 136 432z" />
    <glyph glyph-name="_817" unicode="&#x24ac;" 
d="M504 640q-35 33 -92 33q-77 0 -118.5 -55t-41.5 -162t41.5 -162t118.5 -55q59 0 92 33v-194h150v585h-150v-23zM504 456q0 -56 -11.5 -79.5t-39.5 -23.5t-39.5 23.5t-11.5 79.5t11.5 79t39.5 23q27 0 39 -23.5t12 -78.5zM32 388q0 -240 136 -432h94q-59 93 -90 207
t-31 225q0 112 31 226t90 208h-94q-136 -193 -136 -434zM928 388q0 241 -136 434h-94q59 -94 90 -209.5t31 -227.5q0 -111 -31 -223t-90 -206h94q136 192 136 432z" />
    <glyph glyph-name="_818" unicode="&#x24ad;" 
d="M587 476q35 0 44 -2l1 118q-19 9 -43 9q-57 0 -91 -40v30h-144v-415h150v200q0 100 83 100zM32 388q0 -240 136 -432h94q-59 93 -90 207t-31 225q0 112 31 226t90 208h-94q-136 -193 -136 -434zM928 388q0 241 -136 434h-94q59 -94 90 -209.5t31 -227.5q0 -111 -31 -223
t-90 -206h94q136 192 136 432z" />
    <glyph glyph-name="_819" unicode="&#x24ae;" 
d="M307 313q0 -60 47.5 -98t132.5 -38q84 0 132.5 38t48.5 100q0 60 -33.5 90.5t-108.5 44.5q-6 1 -18.5 3.5t-18.5 3.5q-34 6 -34 26q0 21 24 21t24 -21v-15h148v14q0 56 -45.5 92.5t-126.5 36.5t-126.5 -37.5t-45.5 -96.5q0 -54 34.5 -84.5t105.5 -45.5q26 -6 40 -9
q31 -7 31 -29q0 -26 -31 -26q-30 0 -30 26v17h-150v-13zM32 388q0 -240 136 -432h94q-59 93 -90 207t-31 225q0 112 31 226t90 208h-94q-136 -193 -136 -434zM928 388q0 241 -136 434h-94q59 -94 90 -209.5t31 -227.5q0 -111 -31 -223t-90 -206h94q136 192 136 432z" />
    <glyph glyph-name="_820" unicode="&#x24af;" 
d="M527 442h100v115h-100v111h-152v-111h-57v-115h57v-163q0 -77 37.5 -109.5t127.5 -32.5q33 0 87 3v112h-53q-28 0 -37.5 8.5t-9.5 34.5v147zM32 388q0 -240 136 -432h94q-59 93 -90 207t-31 225q0 112 31 226t90 208h-94q-136 -193 -136 -434zM928 388q0 241 -136 434
h-94q59 -94 90 -209.5t31 -227.5q0 -111 -31 -223t-90 -206h94q136 192 136 432z" />
    <glyph glyph-name="_821" unicode="&#x24b0;" 
d="M280 331q0 -80 36.5 -121.5t104.5 -41.5q56 0 92 34v-25h151v415h-151v-235q0 -36 -13 -55.5t-36 -19.5q-34 0 -34 51v259h-150v-261zM32 388q0 -240 136 -432h94q-59 93 -90 207t-31 225q0 112 31 226t90 208h-94q-136 -193 -136 -434zM928 388q0 241 -136 434h-94
q59 -94 90 -209.5t31 -227.5q0 -111 -31 -223t-90 -206h94q136 192 136 432z" />
    <glyph glyph-name="_822" unicode="&#x24b1;" 
d="M549 165l145 415h-156l-63 -228l-64 228h-156l146 -415h148zM32 388q0 -240 136 -432h94q-59 93 -90 207t-31 225q0 112 31 226t90 208h-94q-136 -193 -136 -434zM928 388q0 241 -136 434h-94q59 -94 90 -209.5t31 -227.5q0 -111 -31 -223t-90 -206h94q136 192 136 432z
" />
    <glyph glyph-name="_823" unicode="&#x24b2;" 
d="M422 587l-63 -225l-57 225h-137q31 128 97 235h-94q-136 -193 -136 -434q0 -240 136 -432h94q-59 93 -90 207t-31 225q0 80 17 165l122 -381h139l59 206l61 -206h140l122 384q18 -85 18 -171q0 -111 -31 -223t-90 -206h94q136 192 136 432q0 241 -136 434h-94
q64 -104 96 -235h-136l-58 -225l-63 225h-115z" />
    <glyph glyph-name="_824" unicode="&#x24b3;" 
d="M534 180h159l-118 214l110 201h-158l-47 -108l-47 108h-157l109 -202l-118 -213h158l55 118zM31 388q0 -241 136 -431h95q-59 92 -90 205.5t-31 225.5t31 225.5t90 207.5h-95q-136 -193 -136 -433zM928 388q0 240 -136 433h-95q59 -93 90 -208.5t31 -227.5t-31 -224
t-90 -204h95q136 190 136 431z" />
    <glyph glyph-name="_825" unicode="&#x24b4;" 
d="M403 205q-9 -32 -40 -32h-44v-111q29 -4 68 -4q66 0 98.5 25t58.5 99l161 460h-156l-62 -223l-65 223h-156l147 -403zM32 388q0 -240 136 -432h94q-59 93 -90 207t-31 225q0 112 31 226t90 208h-94q-136 -193 -136 -434zM928 388q0 241 -136 434h-94q59 -94 90 -209.5
t31 -227.5q0 -111 -31 -223t-90 -206h94q136 192 136 432z" />
    <glyph glyph-name="_826" unicode="&#x24b5;" 
d="M647 600h-338v-116h149l-155 -201v-98h349v115h-161l156 201v99zM31 388q0 -241 136 -431h95q-59 92 -90 205.5t-31 225.5t31 225.5t90 207.5h-95q-136 -193 -136 -433zM928 388q0 240 -136 433h-95q59 -93 90 -208.5t31 -227.5t-31 -224t-90 -204h95q136 190 136 431z
" />
    <glyph glyph-name="_8388" unicode="&#x24b6;" 
d="M481 820q88 0 168 -34.5t138 -92.5t92.5 -138t34.5 -168t-34.5 -168t-92.5 -138t-138 -92.5t-168 -34.5q-180 0 -307.5 127t-127.5 306t127.5 306t307.5 127zM481 781q-163 0 -278 -115.5t-115 -278.5t115 -278.5t278 -115.5q161 0 276 115.5t115 278.5t-115 278.5
t-276 115.5zM444 662h70l196 -511h-70l-49 133h-225l-48 -133h-70zM479 595l-93 -255h186z" />
    <glyph glyph-name="_8389" unicode="&#x24b7;" 
d="M481 820q88 0 168 -34.5t138 -92.5t92.5 -138t34.5 -168t-34.5 -168t-92.5 -138t-138 -92.5t-168 -34.5q-180 0 -307.5 127t-127.5 306t127.5 306t307.5 127zM481 781q-163 0 -278 -115.5t-115 -278.5t115 -278.5t278 -115.5q161 0 276 115.5t115 278.5t-115 278.5
t-276 115.5zM322 141v511h175q79 0 123.5 -37.5t44.5 -97.5q0 -34 -17 -62t-47 -42q43 -16 66.5 -48.5t23.5 -76.5q0 -69 -48 -108t-135 -39h-186zM386 435h102q54 0 83.5 21.5t29.5 60.5q0 78 -113 78h-102v-160zM627 288q0 90 -129 90h-112v-180h112q129 0 129 90z" />
    <glyph glyph-name="_8390" unicode="&#x24b8;" 
d="M481 820q88 0 168 -34.5t138 -92.5t92.5 -138t34.5 -168t-34.5 -168t-92.5 -138t-138 -92.5t-168 -34.5q-180 0 -307.5 127t-127.5 306t127.5 306t307.5 127zM481 781q-163 0 -278 -115.5t-115 -278.5t115 -278.5t278 -115.5q161 0 276 115.5t115 278.5t-115 278.5
t-276 115.5zM257 397q0 116 72 190t190 74q66 0 119 -21l-6 -65q-49 28 -108 28q-94 0 -147.5 -57.5t-53.5 -148.5q0 -94 54.5 -150t147.5 -56q60 0 109 29l7 -65q-48 -22 -118 -22q-122 0 -194 72.5t-72 191.5z" />
    <glyph glyph-name="_8391" unicode="&#x24b9;" 
d="M481 820q88 0 168 -34.5t138 -92.5t92.5 -138t34.5 -168t-34.5 -168t-92.5 -138t-138 -92.5t-168 -34.5q-180 0 -307.5 127t-127.5 306t127.5 306t307.5 127zM481 781q-163 0 -278 -115.5t-115 -278.5t115 -278.5t278 -115.5q161 0 276 115.5t115 278.5t-115 278.5
t-276 115.5zM657 397q0 198 -219 198h-56v-397h56q219 0 219 199zM723 397q0 -123 -76 -189.5t-199 -66.5h-130v511h130q123 0 199 -66t76 -189z" />
    <glyph glyph-name="_8392" unicode="&#x24ba;" 
d="M481 820q88 0 168 -34.5t138 -92.5t92.5 -138t34.5 -168t-34.5 -168t-92.5 -138t-138 -92.5t-168 -34.5q-180 0 -307.5 127t-127.5 306t127.5 306t307.5 127zM481 781q-163 0 -278 -115.5t-115 -278.5t115 -278.5t278 -115.5q161 0 276 115.5t115 278.5t-115 278.5
t-276 115.5zM323 141v511h319v-57h-255v-162h236v-57h-236v-178h261v-57h-325z" />
    <glyph glyph-name="_8393" unicode="&#x24bb;" 
d="M481 820q88 0 168 -34.5t138 -92.5t92.5 -138t34.5 -168t-34.5 -168t-92.5 -138t-138 -92.5t-168 -34.5q-180 0 -307.5 127t-127.5 306t127.5 306t307.5 127zM481 781q-163 0 -278 -115.5t-115 -278.5t115 -278.5t278 -115.5q161 0 276 115.5t115 278.5t-115 278.5
t-276 115.5zM341 141v511h316v-57h-253v-159h236v-58h-236v-237h-63z" />
    <glyph glyph-name="_8394" unicode="&#x24bc;" 
d="M481 820q88 0 168 -34.5t138 -92.5t92.5 -138t34.5 -168t-34.5 -168t-92.5 -138t-138 -92.5t-168 -34.5q-180 0 -307.5 127t-127.5 306t127.5 306t307.5 127zM481 781q-163 0 -278 -115.5t-115 -278.5t115 -278.5t278 -115.5q161 0 276 115.5t115 278.5t-115 278.5
t-276 115.5zM227 397q0 114 73.5 189t194.5 75q88 0 151 -26l-6 -64q-67 32 -141 32q-94 0 -150.5 -57.5t-56.5 -148.5q0 -93 57 -149.5t159 -56.5q52 0 84 13v161h-139v57h203v-261q-68 -28 -154 -28q-125 0 -200 73.5t-75 190.5z" />
    <glyph glyph-name="_8395" unicode="&#x24bd;" 
d="M481 820q88 0 168 -34.5t138 -92.5t92.5 -138t34.5 -168t-34.5 -168t-92.5 -138t-138 -92.5t-168 -34.5q-180 0 -307.5 127t-127.5 306t127.5 306t307.5 127zM481 781q-163 0 -278 -115.5t-115 -278.5t115 -278.5t278 -115.5q161 0 276 115.5t115 278.5t-115 278.5
t-276 115.5zM281 141v511h64v-211h267v211h65v-511h-65v243h-267v-243h-64z" />
    <glyph glyph-name="_8396" unicode="&#x24be;" 
d="M481 820q88 0 168 -34.5t138 -92.5t92.5 -138t34.5 -168t-34.5 -168t-92.5 -138t-138 -92.5t-168 -34.5q-180 0 -307.5 127t-127.5 306t127.5 306t307.5 127zM481 781q-163 0 -278 -115.5t-115 -278.5t115 -278.5t278 -115.5q161 0 276 115.5t115 278.5t-115 278.5
t-276 115.5zM447 652h64v-511h-64v511z" />
    <glyph glyph-name="_8397" unicode="&#x24bf;" 
d="M481 820q88 0 168 -34.5t138 -92.5t92.5 -138t34.5 -168t-34.5 -168t-92.5 -138t-138 -92.5t-168 -34.5q-180 0 -307.5 127t-127.5 306t127.5 306t307.5 127zM481 781q-163 0 -278 -115.5t-115 -278.5t115 -278.5t278 -115.5q161 0 276 115.5t115 278.5t-115 278.5
t-276 115.5zM544 306v344h64v-344q0 -174 -152 -174q-64 0 -107 21l5 64q40 -27 100 -27q90 0 90 116z" />
    <glyph glyph-name="_8398" unicode="&#x24c0;" 
d="M481 820q88 0 168 -34.5t138 -92.5t92.5 -138t34.5 -168t-34.5 -168t-92.5 -138t-138 -92.5t-168 -34.5q-180 0 -307.5 127t-127.5 306t127.5 306t307.5 127zM481 781q-163 0 -278 -115.5t-115 -278.5t115 -278.5t278 -115.5q161 0 276 115.5t115 278.5t-115 278.5
t-276 115.5zM592 652h80l-229 -239l264 -272h-86l-246 260v-260h-64v511h64v-226z" />
    <glyph glyph-name="_8399" unicode="&#x24c1;" 
d="M481 820q88 0 168 -34.5t138 -92.5t92.5 -138t34.5 -168t-34.5 -168t-92.5 -138t-138 -92.5t-168 -34.5q-180 0 -307.5 127t-127.5 306t127.5 306t307.5 127zM481 781q-163 0 -278 -115.5t-115 -278.5t115 -278.5t278 -115.5q161 0 276 115.5t115 278.5t-115 278.5
t-276 115.5zM329 141v511h64v-454h275v-57h-339z" />
    <glyph glyph-name="_8400" unicode="&#x24c2;" 
d="M481 820q88 0 168 -34.5t138 -92.5t92.5 -138t34.5 -168t-34.5 -168t-92.5 -138t-138 -92.5t-168 -34.5q-180 0 -307.5 127t-127.5 306t127.5 306t307.5 127zM481 781q-163 0 -278 -115.5t-115 -278.5t115 -278.5t278 -115.5q161 0 276 115.5t115 278.5t-115 278.5
t-276 115.5zM506 311h-54l-162 248v-418h-61v511h68l182 -281l182 281h68v-511h-61v418z" />
    <glyph glyph-name="_8401" unicode="&#x24c3;" 
d="M481 820q88 0 168 -34.5t138 -92.5t92.5 -138t34.5 -168t-34.5 -168t-92.5 -138t-138 -92.5t-168 -34.5q-180 0 -307.5 127t-127.5 306t127.5 306t307.5 127zM481 781q-163 0 -278 -115.5t-115 -278.5t115 -278.5t278 -115.5q161 0 276 115.5t115 278.5t-115 278.5
t-276 115.5zM279 141v511h77l262 -431v431h61v-511h-77l-262 431v-431h-61z" />
    <glyph glyph-name="_8402" unicode="&#x24c4;" 
d="M481 820q88 0 168 -34.5t138 -92.5t92.5 -138t34.5 -168t-34.5 -168t-92.5 -138t-138 -92.5t-168 -34.5q-180 0 -307.5 127t-127.5 306t127.5 306t307.5 127zM481 781q-163 0 -278 -115.5t-115 -278.5t115 -278.5t278 -115.5q161 0 276 115.5t115 278.5t-115 278.5
t-276 115.5zM707 397q0 -115 -61.5 -189.5t-166.5 -74.5q-106 0 -167.5 74.5t-61.5 189.5t61.5 189.5t167.5 74.5q105 0 166.5 -75t61.5 -189zM316 397q0 -94 44.5 -150t118.5 -56t118 56t44 150t-44 150t-118 56t-118.5 -56t-44.5 -150z" />
    <glyph glyph-name="_8403" unicode="&#x24c5;" 
d="M481 820q88 0 168 -34.5t138 -92.5t92.5 -138t34.5 -168t-34.5 -168t-92.5 -138t-138 -92.5t-168 -34.5q-180 0 -307.5 127t-127.5 306t127.5 306t307.5 127zM481 781q-163 0 -278 -115.5t-115 -278.5t115 -278.5t278 -115.5q161 0 276 115.5t115 278.5t-115 278.5
t-276 115.5zM693 493q0 -75 -51.5 -116.5t-138.5 -41.5h-94v-194h-65v511h159q87 0 138.5 -42t51.5 -117zM628 493q0 102 -130 102h-89v-203h89q66 0 98 24.5t32 76.5z" />
    <glyph glyph-name="_8404" unicode="&#x24c6;" 
d="M481 820q88 0 168 -34.5t138 -92.5t92.5 -138t34.5 -168t-34.5 -168t-92.5 -138t-138 -92.5t-168 -34.5q-180 0 -307.5 127t-127.5 306t127.5 306t307.5 127zM481 781q-163 0 -278 -115.5t-115 -278.5t115 -278.5t278 -115.5q161 0 276 115.5t115 278.5t-115 278.5
t-276 115.5zM701 421q0 -103 -50 -175t-138 -86q6 -32 30 -46q23 -12 66 -12q30 0 62 8l7 -53q-37 -7 -71 -7q-61 0 -101 22q-43 28 -54 86q-97 7 -152.5 80.5t-55.5 182.5q0 115 61.5 189.5t167.5 74.5q105 0 166.5 -75t61.5 -189zM310 421q0 -94 44.5 -149.5t118.5 -55.5
t118 55.5t44 149.5t-44 149.5t-118 55.5t-118.5 -55.5t-44.5 -149.5z" />
    <glyph glyph-name="_8405" unicode="&#x24c7;" 
d="M481 820q88 0 168 -34.5t138 -92.5t92.5 -138t34.5 -168t-34.5 -168t-92.5 -138t-138 -92.5t-168 -34.5q-180 0 -307.5 127t-127.5 306t127.5 306t307.5 127zM481 781q-163 0 -278 -115.5t-115 -278.5t115 -278.5t278 -115.5q161 0 276 115.5t115 278.5t-115 278.5
t-276 115.5zM680 503q0 -53 -30.5 -88.5t-83.5 -50.5l146 -223h-74l-138 214h-110v-214h-65v511h171q81 0 132.5 -39t51.5 -110zM614 503q0 92 -123 92h-101v-184h101q123 0 123 92z" />
    <glyph glyph-name="_8406" unicode="&#x24c8;" 
d="M481 820q88 0 168 -34.5t138 -92.5t92.5 -138t34.5 -168t-34.5 -168t-92.5 -138t-138 -92.5t-168 -34.5q-180 0 -307.5 127t-127.5 306t127.5 306t307.5 127zM481 781q-163 0 -278 -115.5t-115 -278.5t115 -278.5t278 -115.5q161 0 276 115.5t115 278.5t-115 278.5
t-276 115.5zM615 638l-5 -64q-50 29 -118 29q-54 0 -81.5 -19.5t-27.5 -53.5q0 -31 24 -53t78 -40q85 -29 122 -66t37 -95q0 -68 -48.5 -105.5t-135.5 -37.5q-79 0 -139 34l5 66q60 -42 139 -42q55 0 84 21t29 60q0 37 -25 61t-86 43q-76 25 -113 62t-37 92q0 61 46.5 96
t129.5 35q68 0 122 -23z" />
    <glyph glyph-name="_8407" unicode="&#x24c9;" 
d="M481 820q88 0 168 -34.5t138 -92.5t92.5 -138t34.5 -168t-34.5 -168t-92.5 -138t-138 -92.5t-168 -34.5q-180 0 -307.5 127t-127.5 306t127.5 306t307.5 127zM481 781q-163 0 -278 -115.5t-115 -278.5t115 -278.5t278 -115.5q161 0 276 115.5t115 278.5t-115 278.5
t-276 115.5zM447 141v454h-159v57h382v-57h-159v-454h-64z" />
    <glyph glyph-name="_8408" unicode="&#x24ca;" 
d="M481 820q88 0 168 -34.5t138 -92.5t92.5 -138t34.5 -168t-34.5 -168t-92.5 -138t-138 -92.5t-168 -34.5q-180 0 -307.5 127t-127.5 306t127.5 306t307.5 127zM481 781q-163 0 -278 -115.5t-115 -278.5t115 -278.5t278 -115.5q161 0 276 115.5t115 278.5t-115 278.5
t-276 115.5zM479 132q-93 0 -148 52.5t-55 154.5v311h64v-307q0 -153 139 -153q138 0 138 153v307h64v-311q0 -103 -53.5 -155t-148.5 -52z" />
    <glyph glyph-name="_8409" unicode="&#x24cb;" 
d="M481 820q88 0 168 -34.5t138 -92.5t92.5 -138t34.5 -168t-34.5 -168t-92.5 -138t-138 -92.5t-168 -34.5q-180 0 -307.5 127t-127.5 306t127.5 306t307.5 127zM481 781q-163 0 -278 -115.5t-115 -278.5t115 -278.5t278 -115.5q161 0 276 115.5t115 278.5t-115 278.5
t-276 115.5zM514 141h-70l-196 511h66l165 -435l164 435h67z" />
    <glyph glyph-name="_8410" unicode="&#x24cc;" 
d="M481 820q88 0 168 -34.5t138 -92.5t92.5 -138t34.5 -168t-34.5 -168t-92.5 -138t-138 -92.5t-168 -34.5q-180 0 -307.5 127t-127.5 306t127.5 306t307.5 127zM481 781q-163 0 -278 -115.5t-115 -278.5t115 -278.5t278 -115.5q161 0 276 115.5t115 278.5t-115 278.5
t-276 115.5zM440 652h78l79 -435l101 435h69l-126 -511h-87l-75 429l-76 -429h-86l-126 511h68l102 -435z" />
    <glyph glyph-name="_8411" unicode="&#x24cd;" 
d="M481 820q88 0 168 -34.5t138 -92.5t92.5 -138t34.5 -168t-34.5 -168t-92.5 -138t-138 -92.5t-168 -34.5q-180 0 -307.5 127t-127.5 306t127.5 306t307.5 127zM481 781q-163 0 -278 -115.5t-115 -278.5t115 -278.5t278 -115.5q161 0 276 115.5t115 278.5t-115 278.5
t-276 115.5zM441 401l-187 251h75l150 -203l150 203h75l-187 -251l194 -260h-75l-157 212l-158 -212h-74z" />
    <glyph glyph-name="_8412" unicode="&#x24ce;" 
d="M481 820q88 0 168 -34.5t138 -92.5t92.5 -138t34.5 -168t-34.5 -168t-92.5 -138t-138 -92.5t-168 -34.5q-180 0 -307.5 127t-127.5 306t127.5 306t307.5 127zM481 781q-163 0 -278 -115.5t-115 -278.5t115 -278.5t278 -115.5q161 0 276 115.5t115 278.5t-115 278.5
t-276 115.5zM706 652l-195 -308v-203h-64v203l-195 308h75l152 -247l152 247h75z" />
    <glyph glyph-name="_8413" unicode="&#x24cf;" 
d="M481 820q88 0 168 -34.5t138 -92.5t92.5 -138t34.5 -168t-34.5 -168t-92.5 -138t-138 -92.5t-168 -34.5q-180 0 -307.5 127t-127.5 306t127.5 306t307.5 127zM481 781q-163 0 -278 -115.5t-115 -278.5t115 -278.5t278 -115.5q161 0 276 115.5t115 278.5t-115 278.5
t-276 115.5zM296 206l285 389h-274v57h347v-64l-285 -390h293v-57h-366v65z" />
    <glyph glyph-name="_707" unicode="&#x24d0;" 
d="M22 393q0 -194 132.5 -324.5t325.5 -130.5t325.5 130.5t132.5 324.5t-132.5 325t-325.5 131t-325.5 -131t-132.5 -325zM122 393q0 157 101.5 261t256.5 104q154 0 255.5 -104t101.5 -261t-101.5 -260.5t-255.5 -103.5q-155 0 -256.5 103.5t-101.5 260.5zM525 185h155
q-17 34 -17 71v200q0 70 -48 112t-138 42q-88 0 -136 -40t-50 -108h151q3 35 35 35q35 0 35 -39v-37q-34 26 -89 26q-68 0 -108 -36t-40 -99q0 -64 40 -100t108 -36q62 0 94 31q5 -17 8 -22zM469 279q-44 0 -44 33t44 33q43 0 43 -33t-43 -33z" />
    <glyph glyph-name="_708" unicode="&#x24d1;" 
d="M22 393q0 -194 132.5 -325t325.5 -131t325.5 131t132.5 325t-132.5 325t-325.5 131t-325.5 -131t-132.5 -325zM122 393q0 157 101.5 261t256.5 104t256.5 -104t101.5 -261t-101.5 -260.5t-256.5 -103.5t-256.5 103.5t-101.5 260.5zM460 152q37 -34 92 -34q76 0 118 55
t42 162t-42 162t-118 55q-54 0 -92 -33v180h-150v-571h150v24zM460 335q0 55 12 79t38 24q27 0 39 -23.5t12 -79.5t-12 -79.5t-39 -23.5t-38.5 23.5t-11.5 79.5z" />
    <glyph glyph-name="_709" unicode="&#x24d2;" 
d="M22 393q0 -194 132.5 -325t325.5 -131t325.5 131t132.5 325t-132.5 325t-325.5 131t-325.5 -131t-132.5 -325zM122 393q0 157 101.5 261t256.5 104t256.5 -104t101.5 -261t-101.5 -260.5t-256.5 -103.5t-256.5 103.5t-101.5 260.5zM280 392q0 -104 51 -160.5t150 -56.5
q88 0 140 46t56 129h-148q-6 -59 -48 -59q-27 0 -39 23.5t-12 77.5q0 53 12 77t39 24q42 0 48 -58h148q-4 82 -56.5 128t-139.5 46q-99 0 -150 -56.5t-51 -160.5z" />
    <glyph glyph-name="_710" unicode="&#x24d3;" 
d="M22 393q0 -194 132.5 -325t325.5 -131t325.5 131t132.5 325t-132.5 325t-325.5 131t-325.5 -131t-132.5 -325zM122 393q0 157 101.5 261t256.5 104t256.5 -104t101.5 -261t-101.5 -260.5t-256.5 -103.5t-256.5 103.5t-101.5 260.5zM503 132h151v571h-151v-180
q-33 33 -92 33q-77 0 -118.5 -55t-41.5 -162t41.5 -162t118.5 -55q58 0 92 34v-24zM503 339q0 -56 -11.5 -79.5t-38.5 -23.5q-28 0 -39.5 23.5t-11.5 79.5t11.5 79.5t39.5 23.5q27 0 38.5 -23.5t11.5 -79.5z" />
    <glyph glyph-name="_711" unicode="&#x24d4;" 
d="M22 393q0 -194 132.5 -324.5t325.5 -130.5t325.5 130.5t132.5 324.5t-132.5 325t-325.5 131t-325.5 -131t-132.5 -325zM122 393q0 157 101.5 261t256.5 104q154 0 255.5 -104t101.5 -261t-101.5 -260.5t-255.5 -103.5q-155 0 -256.5 103.5t-101.5 260.5zM676 351
q3 14 3 42q0 103 -50.5 160t-149.5 57q-100 0 -150.5 -57t-50.5 -160q0 -104 50.5 -160.5t150.5 -56.5q79 0 130 39t64 115h-150q-6 -45 -44 -45q-48 0 -51 66h248zM479 501q44 0 49 -56h-99q5 56 50 56z" />
    <glyph glyph-name="_712" unicode="&#x24d5;" 
d="M22 393q0 -194 132.5 -325t325.5 -131t325.5 131t132.5 325t-132.5 325t-325.5 131t-325.5 -131t-132.5 -325zM122 393q0 157 101.5 261t256.5 104t256.5 -104t101.5 -261t-101.5 -260.5t-256.5 -103.5t-256.5 103.5t-101.5 260.5zM625 565v108q-31 7 -85 7
q-86 0 -123.5 -32t-37.5 -103v-30h-58v-116h58v-295h149v295h97v116h-97v20q0 30 34 30h63z" />
    <glyph glyph-name="_713" unicode="&#x24d6;" 
d="M22 393q0 -194 132.5 -325t325.5 -131t325.5 131t132.5 325t-132.5 325t-325.5 131t-325.5 -131t-132.5 -325zM122 393q0 157 101.5 261t256.5 104t256.5 -104t101.5 -261t-101.5 -260.5t-256.5 -103.5t-256.5 103.5t-101.5 260.5zM521 469q0 -56 -12 -79.5t-39 -23.5
q-28 0 -39.5 23.5t-11.5 79.5q0 55 11.5 78.5t39.5 23.5q27 0 39 -23.5t12 -78.5zM671 676h-150v-24q-36 34 -92 34q-77 0 -119 -55t-42 -162t42 -162t119 -55q59 0 92 33v-41q0 -55 -41 -55q-36 0 -40 43h-153q9 -72 58 -112t134 -40q95 0 143.5 47t48.5 126v423z" />
    <glyph glyph-name="_714" unicode="&#x24d7;" 
d="M22 393q0 -194 132.5 -325t325.5 -131t325.5 131t132.5 325t-132.5 325t-325.5 131t-325.5 -131t-132.5 -325zM122 393q0 157 101.5 261t256.5 104t256.5 -104t101.5 -261t-101.5 -260.5t-256.5 -103.5t-256.5 103.5t-101.5 260.5zM689 383q0 164 -141 164q-57 0 -93 -34
v181h-150v-572h150v236q0 35 13.5 54.5t36.5 19.5q34 0 34 -50v-260h150v261z" />
    <glyph glyph-name="_715" unicode="&#x24d8;" 
d="M22 393q0 -194 132.5 -325t325.5 -131t325.5 131t132.5 325t-132.5 325t-325.5 131t-325.5 -131t-132.5 -325zM122 393q0 157 101.5 261t256.5 104t256.5 -104t101.5 -261t-101.5 -260.5t-256.5 -103.5t-256.5 103.5t-101.5 260.5zM403 558h150v125h-150v-125zM403 111
h150v409h-150v-409z" />
    <glyph glyph-name="_716" unicode="&#x24d9;" 
d="M22 393q0 -194 132.5 -325t325.5 -131t325.5 131t132.5 325t-132.5 325t-325.5 131t-325.5 -131t-132.5 -325zM122 393q0 157 101.5 261t256.5 104t256.5 -104t101.5 -261t-101.5 -260.5t-256.5 -103.5t-256.5 103.5t-101.5 260.5zM427 225q0 -43 -34 -43h-46v-111
q24 -3 70 -3q161 0 161 148v341h-151v-332zM427 596h151v124h-151v-124z" />
    <glyph glyph-name="_717" unicode="&#x24da;" 
d="M22 393q0 -194 132.5 -324.5t325.5 -130.5t325.5 130.5t132.5 324.5t-132.5 325t-325.5 131t-325.5 -131t-132.5 -325zM122 393q0 157 101.5 261t256.5 104q154 0 255.5 -104t101.5 -261t-101.5 -260.5t-255.5 -103.5q-155 0 -256.5 103.5t-101.5 260.5zM310 127h150v158
l90 -158h160l-123 216l106 199h-158l-75 -141v298h-150v-572z" />
    <glyph glyph-name="_718" unicode="&#x24db;" 
d="M22 393q0 -194 132.5 -325t325.5 -131t325.5 131t132.5 325t-132.5 325t-325.5 131t-325.5 -131t-132.5 -325zM122 393q0 157 101.5 261t256.5 104t256.5 -104t101.5 -261t-101.5 -260.5t-256.5 -103.5t-256.5 103.5t-101.5 260.5zM557 106v572h-150v-572h150z" />
    <glyph glyph-name="_719" unicode="&#x24dc;" 
d="M22 393q0 -194 132.5 -324.5t325.5 -130.5t325.5 130.5t132.5 324.5t-132.5 325t-325.5 131t-325.5 -131t-132.5 -325zM122 393q0 157 101.5 261t256.5 104q154 0 255.5 -104t101.5 -261t-101.5 -260.5t-255.5 -103.5q-155 0 -256.5 103.5t-101.5 260.5zM557 420
q0 74 42 74q26 0 26 -47v-262h145v261q0 163 -133 163q-70 0 -108 -52q-33 52 -104 52q-49 0 -81 -29v19h-145v-414h145v235q0 74 41 74q27 0 27 -47v-262h145v235z" />
    <glyph glyph-name="_720" unicode="&#x24dd;" 
d="M22 393q0 -194 132.5 -325t325.5 -131t325.5 131t132.5 325t-132.5 325t-325.5 131t-325.5 -131t-132.5 -325zM122 393q0 157 101.5 261t256.5 104t256.5 -104t101.5 -261t-101.5 -260.5t-256.5 -103.5t-256.5 103.5t-101.5 260.5zM675 446q0 81 -36.5 122.5t-104.5 41.5
q-59 0 -93 -34v24h-150v-415h150v236q0 74 50 74q33 0 33 -50v-260h151v261z" />
    <glyph glyph-name="_721" unicode="&#x24de;" 
d="M22 393q0 -194 132.5 -325t325.5 -131t325.5 131t132.5 325t-132.5 325t-325.5 131t-325.5 -131t-132.5 -325zM122 393q0 157 101.5 261t256.5 104t256.5 -104t101.5 -261t-101.5 -260.5t-256.5 -103.5t-256.5 103.5t-101.5 260.5zM430 395q0 53 12 77t40 24
q27 0 38.5 -23.5t11.5 -77.5q0 -55 -11.5 -78t-38.5 -23t-39.5 23t-12.5 78zM281 395q0 -104 50.5 -160.5t150.5 -56.5q99 0 149.5 56.5t50.5 160.5q0 103 -50.5 160t-149.5 57t-150 -57t-51 -160z" />
    <glyph glyph-name="_722" unicode="&#x24df;" 
d="M22 393q0 -194 132.5 -325t325.5 -131t325.5 131t132.5 325t-132.5 325t-325.5 131t-325.5 -131t-132.5 -325zM122 393q0 157 101.5 261t256.5 104t256.5 -104t101.5 -261t-101.5 -260.5t-256.5 -103.5t-256.5 103.5t-101.5 260.5zM455 663h-150v-585h150v194
q38 -33 92 -33q76 0 118 55t42 162t-42 162t-118 55q-54 0 -92 -33v23zM455 456q0 55 11.5 78.5t38.5 23.5t39.5 -23.5t12.5 -78.5q0 -56 -12.5 -79.5t-39.5 -23.5t-38.5 23.5t-11.5 79.5z" />
    <glyph glyph-name="_723" unicode="&#x24e0;" 
d="M22 393q0 -194 132.5 -325t325.5 -131t325.5 131t132.5 325t-132.5 325t-325.5 131t-325.5 -131t-132.5 -325zM122 393q0 157 101.5 261t256.5 104t256.5 -104t101.5 -261t-101.5 -260.5t-256.5 -103.5t-256.5 103.5t-101.5 260.5zM504 640q-35 33 -92 33
q-77 0 -118.5 -55t-41.5 -162t41.5 -162t118.5 -55q59 0 92 33v-194h150v585h-150v-23zM504 456q0 -56 -11.5 -79.5t-39.5 -23.5t-39.5 23.5t-11.5 79.5t11.5 79t39.5 23q27 0 39 -23.5t12 -78.5z" />
    <glyph glyph-name="_724" unicode="&#x24e1;" 
d="M22 393q0 -194 132.5 -325t325.5 -131t325.5 131t132.5 325t-132.5 325t-325.5 131t-325.5 -131t-132.5 -325zM122 393q0 157 101.5 261t256.5 104t256.5 -104t101.5 -261t-101.5 -260.5t-256.5 -103.5t-256.5 103.5t-101.5 260.5zM587 476q35 0 44 -2l1 118q-19 9 -43 9
q-57 0 -91 -40v30h-144v-415h150v200q0 100 83 100z" />
    <glyph glyph-name="_725" unicode="&#x24e2;" 
d="M22 393q0 -194 132.5 -325t325.5 -131t325.5 131t132.5 325t-132.5 325t-325.5 131t-325.5 -131t-132.5 -325zM122 393q0 157 101.5 261t256.5 104t256.5 -104t101.5 -261t-101.5 -260.5t-256.5 -103.5t-256.5 103.5t-101.5 260.5zM307 313q0 -60 47.5 -98t132.5 -38
q84 0 132.5 38t48.5 100q0 59 -33.5 89.5t-108.5 45.5q-6 1 -18.5 3.5t-18.5 3.5q-34 8 -34 26q0 21 24 21t24 -21v-15h148v14q0 56 -45.5 92.5t-126.5 36.5t-126.5 -37.5t-45.5 -96.5q0 -54 34.5 -84.5t105.5 -45.5q26 -6 40 -9q31 -5 31 -29q0 -26 -31 -26q-30 0 -30 26
v17h-150v-13z" />
    <glyph glyph-name="_726" unicode="&#x24e3;" 
d="M22 393q0 -194 132.5 -325t325.5 -131t325.5 131t132.5 325t-132.5 325t-325.5 131t-325.5 -131t-132.5 -325zM122 393q0 157 101.5 261t256.5 104t256.5 -104t101.5 -261t-101.5 -260.5t-256.5 -103.5t-256.5 103.5t-101.5 260.5zM527 442h100v115h-100v111h-152v-111
h-57v-115h57v-163q0 -77 37.5 -109.5t127.5 -32.5q33 0 87 3v112h-53q-28 0 -37.5 8.5t-9.5 34.5v147z" />
    <glyph glyph-name="_727" unicode="&#x24e4;" 
d="M22 393q0 -194 132.5 -325t325.5 -131t325.5 131t132.5 325t-132.5 325t-325.5 131t-325.5 -131t-132.5 -325zM122 393q0 157 101.5 261t256.5 104t256.5 -104t101.5 -261t-101.5 -260.5t-256.5 -103.5t-256.5 103.5t-101.5 260.5zM280 331q0 -80 36.5 -121.5
t104.5 -41.5q56 0 92 34v-25h151v415h-151v-235q0 -36 -13 -55.5t-36 -19.5q-34 0 -34 51v259h-150v-261z" />
    <glyph glyph-name="_728" unicode="&#x24e5;" 
d="M22 393q0 -194 132.5 -325t325.5 -131t325.5 131t132.5 325t-132.5 325t-325.5 131t-325.5 -131t-132.5 -325zM122 393q0 157 101.5 261t256.5 104t256.5 -104t101.5 -261t-101.5 -260.5t-256.5 -103.5t-256.5 103.5t-101.5 260.5zM549 165l145 415h-156l-63 -228
l-64 228h-156l146 -415h148z" />
    <glyph glyph-name="_729" unicode="&#x24e6;" 
d="M22 393q0 -194 132.5 -325t325.5 -131t325.5 131t132.5 325t-132.5 325t-325.5 131t-325.5 -131t-132.5 -325zM122 393q0 89 35 164l123 -385h139l59 206l61 -206h140l123 387q36 -77 36 -166q0 -157 -101.5 -260.5t-256.5 -103.5t-256.5 103.5t-101.5 260.5zM787 587
h-129l-58 -225l-63 225h-115l-63 -225l-57 225h-129q46 79 126.5 125t180.5 46t180 -46t127 -125z" />
    <glyph glyph-name="_730" unicode="&#x24e7;" 
d="M22 393q0 -194 132.5 -324.5t325.5 -130.5t325.5 130.5t132.5 324.5t-132.5 325t-325.5 131t-325.5 -131t-132.5 -325zM122 393q0 157 101.5 261t256.5 104q154 0 255.5 -104t101.5 -261t-101.5 -260.5t-255.5 -103.5q-155 0 -256.5 103.5t-101.5 260.5zM534 180h159
l-118 214l110 201h-158l-47 -108l-47 108h-157l109 -202l-118 -213h158l55 118z" />
    <glyph glyph-name="_731" unicode="&#x24e8;" 
d="M22 393q0 -194 132.5 -325t325.5 -131t325.5 131t132.5 325t-132.5 325t-325.5 131t-325.5 -131t-132.5 -325zM122 393q0 157 101.5 261t256.5 104t256.5 -104t101.5 -261t-101.5 -260.5t-256.5 -103.5q-84 0 -154 32q26 -3 61 -3q66 0 98.5 25t58.5 99l161 460h-156
l-62 -223l-65 223h-156l147 -403l-10 -34q-9 -32 -40 -32h-44v-109q-91 44 -144 131t-53 198z" />
    <glyph glyph-name="_732" unicode="&#x24e9;" 
d="M22 393q0 -194 132.5 -324.5t325.5 -130.5t325.5 130.5t132.5 324.5t-132.5 325t-325.5 131t-325.5 -131t-132.5 -325zM122 393q0 157 101.5 261t256.5 104q154 0 255.5 -104t101.5 -261t-101.5 -260.5t-255.5 -103.5q-155 0 -256.5 103.5t-101.5 260.5zM647 600h-338
v-116h149l-155 -201v-98h349v115h-161l156 201v99z" />
    <glyph glyph-name="_519" unicode="&#x2500;" 
d="M960 417h-960v-59h960v59z" />
    <glyph glyph-name="_530" unicode="&#x2501;" 
d="M0 435v-94h960v94h-960z" />
    <glyph glyph-name="_520" unicode="&#x2502;" 
d="M451 888v-1000h59v1000h-59z" />
    <glyph glyph-name="_531" unicode="&#x2503;" 
d="M433 888v-1000h94v1000h-94z" />
    <glyph glyph-name="_521" unicode="&#x250c;" 
d="M451 -112h59v470h450v59h-509v-529z" />
    <glyph glyph-name="_558" unicode="&#x250d;" 
d="M461 435v-547h37v453h462v94h-499z" />
    <glyph glyph-name="_557" unicode="&#x250e;" 
d="M527 369h433v36h-527v-517h94v481z" />
    <glyph glyph-name="_532" unicode="&#x250f;" 
d="M433 435v-547h94v453h433v94h-527z" />
    <glyph glyph-name="_522" unicode="&#x2510;" 
d="M510 417h-510v-59h451v-470h59v529z" />
    <glyph glyph-name="_552" unicode="&#x2511;" 
d="M461 341v-453h37v547h-498v-94h461z" />
    <glyph glyph-name="_551" unicode="&#x2512;" 
d="M433 369v-481h94v517h-527v-36h433z" />
    <glyph glyph-name="_533" unicode="&#x2513;" 
d="M0 435v-94h433v-453h94v547h-527z" />
    <glyph glyph-name="_524" unicode="&#x2514;" 
d="M451 358h509v59h-450v471h-59v-530z" />
    <glyph glyph-name="_556" unicode="&#x2515;" 
d="M498 435v453h-37v-547h499v94h-462z" />
    <glyph glyph-name="_555" unicode="&#x2516;" 
d="M527 405v483h-94v-519h527v36h-433z" />
    <glyph glyph-name="_535" unicode="&#x2517;" 
d="M433 888v-547h527v94h-433v453h-94z" />
    <glyph glyph-name="_523" unicode="&#x2518;" 
d="M510 888h-59v-471h-451v-59h510v530z" />
    <glyph glyph-name="_554" unicode="&#x2519;" 
d="M461 435h-461v-94h498v547h-37v-453z" />
    <glyph glyph-name="_553" unicode="&#x251a;" 
d="M433 405h-433v-36h527v519h-94v-483z" />
    <glyph glyph-name="_534" unicode="&#x251b;" 
d="M433 888v-453h-433v-94h527v547h-94z" />
    <glyph glyph-name="_525" unicode="&#x251c;" 
d="M451 888v-1000h59v470h450v59h-450v471h-59z" />
    <glyph glyph-name="_546" unicode="&#x251d;" 
d="M960 435h-462v453h-37v-1000h37v453h462v94z" />
    <glyph glyph-name="_559" unicode="&#x251e;" 
d="M433 888v-519h28v-481h37v481h462v36h-433v483h-94z" />
    <glyph glyph-name="_560" unicode="&#x251f;" 
d="M461 888v-483h-28v-517h94v481h433v36h-462v483h-37z" />
    <glyph glyph-name="_541" unicode="&#x2520;" 
d="M960 405h-433v483h-94v-1000h94v481h433v36z" />
    <glyph glyph-name="_561" unicode="&#x2521;" 
d="M461 -112h37v453h462v94h-433v453h-94v-547h28v-453z" />
    <glyph glyph-name="_562" unicode="&#x2522;" 
d="M433 -112h94v453h433v94h-462v453h-37v-453h-28v-547z" />
    <glyph glyph-name="_536" unicode="&#x2523;" 
d="M433 888v-1000h94v453h433v94h-433v453h-94z" />
    <glyph glyph-name="_527" unicode="&#x2524;" 
d="M510 888h-59v-471h-451v-59h451v-470h59v1000z" />
    <glyph glyph-name="_548" unicode="&#x2525;" 
d="M461 435h-461v-94h461v-453h37v1000h-37v-453z" />
    <glyph glyph-name="_563" unicode="&#x2526;" 
d="M433 888v-483h-433v-36h461v-481h37v481h29v519h-94z" />
    <glyph glyph-name="_564" unicode="&#x2527;" 
d="M0 405v-36h433v-481h94v517h-29v483h-37v-483h-461z" />
    <glyph glyph-name="_543" unicode="&#x2528;" 
d="M527 -112v1000h-94v-483h-433v-36h433v-481h94z" />
    <glyph glyph-name="_565" unicode="&#x2529;" 
d="M0 341h461v-453h37v453h29v547h-94v-453h-433v-94z" />
    <glyph glyph-name="_566" unicode="&#x252a;" 
d="M0 341h433v-453h94v547h-29v453h-37v-453h-461v-94z" />
    <glyph glyph-name="_538" unicode="&#x252b;" 
d="M0 341h433v-453h94v1000h-94v-453h-433v-94z" />
    <glyph glyph-name="_526" unicode="&#x252c;" 
d="M960 417h-960v-59h451v-470h59v470h450v59z" />
    <glyph glyph-name="_567" unicode="&#x252d;" 
d="M0 341h461v-453h37v481h462v36h-462v30h-498v-94z" />
    <glyph glyph-name="_568" unicode="&#x252e;" 
d="M0 369h461v-481h37v453h462v94h-499v-30h-461v-36z" />
    <glyph glyph-name="_542" unicode="&#x252f;" 
d="M960 435h-960v-94h461v-453h37v453h462v94z" />
    <glyph glyph-name="_547" unicode="&#x2530;" 
d="M960 405h-960v-36h433v-481h94v481h433v36z" />
    <glyph glyph-name="_569" unicode="&#x2531;" 
d="M0 341h433v-453h94v481h433v36h-433v30h-527v-94z" />
    <glyph glyph-name="_570" unicode="&#x2532;" 
d="M0 369h433v-481h94v453h433v94h-527v-30h-433v-36z" />
    <glyph glyph-name="_537" unicode="&#x2533;" 
d="M0 341h433v-453h94v453h433v94h-960v-94z" />
    <glyph glyph-name="_528" unicode="&#x2534;" 
d="M960 358v59h-450v471h-59v-471h-451v-59h960z" />
    <glyph glyph-name="_571" unicode="&#x2535;" 
d="M0 341h498v28h462v36h-462v483h-37v-453h-461v-94z" />
    <glyph glyph-name="_572" unicode="&#x2536;" 
d="M0 369h461v-28h499v94h-462v453h-37v-483h-461v-36z" />
    <glyph glyph-name="_544" unicode="&#x2537;" 
d="M461 435h-461v-94h960v94h-462v453h-37v-453z" />
    <glyph glyph-name="_549" unicode="&#x2538;" 
d="M433 405h-433v-36h960v36h-433v483h-94v-483z" />
    <glyph glyph-name="_573" unicode="&#x2539;" 
d="M0 341h527v28h433v36h-433v483h-94v-453h-433v-94z" />
    <glyph glyph-name="_574" unicode="&#x253a;" 
d="M0 369h433v-28h527v94h-433v453h-94v-483h-433v-36z" />
    <glyph glyph-name="_539" unicode="&#x253b;" 
d="M433 435h-433v-94h960v94h-433v453h-94v-453z" />
    <glyph glyph-name="_529" unicode="&#x253c;" 
d="M451 888v-471h-451v-59h451v-470h59v470h450v59h-450v471h-59z" />
    <glyph glyph-name="_575" unicode="&#x253d;" 
d="M0 341h461v-453h37v481h462v36h-462v483h-37v-453h-461v-94z" />
    <glyph glyph-name="_576" unicode="&#x253e;" 
d="M498 888h-37v-483h-461v-36h461v-481h37v453h462v94h-462v453z" />
    <glyph glyph-name="_545" unicode="&#x253f;" 
d="M461 435h-461v-94h461v-453h37v453h462v94h-462v453h-37v-453z" />
    <glyph glyph-name="_577" unicode="&#x2540;" 
d="M527 888h-94v-483h-433v-36h461v-481h37v481h462v36h-433v483z" />
    <glyph glyph-name="_578" unicode="&#x2541;" 
d="M498 888h-37v-483h-461v-36h433v-481h94v481h433v36h-462v483z" />
    <glyph glyph-name="_550" unicode="&#x2542;" 
d="M433 405h-433v-36h433v-481h94v481h433v36h-433v483h-94v-483z" />
    <glyph glyph-name="_579" unicode="&#x2543;" 
d="M527 888h-94v-453h-433v-94h461v-453h37v453h29v28h433v36h-433v483z" />
    <glyph glyph-name="_580" unicode="&#x2544;" 
d="M498 -112v453h462v94h-433v453h-94v-483h-433v-36h433v-28h28v-453h37z" />
    <glyph glyph-name="_581" unicode="&#x2545;" 
d="M498 888h-37v-453h-461v-94h433v-453h94v481h433v36h-433v30h-29v453z" />
    <glyph glyph-name="_582" unicode="&#x2546;" 
d="M498 888h-37v-453h-28v-30h-433v-36h433v-481h94v452h433v95h-462v453z" />
    <glyph glyph-name="_583" unicode="&#x2547;" 
d="M527 888h-94v-453h-433v-94h461v-453h37v453h462v94h-433v453z" />
    <glyph glyph-name="_584" unicode="&#x2548;" 
d="M498 888h-37v-453h-461v-94h433v-453h94v453h433v94h-462v453z" />
    <glyph glyph-name="_585" unicode="&#x2549;" 
d="M527 888h-94v-453h-433v-94h433v-453h94v481h433v36h-433v483z" />
    <glyph glyph-name="_586" unicode="&#x254a;" 
d="M527 888h-94v-483h-433v-36h433v-481h94v453h433v94h-433v453z" />
    <glyph glyph-name="_540" unicode="&#x254b;" 
d="M433 435h-433v-94h433v-453h94v453h433v94h-433v453h-94v-453z" />
    <glyph glyph-name="_232" unicode="&#x2592;" 
d="M444 78h68v70h-68v-70zM623 148v-70h67v70h-67zM602 78v70h-69v-70h69zM334 78v70h-67v-70h67zM244 78v70h-67v-70h67zM422 78v70h-68v-70h68zM712 148v-70h67v70h-67zM444 170h68v69h-68v-69zM623 239v-69h67v69h-67zM602 170v69h-69v-69h69zM334 170v69h-67v-69h67z
M244 170v69h-67v-69h67zM422 170v69h-68v-69h68zM712 239v-69h67v69h-67zM444 260h68v70h-68v-70zM623 330v-70h67v70h-67zM602 260v70h-69v-70h69zM334 260v70h-67v-70h67zM244 260v70h-67v-70h67zM422 260v70h-68v-70h68zM712 330v-70h67v70h-67zM444 350h68v72h-68v-72z
M623 422v-72h67v72h-67zM602 350v72h-69v-72h69zM334 350v72h-67v-72h67zM244 350v72h-67v-72h67zM422 350v72h-68v-72h68zM712 422v-72h67v72h-67zM444 443h68v70h-68v-70zM623 513v-70h67v70h-67zM602 443v70h-69v-70h69zM334 443v70h-67v-70h67zM244 443v70h-67v-70h67z
M422 443v70h-68v-70h68zM712 513v-70h67v70h-67zM444 533h68v70h-68v-70zM623 603v-70h67v70h-67zM602 533v70h-69v-70h69zM334 533v70h-67v-70h67zM244 533v70h-67v-70h67zM422 533v70h-68v-70h68zM712 603v-70h67v70h-67zM444 624h68v70h-68v-70zM623 694v-70h67v70h-67z
M602 624v70h-69v-70h69zM334 624v70h-67v-70h67zM244 624v70h-67v-70h67zM422 624v70h-68v-70h68zM712 694v-70h67v70h-67zM868 3v769h-776v-769h776zM156 56v658h646v-658h-646z" />
    <glyph glyph-name="_165" unicode="&#x25a0;" 
d="M866 10v765h-772v-765h772z" />
    <glyph glyph-name="_164" unicode="&#x25a1;" 
d="M200 110v566h560v-566h-560zM866 10v765h-772v-765h772z" />
    <glyph glyph-name="_229" unicode="&#x25a3;" 
d="M200 110v566h560v-566h-560zM866 10v765h-772v-765h772zM658 213v359h-357v-359h357z" />
    <glyph glyph-name="_233" unicode="&#x25a4;" 
d="M868 3v769h-776v-769h776zM156 411h646v-51h-646v51zM156 202h646v-49h-646v49zM156 304h646v-48h-646v48zM156 514h646v-48h-646v48zM156 618h646v-49h-646v49zM156 56v43h646v-43h-646zM802 672h-646v42h646v-42z" />
    <glyph glyph-name="_234" unicode="&#x25a5;" 
d="M868 3v769h-776v-769h776zM254 714h47v-658h-47v658zM455 714h47v-658h-47v658zM656 714h47v-658h-47v658zM355 714h46v-658h-46v658zM556 714h46v-658h-46v658zM759 56v658h43v-658h-43zM156 714h43v-658h-43v658z" />
    <glyph glyph-name="_237" unicode="&#x25a6;" 
d="M868 3v769h-776v-769h776zM453 413h51v-55h-51v55zM252 413h51v-55h-51v55zM654 413h51v-55h-51v55zM554 413h50v-55h-50v55zM353 413h50v-55h-50v55zM453 306h51v-52h-51v52zM453 204h51v-53h-51v53zM453 516h51v-52h-51v52zM453 620h51v-53h-51v53zM252 516h51v-52h-51
v52zM252 204h51v-53h-51v53zM252 306h51v-52h-51v52zM252 620h51v-53h-51v53zM654 204h51v-53h-51v53zM654 306h51v-52h-51v52zM654 516h51v-52h-51v52zM654 620h51v-53h-51v53zM554 204h50v-53h-50v53zM554 516h50v-52h-50v52zM554 620h50v-53h-50v53zM554 306h50v-52h-50
v52zM353 204h50v-53h-50v53zM353 306h50v-52h-50v52zM353 516h50v-52h-50v52zM353 620h50v-53h-50v53zM156 413h45v-55h-45v55zM757 413h45v-55h-45v55zM156 204h45v-53h-45v53zM156 516h45v-52h-45v52zM156 620h45v-53h-45v53zM757 306h45v-52h-45v52zM757 516h45v-52h-45
v52zM757 204h45v-53h-45v53zM757 620h45v-53h-45v53zM156 306h45v-52h-45v52zM453 101h51v-45h-51v45zM654 101h51v-45h-51v45zM252 101h51v-45h-51v45zM252 714h51v-44h-51v44zM453 714h51v-44h-51v44zM654 714h51v-44h-51v44zM554 101h50v-45h-50v45zM353 101h50v-45h-50
v45zM554 714h50v-44h-50v44zM353 714h50v-44h-50v44zM757 56v45h45v-45h-45zM156 101h45v-45h-45v45zM156 714h45v-44h-45v44zM802 670h-45v44h45v-44z" />
    <glyph glyph-name="_236" unicode="&#x25a7;" 
d="M868 3v769h-776v-769h776zM803 102l-612 612h63l549 -548v-64zM712 56l-555 555v62l616 -617h-61zM569 56l-412 412v66l478 -478h-66zM803 242l-473 472h66l407 -406v-66zM426 56l-269 271v64l335 -335h-66zM803 380l-334 334h65l269 -268v-66zM284 56l-127 129v66
l192 -195h-65zM803 522l-192 192h64l128 -128v-64zM803 662l-51 52h51v-52zM157 56v53l50 -53h-50z" />
    <glyph glyph-name="_235" unicode="&#x25a8;" 
d="M868 3v769h-776v-769h776zM157 166l549 548h63l-612 -612v64zM187 56l616 617v-62l-555 -555h-61zM325 56l478 478v-66l-412 -412h-66zM157 308l407 406h65l-472 -472v66zM468 56l335 335v-64l-269 -271h-66zM157 446l269 268h65l-334 -334v66zM611 56l192 195v-66
l-127 -129h-65zM157 586l128 128h64l-192 -192v64zM157 714h51l-51 -52v52zM753 56l50 53v-53h-50z" />
    <glyph glyph-name="_238" unicode="&#x25a9;" 
d="M868 3v769h-776v-769h776zM233 388l37 37l37 -37l-37 -37zM551 143l37 -37l-37 -37l-37 37zM164 457l37 37l37 -37l-37 -37zM443 178l37 37l37 -37l-37 -37zM408 143l37 -37l-37 -37l-36 38zM758 493l38 -36l-37 -37l-37 37zM443 598l36 36l37 -37l-36 -36zM689 424
l37 -37l-36 -36l-37 37zM512 667l37 36l36 -37l-36 -36zM374 667l37 36l36 -37l-36 -36zM162 317l36 36l37 -37l-36 -36zM724 316l37 37l36 -36l-37 -37zM760 212l37 -37l-35 -36l-37 37zM162 175l37 37l36 -36l-37 -37zM618 353l37 -37l-35 -35l-37 37zM304 316l37 37
l36 -35l-37 -37zM339 632l37 -37l-35 -35l-37 37zM373 528l35 35l37 -37l-35 -35zM233 246l37 36l35 -36l-36 -36zM690 282l36 -36l-35 -36l-37 36zM514 526l37 37l35 -36l-36 -36zM620 632l35 -36l-36 -36l-36 35zM549 284l37 -37l-35 -35l-37 37zM270 563l37 -37l-35 -35
l-37 37zM304 459l35 35l37 -37l-35 -35zM621 213l36 -37l-34 -35l-37 37zM691 142l37 -37l-34 -35l-37 37zM234 667l35 35l36 -36l-35 -35zM654 666l36 36l36 -35l-36 -36zM374 247l37 37l34 -35l-37 -37zM268 141l35 -34l-37 -37l-34 35zM480 492l35 -36l-35 -35l-36 35z
M200 633l36 -36l-35 -35l-36 36zM303 176l36 36l35 -34l-37 -37zM584 457l36 36l35 -34l-37 -37zM653 526l36 36l35 -34l-37 -37zM411 423l35 -36l-35 -35l-35 36zM724 597l36 36l34 -35l-36 -36zM514 387l35 35l35 -34l-36 -36zM445 318l35 35l35 -34l-35 -35zM464 56
l16 16l16 -16h-32zM607 56l16 16l16 -16h-32zM321 56l16 16l16 -16h-32zM480 699l-15 15h30zM749 56l13 14l15 -14h-28zM183 56l14 14l14 -14h-28zM620 701l-13 13h26zM340 701l-13 13h26zM199 701l-12 13h25zM760 701l-12 13h25zM157 538l10 -10l-10 -10v20zM803 518
l-10 10l10 10v-20zM157 677l9 -10l-9 -9v19zM157 395l9 -10l-9 -9v19zM803 658l-10 9l10 10v-19zM803 376l-10 9l10 10v-19zM157 255l8 -9l-8 -8v17zM803 238l-9 8l9 9v-17zM157 113l7 -8l-7 -7v15zM803 98l-8 7l8 8v-15z" />
    <glyph glyph-name="_8736" unicode="&#x25b1;" 
d="M130 171l113 457h587l-114 -457h-586zM273 592l-97 -383h510l97 383h-510z" />
    <glyph glyph-name="_167" unicode="&#x25b2;" 
d="M480 817l-459 -803h918z" />
    <glyph glyph-name="_166" unicode="&#x25b3;" 
d="M480 817l-459 -803h918zM480 617l283 -505h-566z" />
    <glyph glyph-name="_8780" unicode="&#x25b5;" 
d="M121 116l360 609l357 -609h-717zM690 201l-209 356l-212 -356h421z" />
    <glyph glyph-name="_220" unicode="&#x25b6;" 
d="M108 853v-918l803 459z" />
    <glyph glyph-name="_219" unicode="&#x25b7;" 
d="M108 853v-918l803 459zM220 112v565l495 -283z" />
    <glyph glyph-name="_8781" unicode="&#x25b9;" 
d="M174 748l611 -357l-611 -358v715zM259 181l357 210l-357 209v-419z" />
    <glyph glyph-name="_169" unicode="&#x25bc;" 
d="M939 761h-918l459 -803z" />
    <glyph glyph-name="_168" unicode="&#x25bd;" 
d="M939 761h-918l459 -803zM197 663h566l-283 -505z" />
    <glyph glyph-name="_8779" unicode="&#x25bf;" 
d="M838 664l-357 -608l-360 608h717zM269 580l212 -356l209 356h-421z" />
    <glyph glyph-name="_218" unicode="&#x25c0;" 
d="M48 394l803 -459v918z" />
    <glyph glyph-name="_217" unicode="&#x25c1;" 
d="M48 394l803 -459v918zM244 394l496 283v-565z" />
    <glyph glyph-name="_8782" unicode="&#x25c3;" 
d="M785 33l-611 358l611 357v-715zM700 600l-357 -209l357 -210v419z" />
    <glyph glyph-name="_163" unicode="&#x25c6;" 
d="M480 874l-460 -486l460 -485l460 485z" />
    <glyph glyph-name="_162" unicode="&#x25c7;" 
d="M480 874l-460 -486l460 -485l460 485zM480 727l319 -339l-319 -339l-321 339z" />
    <glyph glyph-name="_228" unicode="&#x25c8;" 
d="M480 874l-460 -486l460 -485l460 485zM480 727l319 -339l-319 -339l-321 339zM273 388l207 -219l205 219l-205 219z" />
    <glyph glyph-name="_8787" unicode="&#x25ca;" 
d="M831 391l-350 -414l-352 414l352 414zM222 391l259 -304l257 304l-257 304z" />
    <glyph glyph-name="_159" unicode="&#x25cb;" 
d="M929 390q0 190 -129 319.5t-320 129.5q-192 0 -320.5 -129t-128.5 -320t128 -320t321 -129q192 0 320.5 129t128.5 320zM822 390q0 -151 -96.5 -251t-245.5 -100q-148 0 -244.5 100t-96.5 251q0 150 96.5 250t244.5 100q149 0 245.5 -100t96.5 -250z" />
    <glyph glyph-name="_8639" unicode="&#x25cc;" 
d="M365 805l9 -33q-53 -16 -87 -37l-19 31q50 26 97 39zM213 728l21 -27q-43 -36 -67 -71l-30 25q45 49 76 73zM104 602l31 -18q-17 -32 -37 -88l-34 7q13 52 40 99zM53 443l34 -3q-5 -30 -5 -49q0 -14 4 -48l-35 -4q-2 17 -2 52q0 34 4 52zM65 277l33 9q15 -48 37 -89
l-31 -17q-28 50 -39 97zM139 127l28 22q24 -32 67 -69l-21 -27q-39 33 -74 74zM287 47q33 -21 87 -36l-10 -34q-49 13 -96 39q18 29 19 31zM531 818l-4 -35q-32 4 -46 4q-10 0 -27 -2t-24 -2l-3 34q17 4 54 4q33 0 50 -3zM596 -23l-10 34q49 14 88 37l18 -32
q-51 -27 -96 -39zM745 50l-21 29q51 46 67 68l28 -22q-36 -44 -74 -75zM856 180l-30 19q21 38 36 87l33 -9q-16 -57 -39 -97zM907 339l-34 3q5 22 5 49q0 20 -5 48l34 4q4 -24 4 -52q0 -35 -4 -52zM895 503l-33 -8q-15 46 -36 88l30 19q29 -55 39 -99zM821 657l-29 -24
q-26 34 -68 69l22 27q34 -27 75 -72zM673 735q-47 26 -87 36l10 34q45 -12 96 -39q-1 0 -9.5 -14t-9.5 -17zM427 -38l3 38q42 -5 47 -5q16 0 50 4l4 -35q-18 -3 -54 -3q-34 0 -50 1z" />
    <glyph glyph-name="_161" unicode="&#x25ce;" 
d="M182 390q0 -126 86.5 -212.5t211.5 -86.5t211.5 86.5t86.5 212.5t-86.5 212t-211.5 86t-211.5 -86t-86.5 -212zM682 390q0 -93 -57 -153.5t-145 -60.5t-145 60.5t-57 153.5t57 153t145 60t145 -60t57 -153zM929 390q0 190 -129 319.5t-320 129.5q-192 0 -320.5 -129
t-128.5 -320t128 -320t321 -129q192 0 320.5 129t128.5 320zM832 390q0 -152 -101 -256t-251 -104q-149 0 -250 104t-101 256q0 151 101 255.5t250 104.5q150 0 251 -104t101 -256z" />
    <glyph glyph-name="_160" unicode="&#x25cf;" 
d="M929 390q0 190 -129 319.5t-320 129.5q-192 0 -320.5 -129t-128.5 -320t128 -320t321 -129q192 0 320.5 129t128.5 320z" />
    <glyph glyph-name="_230" unicode="&#x25d0;" 
d="M929 390q0 190 -129 319.5t-320 129.5q-192 0 -320.5 -129t-128.5 -320t128 -320t321 -129q192 0 320.5 129t128.5 320zM822 390q0 -151 -96.5 -251t-245.5 -100v701q149 0 245.5 -100t96.5 -250z" />
    <glyph glyph-name="_231" unicode="&#x25d1;" 
d="M928 390q0 190 -128.5 319t-319.5 129q-192 0 -320.5 -129t-128.5 -319q0 -192 128 -320t321 -128q192 0 320 128.5t128 319.5zM139 390q0 150 96.5 250t244.5 100v-700q-149 0 -245 99.5t-96 250.5z" />
    <glyph glyph-name="_8775" unicode="&#x25e6;" 
d="M481 710q131 0 225.5 -94.5t94.5 -224.5q0 -132 -94.5 -226.5t-225.5 -94.5q-132 0 -227 94.5t-95 226.5q0 131 95 225t227 94zM481 627q-99 0 -169 -69.5t-70 -166.5q0 -99 70 -168.5t169 -69.5q98 0 167.5 69.5t69.5 168.5q0 97 -70 166.5t-167 69.5z" />
    <glyph glyph-name="_8633" unicode="&#x25ef;" 
d="M481 821q178 0 304 -126t126 -304t-126 -304t-304 -126q-180 0 -306 126t-126 304t126 304t306 126zM481 781q-163 0 -278 -114.5t-115 -275.5t115 -275.5t278 -114.5q161 0 276 114.5t115 275.5t-115 275.5t-276 114.5z" />
    <glyph glyph-name="_158" unicode="&#x2605;" 
d="M348 548h-311l-11 -36l252 -203l-128 -337l32 -25l298 215l297 -215l30 26l-123 338l250 201l-11 36h-312l-112 306h-38z" />
    <glyph glyph-name="_157" unicode="&#x2606;" 
d="M346 548h-307l-13 -51l246 -191l-123 -326l44 -33l287 209l286 -209l43 34l-121 325l246 191l-13 51h-307l-107 306h-54zM416 462l64 212l67 -209l215 8l-188 -129l106 -235l-200 159l-199 -154l103 228l-191 127z" />
    <glyph glyph-name="_241" unicode="&#x260e;" 
d="M877 454q18 -2 27.5 6t8.5 28q-3 71 -38 131q-55 92 -159 92h-470q-112 0 -163 -90q-34 -62 -37 -133q-1 -20 7.5 -28t27.5 -6l171 17q24 3 24 32q0 38 3 65q5 33 24 33h28v-97q-52 -21 -121 -106q-93 -116 -93 -207l8 -90q3 -32 36 -32h640q33 0 36 31l8 96
q0 85 -95 203q-68 84 -119 105v97h26q19 0 24 -33q4 -40 4 -69q0 -25 26 -28zM529 601v-94h-96v94h96zM607 289q0 -53 -35.5 -90t-88.5 -37q-55 0 -90 36t-35 91q0 54 35.5 90t89.5 36q52 0 88 -37t36 -89z" />
    <glyph glyph-name="_240" unicode="&#x260f;" 
d="M251 711q-52 -1 -93 -22t-64.5 -54.5t-35.5 -72t-12 -78.5q0 -16 9 -25t24 -8l170 16q31 3 31 38v24v7q0 21 1 29.5t6.5 15t18.5 6.5h10v-85q-59 -37 -129 -132t-70 -179l8 -89q2 -20 10 -27t29 -7h636q33 0 36 35l8 93q-4 79 -66 168t-133 138v85h10q25 0 29 -32
q1 -13 1 -41q0 -43 34 -47l159 -17q36 -4 34 36q-2 38 -13.5 75t-34 71.5t-62 56t-91.5 22.5h-460zM503 587v-77h-45v77h45zM749 522v13q0 60 -22.5 83.5t-83.5 23.5h-355q-44 0 -59.5 -25t-15.5 -79v-12l-94 -11q4 55 35.5 97.5t93.5 42.5h465q54 0 87.5 -41t39.5 -103z
M330 292q0 -66 43 -107t110 -41q64 0 107.5 42t43.5 106q0 62 -44 104.5t-107 42.5q-65 0 -109 -41.5t-44 -105.5zM188 189q3 72 65 159.5t125 123.5v115h18v-132h168v132h20v-115q57 -25 123.5 -116.5t67.5 -162.5l-7 -61h-576zM567 292q0 -38 -23.5 -64t-60.5 -26
q-39 0 -62.5 26t-23.5 64t24 63.5t62 25.5q36 0 60 -26t24 -63z" />
    <glyph glyph-name="_242" unicode="&#x261c;" 
d="M938 141v377h-135v-13h-44q-17 0 -17 -17v-35h-11q-34 0 -65 22q-26 18 -55 43q-6 5 -13 9.5t-12.5 7.5t-14 5.5t-13.5 4t-15.5 2.5t-14.5 1.5t-15.5 1t-14.5 0.5h-15.5h-14.5h-12q-30 0 -58 -6q-33 -7 -40 -43h-274q-30 0 -46 -18.5t-16 -43.5t16 -43.5t43 -18.5h194v-3
q0 -35 23 -55q-6 -11 -6 -23q0 -33 25 -51q-3 -6 -3 -13q0 -17 15 -38.5t37 -25.5q19 -29 91 -29q11 0 36 0.5t36 0.5q41 0 68.5 9t64.5 34l9 6q36 26 71 26v-43q0 -16 16 -16h45v-15h135zM377 427q8 14 18 36q4 10 4 26q0 18 29 18h40q56 0 88.5 -9t61.5 -36
q56 -53 115 -53h9v-152q-50 0 -96 -32q-38 -27 -61 -36t-52 -10q-36 -4 -58 -4q-15 0 -21 1q34 4 46 17t12 45q0 44 -9 82q31 -20 47 -20q8 0 13.5 5.5t5.5 12.5q0 13 -13 20q-72 43 -76 116q-2 21 -18 21q-14 0 -21 -22q-12 -33 -51 -33q-14 0 -14 4q0 2 1 3zM350 457
q-5 -7 -14 -25q-4 -8 -4 -12h-242q-25 0 -25 19q0 18 25 18h260zM785 199v263h18v-263h-18zM456 300v-2q0 -13 -34 -17q-28 -3 -56 -3q-15 0 -21.5 3t-6.5 14t10 11h19q35 0 63 4h12q12 0 14 -10zM417 379h3q17 0 17 -12q0 -18 -90 -18q-25 0 -25 16q0 8 4 10.5t16 2.5
q55 0 75 1zM468 234v-2q1 -3 1 -4q0 -10 -17 -12q-35 -5 -59 -5h-12q-20 0 -20 18q0 8 7 8h20q27 0 67 4q11 2 13 -7z" />
    <glyph glyph-name="_9222" unicode="&#x261d;" 
d="M659 47v44h-14v43q-6 8 -9 11h-46q0 26 4 39q9 19 29 50q17 26 28 50q8 21 10 63v59q0 23 -4 48q-6 29 -23 41q-1 23 -28 37q-24 13 -39 1q-8 18 -33 25q-25 4 -35 -8q-3 12 -26 20t-31 1v162q0 23 -14.5 34.5t-34.5 11.5t-34.5 -12.5t-14.5 -36.5v-232q-30 -1 -40 -30
q-3 -13 -5 -64q0 -91 28 -130q1 -2 12.5 -15.5t18.5 -21.5q20 -24 24 -41q8 -16 6 -51h-39q-1 -1 -4 -5t-5 -6v-43h-12v-44h331zM401 496q5 2 10.5 0t5.5 -8q4 -48 -37 -65v-22q71 -6 109 -74l21 11q-15 33 -27 49q76 -21 113 -13q13 2 21 10t8 17q3 8 5 32q1 15 1 28
q10 -6 10 -48q0 -31 -2 -59q0 -44 -13 -65q-3 -6 -13 -21.5t-15 -24.5q-19 -32 -27 -52q-3 -15 -3 -46h-156q2 36 -7 59q-7 19 -29 47q-21 27 -33 43q-21 32 -21 110q0 26 1 38q0 20 5 27q8 6 18 7q16 2 20 2q7 2 35 18zM368 502v223q0 20 14 28q14 5 25 -3t11 -23v-206
q0 1 -6.5 -0.5t-15 -5t-13.5 -6.5q-12 -7 -15 -7zM621 121v-30h-257v30h257zM503 433q6 41 4 81q0 20 19 18q9 0 15.5 -6t6.5 -15q2 -49 -7 -88q-2 -18 -22 -16q-7 1 -12 8t-4 18zM440 451q2 50 2 79q0 19 20 17q18 0 20 -21q2 -53 -5 -85q-2 -18 -20 -16t-17 26zM567 421
q4 24 4 75q0 9 5.5 13t13.5 2q8 -1 14 -6.5t6 -14.5q1 -33 -6 -79q-1 -16 -22 -14q-6 0 -11 6.5t-4 17.5z" />
    <glyph glyph-name="_243" unicode="&#x261e;" 
d="M157 141v15h45q16 0 16 16v43q35 0 71 -26l9 -6q37 -25 64.5 -34t68.5 -9q11 0 35.5 -0.5t36.5 -0.5q72 0 91 29q22 4 37 25.5t15 38.5q0 7 -3 13q25 18 25 51q0 12 -6 23q23 20 23 55v3h194q27 0 43 18.5t16 43.5t-16 43.5t-46 18.5h-274q-7 36 -40 43q-29 6 -58 6h-12
h-14.5h-15.5t-14.5 -0.5t-15.5 -1t-14.5 -1.5t-15.5 -2.5t-13.5 -4t-14 -5.5t-12.5 -7.5t-13 -9.5q-29 -25 -55 -43q-31 -22 -65 -22h-11v35q0 17 -17 17h-44v13h-135v-377h135zM583 427q1 -1 1 -3q0 -4 -14 -4q-39 0 -51 33q-7 22 -21 22q-16 0 -18 -21q-4 -73 -76 -116
q-13 -7 -13 -20q0 -7 5.5 -12.5t13.5 -5.5q16 0 47 20q-9 -37 -9 -82q0 -32 12 -45t46 -17q-6 -1 -21 -1q-22 0 -58 4q-29 1 -52 10t-61 36q-46 32 -96 32v152h9q59 0 115 53q29 27 61.5 36t88.5 9h40q29 0 29 -18q0 -16 4 -26q10 -22 18 -36zM870 457q25 0 25 -18
q0 -19 -25 -19h-242q0 4 -4 12q-9 18 -14 25h260zM157 199v263h18v-263h-18zM504 300q2 10 14 10h12q28 -4 63 -4h19q10 0 10 -11t-6.5 -14t-21.5 -3q-28 0 -56 3q-34 4 -34 17v2zM543 379q20 -1 75 -1q12 0 16 -2.5t4 -10.5q0 -16 -25 -16q-90 0 -90 18q0 12 17 12h3z
M492 234q2 9 13 7q40 -4 67 -4h20q7 0 7 -8q0 -18 -20 -18h-12q-24 0 -59 5q-17 2 -17 12q0 1 1 4v2z" />
    <glyph glyph-name="_9223" unicode="&#x261f;" 
d="M658 731v-44h-13v-42l-9 -12h-46q0 -25 4 -38q4 -9 28 -50q21 -32 28 -50q8 -19 10 -63v-60q1 -12 -3 -47q-6 -29 -24 -41q-1 -25 -28 -38q-23 -12 -38 -1q-9 -17 -34 -24q-24 -6 -34 8q-4 -12 -25 -21q-24 -6 -33 0v-162q0 -22 -14 -34t-34 -12t-35 12.5t-15 35.5v232
q-29 1 -39 31q-4 14 -6 64q0 91 28 130q22 24 32 36q19 25 24 42q7 16 5 50h-38l-9 12v42h-13v44h331zM401 283q5 -2 10 0t5 7q6 48 -37 66v22q73 6 109 73l22 -10q-14 -31 -26 -49q80 20 111 13q13 -2 21 -10.5t9 -16.5q3 -9 5 -33v-28q10 6 10 49q0 12 -0.5 32.5
t-0.5 25.5q0 45 -13 66q-7 12 -29 46q-20 34 -26 51q-4 16 -4 46h-155q2 -35 -7 -58q-9 -21 -29 -47q-31 -38 -34 -43q-20 -33 -20 -110q0 -26 1 -38q0 -22 5 -27q8 -6 18 -7q17 -3 20 -3q8 -1 35 -17zM368 277v-223q0 -20 14 -28q14 -5 25 3t11 23v206q-1 -2 -6.5 -0.5
t-14.5 5.5t-14 7q-3 1 -6.5 3t-5.5 3t-3 1zM621 658v29h-258v-29h258zM503 345q5 -43 3 -81q0 -20 20 -18q22 2 22 22q2 51 -8 88q0 17 -21 15q-17 -2 -16 -26zM440 327q1 -24 1 -78q0 -19 20 -17q21 0 22 21q2 49 -6 85q0 17 -20 15q-18 -2 -17 -26zM567 358q5 -37 3 -76
q0 -8 6 -12t14 -2q8 1 14 6.5t6 14.5q2 36 -7 79q0 16 -21 14q-16 -2 -15 -24z" />
    <glyph glyph-name="_8664" unicode="&#x262f;" 
d="M860 391q0 -157 -111.5 -267t-269.5 -110q-157 0 -268.5 111t-111.5 266q0 157 111.5 267.5t268.5 110.5q158 0 269.5 -110t111.5 -268zM812 389q2 135 -94.5 233t-232.5 100q-104 1 -189.5 -55t-121.5 -148q-28 -76 0 -136t96 -86q66 -24 127 7.5t83 86.5q20 58 82 91.5
t129 9.5q73 -28 97.5 -90t1.5 -119q22 53 22 106z" />
    <glyph glyph-name="_147" unicode="&#x2640;" 
d="M192 557q0 -107 63.5 -184.5t160.5 -95.5v-89h-127v-116h127v-136h129v136h126v116h-126v89q93 17 158 95t65 185q0 121 -83 202t-205 81q-121 0 -204.5 -81.5t-83.5 -201.5zM330 557q0 73 41.5 120.5t108.5 47.5t108.5 -47.5t41.5 -120.5t-41.5 -120.5t-108.5 -47.5
t-108.5 47.5t-41.5 120.5z" />
    <glyph glyph-name="_146" unicode="&#x2642;" 
d="M479 892l-294 -387l95 -71l136 191v-215q-87 -17 -140.5 -84.5t-53.5 -160.5q0 -106 74 -178t183 -72t184.5 72t75.5 178q0 94 -54 161t-142 84v215l137 -193l94 73zM362 165q0 61 32 98.5t85 37.5q55 0 87.5 -37.5t32.5 -98.5q0 -59 -32.5 -97t-87.5 -38q-53 0 -85 38
t-32 97z" />
    <glyph glyph-name="_222" unicode="&#x2660;" 
d="M49 381q0 -88 57 -140q26 -24 65.5 -38t80.5 -13q46 0 91 19.5t69 51.5q-11 -77 -56 -131.5t-123 -73.5v-70h492v70q-161 41 -180 206q25 -34 69.5 -53t92.5 -19q88 -2 142 48q62 57 62 143q0 110 -146 240q-111 97 -285 195q-181 -105 -286 -196q-145 -128 -145 -239z
" />
    <glyph glyph-name="_223" unicode="&#x2661;" 
d="M911 516q0 112 -61 170q-56 53 -142 53q-84 0 -143 -51q-60 -51 -85 -134q-25 81 -87 134q-60 51 -140 51q-83 0 -143 -55q-61 -58 -61 -168q0 -152 130 -306q57 -68 137.5 -130t163.5 -104q80 41 161 104.5t137 129.5q133 159 133 306zM520 444q20 102 77 159
q39 40 102 40q48 0 75 -35.5t27 -99.5q0 -102 -105 -235q-95 -121 -216 -185q-135 80 -220 187q-101 126 -101 233q0 62 29 98.5t74 36.5q57 0 97 -41q28 -29 50 -72t30 -86h81z" />
    <glyph glyph-name="_226" unicode="&#x2663;" 
d="M664 632q0 74 -53.5 128t-131.5 54q-79 0 -132 -53.5t-53 -128.5t53 -128t132 -53t132 53t53 128zM725 56q-91 21 -152 90.5t-73 179.5h-42q-12 -109 -74.5 -180t-150.5 -90v-70h492v70zM416 332q0 74 -53 127.5t-131 53.5q-79 0 -132 -53t-53 -128t53 -128.5t132 -53.5
t131.5 53.5t52.5 128.5zM913 332q0 74 -53.5 127.5t-131.5 53.5q-79 0 -132 -53t-53 -128t53 -128.5t132 -53.5t132 53.5t53 128.5z" />
    <glyph glyph-name="_221" unicode="&#x2664;" 
d="M49 381q0 -88 57 -140q26 -24 65.5 -38t80.5 -13q45 0 88 18t66 50q-9 -76 -52.5 -129.5t-120.5 -72.5v-70h492v70q-154 39 -174 203q25 -33 67 -51t89 -18q88 -2 142 48q62 57 62 143q0 110 -146 240q-111 97 -285 195q-181 -105 -286 -196q-145 -128 -145 -239z
M457 430q-3 -31 -22.5 -63t-47.5 -52q-57 -39 -124 -39q-105 0 -105 115q0 75 105 169q95 86 217 158q103 -57 212 -153q111 -97 111 -174q0 -52 -28 -80t-79 -28q-82 0 -127 34q-56 43 -65 113h-47zM571 58h-184v4q46 35 65 93t25 145h4q9 -177 90 -238v-4z" />
    <glyph glyph-name="_224" unicode="&#x2665;" 
d="M911 516q0 112 -61 170q-56 53 -142 53q-84 0 -143 -51q-60 -51 -85 -134q-25 81 -87 134q-60 51 -140 51q-83 0 -143 -55q-61 -58 -61 -168q0 -152 130 -306q57 -68 137.5 -130t163.5 -104q80 41 161 104.5t137 129.5q133 159 133 306z" />
    <glyph glyph-name="_225" unicode="&#x2667;" 
d="M664 632q0 74 -53.5 128t-131.5 54q-79 0 -132 -53.5t-53 -128.5t53 -128t132 -53t132 53t53 128zM725 56q-88 21 -145.5 92t-69.5 178h-62q-13 -106 -71 -179t-144 -91v-70h492v70zM568 632q0 -42 -25.5 -68.5t-63.5 -26.5q-39 0 -64 26.5t-25 68.5t25 68t64 26
q37 0 63 -26.5t26 -67.5zM576 56h-194v2q36 16 62.5 53t33.5 83h2q5 -46 31.5 -82.5t64.5 -53.5v-2zM416 332q0 74 -53 127.5t-131 53.5q-79 0 -132 -53t-53 -128t53 -128.5t132 -53.5t131.5 53.5t52.5 128.5zM321 332q0 -42 -25.5 -68.5t-63.5 -26.5q-39 0 -64 26.5
t-25 68.5q0 41 25 67.5t64 26.5q37 0 63 -26.5t26 -67.5zM913 332q0 74 -53.5 127.5t-131.5 53.5q-79 0 -132 -53t-53 -128t53 -128.5t132 -53.5t132 53.5t53 128.5zM817 332q0 -42 -25.5 -68.5t-63.5 -26.5q-39 0 -64 26.5t-25 68.5q0 41 25.5 67.5t63.5 26.5
q37 0 63 -26.5t26 -67.5z" />
    <glyph glyph-name="_239" unicode="&#x2668;" 
d="M552 351q0 45 -29 136q-26 81 -27 129q0 84 38 137q15 21 -1.5 35.5t-37.5 -0.5q-52 -38 -77 -86q-31 -54 -32 -105q-1 -50 30 -138q27 -79 27 -128q0 -83 -36 -142q-13 -21 6.5 -35t42.5 3q44 33 70 87t26 107zM394 351q0 34 -31 104q-23 50 -26 103q-5 87 32 141
q18 27 -0.5 41.5t-42.5 -5.5q-104 -86 -99 -198q3 -50 30 -112q25 -54 28 -96q5 -72 -32 -131q-9 -15 -3.5 -27t19.5 -13.5t33 11.5q92 70 92 182zM230 320q-82 -8 -131 -47.5t-50 -99.5q-1 -61 65 -104.5t161.5 -62.5t205.5 -19q109 0 205 20.5t161 65t65 105.5
q0 51 -48.5 89.5t-120.5 44.5q-9 1 -15 -8.5t-4 -20t12 -12.5q31 -7 51 -26t20 -45q0 -44 -100 -69.5t-226 -25.5t-226.5 25t-100.5 68q0 59 83 79q20 5 17.5 24.5t-24.5 18.5zM714 351q0 34 -31 104q-23 50 -26 103q-5 87 32 141q18 27 -0.5 41.5t-42.5 -5.5
q-104 -86 -99 -198q3 -50 30 -112q25 -54 28 -96q5 -72 -32 -131q-9 -15 -3.5 -27t19.5 -13.5t33 11.5q92 70 92 182z" />
    <glyph glyph-name="_253" unicode="&#x2669;" 
d="M527 142q-29 12 -70 12q-75 0 -137 -50t-62 -116q0 -44 31 -69.5t79 -25.5q98 0 165 53t67 138v760h-73v-702z" />
    <glyph glyph-name="_254" unicode="&#x266a;" 
d="M457 141q-28 12 -69 12q-76 0 -137.5 -49.5t-61.5 -114.5q0 -44 31 -70t79 -26q97 0 164 53t67 138v484q85 -26 135.5 -85.5t50.5 -142.5q0 -124 -63 -225h36q99 126 99 263q0 131 -148 246q-45 35 -69.5 60.5t-41 65.5t-16.5 91h-56v-700z" />
    <glyph glyph-name="_255" unicode="&#x266c;" 
d="M798 660l-450 -106v65l450 103v-62zM870 864l-595 -133v-588q-27 11 -67 11q-76 0 -137.5 -50t-61.5 -115q0 -44 30.5 -70t78.5 -26q97 0 163.5 53.5t66.5 137.5v348l450 106v-286q-25 11 -68 11q-75 0 -137 -50t-62 -115q0 -44 30.5 -69.5t78.5 -25.5q98 0 164 53
t66 138v670z" />
    <glyph glyph-name="_252" unicode="&#x266d;" 
d="M391 845h-77v-881q100 -1 189.5 40.5t144 113t54.5 153.5q0 80 -45 131t-113 51q-99 0 -153 -107v499zM391 192q0 78 36.5 133t87.5 55q72 0 72 -123q0 -83 -58.5 -151.5t-137.5 -74.5v161z" />
    <glyph glyph-name="_8594" unicode="&#x266f;" 
d="M748 342v-83l-144 -18v-204h-52v197l-144 -21v-218h-52v211l-144 -20v82l144 19v168l-144 -18v84l144 20v203h52v-197l144 18v222h52v-214l144 21v-84l-144 -19v-169zM408 294l144 22v167l-144 -20v-169z" />
    <glyph glyph-name="_8631" unicode="&#x2716;" 
d="M306 391l-165 163l173 173l165 -165l166 166l172 -174l-166 -163l169 -166l-174 -172l-167 167l-167 -165l-173 173z" />
    <glyph glyph-name="_8630" unicode="&#x271a;" 
d="M357 514v233h247v-233h233v-241h-233v-238h-247v238h-234v241h234z" />
    <glyph glyph-name="_8604" unicode="&#x273d;" 
d="M688 203l-171 126l17 -206h-109l17 206l-170 -121l-62 99l196 84l-193 84l55 100l174 -124l-17 209h109l-17 -209l173 128l60 -99l-194 -89l192 -88z" />
    <glyph glyph-name="_8637" unicode="&#x2756;" 
d="M483 755l154 -154l-154 -157l-157 157zM483 333l154 -156l-154 -156l-157 156zM270 545l154 -154l-154 -155l-157 155zM694 545l153 -154l-153 -155l-159 155z" />
    <glyph glyph-name="_8673" unicode="&#x2776;" 
d="M362 492l67 60v-435h111v567h-99l-131 -123zM479 840q88 0 163 -25.5t128 -69t90 -101.5t55 -123.5t18 -134.5t-18 -134t-55 -123t-90 -101.5t-128 -69t-163 -25.5q-109 0 -197.5 38.5t-143 103.5t-83.5 144.5t-29 166.5q0 69 18 134.5t55 123.5t89.5 101.5t127.5 69
t163 25.5z" />
    <glyph glyph-name="_8674" unicode="&#x2777;" 
d="M520 515q-1 -125 -183 -326v-81h295v91h-160q161 180 161 321q0 79 -43 122t-124 43q-65 0 -119 -28l4 -92q44 27 97 27q34 0 53 -20t19 -57zM479 840q88 0 163 -25.5t128 -69t90 -101.5t55 -123.5t18 -134.5t-18 -134t-55 -123t-90 -101.5t-128 -69t-163 -25.5
q-109 0 -197.5 38.5t-143 103.5t-83.5 144.5t-29 166.5q0 69 18 134.5t55 123.5t89.5 101.5t127.5 69t163 25.5z" />
    <glyph glyph-name="_8675" unicode="&#x2778;" 
d="M392 445v-84q137 -2 137 -96q0 -35 -20.5 -54.5t-58.5 -19.5q-59 0 -102 31l-8 -95q50 -29 122 -29q83 0 131.5 47.5t48.5 124.5q0 46 -26 81.5t-68 51.5q89 34 89 129q0 67 -43.5 110t-121.5 43q-70 0 -123 -28l5 -90q43 25 98 25q35 0 53.5 -17.5t18.5 -48.5
q0 -81 -132 -81zM479 840q88 0 163 -25.5t128 -69t90 -101.5t55 -123.5t18 -134.5t-18 -134t-55 -123t-90 -101.5t-128 -69t-163 -25.5q-109 0 -197.5 38.5t-143 103.5t-83.5 144.5t-29 166.5q0 69 18 134.5t55 123.5t89.5 101.5t127.5 69t163 25.5z" />
    <glyph glyph-name="_8676" unicode="&#x2779;" 
d="M277 219h193v-111h109v111h48v91h-48v365h-122l-180 -363v-93zM368 310l102 205v-205h-102zM479 840q88 0 163 -25.5t128 -69t90 -101.5t55 -123.5t18 -134.5t-18 -134t-55 -123t-90 -101.5t-128 -69t-163 -25.5q-109 0 -197.5 38.5t-143 103.5t-83.5 144.5t-29 166.5
q0 69 18 134.5t55 123.5t89.5 101.5t127.5 69t163 25.5z" />
    <glyph glyph-name="_8677" unicode="&#x277a;" 
d="M444 191q-51 0 -94 23l-8 -94q48 -22 116 -22q93 0 140 50.5t47 141.5q0 85 -41.5 132.5t-104.5 47.5q-11 0 -31 -2v116h164v91h-274v-314q35 17 82 17q46 0 68.5 -21t22.5 -67q0 -99 -87 -99zM479 840q88 0 163 -25.5t128 -69t90 -101.5t55 -123.5t18 -134.5t-18 -134
t-55 -123t-90 -101.5t-128 -69t-163 -25.5q-109 0 -197.5 38.5t-143 103.5t-83.5 144.5t-29 166.5q0 69 18 134.5t55 123.5t89.5 101.5t127.5 69t163 25.5z" />
    <glyph glyph-name="_8678" unicode="&#x277b;" 
d="M509 592q47 0 87 -18l6 93q-43 18 -103 18q-204 0 -204 -305q0 -282 179 -282q76 0 118 50t42 145t-38.5 143t-109.5 48q-39 0 -74 -22q8 74 32 102t65 28zM462 391q30 0 44 -22.5t14 -76.5q0 -101 -47 -101q-34 0 -48.5 41t-15.5 131q21 28 53 28zM479 840
q88 0 163 -25.5t128 -69t90 -101.5t55 -123.5t18 -134.5t-18 -134t-55 -123t-90 -101.5t-128 -69t-163 -25.5q-109 0 -197.5 38.5t-143 103.5t-83.5 144.5t-29 166.5q0 69 18 134.5t55 123.5t89.5 101.5t127.5 69t163 25.5z" />
    <glyph glyph-name="_8679" unicode="&#x277c;" 
d="M490 108l147 472v95h-313v-91h196l-150 -476h120zM479 840q88 0 163 -25.5t128 -69t90 -101.5t55 -123.5t18 -134.5t-18 -134t-55 -123t-90 -101.5t-128 -69t-163 -25.5q-109 0 -197.5 38.5t-143 103.5t-83.5 144.5t-29 166.5q0 69 18 134.5t55 123.5t89.5 101.5
t127.5 69t163 25.5z" />
    <glyph glyph-name="_8680" unicode="&#x277d;" 
d="M305 263q0 -77 47 -121t126 -44q78 0 125 44t47 121q0 50 -21.5 81.5t-73.5 63.5q78 47 78 130q0 67 -41.5 107.5t-113.5 40.5q-74 0 -115 -41t-41 -109q0 -40 16 -69t56 -58q-89 -50 -89 -146zM537 260q0 -37 -16.5 -56.5t-42.5 -19.5q-27 0 -43 19.5t-16 56.5
q0 65 54 97q37 -25 50.5 -46t13.5 -51zM430 535q0 63 48 63q47 0 47 -63q0 -55 -44 -84q-29 18 -40 36.5t-11 47.5zM479 840q88 0 163 -25.5t128 -69t90 -101.5t55 -123.5t18 -134.5t-18 -134t-55 -123t-90 -101.5t-128 -69t-163 -25.5q-109 0 -197.5 38.5t-143 103.5
t-83.5 144.5t-29 166.5q0 69 18 134.5t55 123.5t89.5 101.5t127.5 69t163 25.5z" />
    <glyph glyph-name="_8681" unicode="&#x277e;" 
d="M439 191q-48 0 -88 18l-6 -93q45 -18 103 -18q204 0 204 305q0 282 -178 282q-76 0 -118.5 -50t-42.5 -145t38.5 -143t109.5 -48q42 0 73 22q-8 -74 -31.5 -102t-63.5 -28zM485 391q-58 0 -58 100q0 101 48 101q33 0 47.5 -42t15.5 -131q-23 -28 -53 -28zM479 840
q88 0 163 -25.5t128 -69t90 -101.5t55 -123.5t18 -134.5t-18 -134t-55 -123t-90 -101.5t-128 -69t-163 -25.5q-109 0 -197.5 38.5t-143 103.5t-83.5 144.5t-29 166.5q0 69 18 134.5t55 123.5t89.5 101.5t127.5 69t163 25.5z" />
    <glyph glyph-name="_8682" unicode="&#x277f;" 
d="M226 492l60 60v-435h100v567h-89l-118 -123zM457 400q0 -151 38.5 -222t116.5 -71t116.5 71t38.5 222t-38.5 222.5t-116.5 71.5t-116.5 -71.5t-38.5 -222.5zM559 400q0 120 12 160.5t41 40.5q19 0 29.5 -15.5t16.5 -59.5t6 -126q0 -119 -11.5 -159.5t-40.5 -40.5
q-20 0 -30.5 15t-16.5 59t-6 126zM479 840q88 0 163 -25.5t128 -69t90 -101.5t55 -123.5t18 -134.5t-18 -134t-55 -123t-90 -101.5t-128 -69t-163 -25.5q-109 0 -197.5 38.5t-143 103.5t-83.5 144.5t-29 166.5q0 69 18 134.5t55 123.5t89.5 101.5t127.5 69t163 25.5z" />
    <glyph glyph-name="_8342" unicode="&#x278a;" 
d="M362 492l67 60v-435h111v567h-99l-131 -123zM479 840q88 0 163 -25.5t128 -69t90 -101.5t55 -123.5t18 -134.5t-18 -134t-55 -123t-90 -101.5t-128 -69t-163 -25.5q-109 0 -197.5 38.5t-143 103.5t-83.5 144.5t-29 166.5q0 69 18 134.5t55 123.5t89.5 101.5t127.5 69
t163 25.5z" />
    <glyph glyph-name="_8343" unicode="&#x278b;" 
d="M520 515q-1 -125 -183 -326v-81h295v91h-160q161 180 161 321q0 79 -43 122t-124 43q-65 0 -119 -28l4 -92q44 27 97 27q34 0 53 -20t19 -57zM479 840q88 0 163 -25.5t128 -69t90 -101.5t55 -123.5t18 -134.5t-18 -134t-55 -123t-90 -101.5t-128 -69t-163 -25.5
q-109 0 -197.5 38.5t-143 103.5t-83.5 144.5t-29 166.5q0 69 18 134.5t55 123.5t89.5 101.5t127.5 69t163 25.5z" />
    <glyph glyph-name="_8344" unicode="&#x278c;" 
d="M392 445v-84q137 -2 137 -96q0 -35 -20.5 -54.5t-58.5 -19.5q-59 0 -102 31l-8 -95q50 -29 122 -29q83 0 131.5 47.5t48.5 124.5q0 46 -26 81.5t-68 51.5q89 34 89 129q0 67 -43.5 110t-121.5 43q-70 0 -123 -28l5 -90q43 25 98 25q35 0 53.5 -17.5t18.5 -48.5
q0 -81 -132 -81zM479 840q88 0 163 -25.5t128 -69t90 -101.5t55 -123.5t18 -134.5t-18 -134t-55 -123t-90 -101.5t-128 -69t-163 -25.5q-109 0 -197.5 38.5t-143 103.5t-83.5 144.5t-29 166.5q0 69 18 134.5t55 123.5t89.5 101.5t127.5 69t163 25.5z" />
    <glyph glyph-name="_8345" unicode="&#x278d;" 
d="M277 219h193v-111h109v111h48v91h-48v365h-122l-180 -363v-93zM368 310l102 205v-205h-102zM479 840q88 0 163 -25.5t128 -69t90 -101.5t55 -123.5t18 -134.5t-18 -134t-55 -123t-90 -101.5t-128 -69t-163 -25.5q-109 0 -197.5 38.5t-143 103.5t-83.5 144.5t-29 166.5
q0 69 18 134.5t55 123.5t89.5 101.5t127.5 69t163 25.5z" />
    <glyph glyph-name="_8346" unicode="&#x278e;" 
d="M444 191q-51 0 -94 23l-8 -94q48 -22 116 -22q93 0 140 50.5t47 141.5q0 85 -41.5 132.5t-104.5 47.5q-11 0 -31 -2v116h164v91h-274v-314q35 17 82 17q46 0 68.5 -21t22.5 -67q0 -99 -87 -99zM479 840q88 0 163 -25.5t128 -69t90 -101.5t55 -123.5t18 -134.5t-18 -134
t-55 -123t-90 -101.5t-128 -69t-163 -25.5q-109 0 -197.5 38.5t-143 103.5t-83.5 144.5t-29 166.5q0 69 18 134.5t55 123.5t89.5 101.5t127.5 69t163 25.5z" />
    <glyph glyph-name="_8347" unicode="&#x278f;" 
d="M509 592q47 0 87 -18l6 93q-43 18 -103 18q-204 0 -204 -305q0 -282 179 -282q76 0 118 50t42 145t-38.5 143t-109.5 48q-39 0 -74 -22q8 74 32 102t65 28zM462 391q30 0 44 -22.5t14 -76.5q0 -101 -47 -101q-34 0 -48.5 41t-15.5 131q21 28 53 28zM479 840
q88 0 163 -25.5t128 -69t90 -101.5t55 -123.5t18 -134.5t-18 -134t-55 -123t-90 -101.5t-128 -69t-163 -25.5q-109 0 -197.5 38.5t-143 103.5t-83.5 144.5t-29 166.5q0 69 18 134.5t55 123.5t89.5 101.5t127.5 69t163 25.5z" />
    <glyph glyph-name="_8348" unicode="&#x2790;" 
d="M490 108l147 472v95h-313v-91h196l-150 -476h120zM479 840q88 0 163 -25.5t128 -69t90 -101.5t55 -123.5t18 -134.5t-18 -134t-55 -123t-90 -101.5t-128 -69t-163 -25.5q-109 0 -197.5 38.5t-143 103.5t-83.5 144.5t-29 166.5q0 69 18 134.5t55 123.5t89.5 101.5
t127.5 69t163 25.5z" />
    <glyph glyph-name="_8349" unicode="&#x2791;" 
d="M305 263q0 -77 47 -121t126 -44q78 0 125 44t47 121q0 50 -21.5 81.5t-73.5 63.5q78 47 78 130q0 67 -41.5 107.5t-113.5 40.5q-74 0 -115 -41t-41 -109q0 -40 16 -69t56 -58q-89 -50 -89 -146zM537 260q0 -37 -16.5 -56.5t-42.5 -19.5q-27 0 -43 19.5t-16 56.5
q0 65 54 97q37 -25 50.5 -46t13.5 -51zM430 535q0 63 48 63q47 0 47 -63q0 -55 -44 -84q-29 18 -40 36.5t-11 47.5zM479 840q88 0 163 -25.5t128 -69t90 -101.5t55 -123.5t18 -134.5t-18 -134t-55 -123t-90 -101.5t-128 -69t-163 -25.5q-109 0 -197.5 38.5t-143 103.5
t-83.5 144.5t-29 166.5q0 69 18 134.5t55 123.5t89.5 101.5t127.5 69t163 25.5z" />
    <glyph glyph-name="_8350" unicode="&#x2792;" 
d="M439 191q-48 0 -88 18l-6 -93q45 -18 103 -18q204 0 204 305q0 282 -178 282q-76 0 -118.5 -50t-42.5 -145t38.5 -143t109.5 -48q42 0 73 22q-8 -74 -31.5 -102t-63.5 -28zM485 391q-58 0 -58 100q0 101 48 101q33 0 47.5 -42t15.5 -131q-23 -28 -53 -28zM479 840
q88 0 163 -25.5t128 -69t90 -101.5t55 -123.5t18 -134.5t-18 -134t-55 -123t-90 -101.5t-128 -69t-163 -25.5q-109 0 -197.5 38.5t-143 103.5t-83.5 144.5t-29 166.5q0 69 18 134.5t55 123.5t89.5 101.5t127.5 69t163 25.5z" />
    <glyph glyph-name="_8351" unicode="&#x2793;" 
d="M226 492l60 60v-435h100v567h-89l-118 -123zM457 400q0 -151 38.5 -222t116.5 -71t116.5 71t38.5 222t-38.5 222.5t-116.5 71.5t-116.5 -71.5t-38.5 -222.5zM559 400q0 120 12 160.5t41 40.5q19 0 29.5 -15.5t16.5 -59.5t6 -126q0 -119 -11.5 -159.5t-40.5 -40.5
q-20 0 -30.5 15t-16.5 59t-6 126zM479 840q88 0 163 -25.5t128 -69t90 -101.5t55 -123.5t18 -134.5t-18 -134t-55 -123t-90 -101.5t-128 -69t-163 -25.5q-109 0 -197.5 38.5t-143 103.5t-83.5 144.5t-29 166.5q0 69 18 134.5t55 123.5t89.5 101.5t127.5 69t163 25.5z" />
    <glyph glyph-name="_101" unicode="&#x3000;" 
 />
    <glyph glyph-name="_101" unicode="&#x3164;" 
 />
    <glyph glyph-name="_8056" unicode="&#x3001;" 
d="M371 36q-109 133 -248 230l-84 -90q127 -101 234 -238z" />
    <glyph glyph-name="_8057" unicode="&#x3002;" 
d="M372 107q0 72 -47 118t-123 46q-77 0 -124 -46t-47 -118t47 -118t124 -46q76 0 123 46t47 118zM148 107q0 27 15 43t39 16t39 -16t15 -43t-15 -43t-39 -16t-39 16t-15 43z" />
    <glyph glyph-name="_108" unicode="&#x3003;" 
d="M339 677l-159 -486l110 -36l197 473zM630 662l-162 -484l111 -38l200 475z" />
    <glyph glyph-name="_8065" unicode="&#x3008;" horiz-adv-x="570" 
d="M255 389l265 409l-112 69l-311 -478l310 -478l116 71z" />
    <glyph glyph-name="_8066" unicode="&#x3009;" horiz-adv-x="570" 
d="M47 -18l116 -71l310 478l-311 478l-112 -69l265 -409z" />
    <glyph glyph-name="_8067" unicode="&#x300a;" horiz-adv-x="570" 
d="M167 389l200 438l-99 42l-223 -480l223 -478l98 42zM350 389l200 438l-99 42l-223 -480l223 -479l98 43z" />
    <glyph glyph-name="_8068" unicode="&#x300b;" horiz-adv-x="570" 
d="M205 -47l98 -42l223 478l-223 480l-99 -42l200 -438zM21 -47l98 -43l223 479l-223 480l-99 -42l200 -438z" />
    <glyph glyph-name="_8069" unicode="&#x300c;" horiz-adv-x="570" 
d="M172 222h141v519h207v120h-348v-639z" />
    <glyph glyph-name="_8070" unicode="&#x300d;" horiz-adv-x="570" 
d="M398 556h-141v-519h-207v-120h348v639z" />
    <glyph glyph-name="_8071" unicode="&#x300e;" horiz-adv-x="570" 
d="M520 688v173h-385v-655h200v482h185zM449 792v-36h-193v-485h-42v521h235z" />
    <glyph glyph-name="_8072" unicode="&#x300f;" horiz-adv-x="570" 
d="M50 90v-173h385v655h-200v-482h-185zM121 -15v36h193v486h42v-522h-235z" />
    <glyph glyph-name="_8073" unicode="&#x3010;" horiz-adv-x="570" 
d="M185 855v-932h335q-92 80 -145 199.5t-53 266.5q0 140 53 259t145 207h-335z" />
    <glyph glyph-name="_8074" unicode="&#x3011;" horiz-adv-x="570" 
d="M50 855q92 -88 145 -207t53 -259q0 -147 -53 -266.5t-145 -199.5h334v932h-334z" />
    <glyph glyph-name="_8700" unicode="&#x3012;" 
d="M158 672v40h644v-40h-644zM158 473v40h644v-40h-302v-421h-40v421h-302z" />
    <glyph glyph-name="_8075" unicode="&#x3013;" 
d="M881 797h-802v-327h802v327zM881 316h-802v-326h802v326z" />
    <glyph glyph-name="_8063" unicode="&#x3014;" horiz-adv-x="570" 
d="M466 -95l54 105l-161 86v584l161 85l-54 108l-243 -126v-716z" />
    <glyph glyph-name="_8064" unicode="&#x3015;" horiz-adv-x="570" 
d="M347 31v716l-242 126l-55 -108l162 -85v-584l-162 -86l55 -105z" />
    <glyph glyph-name="_8219" unicode="&#x3016;" horiz-adv-x="480" 
d="M196 845h239q-121 -211 -121 -460q0 -253 120 -459h-238v919zM368 805h-126v-839h126q-96 186 -96 419q0 225 96 420z" />
    <glyph glyph-name="_8220" unicode="&#x3017;" horiz-adv-x="480" 
d="M276 845v-919h-238q122 215 122 459q0 245 -123 460h239zM106 -34h124v839h-125q97 -205 97 -420q0 -227 -96 -419z" />
    <glyph glyph-name="_8221" unicode="&#x3018;" horiz-adv-x="480" 
d="M273 143l166 -116l-59 -102l-225 151v619l225 151l59 -102l-166 -116v-485zM365 -10l14 22l-151 104v539l151 104l-14 22l-165 -112v-567z" />
    <glyph glyph-name="_8222" unicode="&#x3019;" horiz-adv-x="480" 
d="M310 695v-619l-225 -151l-59 102l167 116v485l-167 116l59 102zM100 -10l165 112v567l-165 112l-14 -22l152 -104v-539l-152 -104z" />
    <glyph glyph-name="_8671" unicode="&#x3020;" 
d="M287 609l19 55l502 -185l-20 -54l-228 84l-63 -170l-52 19l62 170zM386 112q-49 18 -87.5 44t-64 58t-41.5 61.5t-29 65.5q-39 34 -55.5 77t-1.5 85q18 46 61 62.5t94 5.5l-10 -26q-40 8 -72.5 -4.5t-46.5 -46.5q-12 -34 1.5 -71t45.5 -64q55 -169 214 -227
q158 -59 310 34q43 1 77 20t46 53t-5 65t-52 51l10 26q45 -25 67 -65.5t6 -85.5q-15 -43 -56 -65t-94 -22q-153 -92 -317 -31zM315 688l20 55l502 -185l-21 -54zM425 214q-128 48 -141 185q-1 6 5 7.5t8 -4.5q31 -129 135 -167q103 -38 210 40q6 4 9.5 -1.5t-0.5 -9.5
q-101 -96 -226 -50zM300 495l-24 46l30 -41q6 4 8 4l-7 52l16 -50l11 -1l23 45l-15 -48l9 -6l45 27l-40 -34q4 -4 4 -8l51 11l-50 -19q2 -9 -1 -15q-5 -14 -18.5 -20.5t-27.5 -1.5t-20.5 18.5t-1.5 27.5q2 5 8 13zM639 371l-25 46l31 -41q1 0 3.5 2t4.5 2l-8 52l17 -50
l10 -1l21 46l-12 -49l8 -6l46 27l-40 -34l4 -8l51 11l-50 -19q0 -3 -0.5 -8t-1.5 -8q-5 -14 -19 -20t-27 -1q-14 5 -20.5 18.5t-0.5 27.5q3 8 8 13zM677 340q6 13 -8 18q-13 5 -18 -9q-6 -14 8 -17q13 -6 18 8zM313 474q-5 -14 8 -18q13 -5 18 8t-8 18q-14 5 -18 -8z" />
    <glyph glyph-name="_8701" unicode="&#x3036;" 
d="M481 790q167 0 283 -116t116 -283t-116 -283t-283 -116q-168 0 -284.5 116t-116.5 283t116.5 283t284.5 116zM481 755q-153 0 -259.5 -106t-106.5 -258t106.5 -258t259.5 -106q151 0 257.5 106.5t106.5 257.5t-106.5 257.5t-257.5 106.5zM224 559v39h512v-39h-512z
M224 398v40h512v-40h-236v-328h-40v328h-236z" />
    <glyph glyph-name="_851" unicode="&#x3041;" 
d="M351 153q-20 -7 -38 -7q-37 0 -37 45q0 49 49 90q10 -78 26 -128zM316 429q-84 -39 -134.5 -105.5t-50.5 -147.5q0 -68 47 -111.5t119 -43.5q110 0 202 81l31 -111q140 15 216.5 74.5t76.5 166.5q0 66 -37 118.5t-102 83.5q1 5 4.5 17.5t5.5 19.5l-139 21l-6 -24
q-24 2 -38 2q-26 0 -50 -3v42h296v126h-296v73h-145v-73h-152v-126h152v-80zM463 340q32 4 47 4q-21 -52 -43 -85q-2 27 -4 81zM642 312q36 -27 36 -83q0 -52 -41 -80.5t-130 -39.5q79 73 135 203z" />
    <glyph glyph-name="_852" unicode="&#x3042;" 
d="M337 170q-26 -11 -52 -11q-27 0 -42 17.5t-15 48.5q0 72 79 127q8 -108 30 -182zM301 509q-103 -45 -165 -124.5t-62 -176.5q0 -82 55 -132t136 -50q134 0 238 96l39 -131q164 17 254 87t90 196q0 79 -45.5 141.5t-125.5 98.5q8 26 11 40l-151 25q-3 -17 -7 -28
q-30 2 -48 2q-39 0 -70 -4v63h358v134h-358v86h-149v-86h-188v-134h188v-103zM454 413q33 6 67 6h7q-29 -78 -65 -133q-6 62 -9 127zM671 382q60 -40 60 -112q0 -123 -226 -147q99 91 166 259z" />
    <glyph glyph-name="_853" unicode="&#x3043;" 
d="M395 275q-9 -80 -20 -109.5t-27 -29.5q-43 0 -43 249q0 159 20 252h-145q-20 -91 -20 -254q0 -373 184 -373q64 0 110.5 53t67.5 165zM828 167q-1 112 -33.5 218t-91.5 229l-140 -39q119 -245 120 -433z" />
    <glyph glyph-name="_854" unicode="&#x3044;" 
d="M388 336q-20 -178 -66 -178q-67 0 -67 307q0 182 24 297h-154q-23 -118 -23 -299q0 -439 217 -439q71 0 124.5 62t77.5 194zM889 209q-1 131 -39.5 256.5t-107.5 268.5l-149 -41q141 -289 142 -510z" />
    <glyph glyph-name="_855" unicode="&#x3045;" 
d="M700 649q-220 20 -384 55l-19 -119q161 -34 378 -53zM352 -3q77 10 146.5 31t135 56t104.5 90.5t39 125.5q0 99 -59.5 149t-172.5 50q-156 0 -348 -71l37 -123q71 29 157 48.5t152 19.5q89 0 89 -73q0 -68 -87 -116.5t-248 -69.5z" />
    <glyph glyph-name="_856" unicode="&#x3046;" 
d="M714 771q-243 21 -452 64l-20 -134q194 -41 444 -61zM304 3q71 9 137.5 26t134 46.5t117 67.5t81 94.5t31.5 122.5q0 115 -71 174.5t-201 59.5q-92 0 -204 -23.5t-207 -59.5l39 -131q82 34 185.5 57t184.5 23q58 0 89.5 -26.5t31.5 -75.5q0 -78 -112 -140.5t-297 -85.5z
" />
    <glyph glyph-name="_857" unicode="&#x3047;" 
d="M384 114q67 68 119 68q35 0 41 -53l2 -18q12 -112 170 -112q73 0 120 11l-5 124q-45 -10 -85 -10q-35 0 -47 10t-15 39l-2 18q-11 103 -81 103q-21 0 -37 -9q83 73 125 107v120h-478v-126h268q-168 -137 -322 -297l112 -94q52 56 115 119zM286 591q174 -38 365 -48l7 121
q-170 12 -352 49z" />
    <glyph glyph-name="_858" unicode="&#x3048;" 
d="M708 222q-11 69 -31.5 96t-58.5 27q-34 0 -80 -31q106 95 183 159v128h-563v-134h321q-180 -162 -383 -373l120 -98q105 113 171 175q59 55 117 55q26 0 37.5 -13.5t16.5 -47.5l3 -19q12 -77 58 -111.5t135 -34.5q85 0 140 13l-6 133q-55 -14 -99 -14q-45 0 -58 14.5
t-20 56.5zM248 707q204 -44 429 -57l6 134q-183 11 -413 56z" />
    <glyph glyph-name="_859" unicode="&#x3049;" 
d="M860 499q-65 106 -160 193l-99 -76q92 -89 151 -191zM537 428q-30 0 -80 -4v64h137v126h-137v94h-145v-94h-148v-126h148v-101q-89 -37 -137.5 -99.5t-48.5 -132.5q0 -73 49 -118t123 -45q76 0 117.5 37t41.5 103v165q40 5 79 5q110 0 110 -78q0 -42 -43.5 -70.5
t-119.5 -39.5l42 -122q127 24 197 79.5t70 154.5q0 94 -71.5 148t-183.5 54zM312 249v-97q0 -38 -25 -38q-14 0 -23 10.5t-9 30.5q0 55 57 94z" />
    <glyph glyph-name="_860" unicode="&#x304a;" 
d="M925 580q-75 122 -187 226l-108 -81q108 -101 178 -225zM554 501q-58 0 -116 -8v88h181v134h-181v117h-153v-117h-170v-134h170v-130q-102 -43 -158.5 -116t-56.5 -153q0 -87 57 -140t142 -53q80 0 124.5 43t44.5 121v204q47 10 111 10q72 0 112 -29.5t40 -81.5
q0 -113 -208 -133l48 -134q154 25 233.5 88.5t79.5 178.5q0 112 -81.5 178.5t-218.5 66.5zM285 295v-123q0 -49 -26 -49q-18 0 -29.5 15.5t-11.5 43.5q0 63 67 113z" />
    <glyph glyph-name="_861" unicode="&#x304b;" 
d="M75 663v-134h146q-47 -257 -161 -468l147 -56q116 233 168 524h37q58 0 79.5 -18.5t21.5 -66.5q0 -178 -17 -242t-61 -64q-49 0 -103 19l-4 -134q64 -19 127 -19q49 0 81.5 10t59 37t41 78t22 129t7.5 193q0 114 -52.5 163t-175.5 49h-44q9 74 16 170h-153
q-7 -97 -16 -170h-166zM919 328q-15 219 -104 403l-138 -38q88 -179 96 -390z" />
    <glyph glyph-name="_862" unicode="&#x304c;" 
d="M73 663v-134h146q-47 -257 -161 -468l147 -56q116 233 168 524h37q58 0 79.5 -18.5t21.5 -66.5q0 -178 -17 -242t-61 -64q-49 0 -103 19l-4 -134q64 -19 127 -19q49 0 81.5 10t59 37t41 78t22 129t7.5 193q0 114 -52.5 163t-175.5 49h-44q9 74 16 170h-153
q-7 -97 -16 -170h-166zM690 624q58 -158 64 -321l146 25q-11 166 -74 334zM679 817q47 -69 68 -140l77 22q-18 69 -69 143zM797 850q47 -69 68 -140l78 22q-20 72 -69 143z" />
    <glyph glyph-name="_863" unicode="&#x304d;" 
d="M379 829q8 -56 13 -84h-248v-130h188q60 0 91 1q12 -42 22 -70q-78 -2 -113 -2h-193v-130h192q90 0 165 4q60 -124 134 -210l127 89q-53 63 -92 133q103 9 184 24l-10 129q-91 -17 -233 -29q-13 32 -24 68q124 7 190 17l-8 131q-80 -13 -216 -20q-9 45 -15 90zM262 372
q-51 -29 -84 -79.5t-33 -108.5q0 -194 330 -194q153 0 295 30v137q-130 -33 -291 -33q-180 0 -180 79q0 47 53 93z" />
    </font>
</defs>
</svg>
